<svg width="270" height="43" viewBox="0 0 270 43" fill="none" xmlns="http://www.w3.org/2000/svg">
<g filter="url(#filter0_d_1_326)">
<path d="M3.52137 22.8077V2.78664L0.652006 2.49648V0.562078H10.2595V2.49648L7.51913 2.78664V22.8077L10.453 23.3235V25H0.619766V23.3235L3.52137 22.8077ZM22.8878 6.84888C23.5541 6.84888 24.2204 6.9241 24.8867 7.07456C25.5745 7.20352 26.1225 7.37547 26.5309 7.5904L28.562 6.97784L29.2391 7.33248V30.9644L31.3347 31.319V33.06H22.1463V31.319L25.2735 30.9966V25.7415L25.4025 23.4847C24.8867 24.0006 24.1989 24.4519 23.3391 24.8388C22.4794 25.2257 21.5122 25.4191 20.4375 25.4191C19.1909 25.4191 18.0195 25.1397 16.9234 24.5809C15.8487 24.0221 14.9567 23.0656 14.2475 21.7115C13.5382 20.3574 13.1835 18.5735 13.1835 16.3597C13.1835 14.5757 13.6027 12.9637 14.4409 11.5237C15.2791 10.0621 16.429 8.92298 17.8906 8.10624C19.3736 7.268 21.0394 6.84888 22.8878 6.84888ZM22.5009 8.81552C20.8029 8.81552 19.4918 9.43882 18.5676 10.6854C17.6649 11.9321 17.2135 13.7375 17.2135 16.1018C17.2135 18.2081 17.6112 19.8631 18.4064 21.0667C19.2017 22.2703 20.3301 22.8722 21.7916 22.8722C22.5654 22.8722 23.2424 22.7647 23.8227 22.5498C24.4246 22.3133 24.9082 22.0232 25.2735 21.6793V9.91168C24.7147 9.1809 23.7905 8.81552 22.5009 8.81552ZM35.8505 23.0011V11.1046L33.626 9.78272V8.42864L38.3975 7.01008L39.3002 7.30024V9.97616C39.6441 9.26688 40.3426 8.60059 41.3958 7.97728C42.4705 7.33248 43.4592 7.01008 44.3619 7.01008C45.1786 7.01008 45.7052 7.05306 45.9417 7.13904V11.0078C45.1679 10.621 44.2437 10.4275 43.169 10.4275C41.8364 10.4275 40.7295 10.7177 39.8483 11.298V22.9366L44.0073 23.3558V25H33.5293V23.3558L35.8505 23.0011ZM56.9357 6.84888C59.6009 6.84888 61.632 7.66563 63.0291 9.29912C64.4262 10.9111 65.1247 13.0712 65.1247 15.7794C65.1247 17.6708 64.7486 19.3473 63.9963 20.8088C63.244 22.2489 62.2124 23.3773 60.9013 24.194C59.5902 24.9893 58.1071 25.3869 56.4521 25.3869C53.6795 25.3869 51.5839 24.5379 50.1653 22.8399C48.7468 21.1205 48.0375 18.8851 48.0375 16.134C48.0375 14.2426 48.4351 12.5983 49.2304 11.2013C50.0256 9.80421 51.0896 8.72955 52.4221 7.97728C53.7762 7.22501 55.2808 6.84888 56.9357 6.84888ZM56.6133 8.78328C53.7117 8.78328 52.2609 11.0831 52.2609 15.6826C52.2609 17.789 52.6263 19.5944 53.3571 21.099C54.0879 22.6035 55.1733 23.3665 56.6133 23.388C58.1824 23.4095 59.2893 22.7862 59.9341 21.5181C60.6004 20.25 60.9335 18.4338 60.9335 16.0695C60.9335 13.8987 60.5789 12.147 59.8696 10.8144C59.1818 9.46032 58.0964 8.78328 56.6133 8.78328ZM83.6995 10.7499V13.587H69.3849V10.7499H83.6995ZM99.5653 0.336397C101.672 0.336397 103.52 0.852238 105.111 1.88392C106.701 2.9156 107.926 4.33416 108.786 6.1396C109.646 7.94504 110.076 9.9869 110.076 12.2652C110.076 14.522 109.71 16.5531 108.979 18.3586C108.249 20.164 107.217 21.647 105.884 22.8077C104.573 23.9683 103.037 24.7528 101.274 25.1612C102.005 26.8162 103.789 27.6437 106.626 27.6437C107.722 27.6437 108.679 27.4395 109.495 27.0311L109.689 29.5136C109.366 29.9005 108.85 30.2121 108.141 30.4486C107.432 30.685 106.647 30.8032 105.788 30.8032C102.241 30.8032 100.049 29.0193 99.2107 25.4514H98.8883C96.7175 25.4514 94.7938 24.9463 93.1173 23.9361C91.4409 22.9044 90.1405 21.4966 89.2163 19.7126C88.3136 17.9072 87.8622 15.8976 87.8622 13.6838C87.8622 10.9111 88.4103 8.48237 89.5065 6.39752C90.6241 4.31266 92.1286 2.7544 94.0201 1.72272C95.718 0.798504 97.5665 0.336397 99.5653 0.336397ZM99.0495 2.33528C96.8142 2.33528 95.1162 3.30248 93.9556 5.23688C92.8164 7.14978 92.2469 9.78272 92.2469 13.1357C92.2469 14.8981 92.5155 16.5746 93.0529 18.1651C93.6117 19.7341 94.4069 21.013 95.4386 22.0017C96.4703 22.9689 97.6954 23.4525 99.114 23.4525C101.306 23.4525 102.94 22.5068 104.014 20.6154C105.089 18.7025 105.626 16.0373 105.626 12.6198C105.626 10.8359 105.369 9.15941 104.853 7.5904C104.358 6.02138 103.617 4.75328 102.628 3.78608C101.639 2.81888 100.447 2.33528 99.0495 2.33528ZM112.674 9.55704V8.074L117.446 7.01008L118.09 7.30024V18.1651C118.09 19.8416 118.295 21.0452 118.703 21.776C119.133 22.4853 119.939 22.8399 121.121 22.8399C121.809 22.8399 122.518 22.6895 123.249 22.3886C124.001 22.0877 124.549 21.776 124.893 21.4536V10.4275L122.926 9.71824V8.10624L128.182 7.01008L128.762 7.268V23.3558H130.632V24.7743C130.309 24.9678 129.783 25.1397 129.052 25.2902C128.321 25.4406 127.687 25.5158 127.15 25.5158C126.57 25.5158 126.108 25.3869 125.764 25.129C125.441 24.8925 125.28 24.5271 125.28 24.0328V22.9689C124.528 23.6997 123.647 24.28 122.636 24.7098C121.626 25.1397 120.659 25.3546 119.735 25.3546C118.187 25.3546 117.016 25.0752 116.221 24.5164C115.447 23.9361 114.931 23.1408 114.673 22.1306C114.415 21.1205 114.275 19.7879 114.254 18.1329V10.2663L112.674 9.55704ZM135.719 23.0011V11.1046L133.494 9.78272V8.42864L138.266 7.01008L139.169 7.30024V9.97616C139.513 9.26688 140.211 8.60059 141.264 7.97728C142.339 7.33248 143.328 7.01008 144.23 7.01008C145.047 7.01008 145.574 7.05306 145.81 7.13904V11.0078C145.036 10.621 144.112 10.4275 143.037 10.4275C141.705 10.4275 140.598 10.7177 139.717 11.298V22.9366L143.876 23.3558V25H133.398V23.3558L135.719 23.0011ZM155.708 7.01008C157.793 7.01008 159.405 7.47218 160.544 8.3964C161.683 9.32061 162.253 10.8681 162.253 13.039V23.3558H164.252V24.6454C163.865 24.8818 163.36 25.0645 162.736 25.1934C162.113 25.3439 161.5 25.4191 160.899 25.4191C160.125 25.4191 159.566 25.2687 159.222 24.9678C158.878 24.6454 158.696 24.1295 158.674 23.4202C157.492 24.7528 155.826 25.4191 153.677 25.4191C152.581 25.4191 151.603 25.2149 150.743 24.8066C149.883 24.3767 149.217 23.7856 148.744 23.0334C148.271 22.2811 148.035 21.4321 148.035 20.4864C148.035 19.0678 148.561 17.8965 149.615 16.9722C150.668 16.048 151.979 15.3817 153.548 14.9734C155.117 14.5435 156.697 14.3286 158.287 14.3286V13.3614C158.287 11.8998 157.954 10.8789 157.288 10.2986C156.621 9.71824 155.633 9.42808 154.322 9.42808C153.612 9.42808 152.806 9.54629 151.904 9.78272C151.001 10.0191 150.216 10.3201 149.55 10.6854L148.809 8.91224C149.539 8.31043 150.582 7.84832 151.936 7.52592C153.312 7.18202 154.569 7.01008 155.708 7.01008ZM158.287 16.263C156.675 16.263 155.224 16.5531 153.935 17.1334C152.667 17.7138 152.033 18.638 152.033 19.9061C152.033 21.9909 153.14 23.0334 155.353 23.0334C155.869 23.0334 156.396 22.9259 156.933 22.711C157.492 22.496 157.933 22.2381 158.255 21.9372L158.287 16.263ZM168.934 23.0334V11.1046L166.742 9.78272V8.42864L171.546 7.01008L172.416 7.30024V9.58928C173.233 8.85851 174.265 8.24594 175.511 7.7516C176.779 7.25725 177.961 7.01008 179.058 7.01008C180.906 7.01008 182.196 7.5904 182.926 8.75104C183.679 9.91168 184.055 11.7601 184.055 14.2963V23.0334L186.441 23.3558V25H177.736V23.3558L180.089 23.0011V14.9089C180.089 13.6408 180.003 12.6521 179.831 11.9428C179.659 11.212 179.337 10.6747 178.864 10.3308C178.391 9.98691 177.704 9.81496 176.801 9.81496C176.242 9.81496 175.597 9.92243 174.866 10.1374C174.157 10.3523 173.512 10.6747 172.932 11.1046V23.0011L175.124 23.3558V25H166.871V23.3558L168.934 23.0334ZM196.725 22.8077L204.753 0.562078H208.364L216.069 22.8077L218.551 23.3558V25H209.331V23.3558L211.749 22.8077L210.459 18.7132H201.367L200.013 22.7754L202.528 23.3235V25H194.533V23.3235L196.725 22.8077ZM207.364 9.00896L205.978 4.39864L202.077 16.4564H209.718L207.364 9.00896ZM231.159 6.84888C233.266 6.84888 234.953 7.5904 236.221 9.07344C237.511 10.5565 238.156 12.7381 238.156 15.6182C238.156 17.4021 237.747 19.0463 236.93 20.5509C236.135 22.0339 235.028 23.2053 233.61 24.065C232.213 24.9248 230.633 25.3546 228.87 25.3546C228.054 25.3546 227.151 25.2364 226.162 25L226.291 28.6109V31.0289L229.451 31.3835V33.06H220.23V31.3835L222.358 30.9966V11.1046L220.166 9.78272V8.42864L224.937 7.01008L225.775 7.30024V9.23464C226.227 8.61133 226.958 8.06325 227.968 7.5904C228.999 7.09605 230.063 6.84888 231.159 6.84888ZM229.515 9.2024C228.827 9.2024 228.204 9.35285 227.645 9.65376C227.086 9.95467 226.624 10.2878 226.259 10.6532L226.291 22.0339C226.506 22.4208 226.893 22.7325 227.452 22.9689C228.032 23.1838 228.698 23.2913 229.451 23.2913C230.332 23.2913 231.138 23.0119 231.869 22.453C232.6 21.8727 233.169 21.0345 233.577 19.9383C234.007 18.8422 234.222 17.5311 234.222 16.005C234.222 13.8127 233.782 12.1362 232.9 10.9756C232.019 9.79347 230.891 9.2024 229.515 9.2024ZM252.16 6.84888C254.266 6.84888 255.953 7.5904 257.221 9.07344C258.511 10.5565 259.156 12.7381 259.156 15.6182C259.156 17.4021 258.747 19.0463 257.93 20.5509C257.135 22.0339 256.028 23.2053 254.61 24.065C253.213 24.9248 251.633 25.3546 249.87 25.3546C249.054 25.3546 248.151 25.2364 247.162 25L247.291 28.6109V31.0289L250.451 31.3835V33.06H241.23V31.3835L243.358 30.9966V11.1046L241.166 9.78272V8.42864L245.937 7.01008L246.775 7.30024V9.23464C247.227 8.61133 247.958 8.06325 248.968 7.5904C249.999 7.09605 251.063 6.84888 252.16 6.84888ZM250.515 9.2024C249.828 9.2024 249.204 9.35285 248.645 9.65376C248.087 9.95467 247.624 10.2878 247.259 10.6532L247.291 22.0339C247.506 22.4208 247.893 22.7325 248.452 22.9689C249.032 23.1838 249.699 23.2913 250.451 23.2913C251.332 23.2913 252.138 23.0119 252.869 22.453C253.6 21.8727 254.169 21.0345 254.578 19.9383C255.007 18.8422 255.222 17.5311 255.222 16.005C255.222 13.8127 254.782 12.1362 253.9 10.9756C253.019 9.79347 251.891 9.2024 250.515 9.2024Z" fill="#272727"/>
</g>
<defs>
<filter id="filter0_d_1_326" x="0.619766" y="0.336426" width="268.456" height="42.6436" filterUnits="userSpaceOnUse" color-interpolation-filters="sRGB">
<feFlood flood-opacity="0" result="BackgroundImageFix"/>
<feColorMatrix in="SourceAlpha" type="matrix" values="0 0 0 0 0 0 0 0 0 0 0 0 0 0 0 0 0 0 127 0" result="hardAlpha"/>
<feOffset dx="4.96" dy="4.96"/>
<feGaussianBlur stdDeviation="2.48"/>
<feComposite in2="hardAlpha" operator="out"/>
<feColorMatrix type="matrix" values="0 0 0 0 0 0 0 0 0 0 0 0 0 0 0 0 0 0 0.25 0"/>
<feBlend mode="normal" in2="BackgroundImageFix" result="effect1_dropShadow_1_326"/>
<feBlend mode="normal" in="SourceGraphic" in2="effect1_dropShadow_1_326" result="shape"/>
</filter>
</defs>
</svg>
