<svg width="674" height="634" viewBox="0 0 674 634" fill="none" xmlns="http://www.w3.org/2000/svg">
<path d="M333.202 0.737509C323.068 2.20418 311.602 5.53752 302.002 9.93752L291.468 14.7375L282.002 12.6042C270.268 9.93748 251.868 9.93748 240.535 12.6042C228.002 15.5375 214.402 22.6042 201.068 33.4042C190.002 42.3376 188.802 42.8709 180.535 43.8042C168.135 45.2709 153.602 49.6709 144.802 54.6042C140.668 57.0042 132.668 63.5375 127.068 69.0042C116.535 79.5375 109.602 90.0709 104.402 103.404L101.335 111.271L91.2017 115.004C58.535 127.271 37.735 155.404 35.6017 190.471L34.8017 201.804L25.6017 211.404C14.4017 223.004 7.86835 236.204 4.80168 253.004C2.40168 267.004 4.00168 283.804 9.20168 298.071L12.535 307.404L9.06835 314.604C1.06835 331.138 -1.33165 344.071 0.668347 359.671C2.40168 374.204 6.26835 384.604 14.6683 397.271L21.8683 408.338L22.4017 421.671C23.2017 443.938 30.535 460.204 46.935 477.004C52.0017 482.204 56.2683 488.071 57.4683 491.138C61.4683 502.471 69.2017 514.071 79.735 524.471C88.535 533.138 92.935 536.338 103.202 541.404C112.935 546.071 116.402 548.471 118.402 551.938C127.468 567.804 140.402 579.538 158.402 587.804C172.002 594.204 185.202 597.004 205.868 597.671L222.135 598.204L226.135 603.004C231.735 609.804 246.135 620.471 256.135 625.271C277.468 635.404 310.002 635.671 334.802 625.938C340.002 623.938 343.602 623.271 344.668 623.938C345.735 624.604 351.335 626.738 357.202 628.604C366.135 631.538 370.402 632.204 383.202 632.204C400.268 632.338 410.535 630.204 424.268 623.804C434.402 619.004 450.268 608.204 456.535 601.804L461.068 597.138L471.202 597.938C491.868 599.538 519.468 590.071 535.468 575.804C543.735 568.471 557.068 549.671 561.335 539.404C563.602 533.804 564.535 532.871 570.535 531.004C581.202 527.538 596.668 519.004 604.135 512.471C619.735 498.871 630.268 476.471 632.135 453.671L632.935 442.204L640.668 435.404C662.802 415.938 671.335 388.471 665.202 356.338L663.202 346.071L668.268 333.938C673.202 321.938 673.202 321.538 673.202 303.804C673.068 287.404 672.802 284.871 669.335 275.804C664.668 263.271 658.135 251.404 651.068 242.471C645.735 235.671 645.735 235.671 647.068 229.004C653.602 198.738 636.935 162.871 607.202 143.138L598.002 137.004L594.668 126.071C585.202 95.2709 557.468 72.8709 519.602 65.6709L507.202 63.2709L502.402 55.9376C490.535 38.0709 471.335 25.0042 449.068 19.6709C438.935 17.2709 434.668 16.8709 419.202 17.5375L401.202 18.2042L386.535 11.0042C367.735 1.80417 350.268 -1.66249 333.202 0.737509ZM278.135 25.6709C295.068 29.0042 311.068 37.6709 326.935 52.3375C334.935 59.9375 351.202 80.0709 351.202 82.6042C351.202 83.2709 344.402 83.8042 335.468 83.8042L322.5 83.5L335.647 83.8041C335.5 83.5 325.3 83.5 322.5 83.5C319.567 83.5 322 83.5 316.5 84.0709L313.602 84.7375L301.602 86.2042L289.602 87.6709L286.002 84.0709C270.002 68.2042 237.868 50.4709 216.935 46.0709C213.068 45.2709 209.868 44.2042 209.868 43.8042C209.868 42.8709 221.602 35.1375 228.268 31.8042C236.668 27.6709 252.002 23.9376 260.802 23.9376C264.935 23.8042 272.668 24.6042 278.135 25.6709ZM449.868 33.8042C458.402 36.3375 472.002 43.5375 479.202 49.2709C486.135 54.8709 495.735 69.2709 500.002 80.4709C504.135 91.5376 507.202 109.138 507.068 121.138C507.068 130.071 505.468 141.938 504.268 143.271C503.868 143.671 499.335 140.871 494.402 137.004C482.402 127.938 469.868 119.938 458.135 113.804L448.668 109.004L447.202 101.404C442.802 79.4042 432.802 55.5375 421.335 40.0709C418.002 35.5375 415.202 31.4042 415.202 30.8709C415.202 29.4042 442.402 31.6709 449.868 33.8042ZM160.535 124.338C166.002 125.404 174.135 127.404 178.402 128.738L186.402 131.138L175.068 140.071C168.802 144.871 158.268 154.738 151.602 161.671L139.468 174.471L120.935 175.138C94.6684 175.938 78.2684 179.404 58.8017 188.204C53.8684 190.338 49.4683 191.938 49.0683 191.538C47.735 190.071 52.935 171.004 56.8017 162.738C72.8017 129.938 113.068 115.004 160.535 124.338ZM378.002 132.871C448.935 147.538 507.868 197.804 529.202 261.804C538.002 288.071 540.668 322.871 535.868 349.804C523.068 422.071 465.735 481.804 390.668 501.138C351.468 511.138 307.335 509.671 269.202 497.004C230.535 484.071 194.135 458.204 170.535 426.604C155.335 406.338 142.535 378.338 137.068 353.138C133.468 337.004 133.468 297.271 137.068 281.138C154.002 203.138 218.402 144.871 302.668 131.138C319.602 128.338 360.802 129.404 378.002 132.871ZM613.602 166.204C623.868 176.604 630.268 188.204 633.202 202.071C635.868 214.204 635.735 218.738 632.402 230.471C626.668 251.671 612.668 272.738 594.402 288.204C585.868 295.271 585.202 295.671 584.802 292.871C583.468 281.938 578.268 259.671 574.402 247.938L569.868 234.204L577.735 221.671C590.268 201.804 599.202 175.938 599.202 159.804C599.202 154.738 599.468 154.471 601.868 155.804C603.335 156.604 608.535 161.271 613.602 166.204ZM92.0017 280.604C90.8017 287.804 89.6017 299.538 89.0684 306.471L88.135 319.138L78.8017 325.804C58.4017 340.204 38.535 363.404 30.4017 382.204C26.2683 391.804 25.2017 391.671 20.535 380.738C13.6017 364.871 12.135 349.804 15.8683 335.138C21.0683 315.271 37.8683 295.404 61.2017 281.538C68.935 276.871 92.8017 266.204 93.6017 267.004C93.735 267.271 93.0684 273.404 92.0017 280.604ZM652.802 385.804C650.668 400.471 644.935 411.404 633.202 423.271C616.135 440.471 591.202 449.938 558.668 451.404C544.135 452.071 541.602 451.938 542.535 450.338C543.202 449.271 546.535 444.204 550.002 439.138C553.335 433.938 559.335 423.671 563.068 416.071C568.535 405.271 570.535 402.471 572.668 402.471C577.202 402.471 602.135 393.671 612.802 388.338C626.268 381.538 638.802 373.138 645.868 365.804L651.868 359.671L653.068 367.404C653.868 372.471 653.735 378.738 652.802 385.804ZM104.535 398.071C106.268 402.338 111.202 412.871 115.602 421.404L123.468 437.004L118.802 448.071C109.735 469.271 107.868 478.871 107.868 505.271V528.738L104.535 526.738C68.4017 504.204 58.2684 469.404 75.735 427.804C81.6017 414.071 97.2017 390.471 100.535 390.471C101.068 390.471 102.935 393.938 104.535 398.071ZM222.668 524.338C235.602 530.738 255.335 538.338 268.002 541.804L276.002 544.071L281.468 555.671C289.868 573.404 301.468 589.804 314.935 602.738L326.802 614.204L318.668 616.604C307.202 620.071 282.535 620.071 272.535 616.738C257.602 611.671 250.802 607.538 239.735 596.604C227.335 584.338 220.268 571.671 214.535 551.404C211.468 540.604 208.535 518.471 210.135 518.471C210.535 518.471 216.268 521.138 222.668 524.338ZM471.868 523.271C487.468 530.071 508.935 534.738 528.935 535.404C538.935 535.804 547.202 536.471 547.202 537.004C547.202 540.204 537.202 554.071 529.335 561.804C512.268 578.604 496.135 584.604 470.535 583.404C456.135 582.738 448.002 580.738 432.002 573.804C420.002 568.738 390.668 548.471 391.868 546.338C392.268 545.804 395.068 545.004 398.268 544.471C408.135 542.871 435.468 533.271 448.535 526.604C455.468 523.138 461.868 520.204 462.668 520.071C463.468 519.938 467.735 521.404 471.868 523.271Z" fill="#34568B"/>
</svg>
