<svg width="34" height="34" viewBox="0 0 34 34" fill="none" xmlns="http://www.w3.org/2000/svg">
<g id="icon-Search" opacity="0.4">
<path id="Vector" d="M26.775 28.7583L18.8417 20.825C18.1333 21.3917 17.3188 21.8403 16.3979 22.1708C15.4771 22.5014 14.4972 22.6667 13.4583 22.6667C10.8847 22.6667 8.70683 21.7751 6.92467 19.992C5.1425 18.2089 4.25094 16.031 4.25 13.4583C4.25 10.8847 5.14156 8.70683 6.92467 6.92467C8.70778 5.1425 10.8857 4.25094 13.4583 4.25C16.0319 4.25 18.2098 5.14156 19.992 6.92467C21.7742 8.70778 22.6657 10.8857 22.6667 13.4583C22.6667 14.4972 22.5014 15.4771 22.1708 16.3979C21.8403 17.3188 21.3917 18.1333 20.825 18.8417L28.7938 26.8104C29.0535 27.0701 29.1833 27.3889 29.1833 27.7667C29.1833 28.1444 29.0417 28.475 28.7583 28.7583C28.4986 29.0181 28.1681 29.1479 27.7667 29.1479C27.3653 29.1479 27.0347 29.0181 26.775 28.7583ZM13.4583 19.8333C15.2292 19.8333 16.7346 19.2133 17.9747 17.9733C19.2147 16.7332 19.8343 15.2282 19.8333 13.4583C19.8333 11.6875 19.2133 10.1821 17.9733 8.942C16.7332 7.70194 15.2282 7.08239 13.4583 7.08333C11.6875 7.08333 10.1821 7.70336 8.942 8.94342C7.70194 10.1835 7.08239 11.6884 7.08333 13.4583C7.08333 15.2292 7.70336 16.7346 8.94342 17.9747C10.1835 19.2147 11.6884 19.8343 13.4583 19.8333Z" fill="#272727"/>
</g>
</svg>
