<svg xmlns="http://www.w3.org/2000/svg" xmlns:xlink="http://www.w3.org/1999/xlink" version="1.1" width="595.2756pt" height="841.8898pt" viewBox="0 0 595.2756 841.8898">
<g id="layer_1" data-name="">
<path transform="matrix(1,0,0,-1,0,841.8898)" d="M371.7456 384.8615C367.8137 377.86 334.9449 371.0526 324.7946 367.3695 301.1185 358.7794 289.8468 347.5843 272.7791 330.9386 271.1614 329.3612 270.4555 328.2296 268.611 326.8123 255.3627 316.633 233.1556 317.7859 242.4368 350.0444 246.1297 362.88 249.2045 363.9841 253.5092 371.0792 245.9886 365.269 235.624 345.5878 237.8764 330.5815 240.1756 315.2642 255.7814 304.0447 270.7211 314.9147 281.7618 322.9475 284.269 328.1513 292.7682 335.3791 295.4769 337.6828 297.7951 339.9157 300.6502 342.1409 311.836 350.8591 325.2866 354.71 340.6365 359.2987 360.75 365.3113 370.0664 365.3932 374.4102 382.6811 376.5447 391.1751 376.6924 398.6714 373.752 406.8819 368.8637 420.5319 355.5717 437.8323 342.7163 425.6306 340.2147 423.256 338.5003 421.308 336.9132 417.2411 331.7545 404.0226 333.8371 393.1053 351.726 393.4188 355.6956 393.4885 361.2569 393.8522 364.6613 392.4145 367.4537 391.235 370.7286 387.8104 371.7456 384.8615ZM340.8534 409.7744C344.8809 407.3678 354.1141 407.503 359.437 407.9843 358.4299 410.0499 353.5336 414.2577 351.0884 415.0483 346.2642 416.6073 341.5516 413.0838 340.8534 409.7744" fill="#478779" fill-rule="evenodd"/>
<path transform="matrix(1,0,0,-1,0,841.8898)" d="M375.7561 335.6549C402.3309 360.2877 392.7331 412.6181 389.4554 446.5125 387.8753 462.8492 385.8228 472.8183 391.314 487.4346 392.7813 491.3402 394.7474 494.6119 396.1414 498.1462 392.9916 496.2949 387.6829 489.5209 385.1654 485.24 374.1902 466.575 379.3813 443.4718 381.3797 421.467 383.2537 400.8351 386.8223 373.2262 382.1176 353.4749 379.5956 342.8881 376.9892 339.9897 375.7561 335.6549" fill="#478779" fill-rule="evenodd"/>
<path transform="matrix(1,0,0,-1,0,841.8898)" d="M310.7557 368.7885C313.1263 370.442 316.7076 375.2889 318.6544 378.3688 320.9125 381.9419 322.7961 386.0087 324.3192 390.2828 336.3625 424.0763 320.0953 487.6254 323.2035 508.7421 323.8277 512.985 324.955 516.7709 326.3842 520.6102 327.8276 524.4866 329.9533 527.8708 331.1972 531.3059 322.5353 525.1487 315.678 511.9526 314.0286 500.2072 312.2422 487.4862 315.235 467.7517 316.3938 454.6568 318.1884 434.3794 321.9403 406.0134 317.1796 386.6774 315.3515 379.2526 313.0676 374.9479 310.7557 368.7885" fill="#478779" fill-rule="evenodd"/>
<path transform="matrix(1,0,0,-1,0,841.8898)" d="M295.5104 514.614C293.1009 512.7763 290.065 509.2892 289.6727 504.826 301.3481 517.837 310.0277 514.7745 312.0273 518.6418 312.4681 519.4942 313.1756 521.4489 313.4543 522.428 310.032 521.8472 306.6647 519.2079 303.6756 518.6557 299.9852 517.9737 295.0393 520.5186 293.3631 522.4703 293.7246 522.8257 293.4794 522.7206 294.2447 523.1908L298.8876 524.3604C301.5873 524.2116 301.7353 522.3161 302.7523 520.4228 306.3214 530.4974 301.9294 532.4907 294.5962 526.7934 282.6119 517.4821 293.1559 516.3276 295.5104 514.614" fill="#478779" fill-rule="evenodd"/>
<path transform="matrix(1,0,0,-1,0,841.8898)" d="M396.7509 333.1882C394.3417 331.3508 391.3058 327.8633 390.9135 323.4005 402.5889 336.4115 411.2685 333.3489 413.2681 337.2163 413.7086 338.0686 414.4164 340.0234 414.6951 341.0025 411.2728 340.4217 407.9055 337.7823 404.9164 337.2299 401.2257 336.5481 396.2801 339.0931 394.6037 341.0444 394.9654 341.4002 394.7202 341.295 395.4855 341.7653L400.1284 342.9349C402.8281 342.786 402.9761 340.8905 403.9931 338.9973 407.5622 349.0716 403.17 351.0652 395.8367 345.3678 383.8527 336.0566 394.3967 334.902 396.7509 333.1882" fill="#478779" fill-rule="evenodd"/>
<path transform="matrix(1,0,0,-1,0,841.8898)" d="M353.8553 452.4489C355.5394 450.9062 357.4939 449.4557 359.2256 448.0449 361.2467 446.398 362.9242 444.6825 364.915 443.5693 367.8129 445.9144 369.921 450.5224 372.7397 453.081L370.2878 455.6812C368.3625 457.2748 363.6615 461.4313 361.7405 462.1938 359.8115 459.3662 355.1142 455.0054 353.8553 452.4489" fill="#478779" fill-rule="evenodd"/>
<path transform="matrix(1,0,0,-1,0,841.8898)" d="M334.0837 452.7618C335.0092 451.457 343.7022 444.1742 345.4773 443.4483 347.1381 446.4207 351.9125 450.9964 352.9015 453.9801 351.1531 454.9144 349.1969 456.6591 347.6509 457.9963 346.235 459.2211 343.9406 461.287 342.4445 462.1209Z" fill="#478779" fill-rule="evenodd"/>
<path transform="matrix(1,0,0,-1,0,841.8898)" d="M303.9559 331.3259C303.8817 331.3587 303.8278 331.3837 303.7864 331.4004 303.1492 331.6856 302.6032 331.8265 302.1523 331.8265 300.9402 331.8265 300.0671 331.2677 299.5336 330.1551 298.9998 329.038 298.7351 327.2176 298.7351 324.69 298.7351 321.7898 299.55 319.8577 301.18 318.8982H301.0601C300.2037 319.1545 299.5543 319.7999 299.1076 320.83 298.6605 321.8644 298.4372 323.2295 298.4372 324.9258 298.4372 327.4577 298.7144 329.2821 299.2728 330.3989 299.8273 331.5161 300.7414 332.0745 302.0074 332.0745 302.7728 332.0745 303.4222 331.8554 303.9559 331.4126ZM305.4951 318.8982C306.2231 318.1493 307.0962 317.7768 308.1138 317.7768 308.664 317.7768 309.2763 317.9302 309.9549 318.2403L310.0416 318.1949C309.6609 317.6694 309.3508 317.1895 309.1068 316.7634L308.209 315.15 308.1634 315.0547C306.8271 315.2863 305.6686 316.002 304.6842 317.1977 303.8528 316.8048 303.0129 316.6104 302.1729 316.6104 300.8242 316.6104 299.7488 316.9661 298.9502 317.6734L298.9998 317.7564C300.0796 317.2226 301.085 316.9579 302.0034 316.9579 302.9012 316.9579 303.7201 317.1192 304.4648 317.4418 304.4319 317.4917 304.4069 317.5245 304.3905 317.5495 304.2788 317.7354 304.1711 317.8763 304.0637 317.9755 303.3108 317.6943 302.5372 317.5534 301.7344 317.5534 299.8108 317.5534 298.2138 318.3273 296.9436 319.8745 295.6737 321.4216 295.0364 323.3619 295.0364 325.6951 295.0364 328.0907 295.6572 330.0307 296.8982 331.5161 298.1395 332.9972 299.7694 333.7376 301.7923 333.7376 303.7575 333.7376 305.3378 333.0054 306.5417 331.545 307.7413 330.0846 308.3414 328.1567 308.3414 325.7654 308.3414 324.3135 308.1345 323.0683 307.7167 322.0421 307.3028 321.012 306.5956 319.9986 305.6026 319.0056ZM304.8661 320.7144C305.4124 321.8933 305.6854 323.6102 305.6854 325.8649 305.6854 330.4692 304.3242 332.7695 301.602 332.7695 298.9463 332.7695 297.618 330.3493 297.618 325.5131 297.618 323.3412 297.9862 321.6368 298.7226 320.3997 299.4548 319.163 300.4642 318.5464 301.7509 318.5464 302.2929 318.5464 302.8184 318.6624 303.3272 318.8982 302.8473 319.7874 302.2143 320.2345 301.4243 320.2345 301.3662 320.2345 301.271 320.226 301.1304 320.2053L301.9785 321.2478C302.5701 321.0783 303.2858 320.6563 304.1257 319.9861L304.2703 319.8662C304.3698 319.9861 304.4815 320.1392 304.6096 320.3254L304.6717 320.4122C304.1297 320.9377 303.4222 321.3513 302.5494 321.6614L302.7189 321.9386C303.4222 321.6739 304.0843 321.306 304.7091 320.8343ZM305.8342 332.8812C306.9553 332.4138 307.8448 331.5285 308.5109 330.2294 309.1771 328.9346 309.5079 327.4245 309.5079 325.6994 309.5079 323.1221 308.755 320.9046 307.2532 319.0552 307.7124 318.6581 308.4282 318.4183 309.3962 318.3395V318.2652C309.09 318.2196 308.8624 318.1989 308.7054 318.1989 307.9896 318.1989 307.336 318.4637 306.7569 318.9932 308.3743 320.6356 309.1853 322.882 309.1853 325.7365 309.1853 328.8518 308.0682 331.2099 305.8342 332.8109ZM310.9476 317.6362C310.2939 316.7799 309.6777 315.8079 309.0943 314.7279L309.024 314.5915 308.73 314.7403C309.0073 315.2863 309.3177 315.8161 309.6652 316.3249L310.6083 317.7065 310.6706 317.8057ZM324.7736 333.4646 322.6059 331.727V323.8914C322.6059 322.4517 322.5603 321.4134 322.4653 320.7847 322.3743 320.1514 322.1881 319.6344 321.9148 319.229 321.2201 318.1949 319.8713 317.6776 317.8689 317.6776 315.7509 317.6776 314.274 318.1949 313.4341 319.229 312.764 320.0482 312.4287 321.6121 312.4287 323.9289V331.9835L310.7823 333.4646H316.5077L314.8614 331.8511V323.9164L314.8863 322.0464C314.8863 320.8382 315.1344 319.9861 315.635 319.4773 316.1356 318.9725 316.9794 318.7202 318.1669 318.7202 319.47 318.7202 320.3719 319.1049 320.8643 319.8745 321.2572 320.495 321.4559 321.8312 321.4559 323.879L321.5052 331.727 319.6191 333.4646ZM325.1957 332.6372 323.5493 331.2677V323.7344C323.5493 321.2685 323.3546 319.6636 322.9699 318.9104 322.1796 317.3922 320.6324 316.635 318.3364 316.635 316.3507 316.635 314.8571 317.1314 313.8559 318.1204L313.9554 318.0705 314.3772 317.8307C315.3745 317.2473 316.6486 316.9579 318.2083 316.9579 320.438 316.9579 321.9191 317.6612 322.6431 319.0677 323.032 319.8249 323.2264 321.3513 323.2264 323.6474V331.4126L325.0137 332.8937ZM317.0169 332.8109 315.8294 331.6071V322.5926 321.7569L316.1934 320.2177C316.3796 319.9116 316.7314 319.5394 317.2484 319.1009L317.2731 318.9932C316.5948 319.2664 316.1273 319.6675 315.8708 320.1931 315.61 320.7183 315.4819 321.529 315.4819 322.6297V331.727L316.8471 333.0632ZM326.507 332.0082C328.4266 333.1131 330.4868 333.663 332.6961 333.663 334.4088 333.663 335.8236 333.2908 336.9365 332.5462 338.0494 331.8055 338.6038 330.8584 338.6038 329.7081 338.6038 328.7733 338.2398 327.9416 337.5116 327.2176 336.7837 326.4936 335.7907 325.9723 334.529 325.6455 335.0832 324.1108 335.8403 322.6173 336.8001 321.1611 337.7557 319.7089 338.7155 318.5921 339.6793 317.8142L339.4976 317.7564C338.2937 317.3426 337.1102 316.7634 335.956 316.0106L335.7743 315.8904 335.7162 316.2793C335.1991 319.407 334.4751 322.0546 333.5443 324.2307L333.4946 324.3506C332.9402 324.0941 332.1913 323.8872 331.2522 323.7344L331.1572 323.7219V319.1876L333.2917 316.9083H327.0158L326.8216 317.2309H332.6009L330.8346 319.1009V323.9867L331.0909 324.0238C332.0135 324.1191 332.7871 324.301 333.4119 324.57 333.3623 324.665 333.3331 324.7271 333.3249 324.752L333.2049 325.1035C333.1967 325.1285 333.176 325.1741 333.1429 325.2484 332.6423 325.1035 331.6949 324.9465 330.2966 324.777L330.1642 324.752V319.3449L331.5583 317.901H326.1926L327.7814 319.3449V323.4158L327.6819 323.4033C327.2105 323.2998 326.7842 323.1839 326.3995 323.0515L326.3003 323.0186 326.1926 323.2585C326.5526 323.3951 326.8341 323.49 327.0368 323.5399L327.6819 323.697 327.7814 323.7219V324.3506C327.3015 324.3506 326.7057 324.2475 325.9899 324.0363L325.8536 323.9867C325.87 324.0984 325.9485 324.3631 326.0976 324.777 326.1141 324.8059 326.1679 324.9879 326.2671 325.3187 326.2754 325.3436 326.2878 325.3808 326.3003 325.4304 326.6643 325.4097 326.9497 325.3972 327.1524 325.3972 327.3676 325.3972 327.5702 325.4097 327.7565 325.4304V331.4004C327.384 331.6277 326.9993 331.818 326.6065 331.9713ZM330.1642 332.3228V325.7821C330.4001 325.7821 330.6234 325.8028 330.8346 325.84V331.814C331.2811 331.9381 331.8148 332.0002 332.4356 332.0002 334.0159 332.0002 335.0874 331.4789 335.6541 330.4403 335.0543 330.9327 334.529 331.2677 334.078 331.4497 333.627 331.636 333.085 331.727 332.456 331.727 331.9597 331.727 331.5294 331.6731 331.1572 331.5696V325.84L331.2896 325.8649C332.8824 326.1546 334.0655 326.6135 334.8391 327.2383 335.6127 327.8631 335.9974 328.674 335.9974 329.675 335.9974 330.5687 335.6498 331.3091 334.9508 331.8925 334.2557 332.4759 333.3787 332.7695 332.3154 332.7695 331.4633 332.7695 330.7476 332.6207 330.1642 332.3228ZM336.0305 325.0417C336.5393 323.3784 337.4371 321.7484 338.7322 320.1557 339.5387 319.163 340.5606 318.2692 341.7976 317.4792 339.9483 316.9868 338.2109 316.2339 336.585 315.2242L336.4775 315.15 336.2332 315.3444C337.7764 316.3538 339.423 317.0985 341.1689 317.5741 338.8397 319.1255 337.011 321.6078 335.6787 325.0168L335.6045 325.2234C338.0661 326.1626 339.2989 327.594 339.2989 329.5179 339.2989 330.3122 338.9845 331.1768 338.3555 332.1159 339.1665 331.3712 339.5718 330.4278 339.5718 329.2778 339.5718 327.4163 338.3929 326.0055 336.0305 325.0417ZM352.9386 333.4646 351.6769 332.0331 353.6666 326.7377 354.1507 327.0067 352.3552 331.789 353.6419 333.2701 353.9563 333.1378 352.7317 331.7145 354.4279 327.1887C354.5271 327.259 354.5853 327.3043 354.5977 327.3211L354.9988 327.6604C355.2429 327.8548 355.396 327.9912 355.458 328.074 355.6689 327.1516 355.9918 326.3284 356.4303 325.6002 356.1945 325.6126 356.0247 325.6209 355.9212 325.6209 355.1519 325.6209 354.5892 325.5007 354.2374 325.2609L356.4303 319.3078 358.2465 317.901H352.1276L353.7989 319.3078 352.4545 322.8489C351.5652 321.9511 350.8824 321.099 350.4067 320.288L350.1255 320.3626C350.6054 321.1529 351.3127 322.0381 352.26 323.0186L352.3552 323.1386 352.1276 323.6723C351.1638 322.8698 350.3696 321.9429 349.7406 320.8839L349.5214 321.2354C349.0994 321.9058 348.5616 322.6711 347.908 323.5275L347.7881 323.6723C347.1469 322.2904 346.8283 321.1651 346.8283 320.3005 346.8283 319.7917 346.915 319.3614 347.093 319.0096 347.2668 318.6581 347.6928 318.0705 348.3672 317.2473 348.421 317.173 348.512 317.0611 348.6362 316.9083H342.0913L341.8472 317.2309H348.0197L347.8088 317.4874C347.275 318.1329 346.9232 318.6374 346.7537 318.9974 346.5882 319.3571 346.5057 319.7792 346.5057 320.2634 346.5057 321.0866 346.8447 322.3154 347.5191 323.9493L346.9895 324.508C346.8818 324.2514 346.7494 323.8707 346.5882 323.3701L346.1871 322.1331C345.9677 321.4712 345.8602 320.9213 345.8602 320.4825 345.8602 320.0315 345.9387 319.6551 346.0918 319.3571 346.2449 319.0552 346.5675 318.6499 347.0598 318.1329 347.1094 318.083 347.18 318.0044 347.2792 317.901H341.2185C342.3728 318.5011 343.2909 319.3036 343.9653 320.313 344.6396 321.3224 345.3058 322.882 345.9677 324.9918L346.0173 325.1616C345.5912 325.5256 344.9707 325.749 344.164 325.8317 344.6065 326.4936 344.95 327.1844 345.1941 327.9044 345.3058 327.797 345.3761 327.7349 345.4007 327.71L345.947 327.2012C346.1289 327.0231 346.3523 326.8412 346.6131 326.6549L346.8283 327.1887 346.6834 327.3086C346.282 327.6646 345.9427 327.9498 345.6658 328.1692L345.558 328.2559 345.7525 328.5207C346.1786 328.2395 346.5924 327.9127 346.9895 327.5402L348.6362 332.0787 347.3493 333.4646ZM349.9432 329.5675 348.6112 326.0469C348.6858 325.9684 348.7229 325.9188 348.7311 325.902L349.2317 325.3436C349.4965 325.0539 349.8358 324.6029 350.2494 323.9867L350.3696 323.8047C350.7171 324.2432 351.1307 324.6735 351.6066 325.1035ZM349.4013 330.9741 347.4737 325.8774C348.086 325.2484 348.6155 324.6236 349.0622 324.0116L349.6167 323.2338C349.6249 323.2253 349.666 323.1757 349.7406 323.0765 349.8109 323.151 349.8523 323.1964 349.8608 323.2131L350.0303 323.4158C350.0552 323.4487 350.1006 323.5025 350.1626 323.5731 349.596 324.4459 348.9381 325.2359 348.1892 325.9392L349.7406 330.0392ZM356.5253 327.4906C356.7033 326.7626 357.15 325.7654 357.8576 324.4955 357.6838 324.5202 357.5803 324.5326 357.5557 324.5326L356.5752 324.6154C356.1324 324.6568 355.8056 324.6775 355.6071 324.6775 355.574 324.6775 355.4912 324.6735 355.3628 324.665L357.3859 319.2911 360.0916 316.9083H353.071L352.8434 317.2309H359.2766L357.0962 319.1587 354.9368 324.8719C355.214 324.9422 355.5283 324.9754 355.8841 324.9754 356.3184 324.9754 356.8068 324.9422 357.3405 324.8719L357.1914 325.1367C356.6744 326.0925 356.3269 326.9529 356.1489 327.7225ZM374.3311 333.4646C373.413 332.9887 372.8171 332.5501 372.5484 332.153 372.147 331.5368 371.9443 330.6101 371.9443 329.3731V328.5828 317.901H369.8963L364.1749 329.0091V322.4228 321.8769L364.3072 320.131C364.4685 319.3243 364.8368 318.7244 365.4119 318.3355L365.5069 318.2528C364.4025 318.6249 363.852 319.8163 363.852 321.8312V322.969 329.6047L363.2068 330.8788V323.8914C363.2068 321.6739 363.3514 320.226 363.6411 319.5394 363.9308 318.8483 364.6091 318.3477 365.6767 318.0334L366.7314 316.9083H360.1661L359.9717 317.2309H366.0406L365.4119 317.901H359.7647C360.7534 318.2567 361.4071 318.7327 361.73 319.3325 362.0526 319.9283 362.2139 320.9581 362.2139 322.4103V332.1159L360.6004 333.4646H366.7314L365.0105 332.3103 370.8768 320.8589V322.3154L365.8462 332.1159 367.5424 333.2701 367.774 333.0386 366.2722 332.0206 370.8768 322.969V328.6327 329.2739C370.8768 330.6847 370.7612 331.6235 370.5335 332.0994 370.3017 332.5711 369.735 333.0261 368.8291 333.4646ZM374.7574 332.5669 374.538 332.2029C373.9136 332.058 373.4915 331.7851 373.2721 331.3962 373.0487 331.003 372.937 330.3411 372.937 329.4102V316.9083H370.3348L370.1778 317.2309H372.6145V329.286C372.6145 330.4278 372.7633 331.2224 373.0569 331.6731 373.3509 332.1241 373.9175 332.422 374.7574 332.5669" fill="#478779"/>
<path transform="matrix(1,0,0,-1,0,841.8898)" d="M211.866 426.401 210.7174 423.326C210.3202 422.2922 209.9307 421.2697 209.5449 420.2252 208.7807 418.155 207.9978 416.1067 207.2194 414.066L197.894 389.4551C197.403 388.1435 195.8363 384.2787 195.5835 383.2801 194.7308 379.912 198.019 380.0092 200.5665 380.2286 205.1291 380.6218 210.0804 382.2602 214.1201 383.6271 218.3695 385.0651 222.4216 386.6066 226.7597 387.9567 229.297 388.7461 231.3128 389.1189 234.0879 388.5318 237.1876 387.8759 240.2099 386.1252 242.5178 384.2631 242.8812 383.9698 243.3197 383.6341 243.6585 383.2994L246.8781 380.0772 248.7963 377.7151 250.2448 379.3975C251.0249 380.3729 253.9704 383.1653 255.132 384.0154 256.0564 384.692 256.5771 385.1478 257.6211 385.8007 261.737 388.3742 265.2151 389.5367 270.9403 388.1282 279.4589 386.0325 287.7423 380.8531 296.7659 380.0696 299.6722 379.8173 302.2138 379.7688 301.6443 383.2999 301.3798 384.9389 300.13 387.9697 299.4965 389.6359 297.9448 393.7173 296.4209 397.8162 294.8465 401.8901L287.8486 420.2807C287.5269 421.1172 285.7255 426.0974 285.4752 426.3993 283.4521 426.0424 282.0835 425.8956 279.9295 426.0305 278.2216 426.1377 276.4378 426.4617 274.837 426.8494 271.7637 427.5938 268.6788 428.6577 265.8643 429.7448 264.4999 430.2717 262.9117 430.8857 261.4799 431.2933 259.5986 431.8288 258.4471 432.1814 256.3974 431.6105 254.1694 430.9903 252.3387 429.8369 250.5243 428.6183L248.7963 427.3291 247.0184 428.5054C245.2569 429.63 243.1712 430.9019 241.1578 431.5742 238.1111 432.5919 234.1791 430.7488 231.6297 429.7805 226.976 428.0128 222.6634 426.3962 217.4947 426.119 216.5097 426.0662 215.5309 426.0438 214.545 426.094 213.5863 426.1428 212.7489 426.3273 211.866 426.401ZM213.8097 422.6023C213.6969 422.0714 206.5725 403.0614 206.314 402.3417 205.094 398.9443 203.8243 395.5717 202.5955 392.1545 202.0666 390.6839 201.1309 388.4372 200.9024 386.8957 200.7332 385.7533 200.9588 384.8961 201.8234 384.522 204.1226 383.5273 207.9961 385.3276 210.0762 386.1405 215.3381 388.1974 219.6142 390.2031 225.3538 391.7228 232.2859 393.558 238.8969 392.9871 244.5429 388.5846 245.5458 387.8025 245.6161 387.6077 246.3426 386.934 246.4209 388.4695 246.3503 390.1969 246.3503 391.7537V421.0968C246.3503 423.3929 246.5133 423.4689 245.3454 424.9826 245.0424 425.3754 244.4666 425.831 244.0531 426.113 242.3727 427.2585 240.2291 427.612 238.1338 427.432 235.4151 427.1984 232.8797 426.026 230.6205 425.1107 224.7245 422.7219 220.8458 422.1519 213.8097 422.6023ZM251.3931 386.9512C251.6207 387.085 251.6196 387.1573 251.8328 387.3781 251.9935 387.5448 252.125 387.6551 252.2979 387.8067 254.5654 389.7961 257.1007 391.3004 260.1734 392.0482 264.6859 393.1461 268.0591 392.8286 272.4233 391.7183 275.976 390.8143 279.4564 389.4579 282.6998 388.15 285.2538 387.1205 290.3627 384.8978 292.8288 384.374 293.7243 384.1835 295.0279 384.162 295.8568 384.4987 296.7489 384.8613 297.0258 385.6504 296.8466 386.8472 296.6034 388.474 295.6929 390.5938 295.1578 392.1233 293.9664 395.5292 292.6746 398.9256 291.441 402.313 290.2031 405.7118 288.9729 409.0946 287.68 412.4574 287.369 413.2658 284.1542 422.149 283.8804 422.5876 283.1664 422.5955 282.3083 422.4866 281.569 422.4606 276.1268 422.2689 272.2136 423.0105 267.1523 425.0993 263.5963 426.5671 259.4112 428.3991 255.4194 426.9762 254.16 426.5271 253.0763 425.7865 252.4504 425.033 251.2811 423.625 251.3911 423.4368 251.3911 421.2244V406.5528C251.3911 400.0286 251.3256 393.4715 251.3931 386.9512" fill="#478779" fill-rule="evenodd"/>
<path transform="matrix(1,0,0,-1,0,841.8898)" d="M242.6295 374.0411V370.965L255.0345 370.9363V374.3048H307.4825C308.6623 374.3045 310.1488 374.2138 310.6837 375.0939 311.2106 375.9613 310.4683 377.5003 310.1465 378.2169 309.7233 379.1602 309.3029 380.0775 308.8568 381.0067 307.1047 384.6543 305.5674 388.4323 303.8139 392.1026 302.946 393.9197 302.1715 395.7809 301.307 397.6325 300.4478 399.4716 299.5999 401.351 298.7884 403.217 297.1644 406.9502 295.4344 410.635 293.775 414.3436 292.947 416.1937 292.1564 418.0442 291.2978 419.9006 290.5444 421.5291 289.2339 421.0237 289.5902 419.6599 289.6951 419.2588 290.0205 418.6123 290.1872 418.2171 290.3882 417.7409 290.5957 417.2686 290.8063 416.7955 292.4711 413.0544 294.0783 409.3129 295.704 405.555 298.9508 398.05 302.2639 390.5702 305.4747 383.0479 306.4122 380.8519 307.6611 378.7336 305.1496 377.564 300.655 375.4709 288.8725 378.5845 284.4629 379.7714 282.3491 380.3403 280.2212 380.8981 278.1023 381.4435 270.805 383.3226 265.1377 384.9985 257.9083 381.687 255.8628 380.7499 254.4664 379.8615 252.8643 378.6917 252.2622 378.252 250.7108 376.9055 250.1906 376.327L248.7852 374.686C248.1426 375.334 247.4252 375.984 246.7477 376.6289 246.0569 377.2865 245.4338 377.9742 244.6778 378.5757 243.0748 379.8519 241.7865 380.8823 239.8003 381.8015 232.8854 385.0021 226.578 383.3569 219.5495 381.4509 217.4451 380.88 215.3511 380.2397 213.2555 379.6466 209.0373 378.453 204.3326 377.282 199.6807 377.0337 197.6479 376.9251 194.0536 376.8111 192.3321 377.5808 189.8578 378.6868 191.2578 381.1419 192.1232 383.1075 193.7744 386.858 195.3856 390.6176 196.9985 394.3706 198.1267 396.9967 207.7313 418.739 207.8906 419.8385 207.9794 420.4511 207.8192 421.1592 207.1559 421.0299 206.6879 420.9386 206.4847 420.3403 206.2803 419.8527 205.4784 417.9404 204.6186 416.1206 203.7906 414.2398 202.1655 410.5494 200.3185 406.7702 198.7645 403.1291 197.9663 401.2591 197.0569 399.4679 196.2573 397.5985 194.7203 394.0058 192.7522 390.0628 191.1969 386.4563 190.391 384.5871 189.4737 382.7656 188.6672 380.884 188.2695 379.9562 187.8401 379.031 187.4174 378.1151 186.1132 375.2898 186.474 374.1015 189.9819 374.0434 191.3366 374.021 192.7086 374.0411 194.0652 374.0411 210.2533 374.0411 226.4414 374.0411 242.6295 374.0411" fill="#478779" fill-rule="evenodd"/>
</g>
</svg>
