<svg width="109" height="107" viewBox="0 0 109 107" fill="none" xmlns="http://www.w3.org/2000/svg">
<g filter="url(#filter0_d_1007_1493)">
<path fill-rule="evenodd" clip-rule="evenodd" d="M85.1944 64.2648C83.469 67.3373 69.045 70.3247 64.5907 71.9409C54.2008 75.7106 49.2544 80.6234 41.7645 87.9281C41.0546 88.6203 40.7448 89.1169 39.9354 89.7388C34.1216 94.2059 24.3763 93.6999 28.4492 79.5438C30.0698 73.9111 31.4191 73.4266 33.3082 70.313C30.0079 72.8627 25.4596 81.4995 26.448 88.0848C27.457 94.8065 34.3053 99.73 40.8614 94.9599C45.7064 91.4348 46.8067 89.1512 50.5364 85.9794C51.7251 84.9685 52.7424 83.9886 53.9953 83.0121C58.904 79.1863 64.8066 77.4964 71.5427 75.4827C80.3692 72.8441 84.4575 72.8082 86.3637 65.2217C87.3004 61.4942 87.3652 58.2046 86.0749 54.6015C83.9297 48.6114 78.0967 41.0194 72.4553 46.374C71.3576 47.416 70.6052 48.2709 69.9087 50.0556C67.6449 55.8563 68.5589 60.6472 76.4091 60.5096C78.1511 60.479 80.5916 60.3194 82.0856 60.9503C83.311 61.4679 84.7481 62.9708 85.1944 64.2648ZM71.6378 53.3322C73.4052 54.3883 77.4571 54.329 79.793 54.1178C79.351 53.2113 77.2024 51.3648 76.1293 51.0178C74.0123 50.3337 71.9442 51.8799 71.6378 53.3322Z" fill="white"/>
<path fill-rule="evenodd" clip-rule="evenodd" d="M86.9543 85.8584C98.6163 75.0487 94.4044 52.0843 92.9661 37.2103C92.2727 30.0412 91.372 25.6664 93.7817 19.2522C94.4256 17.5383 95.2884 16.1026 95.9001 14.5516C94.5179 15.364 92.1882 18.3367 91.0835 20.2153C86.2672 28.4062 88.5452 38.5446 89.4222 48.2011C90.2445 57.2551 91.8106 69.3708 89.746 78.0384C88.6393 82.6842 87.4955 83.9561 86.9543 85.8584Z" fill="white"/>
<path fill-rule="evenodd" clip-rule="evenodd" d="M58.4299 71.3179C59.4702 70.5923 61.0418 68.4653 61.8961 67.1137C62.8871 65.5457 63.7137 63.7611 64.3821 61.8854C69.6671 47.0557 62.5284 19.1681 63.8924 9.90141C64.1664 8.03948 64.661 6.37808 65.2882 4.69327C65.9216 2.99217 66.8545 1.50707 67.4004 -0.000366804C63.5992 2.70162 60.59 8.49253 59.8662 13.6468C59.0822 19.2292 60.3956 27.8894 60.9041 33.6359C61.6916 42.5343 63.3381 54.9823 61.2489 63.4676C60.4467 66.7259 59.4445 68.6149 58.4299 71.3179Z" fill="white"/>
<path fill-rule="evenodd" clip-rule="evenodd" d="M51.7397 7.32528C50.6824 8.13173 49.3501 9.662 49.178 11.6206C54.3015 5.91093 58.1104 7.25486 58.9879 5.55776C59.1814 5.1837 59.4918 4.32591 59.6141 3.89625C58.1123 4.15112 56.6346 5.30933 55.3229 5.55165C53.7034 5.85094 51.533 4.73416 50.7974 3.87768C50.9561 3.72172 50.8485 3.76783 51.1843 3.56149L53.2218 3.04823C54.4065 3.11353 54.4714 3.94535 54.9177 4.77619C56.484 0.355109 54.5566 -0.519622 51.3386 1.98055C46.0794 6.06667 50.7065 6.5733 51.7397 7.32528Z" fill="white"/>
<path fill-rule="evenodd" clip-rule="evenodd" d="M96.1676 86.9412C95.1103 87.7475 93.7781 89.2779 93.6059 91.2363C98.7295 85.5267 102.538 86.8706 103.416 85.1735C103.609 84.7995 103.92 83.9416 104.042 83.512C102.54 83.7668 101.063 84.9251 99.7509 85.1675C98.1313 85.4667 95.961 84.3499 95.2253 83.4936C95.3841 83.3374 95.2765 83.3836 95.6123 83.1772L97.6497 82.664C98.8345 82.7293 98.8994 83.5611 99.3457 84.3919C100.912 79.971 98.9845 79.0961 95.7664 81.5963C90.5074 85.6824 95.1345 86.1891 96.1676 86.9412Z" fill="white"/>
<path fill-rule="evenodd" clip-rule="evenodd" d="M77.3435 34.6053C78.0825 35.2823 78.9402 35.9188 79.7001 36.5379C80.5871 37.2606 81.3232 38.0134 82.1969 38.502C83.4686 37.4728 84.3937 35.4507 85.6306 34.3279L84.5546 33.1868C83.7097 32.4875 81.6468 30.6635 80.8038 30.3289C79.9573 31.5697 77.8959 33.4834 77.3435 34.6053Z" fill="white"/>
<path fill-rule="evenodd" clip-rule="evenodd" d="M68.667 34.4676C69.0732 35.0402 72.888 38.2361 73.6669 38.5547C74.3958 37.2503 76.4909 35.2423 76.9249 33.933C76.1577 33.523 75.2992 32.7573 74.6208 32.1705C73.9994 31.633 72.9926 30.7264 72.336 30.3605L68.667 34.4676Z" fill="white"/>
<path d="M54.5164 90.8025C54.4776 90.7864 54.4494 90.7741 54.4278 90.766C54.0946 90.6263 53.8091 90.5572 53.5734 90.5572C52.9396 90.5572 52.4831 90.831 52.2041 91.376C51.925 91.9232 51.7866 92.815 51.7866 94.0531C51.7866 95.4738 52.2127 96.4203 53.065 96.8903H53.0023C52.5545 96.7648 52.2149 96.4486 51.9814 95.944C51.7476 95.4373 51.6308 94.7686 51.6308 93.9376C51.6308 92.6973 51.7758 91.8036 52.0677 91.2566C52.3577 90.7093 52.8356 90.4357 53.4976 90.4357C53.8978 90.4357 54.2374 90.5431 54.5164 90.76V90.8025ZM55.3212 96.8903C55.7019 97.2572 56.1584 97.4396 56.6905 97.4396C56.9782 97.4396 57.2983 97.3645 57.6532 97.2126L57.6985 97.2348C57.4994 97.4923 57.3373 97.7273 57.2097 97.9361L56.7403 98.7264L56.7164 98.7731C56.0177 98.6596 55.412 98.309 54.8972 97.7233C54.4625 97.9158 54.0234 98.011 53.5841 98.011C52.8789 98.011 52.3166 97.8368 51.8991 97.4903L51.925 97.4496C52.4896 97.7111 53.0153 97.8408 53.4955 97.8408C53.9649 97.8408 54.3931 97.7618 54.7825 97.6037C54.7653 97.5793 54.7522 97.5632 54.7437 97.551C54.6853 97.4599 54.6289 97.3909 54.5728 97.3423C54.1791 97.4801 53.7746 97.5491 53.3549 97.5491C52.3491 97.5491 51.514 97.17 50.8499 96.4121C50.1859 95.6542 49.8526 94.7037 49.8526 93.5608C49.8526 92.3873 50.1772 91.4369 50.8261 90.7093C51.4752 89.9837 52.3274 89.6211 53.3851 89.6211C54.4127 89.6211 55.239 89.9797 55.8685 90.6951C56.4957 91.4105 56.8095 92.3549 56.8095 93.5263C56.8095 94.2376 56.7013 94.8475 56.4829 95.3502C56.2664 95.8548 55.8967 96.3513 55.3774 96.8377L55.3212 96.8903ZM54.9923 96.0006C55.278 95.4231 55.4207 94.5821 55.4207 93.4776C55.4207 91.2221 54.709 90.0953 53.2856 90.0953C51.897 90.0953 51.2025 91.2809 51.2025 93.6499C51.2025 94.7139 51.395 95.5488 51.7801 96.1548C52.1629 96.7606 52.6907 97.0626 53.3635 97.0626C53.6469 97.0626 53.9217 97.0058 54.1877 96.8903C53.9368 96.4547 53.6058 96.2357 53.1927 96.2357C53.1623 96.2357 53.1126 96.2399 53.039 96.25L53.4825 95.7393C53.7918 95.8224 54.166 96.0291 54.6052 96.3574L54.6808 96.4161C54.7328 96.3574 54.7912 96.2824 54.8582 96.1912L54.8907 96.1487C54.6073 95.8912 54.2374 95.6886 53.781 95.5367L53.8696 95.4009C54.2374 95.5306 54.5836 95.7108 54.9103 95.9419L54.9923 96.0006ZM55.4985 90.0406C56.0847 90.2695 56.5498 90.7032 56.8981 91.3396C57.2465 91.9739 57.4194 92.7136 57.4194 93.5587C57.4194 94.8212 57.0258 95.9074 56.2405 96.8134C56.4806 97.0079 56.8549 97.1254 57.361 97.164V97.2004C57.2009 97.2227 57.0819 97.2329 56.9998 97.2329C56.6256 97.2329 56.2838 97.1032 55.981 96.8438C56.8267 96.0392 57.2508 94.9388 57.2508 93.5405C57.2508 92.0144 56.6666 90.8593 55.4985 90.075V90.0406ZM58.1722 97.5085C57.8304 97.928 57.5082 98.4041 57.2032 98.9332L57.1664 99L57.0127 98.9271C57.1577 98.6596 57.32 98.4001 57.5017 98.1509L57.9948 97.4741L58.0274 97.4255L58.1722 97.5085ZM65.4015 89.7548L64.2681 90.606V94.4443C64.2681 95.1496 64.2442 95.6582 64.1945 95.9662C64.147 96.2764 64.0496 96.5297 63.9067 96.7283C63.5435 97.2348 62.8382 97.4882 61.7912 97.4882C60.6837 97.4882 59.9115 97.2348 59.4724 96.7283C59.122 96.327 58.9467 95.5609 58.9467 94.426V90.4803L58.0858 89.7548H61.0795L60.2186 90.5452V94.4321L60.2317 95.3481C60.2317 95.94 60.3614 96.3574 60.6232 96.6066C60.8849 96.8539 61.3261 96.9775 61.947 96.9775C62.6284 96.9775 63.1 96.789 63.3574 96.4121C63.5629 96.1081 63.6668 95.4535 63.6668 94.4504L63.6925 90.606L62.7063 89.7548H65.4015ZM65.6222 90.1601L64.7613 90.831V94.5212C64.7613 95.7292 64.6595 96.5154 64.4584 96.8843C64.0452 97.628 63.2362 97.999 62.0356 97.999C60.9974 97.999 60.2164 97.7558 59.6929 97.2713L59.7449 97.2958L59.9655 97.4132C60.4869 97.699 61.1531 97.8408 61.9687 97.8408C63.1345 97.8408 63.909 97.4963 64.2875 96.8073C64.4909 96.4364 64.5925 95.6886 64.5925 94.5639V90.76L65.527 90.0344L65.6222 90.1601ZM61.3457 90.075L60.7248 90.6647V95.0806V95.4899L60.9151 96.2439C61.0125 96.3939 61.1964 96.5762 61.4668 96.791L61.4797 96.8438C61.125 96.7099 60.8806 96.5135 60.7464 96.256C60.6101 95.9987 60.5431 95.6016 60.5431 95.0624V90.606L61.2569 89.9514L61.3457 90.075ZM66.3079 90.4682C67.3116 89.927 68.3888 89.6576 69.544 89.6576C70.4395 89.6576 71.1793 89.8399 71.7612 90.2047C72.3431 90.5675 72.633 91.0315 72.633 91.595C72.633 92.0529 72.4427 92.4603 72.0619 92.815C71.6813 93.1696 71.1621 93.425 70.5024 93.5851C70.7921 94.3369 71.188 95.0685 71.6899 95.7818C72.1895 96.4932 72.6914 97.0403 73.1953 97.4213L73.1003 97.4496C72.4708 97.6523 71.852 97.9361 71.2485 98.3048L71.1535 98.3637L71.1231 98.1732C70.8527 96.6411 70.4742 95.3441 69.9875 94.2781L69.9615 94.2194C69.6716 94.345 69.28 94.4464 68.789 94.5212L68.7393 94.5274V96.7485L69.8554 97.8651H66.5739L66.4724 97.7071H69.4942L68.5707 96.791V94.3977L68.7047 94.3795C69.1871 94.3328 69.5916 94.2437 69.9183 94.1119C69.8923 94.0654 69.8771 94.0349 69.8728 94.0228L69.81 93.8506C69.8057 93.8383 69.7949 93.816 69.7776 93.7796C69.5159 93.8506 69.0205 93.9275 68.2894 94.0105L68.2201 94.0228V96.6715L68.9491 97.3788H66.1435L66.9742 96.6715V94.6773L66.9222 94.6834C66.6757 94.7341 66.4528 94.7909 66.2517 94.8558L66.1998 94.8719L66.1435 94.7544C66.3317 94.6874 66.4789 94.641 66.5849 94.6165L66.9222 94.5396L66.9742 94.5274V94.2194C66.7233 94.2194 66.4118 94.2699 66.0375 94.3734L65.9662 94.3977C65.9748 94.3429 66.0158 94.2133 66.0938 94.0105C66.1024 93.9964 66.1305 93.9072 66.1824 93.7452C66.1868 93.733 66.1932 93.7147 66.1998 93.6904C66.3901 93.7006 66.5393 93.7067 66.6453 93.7067C66.7578 93.7067 66.8638 93.7006 66.9612 93.6904V90.766C66.7664 90.6546 66.5653 90.5614 66.3599 90.4863L66.3079 90.4682ZM68.2201 90.3141V93.5181C68.3435 93.5181 68.4602 93.508 68.5707 93.4898V90.5634C68.8041 90.5026 69.0832 90.4721 69.4078 90.4721C70.2341 90.4721 70.7944 90.7275 71.0907 91.2363C70.777 90.9951 70.5024 90.831 70.2666 90.7418C70.0307 90.6505 69.7473 90.606 69.4184 90.606C69.1589 90.606 68.934 90.6324 68.7393 90.6831V93.4898L68.8086 93.4776C69.6414 93.3357 70.26 93.1109 70.6645 92.8048C71.069 92.4987 71.2702 92.1015 71.2702 91.6112C71.2702 91.1734 71.0884 90.8107 70.7229 90.5249C70.3595 90.2391 69.9009 90.0953 69.3449 90.0953C68.8994 90.0953 68.5252 90.1682 68.2201 90.3141ZM71.2875 93.8809C71.5535 94.6956 72.023 95.4941 72.7001 96.2743C73.1218 96.7606 73.6562 97.1984 74.303 97.5854C73.336 97.8266 72.4275 98.1954 71.5774 98.6901L71.5212 98.7264L71.3935 98.6312C72.2004 98.1367 73.0613 97.7719 73.9742 97.5389C72.7563 96.779 71.8002 95.563 71.1035 93.893L71.0647 93.7918C72.3518 93.3318 72.9964 92.6306 72.9964 91.6881C72.9964 91.299 72.832 90.8755 72.5032 90.4155C72.9272 90.7803 73.1391 91.2424 73.1391 91.8057C73.1391 92.7176 72.5227 93.4087 71.2875 93.8809ZM80.1283 89.7548L79.4686 90.456L80.509 93.05L80.7621 92.9183L79.8233 90.5756L80.4961 89.8501L80.6604 89.9149L80.0201 90.6121L80.907 92.8291C80.9589 92.7947 80.9893 92.7725 80.9958 92.7643L81.2056 92.598C81.3332 92.5028 81.4132 92.436 81.4457 92.3954C81.5559 92.8473 81.7248 93.2505 81.954 93.6073C81.8307 93.6012 81.742 93.5971 81.6878 93.5971C81.2856 93.5971 80.9914 93.656 80.8074 93.7735L81.954 96.6897L82.9037 97.3788H79.7043L80.5781 96.6897L79.8752 94.955C79.4102 95.3948 79.0532 95.8122 78.8044 96.2095L78.6574 96.173C78.9083 95.7858 79.2782 95.3522 79.7735 94.8719L79.8233 94.8131L79.7043 94.5517C79.2003 94.9448 78.785 95.3988 78.4562 95.9176L78.3415 95.7454C78.1209 95.417 77.8397 95.0421 77.4979 94.6226L77.4352 94.5517C77.1 95.2286 76.9334 95.7798 76.9334 96.2034C76.9334 96.4526 76.9787 96.6634 77.0718 96.8357C77.1627 97.0079 77.3854 97.2958 77.738 97.699C77.7662 97.7354 77.8138 97.7902 77.8787 97.8651H74.4565L74.3289 97.7071H77.5563L77.4461 97.5814C77.167 97.2652 76.983 97.0181 76.8944 96.8417C76.8078 96.6655 76.7647 96.4587 76.7647 96.2216C76.7647 95.8183 76.942 95.2163 77.2946 94.416L77.0177 94.1423C76.9614 94.268 76.8921 94.4545 76.8078 94.6997L76.5981 95.3057C76.4834 95.6299 76.4272 95.8993 76.4272 96.1142C76.4272 96.3351 76.4682 96.5195 76.5483 96.6655C76.6283 96.8134 76.797 97.0119 77.0544 97.2652C77.0804 97.2896 77.1173 97.3281 77.1692 97.3788H74.0002C74.6037 97.0848 75.0838 96.6917 75.4364 96.1973C75.789 95.7028 76.1373 94.9388 76.4834 93.9053L76.5093 93.8221C76.2865 93.6438 75.9621 93.5344 75.5403 93.4939C75.7717 93.1696 75.9513 92.8312 76.0789 92.4785C76.1373 92.5311 76.1741 92.5616 76.1869 92.5738L76.4726 92.823C76.5677 92.9102 76.6845 92.9993 76.8209 93.0906L76.9334 92.8291L76.8576 92.7704C76.6477 92.596 76.4703 92.4563 76.3255 92.3488L76.2692 92.3063L76.3709 92.1766C76.5937 92.3144 76.81 92.4745 77.0177 92.6569L77.8787 90.4337L77.2058 89.7548H80.1283ZM78.5621 91.6638L77.8656 93.3884C77.9046 93.4269 77.924 93.4512 77.9283 93.4594L78.1901 93.733C78.3285 93.8749 78.5059 94.0958 78.7222 94.3977L78.785 94.4868C78.9667 94.272 79.183 94.0612 79.4318 93.8506L78.5621 91.6638ZM78.2787 90.9748L77.2708 93.4715C77.591 93.7796 77.8679 94.0857 78.1014 94.3855L78.3914 94.7665C78.3957 94.7706 78.4172 94.7949 78.4562 94.8435C78.4929 94.807 78.5146 94.7848 78.519 94.7766L78.6076 94.6773C78.6207 94.6612 78.6444 94.6348 78.6768 94.6003C78.3805 94.1727 78.0366 93.7857 77.645 93.4412L78.4562 91.4328L78.2787 90.9748ZM82.0037 92.6812C82.0968 93.0378 82.3304 93.5263 82.7003 94.1484C82.6095 94.1363 82.5553 94.1302 82.5425 94.1302L82.0298 94.0897C81.7983 94.0694 81.6274 94.0593 81.5236 94.0593C81.5063 94.0593 81.463 94.0612 81.3959 94.0654L82.4537 96.6978L83.8685 97.8651H80.1976L80.0785 97.7071H83.4423L82.3022 96.7627L81.1731 93.964C81.3181 93.9296 81.4824 93.9133 81.6684 93.9133C81.8955 93.9133 82.1509 93.9296 82.43 93.964L82.352 93.8343C82.0817 93.3661 81.9 92.9446 81.8069 92.5676L82.0037 92.6812ZM91.3139 89.7548C90.8339 89.9879 90.5223 90.2028 90.3818 90.3973C90.1719 90.6991 90.0659 91.1531 90.0659 91.7591V92.1462V97.3788H88.9951L86.0035 91.9374V95.1637V95.4312L86.0727 96.2864C86.157 96.6816 86.3496 96.9754 86.6503 97.1659L86.7 97.2065C86.1225 97.0242 85.8347 96.4406 85.8347 95.4535V94.8962V91.6456L85.4973 91.0215V94.4443C85.4973 95.5306 85.5729 96.2399 85.7244 96.5762C85.8759 96.9148 86.2305 97.16 86.7888 97.3139L87.3403 97.8651H83.9074L83.8058 97.7071H86.979L86.6503 97.3788H83.6975C84.2145 97.2046 84.5563 96.9714 84.7251 96.6776C84.8938 96.3857 84.9781 95.8812 84.9781 95.1699V90.4155L84.1345 89.7548H87.3403L86.4404 90.3202L89.5078 95.9298V95.2164L86.8774 90.4155L87.7643 89.8501L87.8854 89.9635L87.1001 90.4622L89.5078 94.8962V92.1218V91.8077C89.5078 91.1166 89.4473 90.6567 89.3283 90.4236C89.2071 90.1925 88.9108 89.9696 88.4371 89.7548H91.3139ZM91.5368 90.1945L91.4221 90.3728C91.0956 90.4438 90.8749 90.5775 90.7602 90.768C90.6434 90.9606 90.585 91.2849 90.585 91.7409V97.8651H89.2244L89.1423 97.7071H90.4164V91.8017C90.4164 91.2424 90.4942 90.8532 90.6477 90.6324C90.8014 90.4115 91.0977 90.2655 91.5368 90.1945Z" fill="white"/>
<path fill-rule="evenodd" clip-rule="evenodd" d="M15.0337 46.0358L14.5297 47.3852C14.3554 47.8389 14.1844 48.2876 14.0151 48.746C13.6798 49.6545 13.3362 50.5533 12.9946 51.4488L8.90231 62.249C8.68685 62.8245 7.99932 64.5205 7.88839 64.9588C7.51419 66.4368 8.95717 66.3941 10.0751 66.2979C12.0773 66.1253 14.2501 65.4063 16.0229 64.8065C17.8877 64.1754 19.6659 63.499 21.5696 62.9065C22.683 62.5601 23.5676 62.3965 24.7854 62.6541C26.1457 62.942 27.472 63.7102 28.4848 64.5274C28.6443 64.6561 28.8367 64.8034 28.9854 64.9503L30.3982 66.3643L31.24 67.4009L31.8756 66.6626C32.218 66.2345 33.5106 65.0091 34.0203 64.6361C34.426 64.3392 34.6545 64.1392 35.1126 63.8526C36.9188 62.7233 38.4451 62.2131 40.9576 62.8312C44.6958 63.7509 48.3308 66.0238 52.2907 66.3676C53.5661 66.4784 54.6814 66.4996 54.4315 64.9501C54.3154 64.2308 53.767 62.9008 53.489 62.1696C52.808 60.3786 52.1393 58.5798 51.4484 56.792L48.3775 48.7216C48.2363 48.3545 47.4458 46.1691 47.336 46.0366C46.4482 46.1932 45.8476 46.2576 44.9023 46.1984C44.1528 46.1514 43.37 46.0092 42.6676 45.8391C41.3189 45.5124 39.9651 45.0455 38.73 44.5684C38.1313 44.3372 37.4343 44.0678 36.806 43.8889C35.9804 43.6539 35.4751 43.4992 34.5756 43.7497C33.5979 44.0219 32.7945 44.528 31.9983 45.0628L31.24 45.6285L30.4598 45.1123C29.6868 44.6188 28.7715 44.0607 27.888 43.7656C26.551 43.319 24.8255 44.1279 23.7067 44.5528C21.6645 45.3285 19.772 46.0379 17.5038 46.1596C17.0715 46.1828 16.642 46.1926 16.2093 46.1705C15.7886 46.1491 15.4212 46.0682 15.0337 46.0358ZM15.8867 47.7028C15.8372 47.9358 12.7107 56.278 12.5973 56.5939C12.0619 58.0848 11.5047 59.5648 10.9655 61.0644C10.7334 61.7097 10.3228 62.6957 10.2225 63.3721C10.1483 63.8734 10.2473 64.2496 10.6267 64.4138C11.6356 64.8503 13.3355 64.0602 14.2483 63.7035C16.5574 62.8009 18.4339 61.9207 20.9526 61.2538C23.9947 60.4485 26.8958 60.699 29.3735 62.631C29.8136 62.9742 29.8444 63.0597 30.1632 63.3553C30.1976 62.6815 30.1666 61.9234 30.1666 61.2403V48.3635C30.1666 47.3559 30.2381 47.3225 29.7256 46.6583C29.5927 46.4859 29.34 46.286 29.1585 46.1622C28.4211 45.6595 27.4804 45.5044 26.5609 45.5834C25.3679 45.6859 24.2552 46.2004 23.2638 46.6021C20.6765 47.6503 18.9744 47.9005 15.8867 47.7028ZM32.3796 63.3478C32.4794 63.289 32.479 63.2573 32.5725 63.1604C32.643 63.0873 32.7007 63.0389 32.7766 62.9723C33.7717 62.0993 34.8843 61.4392 36.2327 61.111C38.2129 60.6292 39.6932 60.7686 41.6083 61.2558C43.1674 61.6525 44.6947 62.2477 46.118 62.8217C47.2388 63.2735 49.4808 64.2489 50.563 64.4787C50.956 64.5623 51.528 64.5718 51.8918 64.424C52.2833 64.2649 52.4048 63.9186 52.3261 63.3934C52.2194 62.6795 51.8198 61.7493 51.585 61.0781C51.0622 59.5834 50.4953 58.093 49.954 56.6065C49.4107 55.115 48.8709 53.6305 48.3035 52.1548C48.167 51.8 46.7563 47.9018 46.6361 47.7093C46.3228 47.7058 45.9462 47.7536 45.6218 47.765C43.2336 47.8491 41.5163 47.5237 39.2952 46.6071C37.7348 45.9629 35.8982 45.159 34.1464 45.7834C33.5938 45.9805 33.1182 46.3055 32.8435 46.6362C32.3304 47.254 32.3787 47.3366 32.3787 48.3075V54.7459C32.3787 57.6089 32.3499 60.4864 32.3796 63.3478Z" fill="white"/>
<path fill-rule="evenodd" clip-rule="evenodd" d="M28.5338 69.013V70.3629L33.9775 70.3755V68.8973H56.9935C57.5113 68.8974 58.1636 68.9372 58.3983 68.551C58.6295 68.1703 58.3038 67.495 58.1626 67.1805C57.9769 66.7666 57.7924 66.364 57.5966 65.9562C56.8277 64.3556 56.1531 62.6976 55.3836 61.087C55.0027 60.2896 54.6629 59.4728 54.2835 58.6603C53.9065 57.8532 53.5344 57.0285 53.1782 56.2096C52.4656 54.5713 51.7064 52.9543 50.9782 51.3269C50.6148 50.515 50.2679 49.7029 49.8911 48.8883C49.5605 48.1736 48.9854 48.3954 49.1418 48.9939C49.1878 49.1699 49.3306 49.4536 49.4037 49.627C49.492 49.836 49.583 50.0433 49.6754 50.2509C50.406 51.8926 51.1113 53.5345 51.8247 55.1836C53.2495 58.4771 54.7034 61.7595 56.1124 65.0605C56.5238 66.0242 57.0719 66.9538 55.9698 67.467C53.9974 68.3856 48.8268 67.0192 46.8917 66.4983C45.9641 66.2487 45.0303 66.0039 44.1005 65.7646C40.8982 64.94 38.4112 64.2045 35.2387 65.6577C34.341 66.0689 33.7282 66.4588 33.0252 66.9722C32.761 67.1651 32.0801 67.756 31.8519 68.0099L31.2351 68.73C30.9531 68.4456 30.6383 68.1604 30.341 67.8774C30.0378 67.5888 29.7644 67.287 29.4327 67.0231C28.7292 66.463 28.1638 66.0108 27.2922 65.6075C24.2577 64.2029 21.4898 64.9249 18.4055 65.7613C17.482 66.0119 16.5631 66.2928 15.6435 66.5531C13.7924 67.0769 11.7278 67.5908 9.68637 67.6997C8.79431 67.7474 7.21701 67.7974 6.46156 67.4597C5.37575 66.9743 5.99012 65.8969 6.36988 65.0343C7.09449 63.3885 7.80154 61.7387 8.50934 60.0917C9.00443 58.9393 13.2193 49.398 13.2892 48.9155C13.3281 48.6467 13.2578 48.3359 12.9668 48.3927C12.7614 48.4328 12.6722 48.6953 12.5825 48.9093C12.2306 49.7485 11.8533 50.5471 11.4899 51.3724C10.7768 52.9919 9.96626 54.6503 9.28431 56.2482C8.93404 57.0688 8.53496 57.8548 8.18407 58.6752C7.50958 60.2518 6.64591 61.9821 5.96339 63.5648C5.60973 64.3851 5.20719 65.1844 4.85327 66.0101C4.67875 66.4172 4.49031 66.8233 4.30482 67.2252C3.73249 68.465 3.89082 68.9865 5.43021 69.012C6.0247 69.0218 6.62678 69.013 7.2221 69.013C14.326 69.013 21.4299 69.013 28.5338 69.013Z" fill="white"/>
</g>
<defs>
<filter id="filter0_d_1007_1493" x="0" y="-0.000488281" width="108.042" height="107" filterUnits="userSpaceOnUse" color-interpolation-filters="sRGB">
<feFlood flood-opacity="0" result="BackgroundImageFix"/>
<feColorMatrix in="SourceAlpha" type="matrix" values="0 0 0 0 0 0 0 0 0 0 0 0 0 0 0 0 0 0 127 0" result="hardAlpha"/>
<feOffset dy="4"/>
<feGaussianBlur stdDeviation="2"/>
<feComposite in2="hardAlpha" operator="out"/>
<feColorMatrix type="matrix" values="0 0 0 0 0 0 0 0 0 0 0 0 0 0 0 0 0 0 0.25 0"/>
<feBlend mode="normal" in2="BackgroundImageFix" result="effect1_dropShadow_1007_1493"/>
<feBlend mode="normal" in="SourceGraphic" in2="effect1_dropShadow_1007_1493" result="shape"/>
</filter>
</defs>
</svg>
