<svg width="114" height="111" viewBox="0 0 114 111" fill="none" xmlns="http://www.w3.org/2000/svg">
<g filter="url(#filter0_d_12_27)">
<path d="M50.5725 54.4061L48.5496 25.985C48.5496 25.985 47.4168 21.8436 47.7405 15.0226C48.0641 8.20151 53.2697 2.16542 55.8321 0C52.2718 8.44512 52.1908 12.1805 52.1908 12.5865L53.4046 25.579C53.8092 30.9925 54.6183 44.3369 54.6183 54.4061C54.6183 64.4753 48.9542 71.5941 46.1221 73.8948C49.6824 70.3219 50.5725 59.4136 50.5725 54.4061Z" fill="#F0FCF9"/>
<path d="M80.5113 68.2105L78.4884 39.7894C78.4884 39.7894 77.3556 35.6481 77.6793 28.827C78.0029 22.006 83.2085 15.9699 85.7709 13.8044C82.2106 22.2496 82.1297 25.9849 82.1297 26.3909L83.3434 39.3834C83.748 44.797 84.5571 58.1413 84.5571 68.2105C84.5571 78.2797 78.893 85.3985 76.061 87.6992C79.6213 84.1263 80.5113 73.218 80.5113 68.2105Z" fill="#F0FCF9"/>
<path d="M65.542 35.3233L61.0916 30.8572L57.0458 34.9173L61.4962 39.3835L65.542 35.3233Z" fill="#F0FCF9"/>
<path d="M75.6566 35.3233L71.2062 30.8572L67.1604 34.9173L71.6108 39.3835L75.6566 35.3233Z" fill="#F0FCF9"/>
<path d="M33.9847 35.7294C35.603 32.8061 41.1323 30.4512 43.6946 29.6392L44.9084 27.6091L39.6488 29.6392C38.3542 29.3144 36.6819 28.2858 36.0076 27.6091C36.0076 27.2843 37.8956 26.391 38.8397 26.391C39.1245 26.391 39.7837 27.3384 40.0534 28.0151C41.6717 25.579 40.0534 24.4963 39.2442 23.955C36.0076 23.5489 33.1755 26.7971 33.1755 28.4211C33.1755 29.1474 35.3333 30.4512 36.4122 30.8572C35.1175 31.5068 34.2544 34.376 33.9847 35.7294Z" fill="#F0FCF9"/>
<path fill-rule="evenodd" clip-rule="evenodd" d="M19.4199 67.8045V46.6917C18.1252 44.418 14.0255 41.6842 12.1374 40.6014V61.3082C15.7787 63.3383 17.8015 65.7744 19.4199 67.8045ZM21.8472 46.6917V67.8045C23.4655 65.7744 25.4884 63.3383 29.1296 61.3082V40.6014C27.2416 41.6842 23.1418 44.418 21.8472 46.6917ZM15.7787 84.0451C16.1023 80.4722 19.9593 74.7067 21.8474 72.2707C14.5649 79.1729 12.5421 87.2932 14.565 93.3835C16.5879 99.4737 23.8703 99.0677 23.8703 99.0677C25.0841 99.0677 30.4859 96.489 33.5803 93.3835C34.7939 92.1654 43.6947 85.2631 46.9314 83.2331L49.7634 81.609L53.4047 79.9849L60.2825 77.5489C66.3512 75.9248 72.0153 73.4887 72.4199 73.0827C77.0906 70.1982 76.9754 66.3532 76.8911 63.538C76.8804 63.183 76.8703 62.8445 76.8703 62.5263C76.8703 59.2138 75.252 53.3233 73.6337 50.7518C71.368 45.8796 66.0815 45.4736 64.3283 45.8796C59.0688 46.6917 57.4505 52.7819 57.4505 52.7819C55.8321 58.4661 59.0687 61.1729 61.4962 61.7143C62.3054 61.8947 70.8016 63.3383 70.8016 63.3383C70.8016 63.3383 74.0382 64.5564 74.0382 66.1804C74.0382 66.8555 70.3242 68.2406 66.7558 69.4285L50.9772 75.1128C44.9085 77.5489 43.2902 79.1729 43.2902 79.1729C43.2902 79.1729 31.9619 88.9173 27.1069 92.9774C21.4428 97.0376 18.0713 93.3835 16.9924 91.7594C15.6978 89.4857 15.3741 85.9398 15.7787 84.0451ZM31.5571 47.0977H35.6029V64.1503C32.2314 64.9623 23.8701 68.2105 21.8472 69.4285C22.3243 69.0295 22.7389 68.6462 23.1432 68.2724C24.7959 66.7444 26.2766 65.3754 31.1525 63.7443V47.0977H31.5571ZM5.66415 47.0977H9.70995H10.1145V63.7443C14.9905 65.3754 16.4711 66.7444 18.1239 68.2724C18.5282 68.6462 18.9428 69.0295 19.4199 69.4285C17.397 68.2105 9.03565 64.9623 5.66415 64.1503V47.0977ZM37.626 54.4059V66.9924C34.7939 66.9924 27.916 68.6164 25.084 69.8345C30.4784 69.1578 40.8626 68.6164 40.8626 68.6164L41.2672 54.4059H37.626ZM3.6412 66.9924V54.4059H-1.90735e-05L0.404561 68.6164C0.404561 68.6164 10.7888 69.1578 16.1832 69.8345C13.3511 68.6164 6.47326 66.9924 3.6412 66.9924ZM61.4961 54.9544C62.1704 54.0071 63.9235 52.2747 65.5419 52.9244C67.0723 53.5387 67.2133 53.6882 68.2423 54.7795C68.5735 55.1307 68.9966 55.5794 69.5877 56.1725C69.5877 56.1725 61.9006 56.5785 61.4961 54.9544Z" fill="#F0FCF9"/>
<path d="M52.9094 83.5009C55.1594 83.5009 56.9727 84.1892 58.3493 85.5658C59.726 86.9351 60.4143 88.7373 60.4143 90.9725C60.4143 92.5786 60.0553 94.0367 59.3374 95.3467C58.9155 96.1238 58.4122 96.764 57.8275 97.2673C57.2428 97.7706 56.4694 98.2332 55.5072 98.6551C55.2408 98.7735 55.1039 98.8734 55.0964 98.9548C55.089 99.0659 55.3222 99.2435 55.7959 99.4877L57.0393 100.143C57.6388 100.461 58.2531 100.62 58.8822 100.62C59.3041 100.62 59.7704 100.42 60.2811 100.021C60.3551 99.9614 60.4217 99.9281 60.4809 99.9207C60.5401 99.9133 60.603 99.954 60.6696 100.043C60.7363 100.132 60.7659 100.213 60.7585 100.287C60.7437 100.443 60.4846 100.742 59.9813 101.186C58.9969 102.045 58.0533 102.474 57.1503 102.474C56.6026 102.474 56.0253 102.356 55.4184 102.119C54.8115 101.882 53.9788 101.449 52.9205 100.82C51.6326 100.065 50.7741 99.5876 50.3448 99.3878C49.9155 99.1954 49.5047 99.0992 49.1125 99.0992C48.513 99.0992 48.006 99.3434 47.5915 99.8319C47.1844 100.32 46.9809 100.916 46.9809 101.619C46.9809 101.856 46.8847 101.975 46.6922 101.975C46.4554 101.975 46.337 101.819 46.337 101.508L46.3037 100.653L46.4591 99.9207C46.6293 99.447 47.0105 98.9141 47.6026 98.322C47.6766 98.248 47.7136 98.1925 47.7136 98.1555C47.7136 98.1037 47.5434 97.952 47.2029 97.7003C46.3814 97.0934 45.7227 96.2385 45.2268 95.1358C44.7383 94.0256 44.4941 92.8561 44.4941 91.6275C44.4941 89.2073 45.2712 87.2496 46.8255 85.7546C48.3797 84.2521 50.4077 83.5009 52.9094 83.5009ZM51.7881 84.3668C50.3522 84.3668 49.2161 84.8886 48.3797 85.9322C47.5434 86.9758 47.1252 88.3894 47.1252 90.1732C47.1252 92.5712 47.684 94.5473 48.8016 96.1016C49.9266 97.6485 51.3551 98.4219 53.087 98.4219C54.5451 98.4219 55.7145 97.8483 56.5952 96.7011C57.476 95.5539 57.9164 94.033 57.9164 92.1382C57.9164 89.977 57.3205 88.1415 56.1289 86.6316C54.9373 85.1218 53.4904 84.3668 51.7881 84.3668ZM71.8049 89.6958V96.579C71.8049 97.2895 71.8641 97.7299 71.9826 97.9001C72.101 98.063 72.4192 98.1444 72.9373 98.1444L73.1927 98.1333C73.2815 98.1333 73.3481 98.1407 73.3925 98.1555C73.5183 98.1999 73.5813 98.2813 73.5813 98.3997C73.5813 98.6588 73.3296 98.7883 72.8263 98.7883H72.2934C71.99 98.7883 71.7531 98.7957 71.5829 98.8105C71.1314 98.8401 70.6059 98.9289 70.0064 99.077C69.9324 99.0992 69.8658 99.1103 69.8066 99.1103C69.6437 99.1103 69.5623 98.9733 69.5623 98.6995C69.5623 98.5515 69.5697 98.4256 69.5845 98.322C69.5993 98.174 69.6067 98.063 69.6067 97.989C69.6067 97.7669 69.5586 97.6522 69.4624 97.6448C69.4254 97.6448 69.3662 97.6892 69.2848 97.778L68.8851 98.1888C68.2042 98.8993 67.3863 99.2546 66.4316 99.2546C65.3362 99.2546 64.5109 98.9511 63.9558 98.3442C63.4007 97.7373 63.1232 96.8381 63.1232 95.6464C63.1232 94.07 63.1528 92.7044 63.212 91.5498C63.2194 91.3426 63.2231 91.1649 63.2231 91.0169C63.2231 90.5136 63.0048 90.2435 62.5681 90.2065L62.124 90.1732C61.9168 90.1584 61.8206 90.0584 61.8354 89.8734C61.8428 89.7328 61.9538 89.6403 62.1684 89.5959C62.3905 89.5441 62.8123 89.5181 63.434 89.5181C64.0113 89.5181 64.5257 89.4441 64.9772 89.2961C65.1771 89.2369 65.3325 89.2073 65.4435 89.2073C65.5693 89.2073 65.6322 89.2924 65.6322 89.4626C65.6322 89.6625 65.6248 89.866 65.61 90.0732C65.5434 90.8578 65.5101 92.2307 65.5101 94.1921C65.5101 95.702 65.647 96.7122 65.9209 97.2229C66.1947 97.7262 66.7424 97.9779 67.564 97.9779C68.2079 97.9779 68.7038 97.7854 69.0516 97.4006C69.3995 97.0157 69.5734 96.4643 69.5734 95.7464V91.6053C69.5734 90.9762 69.5142 90.5913 69.3958 90.4507C69.2848 90.3027 68.9628 90.1954 68.4299 90.1288C68.2005 90.1066 68.0858 90.0177 68.0858 89.8623C68.0858 89.6329 68.3078 89.5181 68.7519 89.5181C70.0397 89.5181 70.9316 89.4293 71.4275 89.2517C71.5237 89.2147 71.6014 89.1962 71.6606 89.1962C71.7642 89.1888 71.816 89.2628 71.816 89.4182L71.8049 89.6958ZM78.1109 93.3705V96.4902C78.1109 97.6596 78.6586 98.3183 79.754 98.4663C79.9834 98.496 80.0981 98.5848 80.0981 98.7328C80.0981 98.9178 80.013 99.0103 79.8428 99.0103C79.7614 99.0103 79.6577 98.9992 79.5319 98.977C78.7918 98.866 78.0294 98.8105 77.2449 98.8105C76.8304 98.8105 76.4567 98.8253 76.1236 98.8549L75.4353 98.9215C75.3095 98.9363 75.1799 98.9437 75.0467 98.9437C74.8395 98.9437 74.7359 98.8475 74.7359 98.6551C74.7359 98.5219 74.8284 98.433 75.0134 98.3886C75.5981 98.248 75.8905 97.6966 75.8905 96.7344L75.8794 96.2682V92.2936C75.8794 91.7607 75.8091 91.4092 75.6684 91.239C75.5352 91.0613 75.2428 90.954 74.7914 90.917C74.6211 90.9022 74.536 90.8245 74.536 90.6839C74.536 90.521 74.6359 90.4248 74.8358 90.3952C75.8498 90.2398 76.7157 89.9548 77.4336 89.5404L77.8666 89.285C77.9258 89.248 77.9813 89.2295 78.0331 89.2295C78.1442 89.2295 78.1997 89.3109 78.1997 89.4737C78.1997 89.5255 78.196 89.6329 78.1886 89.7957L78.1553 90.4174L78.1109 91.1057L78.122 91.2279C78.1516 91.3315 78.2071 91.387 78.2885 91.3944C78.3625 91.4018 78.5253 91.2242 78.777 90.8615C78.9768 90.5802 79.284 90.2805 79.6984 89.9622C80.1203 89.6366 80.409 89.4737 80.5644 89.4737C80.816 89.4737 81.1898 89.6662 81.6857 90.051C82.189 90.4359 82.4443 90.7246 82.4517 90.917C82.4517 90.9836 82.3333 91.2427 82.0965 91.6941C81.793 92.264 81.5266 92.549 81.2971 92.549C81.2009 92.549 81.1121 92.512 81.0307 92.438L80.7198 92.1604C80.3424 91.8126 79.9094 91.6386 79.4209 91.6386C78.5475 91.6386 78.1109 92.2159 78.1109 93.3705ZM88.5467 93.6592C88.6281 93.3187 88.6689 93.0264 88.6689 92.7821C88.6689 92.0346 88.4875 91.424 88.1249 90.9503C87.7696 90.4766 87.3107 90.2398 86.7482 90.2398C86.0303 90.2398 85.6713 90.5358 85.6713 91.1279C85.6713 91.239 85.6787 91.3463 85.6935 91.4499L85.7268 91.6608C85.7268 92.1641 85.1569 92.4158 84.0171 92.4158C83.7211 92.4158 83.5804 92.2862 83.5952 92.0272C83.5952 91.9754 83.6137 91.894 83.6508 91.783C83.673 91.7015 83.6952 91.6053 83.7174 91.4943C83.8136 91.0206 84.0393 90.658 84.3946 90.4063C85.1791 89.8438 86.1265 89.5626 87.2367 89.5626C88.5171 89.5626 89.4756 89.8586 90.1121 90.4507C90.6006 90.9022 90.8448 91.6867 90.8448 92.8043C90.8448 93.3668 90.8226 94.0737 90.7782 94.9248C90.7338 95.9018 90.7116 96.5531 90.7116 96.8788C90.7116 97.6411 91.0151 98.0223 91.622 98.0223C91.8366 98.0223 91.9957 97.9964 92.0994 97.9446C92.2178 97.8927 92.3029 97.8668 92.3547 97.8668C92.4583 97.8668 92.5101 97.9186 92.5101 98.0223C92.5101 98.2073 92.3658 98.3812 92.0772 98.5441L91.6442 98.7661L91.2667 98.9881C91.0003 99.1288 90.7079 99.1991 90.3897 99.1991C89.7383 99.1991 89.1906 98.7772 88.7466 97.9335C87.3699 98.8142 86.2264 99.2546 85.3161 99.2546C84.6869 99.2546 84.1948 99.0733 83.8395 98.7106C83.4842 98.3479 83.3066 97.8446 83.3066 97.2007C83.3066 96.0313 83.8173 95.1802 84.8387 94.6473C85.4678 94.329 86.7038 93.9996 88.5467 93.6592ZM88.3247 94.292C87.6882 94.2476 87.0813 94.4733 86.504 94.9692C85.9267 95.4651 85.638 96.0091 85.638 96.6012C85.638 97.5782 86.0303 98.0667 86.8148 98.0667C87.3033 98.0667 87.7289 97.952 88.0915 97.7225C88.2914 97.6041 88.4283 97.4006 88.5023 97.1119C88.5763 96.8233 88.6133 96.3459 88.6133 95.6797L88.6244 94.8249V94.5918L88.5578 94.3475C88.5208 94.3179 88.4431 94.2994 88.3247 94.292ZM103.224 94.2698V96.5235C103.224 97.0046 103.249 97.3339 103.301 97.5116C103.353 97.6818 103.471 97.8446 103.657 98.0001C103.923 98.2147 104.263 98.3442 104.678 98.3886C104.907 98.4182 105.022 98.5071 105.022 98.6551C105.022 98.8771 104.759 98.9881 104.234 98.9881C104.123 98.9881 103.964 98.9733 103.756 98.9437L103.035 98.8549C102.709 98.8179 102.454 98.7994 102.269 98.7994C101.566 98.7994 101.003 98.8401 100.581 98.9215C100.411 98.9511 100.263 98.9659 100.137 98.9659C99.9744 98.9659 99.893 98.8845 99.893 98.7217C99.893 98.6033 99.9781 98.5108 100.148 98.4441C100.474 98.3331 100.692 98.1592 100.803 97.9223C100.914 97.6855 100.97 97.2858 100.97 96.7233V94.1033C100.97 93.0967 100.766 92.301 100.359 91.7163C99.9596 91.1242 99.4119 90.8282 98.7161 90.8282C98.0944 90.8282 97.5911 90.9984 97.2063 91.3389C96.8288 91.6793 96.6401 92.1234 96.6401 92.6711V96.3792C96.6401 97.0601 96.7659 97.5597 97.0175 97.8779C97.2766 98.1888 97.7096 98.3701 98.3165 98.4219C98.5237 98.4441 98.6273 98.5293 98.6273 98.6773C98.6273 98.8845 98.4978 98.9881 98.2388 98.9881C97.9945 98.9881 97.7022 98.9696 97.3617 98.9326C96.5254 98.829 95.9481 98.7772 95.6298 98.7772C95.2005 98.7772 94.7046 98.8142 94.1421 98.8882C93.8757 98.9252 93.6944 98.9437 93.5981 98.9437C93.4131 98.9437 93.3206 98.866 93.3206 98.7106C93.3206 98.607 93.3835 98.5293 93.5093 98.4774C93.8868 98.3368 94.1273 98.1851 94.2309 98.0223C94.3346 97.852 94.3864 97.5449 94.3864 97.1008L94.3975 96.7344V92.8265L94.3864 92.3936C94.3864 91.8607 94.3309 91.4943 94.2198 91.2945C94.1162 91.0872 93.9201 90.9836 93.6314 90.9836H93.1207C93.0467 90.9836 92.9912 90.9614 92.9542 90.917C92.9172 90.88 92.8987 90.8245 92.8987 90.7505C92.8987 90.6098 92.9542 90.5136 93.0652 90.4618C93.1763 90.4026 93.5019 90.3064 94.0422 90.1732C94.9674 89.9585 95.7408 89.6366 96.3625 89.2073C96.4143 89.1629 96.4624 89.1407 96.5069 89.1407C96.5957 89.1333 96.6401 89.2036 96.6401 89.3516L96.6068 89.9067L96.5957 90.5395L96.6623 90.9614C96.6919 91.0502 96.74 91.0983 96.8066 91.1057C96.8658 91.1131 96.9842 91.0132 97.1619 90.806C97.8428 89.977 98.7421 89.5626 99.8597 89.5626C101.066 89.5626 101.928 89.9289 102.446 90.6617C102.965 91.387 103.224 92.5897 103.224 94.2698Z" fill="#F0FCF9"/>
</g>
<defs>
<filter id="filter0_d_12_27" x="-1.90735e-05" y="0" width="113.022" height="110.474" filterUnits="userSpaceOnUse" color-interpolation-filters="sRGB">
<feFlood flood-opacity="0" result="BackgroundImageFix"/>
<feColorMatrix in="SourceAlpha" type="matrix" values="0 0 0 0 0 0 0 0 0 0 0 0 0 0 0 0 0 0 127 0" result="hardAlpha"/>
<feOffset dx="4" dy="4"/>
<feGaussianBlur stdDeviation="2"/>
<feComposite in2="hardAlpha" operator="out"/>
<feColorMatrix type="matrix" values="0 0 0 0 0 0 0 0 0 0 0 0 0 0 0 0 0 0 0.3 0"/>
<feBlend mode="normal" in2="BackgroundImageFix" result="effect1_dropShadow_12_27"/>
<feBlend mode="normal" in="SourceGraphic" in2="effect1_dropShadow_12_27" result="shape"/>
</filter>
</defs>
</svg>
