<svg width="22" height="19" viewBox="0 0 22 19" fill="none" xmlns="http://www.w3.org/2000/svg">
<path d="M7.33333 17.5385C7.66181 17.5385 7.94826 17.5727 8.19271 17.6412C8.43715 17.7097 8.66632 17.8087 8.88021 17.9381C9.0941 18.0675 9.29653 18.2236 9.4875 18.4062C9.67847 18.5889 9.88472 18.7869 10.1062 19H0V1.46154H1.46667V17.5385H7.33333ZM7.33333 0C7.84514 0 8.34931 0.0608974 8.84583 0.182692C9.34236 0.304487 9.81597 0.494792 10.2667 0.753606V17.1388C9.85417 16.7963 9.39583 16.5337 8.89167 16.351C8.3875 16.1683 7.86806 16.0769 7.33333 16.0769H2.93333V0H7.33333ZM22 1.46154V19H11.8938C12.1076 18.7869 12.3101 18.5889 12.501 18.4062C12.692 18.2236 12.8944 18.0713 13.1083 17.9495C13.3222 17.8277 13.5514 17.7288 13.7958 17.6526C14.0403 17.5765 14.3306 17.5385 14.6667 17.5385H20.5333V1.46154H22ZM14.6667 16.0769C14.1319 16.0769 13.6125 16.1683 13.1083 16.351C12.6042 16.5337 12.1458 16.7963 11.7333 17.1388V0.753606C12.184 0.502404 12.6576 0.315905 13.1542 0.194111C13.6507 0.0723157 14.1549 0.00761218 14.6667 0H19.0667V16.0769H14.6667Z" fill="white"/>
</svg>
