<svg width="22" height="18" viewBox="0 0 22 18" fill="none" xmlns="http://www.w3.org/2000/svg">
<path d="M6.00385 6.22995L2.7269 9.00012L6.00385 11.7703C6.11252 11.8606 6.2025 11.9719 6.26857 12.0977C6.33464 12.2235 6.37551 12.3614 6.38882 12.5033C6.40213 12.6452 6.38762 12.7884 6.34612 12.9246C6.30462 13.0608 6.23695 13.1873 6.14702 13.2968C6.05709 13.4063 5.94668 13.4967 5.82215 13.5627C5.69762 13.6288 5.56144 13.6691 5.42146 13.6815C5.28148 13.6939 5.14047 13.678 5.00656 13.6348C4.87265 13.5916 4.7485 13.522 4.64126 13.4299L0.383174 9.82991C0.263248 9.72855 0.166759 9.60168 0.100542 9.45828C0.0343244 9.31489 0 9.15847 0 9.00012C0 8.84176 0.0343244 8.68535 0.100542 8.54195C0.166759 8.39855 0.263248 8.27168 0.383174 8.17033L4.64126 4.57037C4.85849 4.38977 5.13726 4.30357 5.41685 4.33056C5.69645 4.35755 5.9542 4.49554 6.13395 4.71447C6.3137 4.93341 6.40089 5.21554 6.37652 5.4994C6.35215 5.78326 6.2182 6.04584 6.00385 6.22995ZM21.6168 8.17033L17.3587 4.57037C17.2515 4.47826 17.1273 4.40861 16.9934 4.36542C16.8595 4.32222 16.7185 4.30636 16.5785 4.31873C16.4386 4.33109 16.3024 4.37146 16.1778 4.43748C16.0533 4.50351 15.9429 4.59389 15.853 4.70342C15.763 4.81296 15.6954 4.93947 15.6539 5.07566C15.6124 5.21185 15.5979 5.35503 15.6112 5.49694C15.6245 5.63885 15.6654 5.77669 15.7314 5.9025C15.7975 6.0283 15.8875 6.13959 15.9962 6.22995L19.2731 9.00012L15.9962 11.7703C15.8875 11.8606 15.7975 11.9719 15.7314 12.0977C15.6654 12.2235 15.6245 12.3614 15.6112 12.5033C15.5979 12.6452 15.6124 12.7884 15.6539 12.9246C15.6954 13.0608 15.763 13.1873 15.853 13.2968C15.9429 13.4063 16.0533 13.4967 16.1778 13.5627C16.3024 13.6288 16.4386 13.6691 16.5785 13.6815C16.7185 13.6939 16.8595 13.678 16.9934 13.6348C17.1273 13.5916 17.2515 13.522 17.3587 13.4299L21.6168 9.82991C21.7367 9.72855 21.8332 9.60168 21.8995 9.45828C21.9657 9.31489 22 9.15847 22 9.00012C22 8.84176 21.9657 8.68535 21.8995 8.54195C21.8332 8.39855 21.7367 8.27168 21.6168 8.17033ZM14.2024 0.0650318C14.071 0.01655 13.9315 -0.00519308 13.7918 0.00104466C13.6521 0.0072824 13.515 0.0413788 13.3883 0.101386C13.2616 0.161393 13.1478 0.246136 13.0534 0.350773C12.959 0.455411 12.8858 0.577893 12.8381 0.711224L7.16063 16.551C7.06439 16.8201 7.07742 17.117 7.19686 17.3764C7.31629 17.6358 7.53236 17.8365 7.79756 17.9343C7.914 17.9779 8.03716 18.0002 8.16128 18C8.37984 18 8.59311 17.9318 8.77214 17.8046C8.95116 17.6774 9.08725 17.4974 9.16193 17.289L14.8394 1.44921C14.8872 1.3159 14.9086 1.17434 14.9024 1.03262C14.8963 0.890902 14.8627 0.7518 14.8035 0.62326C14.7444 0.494721 14.6609 0.379263 14.5577 0.283481C14.4546 0.187699 14.3339 0.113469 14.2024 0.0650318Z" fill="#272727"/>
</svg>
