<svg width="22" height="20" viewBox="0 0 22 20" fill="none" xmlns="http://www.w3.org/2000/svg">
<path d="M22 11.9257C22.002 11.4877 21.9308 9.83489 21.8765 9.3622C21.2507 3.93729 16.7025 0 11.0626 0C5.18811 0 0.428467 4.38201 0.105564 10.1924C0.0986869 10.3192 0.0505469 11.219 0.0471084 11.7546L0.0453891 12.0525C0.0171928 12.1757 0 12.3029 0 12.434V18.2314C0 19.2067 0.819411 20 1.82691 20H3.68133C4.68883 20 5.50856 19.2067 5.50856 18.2314V12.4343C5.50856 11.459 4.68847 10.6658 3.68131 10.6658H1.8262C1.70215 10.6658 1.57842 10.6779 1.4569 10.702C1.46722 10.486 1.4765 10.3153 1.47891 10.264C1.76227 5.17129 5.93048 1.33153 11.0625 1.33153C15.99 1.33153 19.9626 4.7715 20.5093 9.51036C20.5327 9.70809 20.5623 10.2107 20.586 10.7154C20.4519 10.6854 20.315 10.6658 20.1727 10.6658H18.3399C17.3324 10.6658 16.513 11.459 16.513 12.4343V18.2111C16.513 19.1867 17.3324 19.9797 18.3399 19.9797H20.1727C21.1802 19.9797 21.9999 19.1864 21.9999 18.2111V12.4343C21.9999 12.3258 21.9862 12.2203 21.9662 12.1178C21.9862 12.0565 21.9992 11.9926 22 11.9257V11.9257ZM1.82622 11.9973H3.68064C3.92994 11.9973 4.13245 12.193 4.13245 12.4343V18.2317C4.13245 18.4734 3.92957 18.6688 3.68062 18.6688H1.8262C1.57691 18.6688 1.37472 18.4731 1.37472 18.2317V12.4343C1.37541 12.193 1.57759 11.9973 1.82622 11.9973ZM20.6245 18.2108C20.6245 18.4521 20.4217 18.6478 20.1727 18.6478H18.34C18.0907 18.6478 17.8885 18.4521 17.8885 18.2108V12.4343C17.8885 12.193 18.0907 11.9973 18.3399 11.9973H20.1727C20.422 11.9973 20.6245 12.193 20.6245 12.4343V18.2108Z" fill="#272727"/>
</svg>
