<svg width="22" height="16" viewBox="0 0 22 16" fill="none" xmlns="http://www.w3.org/2000/svg">
<path d="M6.07996 7.52692e-05C6.02267 0.000309079 5.96552 0.00161858 5.90726 0.00302144C4.33294 0.0407116 2.40329 0.503561 0 1.57974V12.9604C2.8211 11.6127 4.95412 11.2271 6.69505 11.4129C8.2503 11.5789 9.46578 12.192 10.5742 12.8713V1.50955C9.49642 0.679807 8.24403 0.104822 6.58327 0.0131686C6.41565 0.00383509 6.24779 -0.000531188 6.07991 7.52692e-05H6.07996ZM15.92 7.52692e-05C15.7483 -0.000672922 15.5801 0.00419026 15.4166 0.0131686C13.756 0.104822 12.5036 0.679807 11.4258 1.50955V12.8713C12.5342 12.192 13.7497 11.5789 15.3049 11.4129C17.0459 11.2271 19.1789 11.6127 22 12.9604V1.57979C19.5967 0.503608 17.6671 0.040758 16.0927 0.00297434C16.0345 0.00166501 15.9773 0.000355789 15.92 0.000168742V7.52692e-05ZM16.1856 12.2414C16.1374 12.2413 16.0893 12.2422 16.0419 12.243C15.8187 12.2465 15.6041 12.2603 15.3964 12.2824C13.8212 12.4506 12.6295 13.123 11.4259 13.8929V13.906C11.1216 13.8129 10.8215 13.7951 10.5249 13.8606C9.33807 13.1041 8.15722 12.4483 6.60369 12.2824C6.34396 12.2547 6.07262 12.2411 5.78833 12.243C4.30095 12.253 2.45366 12.7002 4.6397e-05 13.9235V15.9123C2.82114 14.5645 4.95398 14.1789 6.69501 14.3648C7.55591 14.4567 8.31223 14.6849 9.00453 14.9858C8.78718 15.2694 8.57243 15.6063 8.36042 16H13.7991C13.5238 15.6156 13.2514 15.2792 12.9808 14.9918C13.677 14.6877 14.4381 14.4573 15.3049 14.3648C17.0458 14.179 19.1787 14.5645 21.9999 15.9124V13.9236C19.5321 12.6933 17.6773 12.2466 16.1855 12.2416L16.1856 12.2414Z" fill="#272727"/>
</svg>
