<svg width="22" height="22" viewBox="0 0 22 22" fill="none" xmlns="http://www.w3.org/2000/svg">
<path d="M6.24938 9.23175L5.65125 11H4.125L6.68525 4.125H8.45075L11 11H9.39538L8.79725 9.23175H6.24938ZM8.49612 8.21975L7.5625 5.4395H7.49513L6.5615 8.21975H8.49612Z" fill="#272727"/>
<path d="M0 2.75C0 2.02065 0.289731 1.32118 0.805456 0.805456C1.32118 0.289731 2.02065 0 2.75 0L12.375 0C13.1043 0 13.8038 0.289731 14.3195 0.805456C14.8353 1.32118 15.125 2.02065 15.125 2.75V6.875H19.25C19.9793 6.875 20.6788 7.16473 21.1945 7.68046C21.7103 8.19618 22 8.89565 22 9.625V19.25C22 19.9793 21.7103 20.6788 21.1945 21.1945C20.6788 21.7103 19.9793 22 19.25 22H9.625C8.89565 22 8.19618 21.7103 7.68046 21.1945C7.16473 20.6788 6.875 19.9793 6.875 19.25V15.125H2.75C2.02065 15.125 1.32118 14.8353 0.805456 14.3195C0.289731 13.8038 0 13.1043 0 12.375V2.75ZM2.75 1.375C2.38533 1.375 2.03559 1.51987 1.77773 1.77773C1.51987 2.03559 1.375 2.38533 1.375 2.75V12.375C1.375 12.7397 1.51987 13.0894 1.77773 13.3473C2.03559 13.6051 2.38533 13.75 2.75 13.75H12.375C12.7397 13.75 13.0894 13.6051 13.3473 13.3473C13.6051 13.0894 13.75 12.7397 13.75 12.375V2.75C13.75 2.38533 13.6051 2.03559 13.3473 1.77773C13.0894 1.51987 12.7397 1.375 12.375 1.375H2.75ZM12.5647 15.1181C12.8301 15.532 13.1175 15.9197 13.431 16.2814C12.4025 17.072 11.1306 17.6578 9.625 18.0579C9.86975 18.3563 10.2451 18.931 10.3881 19.25C11.935 18.7564 13.2481 18.0895 14.3564 17.1957C15.4248 18.1101 16.7475 18.7976 18.3851 19.2197C18.568 18.8705 18.9544 18.2944 19.25 17.996C17.7031 17.6481 16.4216 17.0417 15.3725 16.2305C16.3089 15.2034 17.0527 13.9604 17.6014 12.4396H19.25V11H15.125V12.4396H16.1769C15.7396 13.6001 15.1594 14.5654 14.4279 15.3684C14.2258 15.1531 14.0354 14.9273 13.8573 14.6919C13.4692 14.9407 13.0246 15.0873 12.5647 15.1181Z" fill="#272727"/>
</svg>
