<svg width="24" height="24" viewBox="0 0 24 24" fill="none" xmlns="http://www.w3.org/2000/svg">
<path d="M12 0C15.1826 0 18.2348 1.26428 20.4853 3.51472C22.7357 5.76515 24 8.8174 24 12C24 15.1826 22.7357 18.2348 20.4853 20.4853C18.2348 22.7357 15.1826 24 12 24C8.8174 24 5.76515 22.7357 3.51472 20.4853C1.26428 18.2348 0 15.1826 0 12C0 8.8174 1.26428 5.76515 3.51472 3.51472C5.76515 1.26428 8.8174 0 12 0ZM12.636 5.12914C11.2406 5.12914 10.1469 5.52514 9.336 6.31714C8.50629 7.10914 8.11029 8.20286 8.11029 9.59829H10.26C10.26 8.80629 10.4109 8.184 10.7314 7.75029C11.0897 7.22229 11.6743 6.97714 12.504 6.97714C13.1451 6.97714 13.6543 7.14686 14.0126 7.50514C14.352 7.86343 14.5406 8.35371 14.5406 8.976C14.5406 9.44743 14.3709 9.9 14.0314 10.3149L13.8051 10.5789C12.5794 11.6726 11.844 12.4646 11.5989 12.9737C11.3349 13.4829 11.2217 14.1051 11.2217 14.8217V15.0857H13.3903V14.8217C13.3903 14.3691 13.4846 13.9731 13.6731 13.596C13.8429 13.2566 14.088 12.936 14.4274 12.6531C15.3326 11.8611 15.8794 11.352 16.0491 11.1634C16.5017 10.56 16.7469 9.78686 16.7469 8.844C16.7469 7.69371 16.3697 6.78857 15.6154 6.12857C14.8611 5.44971 13.8617 5.12914 12.636 5.12914ZM12.2966 16.0097C11.9121 15.9993 11.5391 16.1417 11.2594 16.4057C11.1213 16.5358 11.0128 16.694 10.9412 16.8697C10.8697 17.0454 10.8367 17.2345 10.8446 17.424C10.8446 17.8389 10.9766 18.1783 11.2594 18.4423C11.537 18.7117 11.9097 18.8608 12.2966 18.8571C12.7114 18.8571 13.0509 18.7251 13.3337 18.4611C13.4747 18.3284 13.5862 18.1674 13.661 17.9887C13.7357 17.81 13.772 17.6176 13.7674 17.424C13.771 17.235 13.7361 17.0472 13.6648 16.8722C13.5935 16.6971 13.4872 16.5384 13.3526 16.4057C13.0656 16.1412 12.6867 15.9991 12.2966 16.0097Z" fill="white"/>
</svg>
