<svg width="22" height="21" viewBox="0 0 22 21" fill="none" xmlns="http://www.w3.org/2000/svg">
<path d="M11.3715 3.11327C11.3033 3.04747 11.2126 3.01074 11.1182 3.01074C11.0238 3.01074 10.933 3.04747 10.8648 3.11327L2.43045 11.2387C2.39463 11.2733 2.36614 11.3148 2.34669 11.3608C2.32724 11.4067 2.31724 11.4562 2.31729 11.5062L2.31592 19.1322C2.31592 19.5243 2.47038 19.9004 2.74531 20.1776C3.02025 20.4549 3.39315 20.6107 3.78197 20.6107H8.1847C8.37911 20.6107 8.56555 20.5328 8.70302 20.3942C8.84049 20.2555 8.91772 20.0675 8.91772 19.8714V13.5881C8.91772 13.49 8.95634 13.396 9.02507 13.3267C9.09381 13.2574 9.18703 13.2184 9.28423 13.2184H12.9494C13.0466 13.2184 13.1398 13.2574 13.2085 13.3267C13.2773 13.396 13.3159 13.49 13.3159 13.5881V19.8714C13.3159 20.0675 13.3931 20.2555 13.5306 20.3942C13.668 20.5328 13.8545 20.6107 14.0489 20.6107H18.4498C18.8386 20.6107 19.2115 20.4549 19.4864 20.1776C19.7614 19.9004 19.9158 19.5243 19.9158 19.1322V11.5062C19.9159 11.4562 19.9059 11.4067 19.8864 11.3608C19.867 11.3148 19.8385 11.2733 19.8027 11.2387L11.3715 3.11327Z" fill="white"/>
<path d="M21.7666 9.82488L18.3383 6.51086V1.48195C18.3383 1.28543 18.261 1.09696 18.1235 0.958003C17.986 0.819043 17.7994 0.740976 17.6049 0.740976H15.405C15.2105 0.740976 15.0239 0.819043 14.8864 0.958003C14.7489 1.09696 14.6716 1.28543 14.6716 1.48195V2.9639L12.017 0.399201C11.7686 0.145417 11.3991 0 10.9999 0C10.6021 0 10.2336 0.145417 9.9852 0.399664L0.236516 9.82395C-0.0485656 10.1018 -0.0843154 10.5589 0.1751 10.8599C0.240242 10.9359 0.320006 10.9977 0.409535 11.0416C0.499064 11.0854 0.596486 11.1104 0.695873 11.115C0.795259 11.1196 0.894531 11.1037 0.987647 11.0683C1.08076 11.0329 1.16577 10.9787 1.23751 10.909L10.7479 1.72647C10.8161 1.66052 10.9069 1.62371 11.0013 1.62371C11.0957 1.62371 11.1865 1.66052 11.2548 1.72647L20.766 10.909C20.9061 11.0448 21.0938 11.1189 21.2879 11.1151C21.482 11.1112 21.6666 11.0298 21.8014 10.8886C22.0828 10.5941 22.0595 10.1078 21.7666 9.82488Z" fill="white"/>
</svg>
