<svg width="45" height="43" viewBox="0 0 45 43" fill="none" xmlns="http://www.w3.org/2000/svg">
<g filter="url(#filter0_d_36_930)">
<path d="M17.462 18.7193L16.7635 8.94058C16.7635 8.94058 16.3723 7.51568 16.4841 5.16878C16.5958 2.82187 18.3933 0.745049 19.278 0C18.0487 2.90569 18.0207 4.1909 18.0207 4.3306L18.4398 8.80089C18.5795 10.6635 18.8589 15.2549 18.8589 18.7193C18.8589 22.1838 16.9032 24.6332 15.9253 25.4248C17.1546 24.1955 17.462 20.4423 17.462 18.7193Z" fill="#016457"/>
<path d="M27.7994 23.4692L27.1009 13.6905C27.1009 13.6905 26.7097 12.2656 26.8215 9.91865C26.9332 7.57175 28.7307 5.49493 29.6154 4.74988C28.3861 7.65557 28.3581 8.94078 28.3581 9.08047L28.7772 13.5508C28.9169 15.4134 29.1963 20.0048 29.1963 23.4692C29.1963 26.9337 27.2406 29.3831 26.2627 30.1747C27.492 28.9453 27.7994 25.1922 27.7994 23.4692Z" fill="#016457"/>
<path d="M22.6309 12.1537L21.0942 10.6171L19.6973 12.014L21.2339 13.5507L22.6309 12.1537Z" fill="#016457"/>
<path d="M26.1231 12.1537L24.5864 10.6171L23.1895 12.014L24.7261 13.5507L26.1231 12.1537Z" fill="#016457"/>
<path d="M11.734 12.2933C12.2928 11.2875 14.202 10.4772 15.0867 10.1978L15.5058 9.49934L13.6897 10.1978C13.2427 10.0861 12.6653 9.73217 12.4325 9.49934C12.4325 9.38758 13.0844 9.08025 13.4104 9.08025C13.5087 9.08025 13.7363 9.40621 13.8294 9.63903C14.3882 8.80086 13.8294 8.42833 13.55 8.24207C12.4325 8.10238 11.4546 9.21995 11.4546 9.77873C11.4546 10.0286 12.1996 10.4772 12.5722 10.6169C12.1251 10.8404 11.8271 11.8276 11.734 12.2933Z" fill="#016457"/>
<path d="M7.54346 23.3294V16.0652C7.99049 15.2829 9.40608 14.3423 10.058 13.9697V21.0943C8.80073 21.7927 8.10224 22.6309 7.54346 23.3294Z" fill="#016457"/>
<path d="M6.70508 23.3294V16.0652C6.25805 15.2829 4.84246 14.3423 4.19054 13.9697V21.0943C5.44781 21.7927 6.14629 22.6309 6.70508 23.3294Z" fill="#016457"/>
<path d="M12.2931 16.205H10.8962H10.7565V21.9325C8.66103 22.631 8.38164 23.1898 7.54346 23.8883C8.24194 23.4692 11.129 22.3516 12.2931 22.0722V16.205Z" fill="#016457"/>
<path d="M1.95539 16.205H3.35236H3.49206V21.9325C5.5875 22.631 5.8669 23.1898 6.70508 23.8883C6.00659 23.4692 3.11953 22.3516 1.95539 22.0722V16.205Z" fill="#016457"/>
<path d="M12.9917 23.0501V18.7195H14.249L14.1093 23.6089C14.1093 23.6089 10.5238 23.7951 8.66113 24.028C9.63901 23.6089 12.0139 23.0501 12.9917 23.0501Z" fill="#016457"/>
<path d="M1.2573 23.0501V18.7195H2.6226e-05L0.139723 23.6089C0.139723 23.6089 3.72527 23.7951 5.58789 24.028C4.61001 23.6089 2.23517 23.0501 1.2573 23.0501Z" fill="#016457"/>
<path fill-rule="evenodd" clip-rule="evenodd" d="M5.44873 28.9173C5.56048 27.688 6.89226 25.7043 7.54418 24.8661C5.02963 27.2409 4.33117 30.0349 5.02966 32.1303C5.72814 34.2258 8.24266 34.0861 8.24266 34.0861C8.66176 34.0861 10.5269 33.1988 11.5954 32.1303C12.0145 31.7112 15.0878 29.3364 16.2054 28.6379L17.1833 28.0791L18.4405 27.5203L20.8154 26.6822C22.9108 26.1234 24.8666 25.2852 25.0063 25.1455C26.619 24.153 26.5792 22.8301 26.5501 21.8615C26.5464 21.7394 26.5429 21.6229 26.5429 21.5134C26.5429 20.3737 25.9841 18.3469 25.4254 17.4622C24.6431 15.7858 22.8177 15.6461 22.2123 15.7858C20.3963 16.0652 19.8375 18.1607 19.8375 18.1607C19.2787 20.1164 20.3963 21.0477 21.2344 21.234C21.5138 21.2961 24.4475 21.7928 24.4475 21.7928C24.4475 21.7928 25.565 22.2119 25.565 22.7707C25.565 23.0029 24.2826 23.4795 23.0505 23.8882L17.6023 25.844C15.5069 26.6822 14.9481 27.2409 14.9481 27.2409C14.9481 27.2409 11.0366 30.5937 9.36024 31.9906C7.40449 33.3876 6.24034 32.1303 5.86782 31.5715C5.42079 30.7892 5.30903 29.5692 5.44873 28.9173ZM21.2337 18.908C21.4666 18.582 22.0719 17.986 22.6307 18.2095C23.1591 18.4209 23.2078 18.4723 23.5631 18.8478C23.6775 18.9686 23.8236 19.123 24.0277 19.3271C24.0277 19.3271 21.3734 19.4668 21.2337 18.908Z" fill="#016457"/>
<path d="M19.0102 29.2905C19.7924 29.2905 20.4227 29.5298 20.9012 30.0083C21.3798 30.4843 21.619 31.1108 21.619 31.8877C21.619 32.446 21.4942 32.9529 21.2447 33.4082C21.098 33.6784 20.9231 33.9009 20.7198 34.0759C20.5166 34.2508 20.2477 34.4116 19.9133 34.5583C19.8207 34.5994 19.7731 34.6342 19.7705 34.6625C19.7679 34.7011 19.849 34.7628 20.0136 34.8477L20.4458 35.0754C20.6542 35.186 20.8678 35.2413 21.0865 35.2413C21.2331 35.2413 21.3952 35.1719 21.5727 35.033C21.5984 35.0124 21.6216 35.0008 21.6422 34.9982C21.6628 34.9956 21.6846 35.0098 21.7078 35.0407C21.7309 35.0715 21.7412 35.0998 21.7387 35.1256C21.7335 35.1796 21.6435 35.2838 21.4685 35.4382C21.1263 35.7366 20.7983 35.8858 20.4844 35.8858C20.294 35.8858 20.0934 35.8447 19.8824 35.7623C19.6714 35.68 19.382 35.5295 19.0141 35.3108C18.5664 35.0484 18.268 34.8824 18.1188 34.813C17.9695 34.7461 17.8268 34.7126 17.6904 34.7126C17.482 34.7126 17.3058 34.7975 17.1617 34.9673C17.0202 35.1372 16.9494 35.3443 16.9494 35.5887C16.9494 35.671 16.916 35.7122 16.8491 35.7122C16.7668 35.7122 16.7256 35.6581 16.7256 35.5501L16.714 35.2529L16.7681 34.9982C16.8272 34.8336 16.9597 34.6483 17.1656 34.4425C17.1913 34.4168 17.2041 34.3975 17.2041 34.3846C17.2041 34.3666 17.145 34.3139 17.0266 34.2264C16.741 34.0154 16.5121 33.7183 16.3397 33.3349C16.1699 32.949 16.085 32.5425 16.085 32.1154C16.085 31.2741 16.3551 30.5936 16.8954 30.0739C17.4357 29.5517 18.1406 29.2905 19.0102 29.2905ZM18.6205 29.5915C18.1213 29.5915 17.7264 29.7729 17.4357 30.1357C17.145 30.4984 16.9996 30.9898 16.9996 31.6099C16.9996 32.4435 17.1939 33.1304 17.5823 33.6707C17.9734 34.2084 18.4699 34.4772 19.072 34.4772C19.5788 34.4772 19.9853 34.2778 20.2915 33.8791C20.5976 33.4803 20.7507 32.9516 20.7507 32.293C20.7507 31.5417 20.5436 30.9037 20.1294 30.3788C19.7152 29.854 19.2122 29.5915 18.6205 29.5915ZM25.5785 31.4439V33.8366C25.5785 34.0836 25.5991 34.2367 25.6403 34.2959C25.6814 34.3525 25.7921 34.3808 25.9722 34.3808L26.0609 34.3769C26.0918 34.3769 26.1149 34.3795 26.1304 34.3846C26.1741 34.4001 26.196 34.4284 26.196 34.4695C26.196 34.5596 26.1085 34.6046 25.9336 34.6046H25.7483C25.6428 34.6046 25.5605 34.6072 25.5013 34.6123C25.3444 34.6226 25.1617 34.6535 24.9533 34.7049C24.9276 34.7126 24.9045 34.7165 24.8839 34.7165C24.8273 34.7165 24.799 34.6689 24.799 34.5737C24.799 34.5223 24.8015 34.4785 24.8067 34.4425C24.8118 34.391 24.8144 34.3525 24.8144 34.3267C24.8144 34.2495 24.7977 34.2097 24.7642 34.2071C24.7514 34.2071 24.7308 34.2225 24.7025 34.2534L24.5636 34.3962C24.3269 34.6432 24.0426 34.7667 23.7107 34.7667C23.3299 34.7667 23.0431 34.6612 22.8501 34.4502C22.6571 34.2393 22.5607 33.9267 22.5607 33.5124C22.5607 32.9644 22.5709 32.4898 22.5915 32.0884C22.5941 32.0164 22.5954 31.9546 22.5954 31.9032C22.5954 31.7282 22.5195 31.6343 22.3677 31.6215L22.2133 31.6099C22.1413 31.6047 22.1078 31.57 22.113 31.5057C22.1156 31.4568 22.1542 31.4246 22.2288 31.4092C22.306 31.3912 22.4526 31.3822 22.6687 31.3822C22.8694 31.3822 23.0482 31.3565 23.2051 31.305C23.2746 31.2844 23.3286 31.2741 23.3672 31.2741C23.411 31.2741 23.4328 31.3037 23.4328 31.3629C23.4328 31.4324 23.4303 31.5031 23.4251 31.5751C23.402 31.8479 23.3904 32.3251 23.3904 33.0069C23.3904 33.5317 23.438 33.8829 23.5332 34.0604C23.6284 34.2354 23.8187 34.3229 24.1043 34.3229C24.3282 34.3229 24.5005 34.256 24.6214 34.1222C24.7424 33.9884 24.8028 33.7967 24.8028 33.5472V32.1077C24.8028 31.889 24.7822 31.7552 24.7411 31.7064C24.7025 31.6549 24.5906 31.6176 24.4053 31.5944C24.3256 31.5867 24.2857 31.5559 24.2857 31.5018C24.2857 31.4221 24.3629 31.3822 24.5173 31.3822C24.9649 31.3822 25.2749 31.3513 25.4473 31.2896C25.4808 31.2767 25.5078 31.2703 25.5284 31.2703C25.5644 31.2677 25.5824 31.2934 25.5824 31.3475L25.5785 31.4439ZM27.7705 32.7213V33.8057C27.7705 34.2122 27.9609 34.4412 28.3417 34.4927C28.4214 34.503 28.4613 34.5338 28.4613 34.5853C28.4613 34.6496 28.4317 34.6818 28.3725 34.6818C28.3442 34.6818 28.3082 34.6779 28.2645 34.6702C28.0072 34.6316 27.7422 34.6123 27.4695 34.6123C27.3254 34.6123 27.1955 34.6175 27.0797 34.6277L26.8405 34.6509C26.7967 34.656 26.7517 34.6586 26.7054 34.6586C26.6334 34.6586 26.5973 34.6252 26.5973 34.5583C26.5973 34.512 26.6295 34.4811 26.6938 34.4657C26.8971 34.4168 26.9987 34.2251 26.9987 33.8906L26.9948 33.7286V32.347C26.9948 32.1617 26.9704 32.0395 26.9215 31.9804C26.8752 31.9186 26.7736 31.8813 26.6166 31.8684C26.5575 31.8633 26.5279 31.8363 26.5279 31.7874C26.5279 31.7308 26.5626 31.6974 26.6321 31.6871C26.9845 31.633 27.2856 31.534 27.5351 31.3899L27.6856 31.3011C27.7062 31.2883 27.7255 31.2819 27.7435 31.2819C27.7821 31.2819 27.8014 31.3102 27.8014 31.3668C27.8014 31.3848 27.8001 31.4221 27.7975 31.4787L27.786 31.6948L27.7705 31.9341L27.7744 31.9765C27.7847 32.0125 27.804 32.0318 27.8323 32.0344C27.858 32.037 27.9146 31.9752 28.0021 31.8491C28.0715 31.7514 28.1783 31.6472 28.3224 31.5366C28.469 31.4234 28.5694 31.3668 28.6234 31.3668C28.7109 31.3668 28.8408 31.4336 29.0132 31.5674C29.1881 31.7012 29.2769 31.8016 29.2795 31.8684C29.2795 31.8916 29.2383 31.9816 29.156 32.1386C29.0505 32.3367 28.9579 32.4357 28.8781 32.4357C28.8447 32.4357 28.8138 32.4229 28.7855 32.3971L28.6774 32.3007C28.5462 32.1798 28.3957 32.1193 28.2259 32.1193C27.9223 32.1193 27.7705 32.32 27.7705 32.7213ZM31.3981 32.8217C31.4264 32.7033 31.4406 32.6017 31.4406 32.5168C31.4406 32.2569 31.3775 32.0447 31.2515 31.88C31.128 31.7154 30.9685 31.633 30.7729 31.633C30.5234 31.633 30.3986 31.7359 30.3986 31.9418C30.3986 31.9804 30.4012 32.0177 30.4063 32.0537L30.4179 32.127C30.4179 32.302 30.2198 32.3894 29.8236 32.3894C29.7207 32.3894 29.6718 32.3444 29.6769 32.2544C29.6769 32.2364 29.6834 32.2081 29.6962 32.1695C29.704 32.1412 29.7117 32.1077 29.7194 32.0691C29.7528 31.9045 29.8313 31.7784 29.9548 31.6909C30.2275 31.4954 30.5568 31.3976 30.9427 31.3976C31.3878 31.3976 31.721 31.5005 31.9423 31.7064C32.1121 31.8633 32.197 32.136 32.197 32.5245C32.197 32.72 32.1893 32.9657 32.1738 33.2616C32.1584 33.6012 32.1507 33.8276 32.1507 33.9408C32.1507 34.2058 32.2561 34.3383 32.4671 34.3383C32.5417 34.3383 32.597 34.3293 32.6331 34.3113C32.6742 34.2933 32.7038 34.2843 32.7218 34.2843C32.7578 34.2843 32.7758 34.3023 32.7758 34.3383C32.7758 34.4026 32.7257 34.4631 32.6253 34.5197L32.4748 34.5969L32.3436 34.6741C32.251 34.7229 32.1494 34.7474 32.0388 34.7474C31.8123 34.7474 31.622 34.6007 31.4676 34.3074C30.9891 34.6136 30.5916 34.7667 30.2751 34.7667C30.0564 34.7667 29.8853 34.7036 29.7618 34.5776C29.6384 34.4515 29.5766 34.2766 29.5766 34.0527C29.5766 33.6462 29.7541 33.3504 30.1092 33.1651C30.3279 33.0545 30.7575 32.94 31.3981 32.8217ZM31.3209 33.0416C31.0997 33.0262 30.8887 33.1047 30.688 33.277C30.4874 33.4494 30.387 33.6385 30.387 33.8443C30.387 34.1839 30.5234 34.3537 30.7961 34.3537C30.9659 34.3537 31.1138 34.3139 31.2399 34.2341C31.3094 34.1929 31.357 34.1222 31.3827 34.0219C31.4084 33.9215 31.4213 33.7556 31.4213 33.524L31.4251 33.2269V33.1458L31.402 33.0609C31.3891 33.0506 31.3621 33.0442 31.3209 33.0416ZM36.4999 33.0339V33.8173C36.4999 33.9846 36.5089 34.099 36.527 34.1608C36.545 34.22 36.5861 34.2766 36.6504 34.3306C36.7431 34.4052 36.8614 34.4502 37.0055 34.4657C37.0852 34.4759 37.1251 34.5068 37.1251 34.5583C37.1251 34.6355 37.0338 34.6741 36.8511 34.6741C36.8125 34.6741 36.7572 34.6689 36.6852 34.6586L36.4343 34.6277C36.3211 34.6149 36.2324 34.6084 36.1681 34.6084C35.9236 34.6084 35.7281 34.6226 35.5815 34.6509C35.5223 34.6612 35.4708 34.6663 35.4271 34.6663C35.3705 34.6663 35.3422 34.638 35.3422 34.5814C35.3422 34.5403 35.3718 34.5081 35.431 34.485C35.5442 34.4464 35.62 34.3859 35.6586 34.3036C35.6972 34.2212 35.7165 34.0823 35.7165 33.8868V32.976C35.7165 32.6261 35.6458 32.3496 35.5043 32.1463C35.3653 31.9405 35.175 31.8376 34.9331 31.8376C34.717 31.8376 34.5421 31.8967 34.4083 32.0151C34.2771 32.1334 34.2115 32.2878 34.2115 32.4782V33.7672C34.2115 34.0038 34.2552 34.1775 34.3427 34.2881C34.4327 34.3962 34.5832 34.4592 34.7942 34.4772C34.8662 34.485 34.9022 34.5145 34.9022 34.566C34.9022 34.638 34.8572 34.6741 34.7672 34.6741C34.6823 34.6741 34.5806 34.6676 34.4623 34.6548C34.1716 34.6187 33.9709 34.6007 33.8603 34.6007C33.7111 34.6007 33.5387 34.6136 33.3431 34.6393C33.2505 34.6522 33.1875 34.6586 33.154 34.6586C33.0897 34.6586 33.0576 34.6316 33.0576 34.5776C33.0576 34.5416 33.0794 34.5145 33.1232 34.4965C33.2544 34.4476 33.338 34.3949 33.374 34.3383C33.41 34.2791 33.428 34.1724 33.428 34.018L33.4319 33.8906V32.5322L33.428 32.3817C33.428 32.1965 33.4088 32.0691 33.3702 31.9997C33.3341 31.9276 33.266 31.8916 33.1656 31.8916H32.9881C32.9624 31.8916 32.9431 31.8839 32.9302 31.8684C32.9174 31.8556 32.9109 31.8363 32.9109 31.8106C32.9109 31.7617 32.9302 31.7282 32.9688 31.7102C33.0074 31.6896 33.1206 31.6562 33.3084 31.6099C33.63 31.5353 33.8989 31.4234 34.115 31.2741C34.133 31.2587 34.1497 31.251 34.1651 31.251C34.196 31.2484 34.2115 31.2728 34.2115 31.3243L34.1999 31.5173L34.196 31.7372L34.2192 31.8839C34.2295 31.9148 34.2462 31.9315 34.2693 31.9341C34.2899 31.9366 34.3311 31.9019 34.3928 31.8299C34.6295 31.5417 34.9421 31.3976 35.3306 31.3976C35.75 31.3976 36.0497 31.525 36.2298 31.7797C36.4099 32.0318 36.4999 32.4499 36.4999 33.0339Z" fill="#016457"/>
</g>
<defs>
<filter id="filter0_d_36_930" x="0" y="0" width="44.125" height="42.8859" filterUnits="userSpaceOnUse" color-interpolation-filters="sRGB">
<feFlood flood-opacity="0" result="BackgroundImageFix"/>
<feColorMatrix in="SourceAlpha" type="matrix" values="0 0 0 0 0 0 0 0 0 0 0 0 0 0 0 0 0 0 127 0" result="hardAlpha"/>
<feOffset dx="4" dy="4"/>
<feGaussianBlur stdDeviation="1.5"/>
<feComposite in2="hardAlpha" operator="out"/>
<feColorMatrix type="matrix" values="0 0 0 0 0 0 0 0 0 0 0 0 0 0 0 0 0 0 0.25 0"/>
<feBlend mode="normal" in2="BackgroundImageFix" result="effect1_dropShadow_36_930"/>
<feBlend mode="normal" in="SourceGraphic" in2="effect1_dropShadow_36_930" result="shape"/>
</filter>
</defs>
</svg>
