<svg width="32" height="26" viewBox="0 0 32 26" fill="none" xmlns="http://www.w3.org/2000/svg">
<rect opacity="0.8" x="13" y="7" width="19" height="19" rx="4" fill="#D9D9D9"/>
<path opacity="0.8" d="M22.0918 12.2031C21.9616 12.2031 21.7728 12.1934 21.5254 12.1738C21.278 12.1543 21.0924 12.1445 20.9688 12.1445C20.5521 12.1445 20.0833 12.1836 19.5625 12.2617C19.224 12.3138 18.7617 12.3984 18.1758 12.5156C18.4362 11.7799 18.6803 11.3014 18.9082 11.0801C19.3965 10.5983 20.2168 10.3574 21.3691 10.3574C21.7988 10.3574 22.6777 10.4486 24.0059 10.6309C24.6243 10.7155 25.1582 10.7578 25.6074 10.7578C25.7962 10.7578 26.0729 10.735 26.4375 10.6895C26.8021 10.6439 27.0755 10.6211 27.2578 10.6211L26.8965 12.2715C25.5228 12.5059 24.3542 12.7728 23.3906 13.0723C21.9583 13.515 20.8418 14.0553 20.041 14.6934C19.0449 15.4876 18.5469 16.4251 18.5469 17.5059C18.5469 18.9056 19.276 19.957 20.7344 20.6602C22.0039 21.2721 23.6999 21.5781 25.8223 21.5781H27.6191L27.6777 21.6855L25.4707 23.2383H24.9043C23.498 23.2383 22.3294 23.1081 21.3984 22.8477C20.2852 22.5352 19.4421 22.0339 18.8691 21.3438C18.2181 20.556 17.8926 19.5143 17.8926 18.2188C17.8926 17.125 18.1497 16.1419 18.6641 15.2695C19.0547 14.6055 19.6243 13.9772 20.373 13.3848C20.6009 13.2025 21.1738 12.8086 22.0918 12.2031Z" fill="#016457"/>
<rect x="1" y="1" width="19" height="19" rx="5" fill="#016457" stroke="#AEC2BF" stroke-width="2"/>
<path opacity="0.8" d="M4.4707 17L9.41895 4.11523H11.2559L16.5293 17H14.5869L13.084 13.0977H7.69629L6.28125 17H4.4707ZM8.18848 11.709H12.5566L11.2119 8.14062C10.8018 7.05664 10.4971 6.16602 10.2979 5.46875C10.1338 6.29492 9.90234 7.11523 9.60352 7.92969L8.18848 11.709Z" fill="#F0F0F0"/>
</svg>
