<svg width="23" height="24" viewBox="0 0 23 24" fill="none" xmlns="http://www.w3.org/2000/svg">
<path d="M11.5 7.82609C10.6876 7.82609 9.89347 8.07088 9.218 8.52952C8.54252 8.98815 8.01605 9.64003 7.70517 10.4027C7.39428 11.1654 7.31294 12.0046 7.47143 12.8143C7.62991 13.624 8.02112 14.3677 8.59556 14.9514C9.17 15.5351 9.90189 15.9327 10.6987 16.0937C11.4954 16.2548 12.3213 16.1721 13.0719 15.8562C13.8224 15.5403 14.4639 15.0053 14.9153 14.3189C15.3666 13.6325 15.6075 12.8255 15.6075 12C15.6042 10.894 15.1705 9.83429 14.4008 9.05225C13.6312 8.2702 12.5884 7.82939 11.5 7.82609ZM20.3681 12C20.366 12.39 20.3378 12.7794 20.2839 13.1656L22.7838 15.1544C22.8927 15.2458 22.9661 15.3735 22.9908 15.5148C23.0155 15.656 22.99 15.8016 22.9188 15.9256L20.554 20.0744C20.4821 20.1973 20.3699 20.2904 20.2371 20.3374C20.1043 20.3845 19.9594 20.3824 19.828 20.3317L16.8885 19.1317C16.2764 19.6106 15.6066 20.0081 14.8954 20.3144L14.4559 23.4856C14.4313 23.6276 14.3589 23.7566 14.2511 23.8504C14.1433 23.9442 14.0068 23.9971 13.8649 24H9.13511C8.99579 23.9972 8.8615 23.9466 8.75417 23.8563C8.64683 23.766 8.5728 23.6414 8.54414 23.5028L8.10464 20.3317C7.39141 20.0289 6.72111 19.6307 6.11148 19.1478L3.17205 20.3478C3.04065 20.3986 2.89583 20.4008 2.76304 20.3538C2.63026 20.3069 2.51802 20.2139 2.44605 20.0911L0.0811533 15.9428C0.00996922 15.8189 -0.0155328 15.6733 0.00920441 15.532C0.0339416 15.3907 0.107306 15.263 0.216187 15.1717L2.71611 13.1828C2.66279 12.7908 2.63466 12.3957 2.63191 12C2.63405 11.61 2.66218 11.2206 2.71611 10.8344L0.216187 8.84556C0.107306 8.75421 0.0339416 8.62648 0.00920441 8.48522C-0.0155328 8.34395 0.00996922 8.19835 0.0811533 8.07443L2.44605 3.92557C2.51794 3.80274 2.63015 3.70962 2.76294 3.66257C2.89573 3.61553 3.04059 3.61757 3.17205 3.66835L6.11148 4.86835C6.72355 4.3894 7.39337 3.99192 8.10464 3.68557L8.54414 0.514435C8.56874 0.372391 8.64112 0.243436 8.74891 0.149606C8.8567 0.0557758 8.99321 0.00289499 9.13511 0H13.8649C14.0042 0.00275558 14.1385 0.0534215 14.2458 0.143727C14.3532 0.234032 14.4272 0.358643 14.4559 0.497217L14.8954 3.66835C15.6095 3.97094 16.2807 4.36907 16.8911 4.85217L19.828 3.65217C19.9594 3.60135 20.1042 3.59923 20.237 3.64618C20.3697 3.69313 20.482 3.78614 20.554 3.90887L22.9188 8.05774C22.99 8.18166 23.0155 8.32726 22.9908 8.46852C22.9661 8.60979 22.8927 8.73751 22.7838 8.82887L20.2839 10.8177C20.3372 11.2095 20.3653 11.6045 20.3681 12Z" fill="white"/>
</svg>
