<svg width="37" height="24" viewBox="0 0 37 24" fill="none" xmlns="http://www.w3.org/2000/svg">
<g opacity="0.8">
<path d="M10.3335 15.3334C13.0949 15.3334 15.3335 13.0948 15.3335 10.3334C15.3335 7.57195 13.0949 5.33337 10.3335 5.33337C7.57207 5.33337 5.3335 7.57195 5.3335 10.3334C5.3335 13.0948 7.57207 15.3334 10.3335 15.3334Z" stroke="#F0F0F0" stroke-width="2.25" stroke-linecap="round" stroke-linejoin="round"/>
<path d="M15.3335 5.33337V15.3334" stroke="#F0F0F0" stroke-width="2.25" stroke-linecap="round" stroke-linejoin="round"/>
<path d="M27 15.3334C29.7614 15.3334 32 13.0948 32 10.3334C32 7.57195 29.7614 5.33337 27 5.33337C24.2386 5.33337 22 7.57195 22 10.3334C22 13.0948 24.2386 15.3334 27 15.3334Z" stroke="#F0F0F0" stroke-width="2.25" stroke-linecap="round" stroke-linejoin="round"/>
<path d="M22 2V15.3333M35.3333 18.6667V20.3333C35.3333 21.1667 34.5 22 33.6667 22H3.66667C2.83333 22 2 21.1667 2 20.3333V18.6667" stroke="#F0F0F0" stroke-width="2.25" stroke-linecap="round" stroke-linejoin="round"/>
</g>
</svg>
