<svg width="22" height="20" viewBox="0 0 22 20" fill="none" xmlns="http://www.w3.org/2000/svg">
<path opacity="0.8" d="M14.5365 7.76841H21.6068C21.824 7.76841 22 7.59446 22 7.37972V0.388693C22 0.17396 21.824 0 21.6068 0H14.5365C14.3192 0 14.1432 0.17396 14.1432 0.388693V2.91384H10.4115C10.3042 2.91384 10.2163 3.00082 10.2163 3.10682V9.12748H7.8595V6.50448C7.8595 6.28975 7.6835 6.11579 7.46625 6.11579H0.39325C0.176 6.11579 0 6.28975 0 6.50448V13.4955C0 13.7102 0.176 13.8842 0.39325 13.8842H7.4635C7.68075 13.8842 7.85675 13.7102 7.85675 13.4955V10.8725H10.2135V16.8932C10.2135 16.9992 10.3015 17.0862 10.4087 17.0862H14.1405V19.6113C14.1405 19.826 14.3165 20 14.5337 20H21.604C21.8212 20 21.9972 19.826 21.9972 19.6113V12.6257C21.9972 12.411 21.8212 12.237 21.604 12.237H14.5365C14.3192 12.237 14.1432 12.411 14.1432 12.6257V15.3438H11.9818V4.66159H14.1432V7.37972C14.1432 7.59446 14.3192 7.76841 14.5365 7.76841ZM16.0077 1.84561H20.1327V5.92552H16.0077V1.84561ZM5.99225 12.0413H1.86725V7.96412H5.99225V12.0413ZM16.0077 14.0826H20.1327V18.1625H16.0077V14.0826Z" fill="#F0F0F0"/>
</svg>
