<svg width="535" height="290" viewBox="0 0 535 290" fill="none" xmlns="http://www.w3.org/2000/svg">
<path d="M306.91 2.8169C304.51 6.15023 306.11 10.4169 310.11 11.4836C312.11 12.0169 312.51 13.3502 312.11 19.6169L311.576 27.2169L295.843 28.1502C256.376 30.4169 223.976 33.4836 220.51 35.3502C218.51 36.4169 215.176 39.3502 213.176 42.1502L209.443 46.9502L209.043 73.2169C208.643 95.7502 208.91 99.6169 210.643 101.084C215.31 104.95 331.443 105.217 340.91 101.484C346.11 99.3502 347.576 93.4836 348.376 72.5502C349.043 52.0169 346.91 36.6836 342.243 30.5502C339.976 27.4836 338.91 27.2169 326.91 26.8169L314.11 26.4169V18.5502C314.11 12.0169 314.51 10.4169 316.776 9.2169C320.11 7.48357 320.243 4.15023 317.176 1.75023C313.576 -0.916433 309.176 -0.516433 306.91 2.8169ZM316.51 5.48357C316.776 7.08357 315.843 8.0169 313.443 8.68357C309.31 9.75023 306.776 7.75023 307.976 4.55023C309.043 1.6169 315.976 2.4169 316.51 5.48357ZM340.776 31.7502C341.443 33.2169 342.11 34.6836 342.11 35.0836C342.11 35.4836 335.31 35.8836 327.176 35.8836C318.91 35.8836 295.443 36.8169 275.043 37.8836C235.31 39.8836 233.976 40.1502 229.176 47.3502C227.31 50.1502 226.91 53.4836 227.176 63.7502C227.576 83.2169 228.643 90.4169 231.576 91.8836C236.776 94.8169 333.176 92.4169 341.443 89.2169C344.376 88.1502 344.776 88.2836 344.776 91.0836C344.776 92.8169 343.71 95.6169 342.376 97.2169C340.376 99.7502 337.843 100.417 326.643 101.484C310.11 103.084 213.976 101.617 212.11 99.7502C211.31 98.9502 210.91 88.8169 211.043 73.7502C211.443 46.4169 212.243 43.0836 219.843 38.5502C222.11 37.0836 226.376 35.6169 229.443 35.2169C241.71 33.4836 304.11 29.4836 321.043 29.3502C337.843 29.2169 339.443 29.4836 340.776 31.7502ZM344.11 39.4836C344.776 40.8169 345.443 51.8836 345.843 64.0169L346.376 86.1502L342.91 87.0836C334.91 89.0836 304.51 90.5502 269.31 90.5502H231.71L231.043 87.4836C230.643 85.8836 229.843 77.6169 229.31 69.2169C228.51 56.2836 228.776 53.0836 230.643 49.4836C234.376 42.1502 236.643 41.7502 278.776 40.0169C300.11 39.0836 318.91 38.1502 320.776 38.0169C322.643 37.7502 328.376 37.4836 333.576 37.3502C341.576 37.2169 343.31 37.6169 344.11 39.4836Z" fill="white"/>
<path d="M323.043 50.0169C319.976 53.0835 323.976 59.2169 327.976 57.7502C331.31 56.4169 330.243 50.0169 326.776 49.4835C325.176 49.2169 323.576 49.4835 323.043 50.0169Z" fill="white"/>
<path d="M257.043 56.1502C253.31 59.8835 257.31 65.0835 261.976 62.5502C265.443 60.6835 265.576 57.7502 262.243 55.8835C259.043 54.1502 259.043 54.1502 257.043 56.1502Z" fill="white"/>
<path d="M283.843 78.6836C280.643 80.2836 278.11 82.0169 278.11 82.6836C278.11 84.4169 278.643 84.2836 284.243 80.9502C291.176 76.8169 303.576 76.8169 310.51 80.9502C313.576 82.6836 315.443 83.2169 315.176 82.2836C313.176 76.0169 293.71 73.7502 283.843 78.6836Z" fill="white"/>
<path d="M411.443 7.4836C407.443 9.0836 407.576 11.3503 412.243 16.0169C416.643 20.5503 417.043 21.3503 416.11 26.4169C415.176 31.8836 415.176 31.8836 409.443 31.8836C404.51 31.8836 403.176 31.2169 398.91 26.5503C396.243 23.6169 393.576 21.2169 392.91 21.2169C390.643 21.2169 387.31 30.2836 388.243 34.1503C390.776 44.9503 397.976 49.8836 409.576 48.9503C415.976 48.5503 416.243 48.6836 413.443 52.4169C409.71 57.4836 411.71 67.8836 417.843 74.8169C419.576 76.9503 419.443 78.0169 415.71 85.6169C413.31 90.2836 409.843 95.8836 407.843 97.8836C396.11 109.617 377.176 117.217 359.443 117.217C347.31 117.217 344.776 116.55 344.776 113.217C344.776 111.217 343.176 110.684 334.51 109.75C323.31 108.684 232.376 110.284 221.443 111.75C215.31 112.417 214.776 112.817 214.376 116.284C213.976 120.017 213.843 120.15 207.043 119.217C179.043 115.35 159.043 100.284 145.576 72.6836C140.243 62.0169 139.843 60.4169 141.843 59.7503C147.043 57.7503 151.576 50.9503 153.043 42.9503C154.776 33.3503 153.71 27.8836 150.243 27.8836C145.576 27.8836 143.443 29.4836 143.443 32.8169C143.443 40.9503 135.043 48.8169 128.11 47.0836C123.71 46.0169 119.71 40.8169 118.643 34.9503C117.843 31.0836 117.31 30.4169 114.91 31.0836C113.443 31.4836 111.043 31.8836 109.843 31.8836C106.643 31.8836 106.776 36.5503 110.11 45.7503C112.91 52.9503 119.31 60.1503 124.376 61.7503C126.11 62.2836 127.843 65.8836 130.11 72.6836C139.043 100.95 159.976 121.35 188.776 129.617C196.51 131.884 210.776 133.884 212.376 133.084C213.843 132.284 215.31 140.684 216.243 155.884L217.176 169.884L207.843 170.017C193.843 170.284 180.776 177.484 178.643 186.017C178.243 187.75 176.51 189.35 174.643 189.75C172.91 190.284 170.643 192.417 169.443 194.55C167.043 199.084 166.776 205.217 168.91 205.217C169.976 205.217 170.243 207.084 169.71 210.55C169.31 213.484 169.576 215.884 170.11 215.884C170.776 215.884 171.443 213.884 171.71 211.484C171.976 207.884 172.776 207.084 175.71 206.817C179.443 206.417 179.443 206.417 178.643 212.817C178.11 217.484 178.243 218.684 179.31 217.217C180.11 216.15 180.776 213.617 180.776 211.484C180.776 209.217 181.443 207.884 182.776 207.884C186.11 207.884 185.443 195.35 181.976 192.017C179.443 189.617 179.31 189.217 181.31 185.484C185.976 176.417 197.976 171.084 211.443 172.15L217.443 172.55L217.843 178.817C218.243 184.95 218.11 185.217 213.176 187.217C206.376 190.017 201.176 195.217 199.31 201.084C197.176 207.35 197.576 220.55 199.976 227.35C201.176 230.684 201.443 233.484 200.643 234.684C199.976 235.75 199.443 239.217 199.443 242.284C199.443 246.95 199.976 248.284 202.11 248.817C203.576 249.217 205.31 251.484 206.11 254.017C208.11 260.017 210.243 259.884 208.376 253.75C207.176 249.884 207.31 248.817 208.91 247.75C212.376 245.617 213.843 246.417 214.643 251.217C215.176 253.75 216.11 256.15 216.776 256.55C218.51 257.617 218.51 254.284 216.776 249.75C215.71 247.217 215.71 245.884 216.776 245.217C220.91 242.684 210.243 229.217 205.576 230.95C203.043 232.017 200.776 225.617 199.976 214.55C199.31 207.217 199.71 204.95 202.376 200.017C205.576 193.884 209.71 190.15 215.176 188.55C218.11 187.75 218.11 187.75 218.11 202.284V216.817L224.643 216.417L231.176 216.15L233.976 238.284C235.576 250.55 237.043 262.417 237.443 264.817C237.843 268.817 237.576 269.217 233.043 269.884C221.31 271.884 215.443 276.817 215.443 284.684V289.217H234.91H254.51L253.576 281.484C252.376 271.084 249.176 238.817 248.11 226.417L247.31 216.284L281.443 215.217C300.243 214.684 315.843 214.55 316.11 214.817C316.243 214.95 317.176 228.417 317.976 244.55C318.776 260.684 319.843 277.084 320.243 280.95L321.043 287.884H341.043H361.176L360.376 283.084C359.976 280.417 358.776 277.35 357.843 276.284C355.043 272.817 347.976 270.55 340.11 270.55C336.11 270.55 332.91 270.15 333.043 269.617C333.176 268.95 332.776 261.35 332.243 252.55C331.71 243.75 331.043 232.684 330.776 227.884C329.976 214.284 330.376 213.35 339.176 212.95L346.776 212.55L346.643 189.884C346.51 177.35 346.11 159.35 345.576 149.617L344.776 132.15L359.043 132.284C370.91 132.417 375.176 132.017 383.176 129.35C402.11 123.217 418.376 109.484 426.776 92.8169C429.31 87.7503 431.443 82.8169 431.443 81.8836C431.443 80.9503 434.11 79.8836 437.71 79.3503C442.643 78.6836 444.243 78.9503 445.176 80.5503C447.176 84.2836 463.843 102.684 466.376 104.017C471.71 106.817 477.976 100.684 476.243 94.2836C475.843 92.5503 470.91 85.4836 465.176 78.5503C455.176 66.0169 455.043 65.7503 455.31 58.8169C455.71 48.4169 454.776 46.5503 449.176 46.5503C445.71 46.5503 444.376 47.2169 443.843 49.0836C443.31 51.0836 442.376 50.5503 437.576 45.3503C427.976 34.8169 428.11 35.0836 431.31 31.0836C438.376 22.1503 431.443 8.15027 419.443 7.0836C416.11 6.81694 412.51 6.95027 411.443 7.4836ZM426.376 11.8836C428.243 13.2169 430.51 16.2836 431.443 18.5503C433.176 22.8169 432.11 26.5503 427.176 33.4836C425.843 35.3503 425.843 36.1503 427.576 37.4836C428.643 38.4169 432.643 42.8169 436.376 47.2169C443.576 55.8836 443.843 58.0169 438.11 63.2169L435.31 65.7503L425.71 55.3503C416.643 45.4836 415.843 44.9503 412.91 46.4169C408.776 48.6836 400.243 47.0836 395.443 42.9503C390.776 39.0836 389.043 32.0169 391.443 26.8169L393.043 23.3503L397.71 28.9503C402.11 34.2836 402.776 34.5503 409.443 34.5503H416.51L417.976 27.6169C419.576 20.6836 419.576 20.6836 414.776 15.8836C412.243 13.2169 410.51 10.6836 410.91 10.1503C412.91 8.15027 423.176 9.21694 426.376 11.8836ZM151.443 37.4836C151.443 51.3503 143.443 59.8836 130.776 59.8836C120.376 59.8836 114.243 53.8836 110.376 39.6169C109.176 35.2169 109.31 34.5503 111.576 33.8836C114.776 32.8169 116.776 34.0169 116.776 37.2169C116.776 38.6836 118.643 41.8836 120.91 44.5503C124.376 48.4169 125.976 49.2169 130.376 49.2169C138.91 49.2169 145.976 40.9503 144.91 32.1503C144.776 31.2169 146.11 30.5503 148.11 30.5503C151.31 30.5503 151.443 30.9503 151.443 37.4836ZM451.443 49.2169C453.176 49.2169 453.976 56.4169 452.776 61.7503C450.376 72.5503 437.71 80.0169 427.176 77.0836C419.976 75.2169 414.11 67.8836 414.11 60.8169C414.11 57.6169 415.043 53.8836 416.11 52.4169C417.976 50.0169 418.11 50.0169 421.176 53.8836C423.043 56.0169 424.243 58.5503 423.843 59.4836C422.91 61.8836 429.443 67.8836 433.043 67.8836C439.043 67.7503 446.11 58.2836 446.11 50.4169C446.11 48.4169 446.643 47.8836 448.243 48.4169C449.443 48.8169 450.776 49.2169 451.443 49.2169ZM430.11 64.1503C430.11 64.9503 429.176 64.8169 428.11 63.8836C427.043 62.9503 426.11 61.6169 426.11 60.9503C426.11 60.1503 427.043 60.2836 428.11 61.2169C429.176 62.1503 430.11 63.4836 430.11 64.1503ZM144.243 74.6836C148.243 82.9503 149.71 87.3503 148.776 87.6169C147.843 88.0169 145.976 89.3503 144.51 90.8169C143.043 92.2836 141.71 93.2169 141.443 92.9503C138.776 90.0169 130.11 68.1503 130.11 64.4169C130.11 63.0836 136.11 61.2169 137.843 62.0169C137.976 62.0169 140.91 67.7503 144.243 74.6836ZM463.176 79.4836C474.776 94.2836 475.976 96.4169 474.11 99.8836C470.91 105.884 464.91 101.884 450.776 84.1503L445.176 77.0836L449.31 72.5503C451.576 70.0169 453.576 68.0169 453.71 68.0169C453.843 67.8836 457.976 73.0836 463.176 79.4836ZM427.31 86.9503C424.643 93.6169 417.843 104.417 415.443 105.884C414.643 106.417 412.91 105.35 411.576 103.75C409.176 100.817 409.176 100.55 413.443 93.8836C415.843 90.1503 418.776 84.9503 419.843 82.2836C421.843 77.6169 422.11 77.4836 425.843 78.8169L429.843 80.4169L427.31 86.9503ZM161.843 99.7503C171.176 109.217 171.976 110.417 169.843 111.75C168.51 112.55 167.443 114.15 167.443 115.217C167.443 116.284 166.91 117.217 166.243 117.217C164.11 117.217 150.776 105.75 146.776 100.55L143.043 95.4836L146.643 92.2836C148.643 90.6836 150.51 89.2169 150.91 89.2169C151.176 89.2169 156.11 93.8836 161.843 99.7503ZM410.91 106.95C412.11 110.817 404.643 117.217 391.976 123.35C380.776 128.684 379.976 128.817 379.043 124.817C378.776 123.217 378.11 120.95 377.576 119.884C376.91 118.284 378.51 117.217 384.11 115.217C388.243 113.884 394.91 110.55 399.043 107.75C407.043 102.55 409.443 102.417 410.91 106.95ZM187.976 116.417C193.043 118.417 200.51 120.284 204.776 120.817C212.51 121.617 212.51 121.617 213.176 126.417C213.443 129.084 213.576 131.484 213.31 131.75C213.043 132.017 207.31 131.217 200.51 130.017C187.576 127.617 168.776 120.684 168.776 118.15C168.776 117.35 169.843 115.617 171.043 114.284C173.71 111.35 174.776 111.484 187.976 116.417ZM308.91 120.817C308.91 125.884 309.443 132.55 310.11 135.884C310.91 140.55 311.176 138.417 311.043 126.817L310.776 111.884H325.443C333.576 111.884 340.776 112.417 341.443 112.95C342.243 113.484 343.043 124.817 343.31 140.15L343.843 166.417L330.51 166.15C311.71 165.75 312.243 165.217 313.176 188.15C313.576 198.284 313.576 207.75 313.176 209.084C312.376 212.15 305.176 212.684 253.843 214.017L220.776 214.817V207.35V199.884H245.843C269.71 199.884 271.043 199.75 273.976 197.084C276.91 194.284 277.043 193.484 276.243 182.684C275.843 176.417 275.176 164.284 274.643 155.884C273.843 138.55 272.51 133.617 268.376 132.95C266.776 132.684 254.243 132.417 240.51 132.55L215.443 132.684V124.684C215.443 120.15 215.976 115.884 216.51 114.95C217.71 113.084 228.91 112.55 277.843 112.15L308.776 111.884L308.91 120.817ZM376.643 123.084C377.843 125.617 377.976 127.217 377.043 128.15C375.176 130.017 358.643 131.084 350.91 130.017C344.91 129.084 344.776 128.95 344.776 124.15V119.217H359.843L374.776 119.35L376.643 123.084ZM225.443 137.217C226.376 140.284 224.11 143.884 221.176 143.884C220.11 143.884 219.71 144.417 220.11 145.217C222.51 148.95 229.443 142.55 228.243 137.75C227.443 134.817 227.71 134.55 232.643 134.55C237.443 134.55 237.843 134.817 238.643 139.084C239.71 144.684 237.976 149.35 233.176 153.75C229.31 157.35 221.31 159.75 219.443 157.75C218.91 157.084 217.976 151.617 217.443 145.484L216.643 134.55H220.643C223.443 134.55 224.91 135.35 225.443 137.217ZM246.11 136.55C246.11 139.35 242.11 140.684 240.643 138.417C238.776 135.35 239.176 134.55 242.776 134.55C244.91 134.55 246.11 135.35 246.11 136.55ZM255.043 137.35C254.776 138.817 253.71 140.684 252.643 141.35C251.176 142.284 251.176 142.55 253.043 142.55C255.976 142.55 257.976 146.15 257.043 149.75C256.51 152.017 256.776 152.284 258.11 150.95C260.11 149.084 266.11 151.35 266.11 154.15C266.11 155.084 266.776 155.884 267.576 155.884C268.376 155.884 268.776 155.084 268.376 154.017C267.576 152.017 270.91 149.884 271.976 151.617C272.243 152.15 272.243 154.15 271.843 156.15C271.31 159.217 270.376 159.75 266.243 160.15C261.976 160.55 261.443 160.95 261.71 164.15C261.843 166.684 261.176 167.884 259.043 168.417C253.576 169.884 251.443 169.217 250.643 165.884C249.71 162.017 249.576 162.017 245.71 164.017C237.71 168.15 234.51 174.417 238.91 176.95C240.11 177.617 240.776 179.217 240.643 180.417C240.243 182.417 239.443 182.15 235.576 178.684C233.043 176.417 228.376 173.617 225.176 172.417C222.11 171.217 219.443 169.35 219.443 168.284C219.443 167.217 220.11 166.817 220.776 167.217C221.576 167.75 223.976 167.75 226.11 167.217C229.443 166.55 230.11 165.617 230.11 162.55C230.11 157.617 233.576 155.484 237.576 158.017C240.776 160.284 242.243 159.084 244.776 152.684C245.976 149.484 245.843 148.95 243.443 148.284C239.043 147.084 240.51 142.017 245.31 141.484C248.51 141.084 248.91 140.55 248.376 137.75C247.843 134.95 248.376 134.55 251.576 134.55C254.776 134.55 255.31 135.084 255.043 137.35ZM262.643 136.417C261.71 138.95 265.976 142.95 268.91 142.15C270.51 141.75 271.576 142.417 272.11 144.017C273.31 147.484 271.843 149.217 267.976 149.217C263.043 149.217 259.976 147.217 258.11 142.684C256.11 137.75 257.176 134.55 260.643 134.55C262.376 134.55 263.043 135.217 262.643 136.417ZM269.843 136.15C272.376 138.684 271.71 140.15 268.51 139.617C266.776 139.35 265.31 138.15 265.043 136.817C264.51 134.15 267.443 133.75 269.843 136.15ZM242.51 153.35C241.576 156.55 240.51 157.35 238.243 156.017C236.91 155.084 236.91 154.284 237.976 152.15C239.843 148.684 243.443 149.617 242.51 153.35ZM227.71 161.75C229.176 163.884 227.576 165.217 223.31 165.217C220.51 165.217 219.443 164.55 219.443 162.817C219.443 161.217 220.51 160.55 223.176 160.55C225.176 160.417 227.176 161.084 227.71 161.75ZM272.51 165.35C272.91 168.55 272.51 168.684 268.776 168.15C264.11 167.484 261.976 164.284 264.91 162.417C268.376 160.15 272.11 161.617 272.51 165.35ZM249.71 169.217C249.843 170.284 248.376 172.55 246.243 174.15C242.91 176.817 242.243 176.95 239.976 175.217C237.576 173.35 237.576 173.084 241.31 169.884C245.31 166.15 249.176 165.884 249.71 169.217ZM333.576 169.884C335.576 174.95 322.643 193.217 317.043 193.217C314.11 193.217 315.176 182.417 318.243 178.95C319.843 177.35 321.176 174.15 321.31 171.884C321.443 168.017 321.71 167.884 327.176 167.884C331.043 167.884 333.043 168.55 333.576 169.884ZM344.51 189.35L344.776 210.15L337.843 210.95C333.976 211.484 327.31 211.884 323.176 211.884H315.443V204.15C315.443 196.55 315.576 196.55 317.843 199.617C320.243 202.684 320.376 202.684 325.176 200.417C330.376 197.884 331.443 194.684 328.11 191.884C324.91 189.217 329.176 185.084 334.11 186.017C336.91 186.684 338.243 186.15 339.976 183.75C343.043 179.35 342.643 176.017 338.776 174.284C336.91 173.484 335.443 171.75 335.443 170.417C335.443 168.417 336.376 168.017 339.843 168.284L344.11 168.55L344.51 189.35ZM319.443 171.617C319.443 174.417 315.976 179.617 314.91 178.417C314.51 178.017 314.51 175.75 314.91 173.484C315.843 168.95 319.443 167.484 319.443 171.617ZM273.843 180.684L274.243 190.284L268.243 189.617C261.443 188.817 255.443 191.617 255.443 195.617C255.443 197.484 255.843 197.484 257.843 194.95C260.91 191.084 266.376 189.884 270.776 192.15C273.576 193.75 273.976 194.417 272.51 195.484C270.776 197.084 263.443 197.484 246.376 197.35L236.776 197.217L237.576 193.484C239.843 184.017 247.976 173.617 254.376 171.617C256.11 171.217 261.043 170.817 265.443 170.95L273.443 171.217L273.843 180.684ZM226.51 175.35C231.043 177.617 238.11 183.75 238.11 185.35C238.11 185.884 235.576 186.15 232.51 185.884C229.31 185.617 225.176 185.35 223.176 185.35C219.71 185.217 219.443 184.817 219.443 179.217C219.443 172.55 220.243 172.15 226.51 175.35ZM338.643 176.684C341.843 177.884 337.71 185.217 334.243 184.284C332.11 183.75 331.976 183.217 333.176 179.75C334.776 175.617 335.31 175.35 338.643 176.684ZM226.91 190.817C226.51 192.55 226.11 194.684 226.11 195.484C226.11 196.417 224.776 197.217 223.043 197.217C220.51 197.217 219.976 196.55 219.843 192.55C219.71 188.284 219.976 187.884 223.71 187.884C227.31 187.884 227.71 188.284 226.91 190.817ZM235.043 188.95C235.843 189.484 236.243 191.484 235.843 193.617C235.31 196.55 234.376 197.217 231.31 197.217C226.91 197.217 227.043 197.484 228.91 192.017C230.376 187.884 231.976 187.084 235.043 188.95ZM181.31 194.817C183.576 198.017 184.11 203.35 182.243 204.417C180.51 205.484 169.71 203.35 169.176 201.884C169.043 201.084 169.976 198.55 171.443 196.15C174.51 191.084 178.376 190.55 181.31 194.817ZM327.176 193.484C329.576 195.884 329.176 196.684 324.776 198.55C321.176 200.017 320.51 200.017 318.776 197.75C317.176 195.484 317.176 195.217 319.176 194.817C320.376 194.55 321.976 193.75 322.776 193.084C324.376 191.484 325.31 191.617 327.176 193.484ZM328.776 220.55V227.884H324.11H319.443V221.35C319.443 215.617 319.843 214.684 322.51 214.15C328.776 212.95 328.776 212.95 328.776 220.55ZM245.843 224.017L246.243 231.617L241.176 232.15C238.376 232.55 235.843 232.684 235.71 232.417C235.443 232.284 234.91 228.417 234.51 223.884L233.71 215.75L239.576 216.15L245.443 216.55L245.843 224.017ZM326.91 230.284C327.71 230.817 328.643 235.484 329.043 240.817L329.71 250.284L325.443 250.817C321.31 251.35 321.043 251.084 320.243 246.55C319.176 240.284 319.176 231.217 320.376 230.15C321.443 228.95 325.043 228.95 326.91 230.284ZM211.71 235.484C212.91 236.817 214.243 239.217 214.643 240.684C215.443 243.084 214.643 243.75 209.443 245.217C206.11 246.15 203.043 246.55 202.51 246.017C201.443 245.084 201.71 236.284 202.776 234.55C204.11 232.417 209.576 233.084 211.71 235.484ZM246.776 236.15C247.043 237.084 247.443 241.217 247.843 245.484L248.243 252.95L243.576 253.617C240.91 253.884 238.643 254.017 238.51 253.884C238.376 253.884 237.71 249.35 237.31 244.15L236.376 234.55H241.31C243.976 234.55 246.376 235.217 246.776 236.15ZM330.776 262.15C331.71 271.217 331.043 273.084 325.576 274.95C324.776 275.217 324.51 276.017 325.043 276.55C325.576 277.084 326.776 276.95 327.71 276.284C328.643 275.484 330.91 274.417 332.643 273.884C335.176 273.084 335.71 273.35 335.043 275.084C333.71 278.55 336.243 278.684 337.843 275.217C338.776 273.217 340.51 271.884 342.11 271.884C344.376 271.884 344.643 272.55 343.976 275.484L343.176 279.217L345.843 276.017C348.11 273.217 348.643 273.084 351.576 274.55C355.576 276.684 357.976 279.884 358.11 282.817C358.11 284.95 356.376 285.217 340.11 285.217H322.11V279.484C322.11 276.284 321.71 269.084 321.31 263.484L320.376 253.217H325.043H329.843L330.776 262.15ZM249.443 263.884C249.976 267.617 250.11 270.95 249.71 271.35C249.31 271.75 247.043 271.484 244.643 270.817C240.376 269.75 240.11 269.35 239.71 262.95C239.443 257.217 239.71 256.017 241.71 255.617C246.243 254.55 248.51 256.95 249.443 263.884ZM246.643 273.75C250.51 275.35 251.176 276.417 251.71 281.084L252.243 286.55H235.176H218.11V282.684C218.11 278.15 221.31 274.684 222.643 277.884C223.043 278.95 223.976 279.884 224.776 279.884C225.71 279.884 225.843 279.084 224.91 277.35C223.843 275.35 223.976 274.684 225.576 274.017C229.443 272.55 230.91 273.217 232.51 276.817L233.976 280.55L233.576 276.15C233.31 272.15 233.443 271.884 237.71 271.884C240.243 271.884 244.243 272.684 246.643 273.75Z" fill="white"/>
<path d="M223.443 121.884C223.443 122.95 224.376 123.884 225.443 123.884C226.51 123.884 227.443 122.95 227.443 121.884C227.443 120.817 226.51 119.884 225.443 119.884C224.376 119.884 223.443 120.817 223.443 121.884Z" fill="white"/>
<path d="M332.776 121.217C332.776 121.884 333.443 122.55 334.11 122.55C334.91 122.55 335.443 121.884 335.443 121.217C335.443 120.417 334.91 119.884 334.11 119.884C333.443 119.884 332.776 120.417 332.776 121.217Z" fill="white"/>
<path d="M93.5764 92.1502C92.6431 96.4169 91.9764 97.0835 88.2431 97.6169L84.1097 98.1502L88.5097 98.2835C92.5097 98.5502 92.7764 98.9502 92.7764 103.084C92.7764 105.617 93.4431 108.15 94.1097 108.55C94.9097 109.084 95.4431 107.217 95.4431 104.017C95.4431 98.8169 95.5764 98.6835 100.51 98.1502L105.443 97.6169L100.51 97.4835C95.8431 97.2169 95.5764 96.9502 95.1764 92.1502L94.6431 87.2169L93.5764 92.1502Z" fill="white"/>
<path d="M43.1764 111.484C45.4431 111.75 49.4431 111.75 51.8431 111.484C54.1097 111.217 52.2431 110.95 47.4431 110.95C42.6431 110.95 40.7764 111.217 43.1764 111.484Z" fill="white"/>
<path d="M428.51 126.684C425.71 128.284 425.443 131.617 427.576 136.417C430.51 142.684 436.776 141.75 436.776 135.084C436.776 132.95 438.11 131.35 440.91 129.884C444.776 127.75 445.043 127.884 445.71 130.417C446.11 132.017 447.043 133.217 447.71 133.217C448.376 133.217 448.51 131.884 448.11 130.417C447.443 128.55 447.843 127.084 448.91 126.417C452.11 124.417 446.91 124.95 441.443 127.35C436.91 129.217 436.243 129.217 434.243 127.35C431.576 124.817 431.443 124.817 428.51 126.684ZM434.51 132.284C435.31 134.817 435.31 136.55 434.376 137.484C432.11 139.75 428.776 136.15 428.776 131.617C428.776 126.417 432.643 126.95 434.51 132.284Z" fill="white"/>
<path d="M498.243 127.35C498.11 129.217 496.776 130.55 493.843 131.617L489.443 132.95L493.843 133.084C497.443 133.217 498.11 133.75 498.11 136.684C498.11 138.684 498.643 139.75 499.576 139.084C500.376 138.684 500.776 137.217 500.376 135.884C499.976 134.15 500.776 133.217 503.976 132.417L508.11 131.35L503.843 130.95C500.776 130.55 499.443 129.617 499.043 127.484C498.51 124.684 498.51 124.684 498.243 127.35Z" fill="white"/>
<path d="M96.9098 135.35C93.3098 137.884 93.3098 140.55 96.9098 142.95C98.9098 144.417 99.5764 146.017 99.1764 149.35C98.6431 155.084 94.6431 156.017 88.7764 151.617L84.5097 148.55L81.9764 151.617C79.7097 154.55 79.5764 155.084 81.5764 158.95C86.5097 168.55 93.4431 172.284 101.176 169.35C104.776 168.017 105.576 168.417 116.91 178.55C129.576 190.017 133.31 191.35 138.11 186.55C141.443 183.217 141.576 175.75 138.376 172.817C134.91 169.617 117.71 158.55 116.376 158.55C115.71 158.55 115.443 156.684 115.976 154.417C118.11 143.75 104.51 130.15 96.9098 135.35ZM104.776 137.884C114.243 142.817 116.776 152.417 110.643 159.884C101.176 170.95 90.3764 170.55 84.2431 158.817C82.5097 155.484 82.5097 154.55 83.9764 153.35C85.3097 152.284 86.3764 152.55 88.2431 154.684C90.2431 156.817 91.7097 157.35 95.3098 156.684C97.8431 156.284 100.376 155.217 101.043 154.284C103.043 151.084 102.243 144.417 99.4431 141.884C97.4431 140.017 97.1764 139.084 98.2431 137.617C100.11 135.484 100.11 135.484 104.776 137.884ZM127.043 167.35C139.176 175.617 141.576 179.35 137.443 183.884C136.11 185.35 133.843 186.55 132.376 186.55C130.243 186.55 107.443 168.95 107.443 167.217C107.443 166.15 113.443 160.15 114.643 160.017C115.31 159.884 120.776 163.217 127.043 167.35Z" fill="white"/>
<path d="M130.11 178.417C130.11 179.084 130.776 180.15 131.443 180.55C132.243 180.95 132.776 180.817 132.776 180.017C132.776 179.35 132.243 178.284 131.443 177.884C130.776 177.484 130.11 177.617 130.11 178.417Z" fill="white"/>
<path d="M147.443 149.217C147.443 149.884 150.776 150.55 154.776 150.55C158.776 150.55 162.11 149.884 162.11 149.217C162.11 148.417 158.776 147.884 154.776 147.884C150.776 147.884 147.443 148.417 147.443 149.217Z" fill="white"/>
<path d="M472.776 151.084C472.776 153.35 471.843 154.55 469.443 155.084C467.71 155.484 465.176 157.75 464.11 159.884C462.91 162.15 461.176 163.884 460.11 163.884C459.176 163.884 457.043 165.484 455.576 167.35C453.843 169.484 451.976 170.55 450.776 170.017C449.71 169.617 448.776 169.884 448.776 170.55C448.776 171.35 449.576 171.884 450.643 171.884C451.71 171.884 452.91 173.884 453.443 176.817C455.31 187.084 461.443 193.884 465.576 190.417C469.71 187.084 466.376 178.017 459.31 173.484L455.176 170.817L458.243 167.75L461.31 164.684L463.576 170.15C466.643 177.217 470.643 179.617 474.243 176.417C479.443 171.75 476.376 165.217 468.11 163.35L464.11 162.284L467.843 159.084C469.843 157.35 472.11 155.884 472.643 155.884C473.31 155.884 475.31 158.284 477.31 161.217C481.576 167.75 486.376 170.417 489.443 167.884C494.376 163.75 489.31 156.417 480.51 155.084C476.243 154.284 475.443 153.617 475.443 151.084C475.443 149.35 474.91 147.884 474.11 147.884C473.443 147.884 472.776 149.35 472.776 151.084ZM485.843 159.35C489.043 161.484 489.843 166.55 486.91 166.55C485.176 166.55 476.776 158.15 476.776 156.417C476.776 155.35 482.243 157.217 485.843 159.35ZM471.576 166.55C474.11 168.017 475.043 173.75 472.91 175.084C470.11 176.95 464.776 171.217 464.776 166.55C464.776 164.817 468.243 164.817 471.576 166.55ZM461.043 178.15C463.443 180.417 464.776 183.084 464.776 185.484C464.776 193.084 457.71 187.617 455.843 178.55C454.91 173.617 456.243 173.484 461.043 178.15Z" fill="white"/>
<path d="M391.176 156.817C389.843 157.084 388.776 158.684 388.776 160.284C388.776 163.75 382.376 167.35 380.243 165.217C377.976 162.95 374.51 163.75 372.243 167.217C369.443 171.484 369.576 174.684 372.51 175.484C376.376 176.417 374.776 182.55 370.643 182.55C367.976 182.55 367.443 183.217 367.443 186.817C367.443 192.684 369.176 195.084 372.643 194.15C374.51 193.75 376.11 194.284 377.31 196.15C379.043 198.55 379.043 199.35 377.31 201.884C375.576 204.417 375.71 205.084 377.71 206.95C380.776 209.617 387.31 212.15 388.91 211.084C389.576 210.684 390.11 209.484 390.11 208.417C390.11 207.35 391.443 206.55 393.443 206.55C396.11 206.55 396.776 207.217 396.776 209.884C396.776 213.75 399.976 214.284 407.31 211.75C410.91 210.55 411.576 209.75 410.91 207.217C409.843 203.217 414.51 199.084 419.443 199.617C423.843 200.15 426.11 197.084 426.11 190.684C426.11 187.217 425.576 186.55 422.91 186.55C418.376 186.55 416.776 180.017 420.643 177.35C424.51 174.95 424.11 172.817 419.31 167.217C414.643 162.017 413.176 161.484 410.776 164.684C409.576 166.55 408.643 166.55 406.376 165.35C404.776 164.55 403.443 162.684 403.443 161.484C403.443 156.684 398.643 154.817 391.176 156.817ZM400.776 160.55C400.776 161.884 399.31 162.55 396.11 162.55C392.91 162.55 391.443 161.884 391.443 160.55C391.443 159.217 392.91 158.55 396.11 158.55C399.31 158.55 400.776 159.217 400.776 160.55ZM402.91 166.417C405.976 167.75 410.11 171.217 412.243 174.017C417.576 180.817 417.71 191.884 412.776 198.15C406.91 205.484 396.776 207.35 387.443 202.55C369.043 193.217 374.91 164.95 395.443 164.017C396.51 164.017 399.976 165.084 402.91 166.417ZM417.71 168.684C421.043 172.284 421.176 174.95 417.976 175.617C415.843 176.017 411.576 169.35 412.51 166.817C413.176 164.55 414.11 164.817 417.71 168.684ZM378.643 167.75C379.843 169.617 375.043 174.684 373.176 173.484C371.843 172.684 371.976 171.75 373.576 169.484C375.71 166.417 377.443 165.75 378.643 167.75ZM372.643 192.017C370.51 193.217 370.643 193.484 369.576 188.95C368.91 186.284 369.31 185.35 371.043 184.95C373.976 184.417 375.176 190.417 372.643 192.017ZM423.71 188.684C424.51 189.484 422.776 196.95 421.576 198.284C421.176 198.684 419.976 198.15 418.91 197.35C417.443 196.017 417.31 194.817 418.376 191.75C419.576 188.15 421.976 186.817 423.71 188.684ZM385.176 203.75C388.91 205.75 389.71 207.217 387.576 208.55C386.643 209.084 381.576 207.617 378.376 205.75C377.576 205.35 379.843 201.084 380.643 201.484C381.043 201.75 383.043 202.817 385.176 203.75ZM408.776 207.084C408.776 209.084 405.976 210.55 401.976 210.55C398.243 210.55 398.91 208.284 403.176 206.817C408.11 204.95 408.776 204.95 408.776 207.084Z" fill="white"/>
<path d="M392.51 180.017C389.443 181.75 389.31 188.684 392.243 189.75C396.11 191.217 399.31 190.55 401.31 187.75C405.443 181.75 399.043 176.15 392.51 180.017ZM400.243 182.684C400.643 183.484 399.976 185.35 398.51 186.684C396.376 188.95 395.71 189.084 393.443 187.35C391.31 185.75 391.176 185.217 392.643 183.35C394.643 180.95 398.91 180.55 400.243 182.684Z" fill="white"/>
<path d="M507.443 175.217C505.176 177.884 507.043 182.417 510.91 183.35C516.51 184.817 520.51 178.817 516.51 174.817C514.376 172.684 509.443 172.817 507.443 175.217ZM516.376 178.95C516.11 179.884 514.643 180.684 513.043 180.95C509.576 181.484 507.443 177.484 510.243 175.884C512.376 174.417 517.176 176.817 516.376 178.95Z" fill="white"/>
<path d="M78.5097 194.817C74.6431 196.684 72.2431 202.817 73.1764 209.217C73.7097 213.884 73.5764 214.55 71.3097 214.55C69.7097 214.55 67.7097 212.817 66.3764 210.55C64.1097 206.55 62.1097 205.35 62.1097 208.017C62.1097 208.817 63.9764 211.217 66.1097 213.484C69.3097 216.684 71.0431 217.35 73.9764 216.817C75.9764 216.417 78.2431 216.55 79.0431 217.35C80.2431 218.55 93.9764 222.017 103.043 223.484C112.243 224.95 122.243 218.15 121.976 210.684C121.843 207.35 121.843 207.484 120.643 211.484C119.31 216.017 112.91 220.817 107.443 221.35C99.3097 222.017 96.7764 220.15 102.51 217.617C109.71 214.284 112.243 201.217 106.11 199.217C100.376 197.35 93.9764 205.084 93.7097 214.017C93.5764 219.084 91.3097 219.75 83.5764 217.084L79.3097 215.617L82.7764 211.884C87.3097 207.084 88.6431 199.35 85.4431 195.884C82.7764 192.95 82.5097 192.817 78.5097 194.817ZM84.5097 201.35C85.0431 207.484 79.4431 215.084 76.6431 212.15C74.1097 209.75 74.5097 201.75 77.4431 198.55C81.1764 194.55 83.9764 195.617 84.5097 201.35ZM107.31 203.084C109.31 205.484 106.776 210.817 101.71 215.75C97.4431 219.617 94.9097 218.284 95.8431 212.55C97.3097 203.484 103.443 198.417 107.31 203.084Z" fill="white"/>
<path d="M478.11 198.684C469.71 202.017 463.843 211.617 462.51 223.884L461.71 231.884H453.31H444.776V227.084C444.776 224.55 444.243 222.684 443.576 223.084C442.91 223.484 442.643 224.95 442.91 226.284C444.11 231.084 441.843 231.884 421.31 232.95L401.443 233.884L401.576 254.284L401.843 274.55L398.643 275.35C386.643 278.417 372.776 266.284 374.776 254.55C375.576 250.017 375.176 249.084 372.243 247.217C370.376 246.017 367.043 245.217 364.51 245.484C360.376 245.884 360.11 246.15 360.376 250.684C360.776 257.617 365.843 270.15 370.243 275.217C372.376 277.617 376.91 280.684 380.376 282.284C386.243 284.684 389.976 284.95 427.976 285.084C450.776 285.084 471.31 285.617 473.71 286.017L478.11 286.817V268.684V250.55L481.443 249.75C483.31 249.35 486.376 249.35 488.243 249.75C491.71 250.684 491.71 250.817 490.776 259.617C489.976 267.75 490.243 268.817 492.643 271.084C494.243 272.55 495.843 273.217 496.376 272.684C497.043 272.15 496.376 271.084 495.043 270.417C492.643 268.95 491.976 260.417 493.976 255.35C494.91 253.084 495.31 253.217 498.376 257.35C500.243 259.884 502.11 263.084 502.643 264.417C503.843 267.884 505.31 266.15 504.11 262.55C503.31 260.017 497.176 251.884 490.243 244.15C488.643 242.55 485.71 240.817 483.443 240.417C480.11 239.75 479.443 238.95 479.443 235.75C479.443 232.15 479.176 232.017 471.843 231.617L464.11 231.217L464.51 226.55C465.976 206.95 477.176 196.284 492.643 199.75C499.843 201.35 506.51 206.284 505.31 209.084C502.243 216.15 504.243 225.884 508.376 224.284C509.31 223.884 511.443 224.684 512.776 225.884C515.71 228.55 516.51 226.817 513.843 224.017C512.376 222.684 512.643 222.017 514.776 220.417C517.176 218.684 517.576 218.684 519.043 220.684C519.976 222.017 521.176 222.684 521.576 222.15C522.11 221.617 521.843 220.417 521.043 219.484C519.843 218.15 519.976 217.217 521.043 216.15C522.243 214.95 521.71 213.617 518.643 210.417C515.576 207.217 513.976 206.55 511.176 207.084C509.043 207.484 507.443 207.217 507.443 206.55C507.443 205.75 504.643 203.35 501.176 201.217C496.243 198.017 493.443 197.217 488.243 197.35C484.51 197.35 479.976 198.017 478.11 198.684ZM517.576 212.017C519.176 213.884 519.576 215.084 518.643 215.484C517.843 215.75 515.176 217.484 512.643 219.35C508.51 222.417 507.976 222.417 506.51 220.284C504.243 217.35 504.376 215.75 506.91 212.15C509.443 208.417 514.243 208.417 517.576 212.017ZM476.776 258.684V284.284L470.643 283.35C467.176 282.95 452.91 282.55 438.91 282.55H413.443L419.443 279.084C431.576 272.284 443.976 256.95 440.376 253.35C437.843 250.817 428.776 251.884 428.776 254.817C428.776 259.484 415.043 271.084 406.51 273.75C403.576 274.684 403.576 274.55 403.176 255.217L402.776 235.884L407.443 235.75C409.976 235.617 421.443 235.084 432.776 234.55C444.11 234.15 458.643 233.617 465.176 233.484L476.776 233.217V258.684ZM487.843 244.417C491.176 246.95 490.776 247.217 484.11 247.35C480.776 247.484 478.11 247.35 478.11 247.217C478.11 242.684 483.576 241.217 487.843 244.417ZM370.91 248.417C372.243 249.484 373.043 250.684 372.51 251.217C371.31 252.55 360.643 249.217 361.443 247.884C362.643 245.884 367.843 246.284 370.91 248.417ZM370.643 253.217C372.243 253.217 372.776 253.884 372.376 255.084C371.976 256.15 372.11 258.817 372.643 260.817C373.576 263.884 373.176 264.95 370.643 266.95C367.71 269.217 367.71 269.217 365.443 262.15C364.243 258.417 362.91 254.417 362.643 253.35C362.243 252.017 362.91 251.75 365.043 252.417C366.776 252.817 369.176 253.217 370.643 253.217ZM438.11 255.617C438.11 257.084 432.91 257.217 432.11 255.75C431.576 255.084 432.776 254.55 434.643 254.55C436.51 254.55 438.11 255.084 438.11 255.617ZM436.776 260.284C436.776 262.817 422.243 275.884 419.443 275.884C415.176 275.884 416.376 272.95 423.843 265.084C429.043 259.617 431.576 257.884 433.843 258.284C435.443 258.684 436.776 259.484 436.776 260.284ZM376.776 268.95C376.776 269.484 379.176 271.484 382.11 273.217C385.71 275.484 387.443 277.484 387.443 279.617C387.443 282.284 386.91 282.55 384.51 281.884C381.176 280.817 371.71 274.817 370.643 272.95C369.31 270.817 371.31 267.884 374.11 267.884C375.576 267.884 376.776 268.417 376.776 268.95ZM415.043 275.75C416.51 278.017 416.11 278.55 411.31 280.417C408.376 281.617 402.376 282.95 397.976 283.484C390.11 284.284 390.11 284.284 390.11 280.684C390.11 277.35 390.51 277.217 397.176 277.217C400.91 277.084 405.976 276.284 408.11 275.217C413.443 272.817 413.176 272.817 415.043 275.75Z" fill="white"/>
<path d="M464.91 241.484C464.776 242.95 463.71 243.884 462.11 243.884C460.643 243.884 459.443 244.417 459.443 245.217C459.443 245.884 460.643 246.55 461.976 246.55C463.443 246.55 464.91 247.617 465.176 248.817C465.71 251.084 465.843 251.084 465.976 248.817C466.11 247.484 467.176 246.55 468.776 246.55C470.243 246.55 471.443 245.884 471.443 245.217C471.443 244.417 470.243 243.884 468.91 243.884C467.443 243.884 465.976 242.817 465.71 241.484C465.176 239.35 465.043 239.35 464.91 241.484Z" fill="white"/>
<path d="M439.443 245.217C439.443 245.884 442.11 246.55 445.443 246.55C448.776 246.55 451.443 245.884 451.443 245.217C451.443 244.417 448.776 243.884 445.443 243.884C442.11 243.884 439.443 244.417 439.443 245.217Z" fill="white"/>
<path d="M458.51 256.15C456.91 258.15 452.776 266.017 452.776 267.217C452.776 267.617 454.376 267.884 456.243 267.884H459.71L456.776 272.684C452.376 279.617 454.51 279.75 459.443 272.684C461.976 268.95 462.91 266.55 461.843 266.55C457.443 266.417 456.51 264.417 458.776 259.884C461.043 255.484 460.91 253.217 458.51 256.15Z" fill="white"/>
<path d="M47.1764 236.417C41.7097 238.817 35.4431 245.217 32.6431 251.217C28.9097 259.35 29.4431 266.15 34.5097 274.55C44.1097 290.55 64.5097 293.75 78.6431 281.35C91.3097 270.15 86.9097 245.35 70.6431 237.217C64.5097 234.15 53.0431 233.75 47.1764 236.417ZM67.1764 237.884C73.7097 240.684 77.9764 244.817 80.9097 251.217C84.1097 258.15 84.2431 270.15 81.1764 274.55C70.5097 289.884 51.5764 291.35 39.7097 277.884C32.6431 269.884 30.9097 263.084 33.8431 254.284C38.2431 240.284 54.1097 232.55 67.1764 237.884Z" fill="white"/>
<path d="M50.643 243.35C51.043 244.55 51.443 245.75 51.443 246.017C51.443 246.284 51.9763 246.55 52.643 246.55C53.3096 246.55 53.5763 245.35 53.1763 243.884C52.7763 242.417 51.843 241.217 51.1763 241.217C50.3763 241.217 50.243 242.15 50.643 243.35Z" fill="white"/>
<path d="M68.2431 246.017C66.9098 249.35 68.3764 249.884 70.1098 246.684C70.9098 245.084 71.0431 243.884 70.2431 243.884C69.5764 243.884 68.6431 244.817 68.2431 246.017Z" fill="white"/>
<path d="M38.5097 254.15C39.7097 255.35 41.1763 255.884 41.7097 255.35C42.243 254.817 41.843 253.884 40.7763 253.217C37.443 251.084 36.1097 251.75 38.5097 254.15Z" fill="white"/>
<path d="M55.843 257.484C45.443 263.884 43.1763 271.617 50.7763 274.55C55.3097 276.284 58.5097 274.55 61.1763 268.95C63.5763 263.617 65.443 253.217 63.843 253.217C63.3097 253.217 59.7097 255.084 55.843 257.484ZM59.843 265.35C57.7097 271.884 57.043 272.55 53.443 272.55C50.243 272.55 49.3097 271.884 49.043 269.484C48.7763 267.75 49.3097 265.484 50.3763 264.284C52.7763 261.35 61.3097 256.017 61.843 257.217C61.9763 257.75 61.1763 261.35 59.843 265.35Z" fill="white"/>
<path d="M74.1097 261.217C74.1097 261.884 75.3097 262.55 76.7764 262.55C78.2431 262.55 79.4431 261.884 79.4431 261.217C79.4431 260.417 78.2431 259.884 76.7764 259.884C75.3097 259.884 74.1097 260.417 74.1097 261.217Z" fill="white"/>
<path d="M70.5097 276.817C71.7097 278.017 73.1763 278.55 73.7097 278.017C74.243 277.484 73.843 276.55 72.7763 275.884C69.443 273.75 68.1097 274.417 70.5097 276.817Z" fill="white"/>
<path d="M135.043 241.084C125.576 244.284 119.31 248.284 105.443 260.017C90.243 273.084 90.5097 272.684 93.443 278.15C96.5097 283.75 105.976 289.617 110.91 288.95C113.71 288.684 115.31 287.084 117.976 282.15C125.976 267.484 139.043 258.55 152.91 258.55C164.776 258.55 172.51 265.084 175.71 277.884C177.843 286.95 178.91 287.884 185.443 287.884C193.043 287.884 194.643 285.75 193.71 276.817C191.71 260.55 184.643 249.217 172.243 242.95C163.043 238.15 146.376 237.35 135.043 241.084ZM153.576 244.55C153.976 246.15 154.11 249.217 153.843 251.217C153.443 254.55 152.51 255.217 145.443 257.217C141.043 258.417 134.51 261.35 131.043 263.617C125.843 267.217 124.776 267.617 124.776 265.75C124.776 262.55 119.576 257.217 116.51 257.217C106.643 257.217 129.976 243.35 143.31 241.35C150.91 240.15 152.643 240.684 153.576 244.55ZM169.443 243.884C175.71 246.55 184.776 254.684 184.776 257.484C184.776 260.684 179.443 266.55 176.643 266.55C175.043 266.55 172.11 264.817 169.976 262.55C167.71 260.417 163.71 258.017 161.043 257.084C156.376 255.75 156.11 255.35 156.11 250.15C155.976 247.084 155.576 243.484 154.91 242.284C153.976 240.284 154.51 240.15 159.043 240.817C161.843 241.217 166.51 242.55 169.443 243.884ZM121.176 262.684C124.376 266.55 124.11 268.55 119.176 276.017L115.043 282.55L109.443 277.35C106.376 274.55 102.51 271.75 100.91 271.217C99.443 270.817 98.1097 270.017 98.243 269.484C98.243 268.95 101.043 266.284 104.376 263.484C109.576 259.217 111.31 258.417 114.643 259.084C116.91 259.484 119.843 261.217 121.176 262.684ZM191.043 276.684C191.71 284.15 191.576 284.95 189.043 285.75C183.576 287.484 179.976 285.35 178.51 279.484C177.71 276.417 176.776 272.95 176.243 271.75C175.576 270.15 176.243 269.35 178.776 268.684C180.776 268.15 183.31 266.017 184.51 263.884L186.776 259.884L188.643 264.15C189.576 266.55 190.776 272.284 191.043 276.684ZM105.176 276.55C108.643 279.217 111.976 282.417 112.776 283.884C114.11 286.284 113.71 286.55 109.443 286.55C105.976 286.55 103.443 285.35 99.443 281.75C93.9764 276.817 92.7764 274.017 95.843 272.817C98.643 271.617 98.9097 271.75 105.176 276.55Z" fill="white"/>
<path d="M270.643 245.75C270.243 246.95 270.11 248.817 270.643 249.884C271.71 252.95 265.976 261.217 262.776 260.817C260.376 260.55 260.11 261.35 260.11 267.217C260.11 273.484 260.243 273.884 263.443 273.617C267.976 273.217 272.51 279.217 270.376 282.684C269.043 284.684 269.31 285.484 271.71 287.217C275.843 290.017 280.376 289.75 281.443 286.55C282.11 284.684 283.443 283.884 286.51 283.884C288.91 283.884 291.71 283.217 292.776 282.55C294.11 281.75 295.443 282.017 297.176 283.484C299.31 285.484 299.71 285.484 303.043 283.084C309.31 278.417 309.976 276.15 305.976 272.817C303.043 270.417 302.51 269.084 303.043 265.484C303.443 263.217 304.243 261.217 304.91 261.217C307.576 261.217 305.843 254.817 301.976 250.55L297.843 246.017L295.576 249.084C292.643 252.95 286.51 251.884 285.843 247.484C285.443 244.95 284.51 244.55 278.376 244.15C273.043 243.884 271.176 244.284 270.643 245.75ZM283.443 247.084C283.443 249.617 274.11 251.35 272.643 248.95C271.176 246.684 273.71 245.217 279.176 245.217C281.976 245.217 283.443 245.884 283.443 247.084ZM304.776 258.55C304.776 260.817 302.376 260.017 298.91 256.55C296.776 254.417 295.843 252.417 296.376 250.95C297.043 249.217 297.843 249.484 301.043 253.084C303.043 255.35 304.776 257.884 304.776 258.55ZM290.51 253.75C292.91 254.684 296.243 257.084 297.976 258.95C302.376 263.75 301.31 272.017 295.576 277.75C291.976 281.217 290.376 281.884 284.91 281.884C276.643 281.884 271.443 278.284 269.043 271.084C264.376 257.35 276.376 247.617 290.51 253.75ZM265.843 266.817C265.31 272.95 262.11 273.35 262.11 267.35C262.11 263.884 262.643 262.55 264.243 262.55C265.71 262.55 266.11 263.617 265.843 266.817ZM305.71 275.35C306.776 278.15 301.71 283.217 298.91 282.15C297.043 281.35 297.043 280.95 299.176 277.217C301.71 272.817 304.376 272.017 305.71 275.35ZM277.31 283.217C278.643 284.15 279.31 285.617 278.91 286.417C277.576 288.417 271.443 285.35 272.376 283.084C273.176 280.817 274.11 280.817 277.31 283.217Z" fill="white"/>
<path d="M280.243 263.35C276.643 266.817 277.976 271.217 282.643 271.217C287.443 271.217 290.11 267.617 287.976 264.15C285.976 260.95 282.91 260.684 280.243 263.35ZM286.11 266.55C286.11 268.017 285.843 269.217 285.576 269.217C285.31 269.217 284.11 269.617 282.91 270.017C281.443 270.55 280.776 270.017 280.776 268.284C280.776 265.217 281.843 263.884 284.376 263.884C285.31 263.884 286.11 265.084 286.11 266.55Z" fill="white"/>
<path d="M526.11 263.617C526.11 265.75 524.91 266.817 521.843 267.75L517.443 268.95L521.843 269.084C525.443 269.217 526.11 269.75 526.11 272.55C526.11 274.417 526.776 275.884 527.443 275.884C528.243 275.884 528.776 274.417 528.776 272.55C528.776 270.15 529.443 269.217 531.31 269.217C535.443 269.217 535.843 266.817 531.843 266.284C529.71 266.017 528.11 265.217 528.11 264.284C528.11 263.484 527.71 262.284 527.176 261.75C526.51 261.217 526.11 262.017 526.11 263.617Z" fill="white"/>
<path d="M7.57636 268.15C7.44303 271.217 6.77636 271.884 4.24303 271.884C2.37636 271.884 0.509697 272.417 0.109697 273.217C-0.423637 274.017 1.04303 274.55 3.3097 274.55C6.9097 274.55 7.44303 275.084 7.44303 278.017C7.44303 279.884 7.97636 281.084 8.77636 280.55C9.57636 280.15 10.1097 278.284 10.1097 276.417C10.1097 273.884 10.7764 273.217 13.7097 273.217C15.5764 273.217 16.7764 272.817 16.243 272.284C15.7097 271.75 13.9764 271.217 12.3764 271.217C10.5097 271.217 9.3097 270.15 8.64303 267.884L7.7097 264.55L7.57636 268.15Z" fill="white"/>
</svg>
