<svg width="13" height="12" viewBox="0 0 13 12" fill="none" xmlns="http://www.w3.org/2000/svg">
<path fill-rule="evenodd" clip-rule="evenodd" d="M3.22702 0.160235C3.27965 0.210899 3.32141 0.271085 3.3499 0.337347C3.3784 0.403609 3.39306 0.474645 3.39306 0.546385C3.39306 0.618126 3.3784 0.689161 3.3499 0.755423C3.32141 0.821685 3.27965 0.881872 3.22702 0.932536L1.93051 2.18262H7.91344C9.26248 2.18262 10.5563 2.69978 11.5102 3.62034C12.4641 4.5409 13 5.78944 13 7.09131C13 8.39317 12.4641 9.64172 11.5102 10.5623C10.5563 11.4828 9.26248 12 7.91344 12H3.39205C3.24216 12 3.0984 11.9425 2.99241 11.8403C2.88642 11.738 2.82688 11.5992 2.82688 11.4546C2.82688 11.3099 2.88642 11.1712 2.99241 11.0689C3.0984 10.9666 3.24216 10.9092 3.39205 10.9092H7.91344C8.96269 10.9092 9.96897 10.5069 10.7109 9.79095C11.4528 9.07496 11.8697 8.10387 11.8697 7.09131C11.8697 6.07874 11.4528 5.10765 10.7109 4.39166C9.96897 3.67568 8.96269 3.27344 7.91344 3.27344H1.93051L3.22702 4.52352C3.27957 4.57423 3.32125 4.63443 3.34969 4.70068C3.37813 4.76694 3.39277 4.83795 3.39277 4.90967C3.39277 4.98138 3.37813 5.05239 3.34969 5.11865C3.32125 5.18491 3.27957 5.24511 3.22702 5.29582C3.17447 5.34653 3.11209 5.38675 3.04343 5.4142C2.97478 5.44164 2.90119 5.45577 2.82688 5.45577C2.75256 5.45577 2.67898 5.44164 2.61032 5.4142C2.54167 5.38675 2.47928 5.34653 2.42673 5.29582L0.166041 3.11418C0.113408 3.06351 0.0716501 3.00333 0.0431581 2.93706C0.0146661 2.8708 0 2.79977 0 2.72803C0 2.65629 0.0146661 2.58525 0.0431581 2.51899C0.0716501 2.45273 0.113408 2.39254 0.166041 2.34188L2.42673 0.160235C2.47923 0.109443 2.5416 0.0691447 2.61027 0.0416489C2.67893 0.0141532 2.75254 0 2.82688 0C2.90122 0 2.97483 0.0141532 3.04349 0.0416489C3.11215 0.0691447 3.17452 0.109443 3.22702 0.160235Z" fill="white"/>
</svg>
