<svg width="24" height="18" viewBox="0 0 24 18" fill="none" xmlns="http://www.w3.org/2000/svg">
<path id="Vector" fill-rule="evenodd" clip-rule="evenodd" d="M1.26316 0C0.928148 0 0.606858 0.135449 0.36997 0.37655C0.133082 0.617651 0 0.944654 0 1.28562C0 1.62659 0.133082 1.95359 0.36997 2.19469C0.606858 2.4358 0.928148 2.57124 1.26316 2.57124H22.7368C23.0719 2.57124 23.3931 2.4358 23.63 2.19469C23.8669 1.95359 24 1.62659 24 1.28562C24 0.944654 23.8669 0.617651 23.63 0.37655C23.3931 0.135449 23.0719 0 22.7368 0H1.26316ZM0 8.99936C0 8.65839 0.133082 8.33139 0.36997 8.09029C0.606858 7.84918 0.928148 7.71373 1.26316 7.71373H22.7368C23.0719 7.71373 23.3931 7.84918 23.63 8.09029C23.8669 8.33139 24 8.65839 24 8.99936C24 9.34033 23.8669 9.66733 23.63 9.90843C23.3931 10.1495 23.0719 10.285 22.7368 10.285H1.26316C0.928148 10.285 0.606858 10.1495 0.36997 9.90843C0.133082 9.66733 0 9.34033 0 8.99936ZM0 16.7144C0 16.3734 0.133082 16.0464 0.36997 15.8053C0.606858 15.5642 0.928148 15.4288 1.26316 15.4288H22.7368C23.0719 15.4288 23.3931 15.5642 23.63 15.8053C23.8669 16.0464 24 16.3734 24 16.7144C24 17.0553 23.8669 17.3823 23.63 17.6235C23.3931 17.8646 23.0719 18 22.7368 18H1.26316C0.928148 18 0.606858 17.8646 0.36997 17.6235C0.133082 17.3823 0 17.0553 0 16.7144Z" fill="#272727"/>
</svg>
