<svg width="170" height="23" viewBox="0 0 170 23" fill="none" xmlns="http://www.w3.org/2000/svg">
<path d="M8.96875 16.5664V17H0.660156V16.5664H1.1875C1.64844 16.5664 2.01953 16.4844 2.30078 16.3203C2.50391 16.2109 2.66016 16.0234 2.76953 15.7578C2.85547 15.5703 2.89844 15.0781 2.89844 14.2812V3.82812C2.89844 3.01562 2.85547 2.50781 2.76953 2.30469C2.68359 2.10156 2.50781 1.92578 2.24219 1.77734C1.98438 1.62109 1.63281 1.54297 1.1875 1.54297H0.660156V1.10938H8.96875V1.54297H8.44141C7.98047 1.54297 7.60938 1.625 7.32812 1.78906C7.125 1.89844 6.96484 2.08594 6.84766 2.35156C6.76172 2.53906 6.71875 3.03125 6.71875 3.82812V14.2812C6.71875 15.0938 6.76172 15.6016 6.84766 15.8047C6.94141 16.0078 7.11719 16.1875 7.375 16.3438C7.64062 16.4922 7.99609 16.5664 8.44141 16.5664H8.96875ZM17.6992 15.8516C17.2227 16.3516 16.7773 16.7031 16.3633 16.9062C15.8164 17.1875 15.2461 17.3281 14.6523 17.3281C13.2773 17.3281 12.1914 16.7148 11.3945 15.4883C10.7617 14.5117 10.4453 13.3438 10.4453 11.9844C10.4453 10.8516 10.6836 9.78906 11.1602 8.79688C11.6445 7.79688 12.3047 7.03516 13.1406 6.51172C13.9844 5.98047 14.875 5.71484 15.8125 5.71484C16.4375 5.71484 16.9922 5.82031 17.4766 6.03125C17.9688 6.24219 18.3906 6.5625 18.7422 6.99219L20.582 5.71484H20.9805V19.9062C20.9805 20.625 21.043 21.0742 21.168 21.2539C21.3711 21.543 21.7812 21.6914 22.3984 21.6992V22.1328H16.0703V21.6992C16.5547 21.6992 16.9062 21.6445 17.125 21.5352C17.3438 21.4258 17.4922 21.2812 17.5703 21.1016C17.6562 20.9219 17.6992 20.5547 17.6992 20V15.8516ZM17.6992 14.7852V10.2734C17.6992 9.01562 17.6289 8.18359 17.4883 7.77734C17.3555 7.37109 17.1055 7.01953 16.7383 6.72266C16.5508 6.57422 16.3125 6.5 16.0234 6.5C15.4297 6.5 14.9688 6.76172 14.6406 7.28516C14.125 8.08984 13.8672 9.58594 13.8672 11.7734C13.8672 13.4531 14.0898 14.6328 14.5352 15.3125C14.8398 15.7734 15.2344 16.0039 15.7188 16.0039C16 16.0039 16.3164 15.9062 16.668 15.7109C17.0273 15.5156 17.3711 15.207 17.6992 14.7852ZM28.2461 6.04297V8.52734C28.9727 7.39453 29.6094 6.64453 30.1562 6.27734C30.7031 5.90234 31.2305 5.71484 31.7383 5.71484C32.1758 5.71484 32.5234 5.85156 32.7812 6.125C33.0469 6.39062 33.1797 6.76953 33.1797 7.26172C33.1797 7.78516 33.0508 8.19141 32.793 8.48047C32.543 8.76953 32.2383 8.91406 31.8789 8.91406C31.4648 8.91406 31.1055 8.78125 30.8008 8.51562C30.4961 8.25 30.3164 8.10156 30.2617 8.07031C30.1836 8.02344 30.0938 8 29.9922 8C29.7656 8 29.5508 8.08594 29.3477 8.25781C29.0273 8.52344 28.7852 8.90234 28.6211 9.39453C28.3711 10.1523 28.2461 10.9883 28.2461 11.9023V14.4219L28.2578 15.0781C28.2578 15.5234 28.2852 15.8086 28.3398 15.9336C28.4336 16.1445 28.5703 16.3008 28.75 16.4023C28.9375 16.4961 29.25 16.5547 29.6875 16.5781V17H23.7695V16.5781C24.2461 16.5391 24.5664 16.4102 24.7305 16.1914C24.9023 15.9648 24.9883 15.375 24.9883 14.4219V8.36328C24.9883 7.73828 24.957 7.33984 24.8945 7.16797C24.8164 6.94922 24.7031 6.78906 24.5547 6.6875C24.4062 6.58594 24.1445 6.51562 23.7695 6.47656V6.04297H28.2461ZM39.0859 5.71484C40.0391 5.71484 40.9258 5.96094 41.7461 6.45312C42.5664 6.94531 43.1875 7.64453 43.6094 8.55078C44.0391 9.45703 44.2539 10.4492 44.2539 11.5273C44.2539 13.082 43.8594 14.3828 43.0703 15.4297C42.1172 16.6953 40.8008 17.3281 39.1211 17.3281C37.4727 17.3281 36.2031 16.75 35.3125 15.5938C34.4219 14.4375 33.9766 13.0977 33.9766 11.5742C33.9766 10.0039 34.4297 8.63672 35.3359 7.47266C36.25 6.30078 37.5 5.71484 39.0859 5.71484ZM39.1328 6.54688C38.7344 6.54688 38.3906 6.69922 38.1016 7.00391C37.8203 7.30078 37.6328 7.89453 37.5391 8.78516C37.4531 9.66797 37.4102 10.8984 37.4102 12.4766C37.4102 13.3125 37.4648 14.0938 37.5742 14.8203C37.6602 15.375 37.8438 15.7969 38.125 16.0859C38.4062 16.375 38.7266 16.5195 39.0859 16.5195C39.4375 16.5195 39.7305 16.4219 39.9648 16.2266C40.2695 15.9609 40.4727 15.5898 40.5742 15.1133C40.7305 14.3711 40.8086 12.8711 40.8086 10.6133C40.8086 9.28516 40.7344 8.375 40.5859 7.88281C40.4375 7.38281 40.2188 7.01953 39.9297 6.79297C39.7266 6.62891 39.4609 6.54688 39.1328 6.54688ZM52.5273 12.6992H45.6953V10.2734H52.5273V12.6992ZM64.5742 17.1406C64.9336 18.1797 65.4922 18.9609 66.25 19.4844C67.0078 20.0078 67.957 20.2695 69.0977 20.2695C69.4102 20.2695 69.7422 20.2383 70.0938 20.1758V20.8906C68.9141 21.1875 67.8594 21.3359 66.9297 21.3359C65.4766 21.3359 64.1758 20.9805 63.0273 20.2695C61.8867 19.5586 61.0273 18.5156 60.4492 17.1406C58.5273 16.7344 56.9766 15.793 55.7969 14.3164C54.625 12.8398 54.0391 11.0781 54.0391 9.03125C54.0391 6.65625 54.8359 4.68359 56.4297 3.11328C58.0234 1.53516 60.0469 0.746094 62.5 0.746094C64.9453 0.746094 66.9609 1.53516 68.5469 3.11328C70.1328 4.69141 70.9258 6.66406 70.9258 9.03125C70.9258 11.0938 70.3047 12.8867 69.0625 14.4102C67.8203 15.9336 66.3242 16.8438 64.5742 17.1406ZM62.4883 1.63672C61.082 1.63672 59.9961 2.36719 59.2305 3.82812C58.5898 5.05469 58.2695 6.80078 58.2695 9.06641C58.2695 11.7852 58.75 13.8008 59.7109 15.1133C60.3828 16.0273 61.3086 16.4844 62.4883 16.4844C63.6758 16.4844 64.6016 16.0352 65.2656 15.1367C66.2266 13.8477 66.707 11.9102 66.707 9.32422C66.707 6.77734 66.4062 4.93359 65.8047 3.79297C65.0547 2.35547 63.9492 1.63672 62.4883 1.63672ZM83.1719 6.04297V14.6211C83.1719 15.457 83.25 15.9805 83.4062 16.1914C83.5625 16.3945 83.8789 16.5234 84.3555 16.5781V17H79.8906V15.5352C79.3672 16.1602 78.8438 16.6172 78.3203 16.9062C77.7969 17.1875 77.2109 17.3281 76.5625 17.3281C75.9453 17.3281 75.3945 17.1406 74.9102 16.7656C74.4336 16.3828 74.1133 15.9375 73.9492 15.4297C73.7852 14.9219 73.7031 14.0352 73.7031 12.7695V8.42188C73.7031 7.59375 73.625 7.07812 73.4688 6.875C73.3203 6.67188 73.0039 6.53906 72.5195 6.47656V6.04297H76.9844V13.5312C76.9844 14.3125 77.0195 14.8164 77.0898 15.043C77.168 15.2695 77.2852 15.4414 77.4414 15.5586C77.6055 15.6758 77.793 15.7344 78.0039 15.7344C78.2852 15.7344 78.5391 15.6602 78.7656 15.5117C79.0781 15.3086 79.4531 14.8984 79.8906 14.2812V8.42188C79.8906 7.59375 79.8125 7.07812 79.6562 6.875C79.5078 6.67188 79.1914 6.53906 78.707 6.47656V6.04297H83.1719ZM90.4961 6.04297V8.52734C91.2227 7.39453 91.8594 6.64453 92.4062 6.27734C92.9531 5.90234 93.4805 5.71484 93.9883 5.71484C94.4258 5.71484 94.7734 5.85156 95.0312 6.125C95.2969 6.39062 95.4297 6.76953 95.4297 7.26172C95.4297 7.78516 95.3008 8.19141 95.043 8.48047C94.793 8.76953 94.4883 8.91406 94.1289 8.91406C93.7148 8.91406 93.3555 8.78125 93.0508 8.51562C92.7461 8.25 92.5664 8.10156 92.5117 8.07031C92.4336 8.02344 92.3438 8 92.2422 8C92.0156 8 91.8008 8.08594 91.5977 8.25781C91.2773 8.52344 91.0352 8.90234 90.8711 9.39453C90.6211 10.1523 90.4961 10.9883 90.4961 11.9023V14.4219L90.5078 15.0781C90.5078 15.5234 90.5352 15.8086 90.5898 15.9336C90.6836 16.1445 90.8203 16.3008 91 16.4023C91.1875 16.4961 91.5 16.5547 91.9375 16.5781V17H86.0195V16.5781C86.4961 16.5391 86.8164 16.4102 86.9805 16.1914C87.1523 15.9648 87.2383 15.375 87.2383 14.4219V8.36328C87.2383 7.73828 87.207 7.33984 87.1445 7.16797C87.0664 6.94922 86.9531 6.78906 86.8047 6.6875C86.6562 6.58594 86.3945 6.51562 86.0195 6.47656V6.04297H90.4961ZM102.66 15.3828C101.324 16.5625 100.125 17.1523 99.0625 17.1523C98.4375 17.1523 97.918 16.9492 97.5039 16.543C97.0898 16.1289 96.8828 15.6133 96.8828 14.9961C96.8828 14.1602 97.2422 13.4102 97.9609 12.7461C98.6797 12.0742 100.246 11.1836 102.66 10.0742V8.97266C102.66 8.14453 102.613 7.625 102.52 7.41406C102.434 7.19531 102.266 7.00781 102.016 6.85156C101.766 6.6875 101.484 6.60547 101.172 6.60547C100.664 6.60547 100.246 6.71875 99.918 6.94531C99.7148 7.08594 99.6133 7.25 99.6133 7.4375C99.6133 7.60156 99.7227 7.80469 99.9414 8.04688C100.238 8.38281 100.387 8.70703 100.387 9.01953C100.387 9.40234 100.242 9.73047 99.9531 10.0039C99.6719 10.2695 99.3008 10.4023 98.8398 10.4023C98.3477 10.4023 97.9336 10.2539 97.5977 9.95703C97.2695 9.66016 97.1055 9.3125 97.1055 8.91406C97.1055 8.35156 97.3281 7.81641 97.7734 7.30859C98.2188 6.79297 98.8398 6.39844 99.6367 6.125C100.434 5.85156 101.262 5.71484 102.121 5.71484C103.16 5.71484 103.98 5.9375 104.582 6.38281C105.191 6.82031 105.586 7.29688 105.766 7.8125C105.875 8.14062 105.93 8.89453 105.93 10.0742V14.3281C105.93 14.8281 105.949 15.1445 105.988 15.2773C106.027 15.4023 106.086 15.4961 106.164 15.5586C106.242 15.6211 106.332 15.6523 106.434 15.6523C106.637 15.6523 106.844 15.5078 107.055 15.2188L107.406 15.5C107.016 16.0781 106.609 16.5 106.188 16.7656C105.773 17.0234 105.301 17.1523 104.77 17.1523C104.145 17.1523 103.656 17.0078 103.305 16.7188C102.953 16.4219 102.738 15.9766 102.66 15.3828ZM102.66 14.5273V10.8594C101.715 11.4141 101.012 12.0078 100.551 12.6406C100.246 13.0625 100.094 13.4883 100.094 13.918C100.094 14.2773 100.223 14.5938 100.48 14.8672C100.676 15.0781 100.949 15.1836 101.301 15.1836C101.691 15.1836 102.145 14.9648 102.66 14.5273ZM113.09 6.04297V7.46094C113.652 6.85156 114.191 6.41016 114.707 6.13672C115.223 5.85547 115.777 5.71484 116.371 5.71484C117.082 5.71484 117.672 5.91406 118.141 6.3125C118.609 6.70312 118.922 7.19141 119.078 7.77734C119.203 8.22266 119.266 9.07812 119.266 10.3438V14.6094C119.266 15.4531 119.34 15.9805 119.488 16.1914C119.645 16.3945 119.965 16.5234 120.449 16.5781V17H114.906V16.5781C115.32 16.5234 115.617 16.3516 115.797 16.0625C115.922 15.8672 115.984 15.3828 115.984 14.6094V9.73438C115.984 8.83594 115.949 8.26953 115.879 8.03516C115.809 7.80078 115.688 7.62109 115.516 7.49609C115.352 7.36328 115.168 7.29688 114.965 7.29688C114.293 7.29688 113.668 7.77734 113.09 8.73828V14.6094C113.09 15.4297 113.164 15.9492 113.312 16.168C113.469 16.3867 113.754 16.5234 114.168 16.5781V17H108.625V16.5781C109.086 16.5312 109.414 16.3828 109.609 16.1328C109.742 15.9609 109.809 15.4531 109.809 14.6094V8.42188C109.809 7.59375 109.73 7.07812 109.574 6.875C109.426 6.67188 109.109 6.53906 108.625 6.47656V6.04297H113.09ZM124.164 13.3906C124.711 13.3906 125.172 13.582 125.547 13.9648C125.93 14.3477 126.121 14.8086 126.121 15.3477C126.121 15.8867 125.93 16.3477 125.547 16.7305C125.164 17.1055 124.703 17.293 124.164 17.293C123.625 17.293 123.164 17.1055 122.781 16.7305C122.406 16.3477 122.219 15.8867 122.219 15.3477C122.219 14.8086 122.406 14.3477 122.781 13.9648C123.164 13.582 123.625 13.3906 124.164 13.3906ZM136.914 14.1758L137.277 14.457C136.762 15.4258 136.117 16.1484 135.344 16.625C134.578 17.0938 133.762 17.3281 132.895 17.3281C131.434 17.3281 130.266 16.7773 129.391 15.6758C128.516 14.5742 128.078 13.25 128.078 11.7031C128.078 10.2109 128.477 8.89844 129.273 7.76562C130.234 6.39844 131.559 5.71484 133.246 5.71484C134.379 5.71484 135.277 6 135.941 6.57031C136.613 7.14062 136.949 7.77734 136.949 8.48047C136.949 8.92578 136.812 9.28125 136.539 9.54688C136.273 9.8125 135.922 9.94531 135.484 9.94531C135.023 9.94531 134.641 9.79297 134.336 9.48828C134.039 9.18359 133.855 8.64062 133.785 7.85938C133.738 7.36719 133.625 7.02344 133.445 6.82812C133.266 6.63281 133.055 6.53516 132.812 6.53516C132.438 6.53516 132.117 6.73438 131.852 7.13281C131.445 7.73438 131.242 8.65625 131.242 9.89844C131.242 10.9297 131.406 11.918 131.734 12.8633C132.062 13.8008 132.512 14.5 133.082 14.9609C133.512 15.2969 134.02 15.4648 134.605 15.4648C134.988 15.4648 135.352 15.375 135.695 15.1953C136.039 15.0156 136.445 14.6758 136.914 14.1758ZM143.805 5.71484C144.758 5.71484 145.645 5.96094 146.465 6.45312C147.285 6.94531 147.906 7.64453 148.328 8.55078C148.758 9.45703 148.973 10.4492 148.973 11.5273C148.973 13.082 148.578 14.3828 147.789 15.4297C146.836 16.6953 145.52 17.3281 143.84 17.3281C142.191 17.3281 140.922 16.75 140.031 15.5938C139.141 14.4375 138.695 13.0977 138.695 11.5742C138.695 10.0039 139.148 8.63672 140.055 7.47266C140.969 6.30078 142.219 5.71484 143.805 5.71484ZM143.852 6.54688C143.453 6.54688 143.109 6.69922 142.82 7.00391C142.539 7.30078 142.352 7.89453 142.258 8.78516C142.172 9.66797 142.129 10.8984 142.129 12.4766C142.129 13.3125 142.184 14.0938 142.293 14.8203C142.379 15.375 142.562 15.7969 142.844 16.0859C143.125 16.375 143.445 16.5195 143.805 16.5195C144.156 16.5195 144.449 16.4219 144.684 16.2266C144.988 15.9609 145.191 15.5898 145.293 15.1133C145.449 14.3711 145.527 12.8711 145.527 10.6133C145.527 9.28516 145.453 8.375 145.305 7.88281C145.156 7.38281 144.938 7.01953 144.648 6.79297C144.445 6.62891 144.18 6.54688 143.852 6.54688ZM155.184 6.04297V7.48438C155.785 6.82812 156.34 6.37109 156.848 6.11328C157.363 5.84766 157.926 5.71484 158.535 5.71484C159.238 5.71484 159.828 5.87891 160.305 6.20703C160.781 6.53516 161.148 7.03516 161.406 7.70703C162.031 7.00391 162.629 6.49609 163.199 6.18359C163.777 5.87109 164.379 5.71484 165.004 5.71484C165.762 5.71484 166.363 5.89062 166.809 6.24219C167.262 6.58594 167.574 7.02734 167.746 7.56641C167.926 8.09766 168.016 8.94922 168.016 10.1211V14.6094C168.016 15.4531 168.09 15.9766 168.238 16.1797C168.395 16.3828 168.715 16.5156 169.199 16.5781V17H163.539V16.5781C163.984 16.5391 164.312 16.3672 164.523 16.0625C164.664 15.8516 164.734 15.3672 164.734 14.6094V9.89844C164.734 8.92188 164.695 8.30078 164.617 8.03516C164.539 7.76953 164.414 7.57422 164.242 7.44922C164.078 7.31641 163.883 7.25 163.656 7.25C163.32 7.25 162.98 7.375 162.637 7.625C162.293 7.86719 161.945 8.23438 161.594 8.72656V14.6094C161.594 15.3984 161.66 15.8945 161.793 16.0977C161.973 16.3867 162.316 16.5469 162.824 16.5781V17H157.152V16.5781C157.457 16.5625 157.695 16.4883 157.867 16.3555C158.047 16.2148 158.164 16.0508 158.219 15.8633C158.281 15.668 158.312 15.25 158.312 14.6094V9.89844C158.312 8.90625 158.273 8.28516 158.195 8.03516C158.117 7.78516 157.984 7.58984 157.797 7.44922C157.617 7.30859 157.422 7.23828 157.211 7.23828C156.898 7.23828 156.613 7.32031 156.355 7.48438C155.988 7.72656 155.598 8.14062 155.184 8.72656V14.6094C155.184 15.3828 155.258 15.8945 155.406 16.1445C155.562 16.3867 155.883 16.5312 156.367 16.5781V17H150.719V16.5781C151.18 16.5312 151.508 16.3828 151.703 16.1328C151.836 15.9609 151.902 15.4531 151.902 14.6094V8.42188C151.902 7.59375 151.824 7.07812 151.668 6.875C151.52 6.67188 151.203 6.53906 150.719 6.47656V6.04297H155.184Z" fill="black"/>
</svg>
