<svg width="23" height="24" viewBox="0 0 23 24" fill="none" xmlns="http://www.w3.org/2000/svg">
<path id="Vector" d="M22.4833 14.1121C22.6957 14.2687 22.8542 14.4877 22.9365 14.7387C23.0189 14.9896 23.0211 15.26 22.9429 15.5123C22.4003 17.2488 21.4774 18.8422 20.2415 20.1763C20.0631 20.3679 19.8298 20.4993 19.5736 20.5526C19.3175 20.6058 19.0511 20.5783 18.8113 20.4737L17.1379 19.7385C16.9551 19.657 16.7557 19.6195 16.5559 19.6288C16.3567 19.6404 16.163 19.6991 15.9909 19.8002C15.8185 19.9 15.6723 20.0394 15.5641 20.2068C15.4559 20.3743 15.389 20.565 15.3687 20.7633L15.1675 22.5885C15.1385 22.8483 15.03 23.0928 14.8569 23.2886C14.6838 23.4843 14.4544 23.6217 14.2003 23.6819C12.4234 24.106 10.5711 24.106 8.79416 23.6819C8.54179 23.6208 8.31419 23.4837 8.14202 23.2891C7.96985 23.0945 7.86138 22.8518 7.83122 22.5936L7.63007 20.7719C7.5953 20.4614 7.44751 20.1747 7.21494 19.9664C7.03312 19.8059 6.80962 19.7002 6.57029 19.6615C6.33096 19.6228 6.08558 19.6528 5.86255 19.7479L4.18918 20.484C3.95 20.5885 3.68438 20.6164 3.42875 20.5637C3.17313 20.5111 2.94004 20.3806 2.76147 20.1901C1.52354 18.8546 0.599417 17.259 0.0566866 15.52C-0.02113 15.2681 -0.0187767 14.9981 0.0634206 14.7476C0.145618 14.497 0.303593 14.2783 0.515472 14.1216L1.99197 13.029C2.15331 12.9106 2.28451 12.7558 2.37495 12.5771C2.46539 12.3985 2.51251 12.201 2.51251 12.0007C2.51251 11.8005 2.46539 11.603 2.37495 11.4244C2.28451 11.2457 2.15331 11.0909 1.99197 10.9725L0.515472 9.88166C0.304725 9.72581 0.147435 9.50837 0.0652688 9.2593C-0.0168968 9.01023 -0.0198952 8.74178 0.0566866 8.49093C0.599266 6.75331 1.52312 5.15916 2.76061 3.82516C2.88044 3.69577 3.02595 3.59294 3.18858 3.52439C3.347 3.45722 3.51728 3.42261 3.68931 3.42261C3.86134 3.42261 4.03162 3.45722 4.19004 3.52439L5.85656 4.2596C6.0399 4.33844 6.23913 4.3732 6.43831 4.3611C6.63748 4.34901 6.83105 4.29038 7.00353 4.18993C7.176 4.08948 7.32258 3.94999 7.43153 3.78264C7.54048 3.61529 7.60877 3.42472 7.63093 3.22619L7.83293 1.40787C7.86231 1.14531 7.97276 0.898462 8.14889 0.701709C8.32502 0.504955 8.55806 0.368096 8.81556 0.310194C9.70018 0.114806 10.6025 0.0108631 11.5084 0C12.4088 0.0102827 13.3058 0.113966 14.1849 0.310194C14.4429 0.367692 14.6765 0.504786 14.8526 0.702168C15.0287 0.899549 15.1386 1.14727 15.1667 1.41044L15.3687 3.22705C15.3901 3.42527 15.4578 3.61567 15.5663 3.78285C15.6748 3.95003 15.8211 4.0893 15.9933 4.18941C16.1656 4.28951 16.3589 4.34763 16.5578 4.35909C16.7566 4.37054 16.9553 4.33499 17.1379 4.25532L18.8036 3.52096C19.0438 3.41633 19.3104 3.38866 19.5669 3.44174C19.8235 3.49482 20.0573 3.62606 20.2364 3.81745C21.4732 5.15006 22.3964 6.74279 22.9386 8.47893C23.017 8.73066 23.0148 9.00061 22.9324 9.25105C22.85 9.50148 22.6915 9.71986 22.479 9.87566L21.0068 10.9665C20.8448 11.0838 20.7128 11.2379 20.6218 11.4161C20.5307 11.5943 20.483 11.7916 20.4827 11.9917C20.4823 12.1919 20.5293 12.3893 20.6198 12.5678C20.7103 12.7463 20.8417 12.9008 21.0033 13.0187L22.4833 14.1121ZM11.4998 15.4215C12.4078 15.4215 13.2787 15.0603 13.9208 14.4175C14.5628 13.7748 14.9236 12.9029 14.9236 11.9939C14.9236 11.0848 14.5628 10.213 13.9208 9.57024C13.2787 8.92745 12.4078 8.56633 11.4998 8.56633C10.5918 8.56633 9.7209 8.92745 9.07882 9.57024C8.43674 10.213 8.07602 11.0848 8.07602 11.9939C8.07602 12.9029 8.43674 13.7748 9.07882 14.4175C9.7209 15.0603 10.5918 15.4215 11.4998 15.4215Z" fill="#272727"/>
</svg>
