<svg width="22" height="17" viewBox="0 0 22 17" fill="none" xmlns="http://www.w3.org/2000/svg">
<path d="M16.7758 6.37482H11.5508V8.23435C11.5508 9.55263 10.4405 10.6252 9.07577 10.6252C7.71108 10.6252 6.60077 9.55263 6.60077 8.23435V4.19651L4.36984 5.49154C3.7064 5.87341 3.30078 6.56741 3.30078 7.31123V8.88187L0.550783 10.416C0.0248465 10.7082 -0.157341 11.359 0.148596 11.8671L2.89859 16.4694C3.20109 16.9775 3.87484 17.1501 4.40078 16.8579L7.95514 14.8755H12.6508C13.8642 14.8755 14.8508 13.9225 14.8508 12.7504H15.4008C16.0092 12.7504 16.5008 12.2755 16.5008 11.6878V9.56259H16.7758C17.2329 9.56259 17.6008 9.20729 17.6008 8.76565V7.17176C17.6008 6.73012 17.2329 6.37482 16.7758 6.37482ZM21.8529 5.13292L19.1029 0.530577C18.8004 0.0225258 18.1267 -0.150145 17.6008 0.142067L14.0464 2.12446H10.5333C10.1208 2.12446 9.71858 2.23736 9.36795 2.44656L8.21639 3.14056C7.89327 3.33316 7.70077 3.67518 7.70077 4.04044V8.23435C7.70077 8.9682 8.31608 9.56259 9.07577 9.56259C9.83545 9.56259 10.4508 8.9682 10.4508 8.23435V5.31223H16.7758C17.8379 5.31223 18.7008 6.1457 18.7008 7.17176V8.11813L21.4507 6.58402C21.9767 6.28848 22.1554 5.64097 21.8529 5.13292Z" fill="white"/>
</svg>
