<svg width="45" height="43" viewBox="0 0 45 43" fill="none" xmlns="http://www.w3.org/2000/svg">
<g filter="url(#filter0_d_339_77)">
<path d="M17.4621 18.7193L16.7636 8.94058C16.7636 8.94058 16.3725 7.51568 16.4842 5.16878C16.596 2.82187 18.3934 0.745049 19.2782 0C18.0488 2.90569 18.0209 4.1909 18.0209 4.3306L18.44 8.80089C18.5797 10.6635 18.8591 15.2549 18.8591 18.7193C18.8591 22.1838 16.9033 24.6332 15.9255 25.4248C17.1548 24.1955 17.4621 20.4423 17.4621 18.7193Z" fill="#272727"/>
<path d="M27.7995 23.4693L27.101 13.6906C27.101 13.6906 26.7099 12.2657 26.8216 9.91878C26.9334 7.57187 28.7308 5.49505 29.6156 4.75C28.3863 7.65569 28.3583 8.9409 28.3583 9.0806L28.7774 13.5509C28.9171 15.4135 29.1965 20.0049 29.1965 23.4693C29.1965 26.9338 27.2407 29.3832 26.2629 30.1748C27.4922 28.9455 27.7995 25.1923 27.7995 23.4693Z" fill="#272727"/>
<path d="M22.6308 12.1539L21.0941 10.6172L19.6971 12.0142L21.2338 13.5508L22.6308 12.1539Z" fill="#272727"/>
<path d="M26.1233 12.1539L24.5866 10.6172L23.1897 12.0142L24.7263 13.5508L26.1233 12.1539Z" fill="#272727"/>
<path d="M11.734 12.2936C12.2928 11.2878 14.202 10.4776 15.0867 10.1982L15.5058 9.4997L13.6898 10.1982C13.2427 10.0864 12.6653 9.73253 12.4325 9.4997C12.4325 9.38795 13.0844 9.08061 13.4104 9.08061C13.5087 9.08061 13.7363 9.40657 13.8295 9.6394C14.3882 8.80123 13.8295 8.4287 13.5501 8.24244C12.4325 8.10274 11.4546 9.22032 11.4546 9.7791C11.4546 10.029 12.1997 10.4776 12.5722 10.6173C12.1252 10.8408 11.8271 11.828 11.734 12.2936Z" fill="#272727"/>
<path d="M7.54337 23.3294V16.0652C7.99039 15.2829 9.40599 14.3423 10.0579 13.9697V21.0943C8.80064 21.7927 8.10215 22.6309 7.54337 23.3294Z" fill="#272727"/>
<path d="M6.70529 23.3294V16.0652C6.25826 15.2829 4.84267 14.3423 4.19075 13.9697V21.0943C5.44802 21.7927 6.14651 22.6309 6.70529 23.3294Z" fill="#272727"/>
<path d="M12.2931 16.2051H10.8961H10.7564V21.9326C8.66094 22.6311 8.38155 23.1899 7.54337 23.8884C8.24185 23.4693 11.1289 22.3517 12.2931 22.0723V16.2051Z" fill="#272727"/>
<path d="M1.95561 16.2051H3.35257H3.49227V21.9326C5.58772 22.6311 5.86711 23.1899 6.70529 23.8884C6.00681 23.4693 3.11974 22.3517 1.95561 22.0723V16.2051Z" fill="#272727"/>
<path d="M12.9918 23.0503V18.7197H14.2491L14.1094 23.6091C14.1094 23.6091 10.5239 23.7954 8.66124 24.0282C9.63912 23.6091 12.014 23.0503 12.9918 23.0503Z" fill="#272727"/>
<path d="M1.25746 23.0503V18.7197H0.000194073L0.139891 23.6091C0.139891 23.6091 3.72544 23.7954 5.58806 24.0282C4.61018 23.6091 2.23534 23.0503 1.25746 23.0503Z" fill="#272727"/>
<path fill-rule="evenodd" clip-rule="evenodd" d="M5.44857 28.9176C5.56033 27.6882 6.89211 25.7045 7.54402 24.8663C5.02948 27.2412 4.33102 30.0351 5.0295 32.1306C5.72799 34.226 8.24251 34.0863 8.24251 34.0863C8.66161 34.0863 10.5268 33.1991 11.5952 32.1306C12.0143 31.7115 15.0877 29.3366 16.2052 28.6382L17.1831 28.0794L18.4404 27.5206L20.8152 26.6824C22.9107 26.1236 24.8664 25.2854 25.0061 25.1457C26.6188 24.1533 26.5791 22.8303 26.55 21.8617C26.5463 21.7396 26.5428 21.6231 26.5428 21.5136C26.5428 20.3739 25.984 18.3472 25.4252 17.4624C24.6429 15.7861 22.8175 15.6464 22.2122 15.7861C20.3961 16.0655 19.8373 18.1609 19.8373 18.1609C19.2785 20.1167 20.3961 21.048 21.2343 21.2342C21.5137 21.2963 24.4473 21.793 24.4473 21.793C24.4473 21.793 25.5649 22.2121 25.5649 22.7709C25.5649 23.0032 24.2825 23.4797 23.0504 23.8885L17.6022 25.8442C15.5067 26.6824 14.948 27.2412 14.948 27.2412C14.948 27.2412 11.0365 30.5939 9.36008 31.9909C7.40434 33.3878 6.24019 32.1306 5.86766 31.5718C5.42063 30.7895 5.30888 29.5695 5.44857 28.9176ZM21.2336 18.9082C21.4664 18.5823 22.0718 17.9862 22.6305 18.2097C23.159 18.4211 23.2077 18.4726 23.563 18.848C23.6773 18.9689 23.8234 19.1232 24.0275 19.3273C24.0275 19.3273 21.3733 19.467 21.2336 18.9082Z" fill="#272727"/>
<path d="M19.0102 29.2902C19.7923 29.2902 20.4227 29.5294 20.9012 30.008C21.3797 30.4839 21.619 31.1104 21.619 31.8874C21.619 32.4457 21.4942 32.9525 21.2447 33.4079C21.098 33.678 20.9231 33.9006 20.7198 34.0755C20.5166 34.2505 20.2477 34.4113 19.9133 34.5579C19.8206 34.5991 19.773 34.6338 19.7705 34.6621C19.7679 34.7007 19.8489 34.7624 20.0136 34.8473L20.4458 35.075C20.6542 35.1857 20.8678 35.241 21.0864 35.241C21.2331 35.241 21.3952 35.1715 21.5727 35.0326C21.5984 35.012 21.6216 35.0004 21.6422 34.9979C21.6627 34.9953 21.6846 35.0094 21.7078 35.0403C21.7309 35.0712 21.7412 35.0995 21.7386 35.1252C21.7335 35.1792 21.6434 35.2834 21.4685 35.4378C21.1263 35.7362 20.7983 35.8855 20.4844 35.8855C20.294 35.8855 20.0934 35.8443 19.8824 35.762C19.6714 35.6796 19.382 35.5291 19.0141 35.3104C18.5664 35.048 18.268 34.8821 18.1187 34.8126C17.9695 34.7457 17.8267 34.7123 17.6904 34.7123C17.482 34.7123 17.3058 34.7972 17.1617 34.967C17.0202 35.1368 16.9494 35.3439 16.9494 35.5883C16.9494 35.6706 16.916 35.7118 16.8491 35.7118C16.7668 35.7118 16.7256 35.6578 16.7256 35.5497L16.714 35.2526L16.768 34.9979C16.8272 34.8332 16.9597 34.648 17.1655 34.4421C17.1913 34.4164 17.2041 34.3971 17.2041 34.3842C17.2041 34.3662 17.145 34.3135 17.0266 34.226C16.741 34.0151 16.5121 33.7179 16.3397 33.3346C16.1699 32.9486 16.085 32.5421 16.085 32.1151C16.085 31.2738 16.3551 30.5933 16.8954 30.0736C17.4357 29.5513 18.1406 29.2902 19.0102 29.2902ZM18.6204 29.5912C18.1213 29.5912 17.7264 29.7726 17.4357 30.1353C17.145 30.4981 16.9996 30.9895 16.9996 31.6095C16.9996 32.4431 17.1938 33.13 17.5823 33.6703C17.9734 34.208 18.4699 34.4769 19.072 34.4769C19.5788 34.4769 19.9853 34.2775 20.2915 33.8787C20.5976 33.4799 20.7507 32.9512 20.7507 32.2926C20.7507 31.5413 20.5436 30.9033 20.1294 30.3784C19.7152 29.8536 19.2122 29.5912 18.6204 29.5912ZM25.5785 31.4436V33.8362C25.5785 34.0832 25.5991 34.2363 25.6403 34.2955C25.6814 34.3521 25.792 34.3804 25.9721 34.3804L26.0609 34.3765C26.0918 34.3765 26.1149 34.3791 26.1304 34.3842C26.1741 34.3997 26.196 34.428 26.196 34.4692C26.196 34.5592 26.1085 34.6042 25.9335 34.6042H25.7483C25.6428 34.6042 25.5605 34.6068 25.5013 34.6119C25.3444 34.6222 25.1617 34.6531 24.9533 34.7046C24.9276 34.7123 24.9044 34.7161 24.8839 34.7161C24.8273 34.7161 24.799 34.6685 24.799 34.5733C24.799 34.5219 24.8015 34.4782 24.8067 34.4421C24.8118 34.3907 24.8144 34.3521 24.8144 34.3264C24.8144 34.2492 24.7977 34.2093 24.7642 34.2067C24.7514 34.2067 24.7308 34.2222 24.7025 34.253L24.5635 34.3958C24.3269 34.6428 24.0426 34.7663 23.7107 34.7663C23.3299 34.7663 23.043 34.6608 22.8501 34.4499C22.6571 34.2389 22.5606 33.9263 22.5606 33.5121C22.5606 32.9641 22.5709 32.4894 22.5915 32.0881C22.5941 32.016 22.5954 31.9543 22.5954 31.9028C22.5954 31.7279 22.5195 31.634 22.3677 31.6211L22.2133 31.6095C22.1413 31.6044 22.1078 31.5696 22.113 31.5053C22.1156 31.4564 22.1541 31.4243 22.2288 31.4088C22.3059 31.3908 22.4526 31.3818 22.6687 31.3818C22.8694 31.3818 23.0482 31.3561 23.2051 31.3046C23.2746 31.2841 23.3286 31.2738 23.3672 31.2738C23.4109 31.2738 23.4328 31.3034 23.4328 31.3625C23.4328 31.432 23.4302 31.5027 23.4251 31.5748C23.4019 31.8475 23.3904 32.3247 23.3904 33.0065C23.3904 33.5314 23.438 33.8826 23.5331 34.0601C23.6283 34.235 23.8187 34.3225 24.1043 34.3225C24.3281 34.3225 24.5005 34.2556 24.6214 34.1218C24.7424 33.988 24.8028 33.7964 24.8028 33.5468V32.1073C24.8028 31.8887 24.7822 31.7549 24.7411 31.706C24.7025 31.6545 24.5906 31.6172 24.4053 31.5941C24.3256 31.5864 24.2857 31.5555 24.2857 31.5015C24.2857 31.4217 24.3629 31.3818 24.5172 31.3818C24.9649 31.3818 25.2749 31.351 25.4473 31.2892C25.4807 31.2763 25.5078 31.2699 25.5283 31.2699C25.5644 31.2673 25.5824 31.2931 25.5824 31.3471L25.5785 31.4436ZM27.7705 32.721V33.8054C27.7705 34.2119 27.9609 34.4409 28.3417 34.4923C28.4214 34.5026 28.4613 34.5335 28.4613 34.5849C28.4613 34.6492 28.4317 34.6814 28.3725 34.6814C28.3442 34.6814 28.3082 34.6775 28.2645 34.6698C28.0072 34.6312 27.7422 34.6119 27.4695 34.6119C27.3254 34.6119 27.1955 34.6171 27.0797 34.6274L26.8404 34.6505C26.7967 34.6557 26.7517 34.6583 26.7054 34.6583C26.6333 34.6583 26.5973 34.6248 26.5973 34.5579C26.5973 34.5116 26.6295 34.4807 26.6938 34.4653C26.897 34.4164 26.9987 34.2247 26.9987 33.8903L26.9948 33.7282V32.3466C26.9948 32.1614 26.9704 32.0392 26.9215 31.98C26.8752 31.9182 26.7736 31.8809 26.6166 31.8681C26.5574 31.8629 26.5279 31.8359 26.5279 31.787C26.5279 31.7304 26.5626 31.697 26.6321 31.6867C26.9845 31.6327 27.2855 31.5336 27.5351 31.3895L27.6856 31.3008C27.7062 31.2879 27.7255 31.2815 27.7435 31.2815C27.7821 31.2815 27.8014 31.3098 27.8014 31.3664C27.8014 31.3844 27.8001 31.4217 27.7975 31.4783L27.7859 31.6944L27.7705 31.9337L27.7744 31.9761C27.7847 32.0122 27.804 32.0314 27.8323 32.034C27.858 32.0366 27.9146 31.9748 28.0021 31.8488C28.0715 31.751 28.1783 31.6468 28.3224 31.5362C28.469 31.423 28.5694 31.3664 28.6234 31.3664C28.7109 31.3664 28.8408 31.4333 29.0132 31.5671C29.1881 31.7008 29.2769 31.8012 29.2794 31.8681C29.2794 31.8912 29.2383 31.9813 29.1559 32.1382C29.0505 32.3363 28.9578 32.4354 28.8781 32.4354C28.8446 32.4354 28.8138 32.4225 28.7855 32.3968L28.6774 32.3003C28.5462 32.1794 28.3957 32.1189 28.2259 32.1189C27.9223 32.1189 27.7705 32.3196 27.7705 32.721ZM31.3981 32.8213C31.4264 32.7029 31.4406 32.6013 31.4406 32.5164C31.4406 32.2566 31.3775 32.0443 31.2515 31.8797C31.128 31.715 30.9685 31.6327 30.7729 31.6327C30.5234 31.6327 30.3986 31.7356 30.3986 31.9414C30.3986 31.98 30.4012 32.0173 30.4063 32.0533L30.4179 32.1266C30.4179 32.3016 30.2198 32.3891 29.8236 32.3891C29.7207 32.3891 29.6718 32.344 29.6769 32.254C29.6769 32.236 29.6834 32.2077 29.6962 32.1691C29.7039 32.1408 29.7117 32.1073 29.7194 32.0688C29.7528 31.9041 29.8313 31.778 29.9548 31.6906C30.2275 31.495 30.5568 31.3973 30.9427 31.3973C31.3878 31.3973 31.721 31.5002 31.9423 31.706C32.1121 31.8629 32.197 32.1356 32.197 32.5241C32.197 32.7197 32.1892 32.9654 32.1738 33.2612C32.1584 33.6008 32.1507 33.8272 32.1507 33.9404C32.1507 34.2054 32.2561 34.3379 32.4671 34.3379C32.5417 34.3379 32.597 34.3289 32.633 34.3109C32.6742 34.2929 32.7038 34.2839 32.7218 34.2839C32.7578 34.2839 32.7758 34.3019 32.7758 34.3379C32.7758 34.4023 32.7257 34.4627 32.6253 34.5193L32.4748 34.5965L32.3436 34.6737C32.251 34.7226 32.1494 34.747 32.0387 34.747C31.8123 34.747 31.6219 34.6004 31.4676 34.3071C30.989 34.6132 30.5916 34.7663 30.2751 34.7663C30.0564 34.7663 29.8853 34.7033 29.7618 34.5772C29.6383 34.4511 29.5766 34.2762 29.5766 34.0524C29.5766 33.6459 29.7541 33.35 30.1092 33.1648C30.3278 33.0541 30.7575 32.9396 31.3981 32.8213ZM31.3209 33.0413C31.0997 33.0258 30.8887 33.1043 30.688 33.2767C30.4874 33.449 30.387 33.6381 30.387 33.844C30.387 34.1836 30.5234 34.3534 30.7961 34.3534C30.9659 34.3534 31.1138 34.3135 31.2399 34.2337C31.3094 34.1926 31.357 34.1218 31.3827 34.0215C31.4084 33.9212 31.4213 33.7552 31.4213 33.5237L31.4251 33.2265V33.1455L31.402 33.0606C31.3891 33.0503 31.3621 33.0438 31.3209 33.0413ZM36.4999 33.0335V33.817C36.4999 33.9842 36.5089 34.0987 36.5269 34.1604C36.5449 34.2196 36.5861 34.2762 36.6504 34.3302C36.743 34.4048 36.8614 34.4499 37.0055 34.4653C37.0852 34.4756 37.1251 34.5065 37.1251 34.5579C37.1251 34.6351 37.0338 34.6737 36.8511 34.6737C36.8125 34.6737 36.7572 34.6685 36.6852 34.6583L36.4343 34.6274C36.3211 34.6145 36.2324 34.6081 36.168 34.6081C35.9236 34.6081 35.7281 34.6222 35.5814 34.6505C35.5223 34.6608 35.4708 34.666 35.4271 34.666C35.3705 34.666 35.3422 34.6377 35.3422 34.5811C35.3422 34.5399 35.3718 34.5077 35.4309 34.4846C35.5441 34.446 35.62 34.3855 35.6586 34.3032C35.6972 34.2209 35.7165 34.0819 35.7165 33.8864V32.9757C35.7165 32.6258 35.6458 32.3492 35.5043 32.1459C35.3653 31.9401 35.1749 31.8372 34.9331 31.8372C34.717 31.8372 34.542 31.8964 34.4083 32.0147C34.277 32.1331 34.2114 32.2874 34.2114 32.4778V33.7668C34.2114 34.0035 34.2552 34.1771 34.3427 34.2878C34.4327 34.3958 34.5832 34.4589 34.7942 34.4769C34.8662 34.4846 34.9022 34.5142 34.9022 34.5656C34.9022 34.6377 34.8572 34.6737 34.7672 34.6737C34.6823 34.6737 34.5806 34.6673 34.4623 34.6544C34.1716 34.6184 33.9709 34.6004 33.8603 34.6004C33.711 34.6004 33.5387 34.6132 33.3431 34.639C33.2505 34.6518 33.1875 34.6583 33.154 34.6583C33.0897 34.6583 33.0576 34.6312 33.0576 34.5772C33.0576 34.5412 33.0794 34.5142 33.1232 34.4962C33.2544 34.4473 33.338 34.3945 33.374 34.3379C33.41 34.2788 33.428 34.172 33.428 34.0176L33.4319 33.8903V32.5319L33.428 32.3813C33.428 32.1961 33.4087 32.0688 33.3701 31.9993C33.3341 31.9273 33.2659 31.8912 33.1656 31.8912H32.9881C32.9624 31.8912 32.9431 31.8835 32.9302 31.8681C32.9173 31.8552 32.9109 31.8359 32.9109 31.8102C32.9109 31.7613 32.9302 31.7279 32.9688 31.7099C33.0074 31.6893 33.1206 31.6558 33.3084 31.6095C33.63 31.5349 33.8988 31.423 34.115 31.2738C34.133 31.2583 34.1497 31.2506 34.1651 31.2506C34.196 31.248 34.2114 31.2725 34.2114 31.3239L34.1999 31.5169L34.196 31.7369L34.2192 31.8835C34.2295 31.9144 34.2462 31.9311 34.2693 31.9337C34.2899 31.9363 34.3311 31.9015 34.3928 31.8295C34.6295 31.5413 34.9421 31.3973 35.3306 31.3973C35.75 31.3973 36.0497 31.5246 36.2298 31.7793C36.4099 32.0314 36.4999 32.4495 36.4999 33.0335Z" fill="#272727"/>
</g>
<defs>
<filter id="filter0_d_339_77" x="0.000198364" y="0" width="44.1249" height="42.8857" filterUnits="userSpaceOnUse" color-interpolation-filters="sRGB">
<feFlood flood-opacity="0" result="BackgroundImageFix"/>
<feColorMatrix in="SourceAlpha" type="matrix" values="0 0 0 0 0 0 0 0 0 0 0 0 0 0 0 0 0 0 127 0" result="hardAlpha"/>
<feOffset dx="4" dy="4"/>
<feGaussianBlur stdDeviation="1.5"/>
<feComposite in2="hardAlpha" operator="out"/>
<feColorMatrix type="matrix" values="0 0 0 0 0 0 0 0 0 0 0 0 0 0 0 0 0 0 0.25 0"/>
<feBlend mode="normal" in2="BackgroundImageFix" result="effect1_dropShadow_339_77"/>
<feBlend mode="normal" in="SourceGraphic" in2="effect1_dropShadow_339_77" result="shape"/>
</filter>
</defs>
</svg>
