<svg width="40" height="31" viewBox="0 0 40 31" fill="none" xmlns="http://www.w3.org/2000/svg">
<path id="Vector" d="M0 1.94071V29.0589C0 30.7247 1.92753 31.6119 3.15985 30.5175L18.3972 16.9584C18.6018 16.7766 18.7658 16.5524 18.8781 16.3008C18.9905 16.0492 19.0486 15.7761 19.0486 15.4998C19.0486 15.2235 18.9905 14.9504 18.8781 14.6988C18.7658 14.4473 18.6018 14.2231 18.3972 14.0412L3.15985 0.48214C1.92753 -0.612273 0 0.276816 0 1.94071ZM20.9514 1.94071V29.0589C20.9514 30.7247 22.8789 31.6119 24.1113 30.5175L39.3486 16.9584C39.5532 16.7766 39.7172 16.5524 39.8295 16.3008C39.9419 16.0492 40 15.7761 40 15.4998C40 15.2235 39.9419 14.9504 39.8295 14.6988C39.7172 14.4473 39.5532 14.2231 39.3486 14.0412L24.1113 0.48214C22.8789 -0.612273 20.9514 0.276816 20.9514 1.94071Z" fill="black"/>
</svg>
