<svg width="29" height="29" viewBox="0 0 29 29" fill="none" xmlns="http://www.w3.org/2000/svg">
<path id="Vector" fill-rule="evenodd" clip-rule="evenodd" d="M0 5.4375C0 3.99539 0.572878 2.61234 1.59261 1.59261C2.61234 0.572878 3.99539 0 5.4375 0H7.25C8.69211 0 10.0752 0.572878 11.0949 1.59261C12.1146 2.61234 12.6875 3.99539 12.6875 5.4375V23.5625C12.6875 25.0046 12.1146 26.3877 11.0949 27.4074C10.0752 28.4271 8.69211 29 7.25 29H5.4375C3.99539 29 2.61234 28.4271 1.59261 27.4074C0.572878 26.3877 0 25.0046 0 23.5625V5.4375ZM21.75 0C20.3079 0 18.9248 0.572878 17.9051 1.59261C16.8854 2.61234 16.3125 3.99539 16.3125 5.4375V23.5625C16.3125 25.0046 16.8854 26.3877 17.9051 27.4074C18.9248 28.4271 20.3079 29 21.75 29H23.5625C25.0046 29 26.3877 28.4271 27.4074 27.4074C28.4271 26.3877 29 25.0046 29 23.5625V5.4375C29 3.99539 28.4271 2.61234 27.4074 1.59261C26.3877 0.572878 25.0046 0 23.5625 0H21.75Z" fill="black"/>
</svg>
