<svg width="40" height="31" viewBox="0 0 40 31" fill="none" xmlns="http://www.w3.org/2000/svg">
<path id="Vector" d="M40 29.0593V1.94109C40 0.275255 38.0725 -0.611898 36.8401 0.482513L21.6028 14.0416C21.3982 14.2234 21.2342 14.4476 21.1219 14.6992C21.0095 14.9508 20.9514 15.2239 20.9514 15.5002C20.9514 15.7765 21.0095 16.0496 21.1219 16.3012C21.2342 16.5527 21.3982 16.7769 21.6028 16.9588L36.8401 30.5179C38.0725 31.6123 40 30.7232 40 29.0593ZM19.0486 29.0593V1.94109C19.0486 0.275255 17.1211 -0.611898 15.8887 0.482513L0.65136 14.0416C0.446781 14.2234 0.282814 14.4476 0.170467 14.6992C0.0581245 14.9508 0 15.2239 0 15.5002C0 15.7765 0.0581245 16.0496 0.170467 16.3012C0.282814 16.5527 0.446781 16.7769 0.65136 16.9588L15.8887 30.5179C17.1211 31.6123 19.0486 30.7232 19.0486 29.0593Z" fill="black"/>
</svg>
