<svg width="21" height="20" viewBox="0 0 21 20" fill="none" xmlns="http://www.w3.org/2000/svg">
<path d="M16.5123 11.1333L12.6 14.4444H7.35V13.3333H11.6182C11.7132 13.3333 11.8064 13.306 11.8878 13.2543C11.9693 13.2027 12.036 13.1286 12.0808 13.04C12.1256 12.9514 12.1469 12.8516 12.1424 12.7512C12.1378 12.6509 12.1077 12.5537 12.055 12.47L11.1227 10.99C10.9314 10.6853 10.6718 10.4355 10.3672 10.2628C10.0625 10.09 9.72215 9.99976 9.3765 10H1.05C0.771523 10 0.504451 10.1171 0.307538 10.3254C0.110625 10.5338 0 10.8164 0 11.1111V17.7778C0 18.3671 0.221249 18.9324 0.615076 19.3491C1.0089 19.7659 1.54305 20 2.1 20H12.2209C12.6699 20.0001 13.1138 19.8986 13.5227 19.7024C13.9316 19.5062 14.2961 19.2197 14.5918 18.8622L21 11.1111L19.4754 10.5733C18.9766 10.3974 18.4441 10.3565 17.9265 10.4543C17.4089 10.5521 16.9227 10.7856 16.5123 11.1333ZM14.0731 10C14.9086 10 15.7098 9.64881 16.3005 9.02369C16.8913 8.39857 17.2231 7.55072 17.2231 6.66667C17.2231 3.65778 14.0731 0 14.0731 0C14.0731 0 10.9231 3.63444 10.9231 6.66667C10.9231 7.55072 11.255 8.39857 11.8458 9.02369C12.4365 9.64881 13.2377 10 14.0731 10Z" fill="#9D9D9D" fill-opacity="0.29"/>
</svg>
