<svg width="58" height="555" viewBox="0 0 58 555" fill="none" xmlns="http://www.w3.org/2000/svg">
<g opacity="0.6" filter="url(#filter0_d_833_269)">
<path d="M32.1567 539.385H0.637009L0.637009 527.911C0.637009 524.395 1.28176 521.691 2.57127 519.801C3.86078 517.91 5.67782 516.965 8.02238 516.965C9.72219 516.965 11.2095 517.544 12.4844 518.702C13.7592 519.845 14.6458 521.31 15.144 523.098H15.2319C15.5103 520.856 16.3383 519.068 17.7157 517.735C19.0931 516.386 20.771 515.712 22.7492 515.712C25.6359 515.712 27.9292 516.745 29.629 518.812C31.3142 520.878 32.1567 523.699 32.1567 527.274V539.385ZM5.86832 532.286H13.3416V529.164C13.3416 527.699 12.9899 526.549 12.2866 525.713C11.5685 524.864 10.5868 524.439 9.3412 524.439C7.02595 524.439 5.86832 526.168 5.86832 529.626V532.286ZM18.6169 532.286H26.9254V528.439C26.9254 526.798 26.5444 525.516 25.7825 524.592C25.0205 523.655 23.9801 523.186 22.6613 523.186C21.4011 523.186 20.4119 523.647 19.6939 524.57C18.9759 525.479 18.6169 526.754 18.6169 528.395V532.286ZM22.8811 474.757V489.44C26.1488 489.205 27.7827 487.147 27.7827 483.263C27.7827 480.787 27.1965 478.611 26.0242 476.735H31.0357C32.1494 478.816 32.7062 481.52 32.7062 484.846C32.7062 488.48 31.7025 491.301 29.6949 493.308C27.6728 495.316 24.8593 496.32 21.2545 496.32C17.5179 496.32 14.5579 495.235 12.3745 493.067C10.1911 490.898 9.09942 488.231 9.09942 485.066C9.09942 481.783 10.0739 479.248 12.0228 477.461C13.9717 475.658 16.6167 474.757 19.9577 474.757H22.8811ZM18.6169 481.197C15.3931 481.197 13.7812 482.501 13.7812 485.11C13.7812 486.223 14.2428 487.19 15.166 488.011C16.0891 488.817 17.2395 489.308 18.6169 489.484V481.197ZM31.5633 455.892H25.9363C26.625 454.749 27.1379 453.613 27.4749 452.485C27.812 451.342 27.9805 450.265 27.9805 449.254C27.9805 448.023 27.812 447.056 27.4749 446.352C27.1379 445.634 26.625 445.275 25.9363 445.275C25.4967 445.275 25.1304 445.436 24.8373 445.759C24.5442 446.081 24.2878 446.499 24.068 447.012C23.8482 447.51 23.6504 448.059 23.4745 448.66C23.2987 449.261 23.1009 449.84 22.8811 450.397C22.544 451.291 22.185 452.082 21.804 452.771C21.4084 453.445 20.9541 454.016 20.4412 454.485C19.9284 454.939 19.3349 455.291 18.6608 455.54C17.9868 455.774 17.1882 455.892 16.265 455.892C15.0048 455.892 13.9204 455.621 13.0119 455.078C12.1034 454.522 11.3634 453.789 10.7919 452.88C10.2058 451.957 9.78081 450.91 9.51704 449.737C9.23863 448.55 9.09942 447.319 9.09942 446.045C9.09942 445.048 9.18001 444.037 9.3412 443.011C9.48774 441.986 9.70754 440.974 10.0006 439.978H15.3638C14.8509 440.857 14.4699 441.802 14.2208 442.813C13.9571 443.81 13.8252 444.792 13.8252 445.759C13.8252 446.213 13.8691 446.645 13.9571 447.056C14.0303 447.451 14.1476 447.803 14.3087 448.111C14.4553 448.418 14.6531 448.66 14.9022 448.836C15.1367 449.012 15.4078 449.1 15.7155 449.1C16.1258 449.1 16.4775 448.968 16.7705 448.704C17.0636 448.44 17.32 448.096 17.5398 447.671C17.745 447.246 17.9355 446.777 18.1113 446.264C18.2725 445.737 18.441 445.217 18.6169 444.704C18.9393 443.781 19.2909 442.945 19.6719 442.198C20.0529 441.451 20.4999 440.813 21.0127 440.286C21.5256 439.744 22.1264 439.333 22.8151 439.055C23.5038 438.762 24.3244 438.615 25.2769 438.615C26.6104 438.615 27.7534 438.908 28.7058 439.494C29.6437 440.066 30.413 440.835 31.0138 441.802C31.5999 442.755 32.0249 443.861 32.2886 445.121C32.567 446.367 32.7062 447.664 32.7062 449.012C32.7062 451.488 32.3253 453.782 31.5633 455.892ZM31.893 404.781C32.4352 405.807 32.7062 407.353 32.7062 409.419C32.7062 414.314 30.1639 416.761 25.0791 416.761H14.7703V420.409H9.64893V416.761H4.79128L2.81306 409.837H9.64893L9.64893 404.781H14.7703V409.837H23.8702C26.2147 409.837 27.387 408.906 27.387 407.045C27.387 406.313 27.1745 405.558 26.7496 404.781H31.893ZM32.7062 341.993C32.7062 346.507 31.2409 350.185 28.3102 353.028C25.3502 355.87 21.5183 357.292 16.8145 357.292C11.847 357.292 7.81724 355.848 4.72534 352.962C1.6481 350.089 0.109482 346.265 0.109482 341.488C0.109482 336.989 1.58216 333.355 4.52752 330.586C7.45822 327.801 11.3414 326.409 16.1771 326.409C21.1153 326.409 25.1084 327.853 28.1563 330.74C28.2589 330.842 28.3615 330.937 28.4641 331.025C28.552 331.113 28.6399 331.208 28.7278 331.311L36.3989 323.332V333.267L32.1567 337.443C32.5231 338.821 32.7062 340.338 32.7062 341.993ZM6.22 341.686C6.22 344.162 7.15783 346.14 9.03348 347.62C10.8945 349.086 13.3636 349.818 16.4408 349.818C19.562 349.818 22.0312 349.086 23.8482 347.62C25.6652 346.155 26.5737 344.235 26.5737 341.862C26.5737 339.414 25.6945 337.473 23.9361 336.037C22.1484 334.601 19.6939 333.883 16.5727 333.883C13.3196 333.883 10.7772 334.579 8.94556 335.971C7.12852 337.348 6.22 339.253 6.22 341.686ZM32.1567 284.245V291.169H28.7278V291.279C31.3801 292.993 32.7062 295.286 32.7062 298.159C32.7062 303.375 29.5484 305.984 23.2327 305.984H9.64893V299.06H22.6173C25.7971 299.06 27.387 297.8 27.387 295.279C27.387 294.034 26.9547 293.037 26.0902 292.29C25.211 291.542 24.024 291.169 22.5294 291.169H9.64893V284.245H32.1567ZM15.9133 247.488C15.459 248.323 15.2319 249.298 15.2319 250.411C15.2319 251.921 15.7888 253.1 16.9024 253.95C18.0014 254.8 19.5034 255.225 21.4084 255.225H32.1567V262.171H9.64893V255.225H13.8252V255.137C10.7772 254.038 9.25328 252.06 9.25328 249.202C9.25328 248.47 9.3412 247.898 9.51704 247.488H15.9133ZM32.1567 209.302V215.874H28.9256V215.962C31.446 217.471 32.7062 219.706 32.7062 222.666C32.7062 224.849 32.0908 226.571 30.8599 227.831C29.6144 229.077 27.9585 229.7 25.8924 229.7C21.5256 229.7 19.0052 227.113 18.3311 221.941L17.5179 215.83C15.0561 215.83 13.8252 217.164 13.8252 219.83C13.8252 222.512 14.6238 225.062 16.221 227.48H10.9897C10.4915 226.512 10.0519 225.194 9.67091 223.523C9.28991 221.838 9.09942 220.307 9.09942 218.929C9.09942 212.511 12.3012 209.302 18.7048 209.302H32.1567ZM23.0129 215.83H21.4963L22.0238 219.918C22.3169 222.175 23.3353 223.303 25.0791 223.303C25.8704 223.303 26.5225 223.032 27.0353 222.49C27.5336 221.933 27.7827 221.186 27.7827 220.248C27.7827 218.944 27.3357 217.882 26.4419 217.061C25.5333 216.24 24.3904 215.83 23.0129 215.83ZM32.1567 165.863L32.1567 172.787H19.65C16.1624 172.787 14.4186 174.032 14.4186 176.523C14.4186 177.725 14.8802 178.714 15.8034 179.491C16.7266 180.267 17.8989 180.655 19.3203 180.655H32.1567V187.601H9.64893V180.655H13.2097V180.568C10.4695 178.912 9.09942 176.501 9.09942 173.336C9.09942 168.354 12.1913 165.863 18.3751 165.863H32.1567ZM32.1567 87.0951V94.8321L25.145 97.0741V108.284L32.1567 110.504V118.197L0.637009 106.723V98.305L32.1567 87.0951ZM19.6939 98.7006L9.09942 102.086C8.30813 102.335 7.36298 102.511 6.26396 102.613V102.789C7.18713 102.862 8.10298 103.045 9.0115 103.338L19.6939 106.767V98.7006ZM29.5411 60.6027V60.6906H42.5095V67.6363H9.64893L9.64893 60.6906H13.0339V60.6027C10.4109 58.8882 9.09942 56.4777 9.09942 53.3711C9.09942 50.4551 10.1032 48.2058 12.1107 46.6232C14.1036 45.026 16.8218 44.2273 20.2654 44.2273C24.0167 44.2273 27.028 45.1578 29.2993 47.0188C31.5706 48.8652 32.7062 51.327 32.7062 54.4042C32.7062 57.1151 31.6512 59.1813 29.5411 60.6027ZM20.3094 60.8005H22.1117C23.665 60.8005 24.9326 60.3902 25.9143 59.5696C26.8961 58.749 27.387 57.6719 27.387 56.3385C27.387 54.7559 26.7789 53.5323 25.5627 52.6678C24.3318 51.7886 22.5953 51.349 20.3533 51.349C16.3969 51.349 14.4186 52.8876 14.4186 55.9648C14.4186 57.3862 14.9608 58.5512 16.0452 59.4597C17.1149 60.3535 18.5363 60.8005 20.3094 60.8005ZM29.5411 16.4821V16.57H42.5095V23.5158H9.64893V16.57H13.0339V16.4821C10.4109 14.7676 9.09942 12.3571 9.09942 9.25056C9.09942 6.33451 10.1032 4.0852 12.1107 2.50262C14.1036 0.905383 16.8218 0.106766 20.2654 0.106766C24.0167 0.106766 27.028 1.03726 29.2993 2.89826C31.5706 4.74461 32.7062 7.2064 32.7062 10.2836C32.7062 12.9945 31.6512 15.0607 29.5411 16.4821ZM20.3094 16.6799H22.1117C23.665 16.6799 24.9326 16.2696 25.9143 15.449C26.8961 14.6284 27.387 13.5514 27.387 12.2179C27.387 10.6353 26.7789 9.41175 25.5627 8.5472C24.3318 7.66798 22.5953 7.22838 20.3533 7.22838C16.3969 7.22838 14.4186 8.767 14.4186 11.8442C14.4186 13.2656 14.9608 14.4306 16.0452 15.3391C17.1149 16.233 18.5363 16.6799 20.3094 16.6799Z" fill="#272727"/>
</g>
<defs>
<filter id="filter0_d_833_269" x="0.109375" y="0.106445" width="57.2851" height="554.163" filterUnits="userSpaceOnUse" color-interpolation-filters="sRGB">
<feFlood flood-opacity="0" result="BackgroundImageFix"/>
<feColorMatrix in="SourceAlpha" type="matrix" values="0 0 0 0 0 0 0 0 0 0 0 0 0 0 0 0 0 0 127 0" result="hardAlpha"/>
<feOffset dx="7.44258" dy="7.44258"/>
<feGaussianBlur stdDeviation="3.72129"/>
<feComposite in2="hardAlpha" operator="out"/>
<feColorMatrix type="matrix" values="0 0 0 0 0 0 0 0 0 0 0 0 0 0 0 0 0 0 0.25 0"/>
<feBlend mode="normal" in2="BackgroundImageFix" result="effect1_dropShadow_833_269"/>
<feBlend mode="normal" in="SourceGraphic" in2="effect1_dropShadow_833_269" result="shape"/>
</filter>
</defs>
</svg>
