<svg width="187" height="177" viewBox="0 0 187 177" fill="none" xmlns="http://www.w3.org/2000/svg">
<g filter="url(#filter0_d_833_245)">
<rect x="0.84082" y="0.908203" width="174.721" height="165.239" rx="16.1999" fill="#2CA4AB"/>
</g>
<g filter="url(#filter1_d_833_245)">
<path d="M94.8771 89.466L92.095 51.6662C92.095 51.6662 90.5369 46.1583 90.9821 37.0863C91.4272 28.0144 98.5867 19.9864 102.111 17.1064C97.2142 28.3384 97.1029 33.3063 97.1029 33.8463L98.7722 51.1262C99.3286 58.3262 100.441 76.0741 100.441 89.466C100.441 102.858 92.6514 112.326 88.7563 115.386C93.653 110.634 94.8771 96.1259 94.8771 89.466Z" fill="white"/>
<path d="M136.053 107.825L133.271 70.0256C133.271 70.0256 131.713 64.5176 132.158 55.4457C132.603 46.3737 139.762 38.3458 143.287 35.4658C138.39 46.6977 138.279 51.6657 138.279 52.2057L139.948 69.4856C140.504 76.6856 141.617 94.4334 141.617 107.825C141.617 121.217 133.827 130.685 129.932 133.745C134.829 128.993 136.053 114.485 136.053 107.825Z" fill="white"/>
<path d="M115.465 64.0864L109.344 58.1465L103.78 63.5464L109.901 69.4864L115.465 64.0864Z" fill="white"/>
<path d="M129.376 64.0864L123.255 58.1465L117.691 63.5464L123.812 69.4864L129.376 64.0864Z" fill="white"/>
<path d="M72.0636 64.6261C74.2893 60.7381 81.8939 57.6061 85.418 56.5261L87.0873 53.8261L79.8537 56.5261C78.0731 56.0941 75.7732 54.7261 74.8458 53.8261C74.8458 53.3941 77.4425 52.2062 78.7408 52.2062C79.1326 52.2062 80.0392 53.4661 80.4101 54.3661C82.6358 51.1262 80.4101 49.6862 79.2972 48.9662C74.8457 48.4262 70.9507 52.7462 70.9507 54.9061C70.9507 55.8721 73.9183 57.6061 75.4022 58.1461C73.6216 59.0101 72.4345 62.8261 72.0636 64.6261Z" fill="white"/>
<path d="M55.3688 113.227C52.7721 116.467 47.4675 124.135 47.0223 128.887C46.4659 131.407 46.911 136.123 48.6916 139.147C50.1754 141.307 54.8125 146.167 62.6025 140.767C69.2798 135.367 84.8599 122.407 84.8599 122.407C84.8599 122.407 87.0857 120.247 95.4322 117.007L117.133 109.447C122.041 107.867 127.149 106.025 127.149 105.127C127.149 102.967 122.697 101.347 122.697 101.347C122.697 101.347 111.012 99.4269 109.899 99.1869C106.561 98.4669 102.109 94.8669 104.335 87.307C104.335 87.307 106.561 79.207 113.795 78.127C116.206 77.587 123.476 78.127 126.593 84.607C128.818 88.027 131.044 95.8614 131.044 100.267C131.044 104.047 132.157 109.987 124.923 114.307C124.367 114.847 116.577 118.087 108.23 120.247L98.7708 123.487L93.7629 125.647L89.8678 127.807C85.4164 130.507 73.1747 139.687 71.5055 141.307C67.2497 145.437 59.8204 148.867 58.151 148.867C58.151 148.867 48.1353 149.407 45.3531 141.307C42.5709 133.207 45.353 122.407 55.3688 113.227Z" fill="white"/>
<path d="M55.3687 107.286V79.2064C57.1492 76.1824 62.7878 72.5464 65.3845 71.1064V98.6463C60.3766 101.346 57.5944 104.586 55.3687 107.286Z" fill="white"/>
<path d="M52.0308 107.286V79.2064C50.2502 76.1824 44.6116 72.5464 42.0149 71.1064V98.6463C47.0229 101.346 49.805 104.586 52.0308 107.286Z" fill="white"/>
<path d="M74.2874 79.7461H68.7231H68.1666V101.886C59.8201 104.586 58.7073 106.746 55.3687 109.446C58.1508 107.826 69.6505 103.506 74.2874 102.426V79.7461Z" fill="white"/>
<path d="M33.112 79.7461H38.6763H39.2328V101.886C47.5793 104.586 48.6922 106.746 52.0308 109.446C49.2486 107.826 37.7489 103.506 33.112 102.426V79.7461Z" fill="white"/>
<path d="M77.0698 106.206V89.4658H82.0777L81.5213 108.366C81.5213 108.366 67.2394 109.086 59.8203 109.986C63.7154 108.366 73.1747 106.206 77.0698 106.206Z" fill="white"/>
<path d="M30.3291 106.206V89.4658H25.3212L25.8777 108.366C25.8777 108.366 40.1595 109.086 47.5786 109.986C43.6836 108.366 34.2242 106.206 30.3291 106.206Z" fill="white"/>
<path d="M115.465 87.4949C113.239 86.6309 110.828 88.9348 109.901 90.1948C110.457 92.3548 121.03 91.8148 121.03 91.8148C117.691 88.5748 118.247 88.5749 115.465 87.4949Z" fill="#2CA4AB"/>
</g>
<defs>
<filter id="filter0_d_833_245" x="0.84082" y="0.908203" width="185.521" height="176.039" filterUnits="userSpaceOnUse" color-interpolation-filters="sRGB">
<feFlood flood-opacity="0" result="BackgroundImageFix"/>
<feColorMatrix in="SourceAlpha" type="matrix" values="0 0 0 0 0 0 0 0 0 0 0 0 0 0 0 0 0 0 127 0" result="hardAlpha"/>
<feOffset dx="5.39996" dy="5.39996"/>
<feGaussianBlur stdDeviation="2.69998"/>
<feComposite in2="hardAlpha" operator="out"/>
<feColorMatrix type="matrix" values="0 0 0 0 0 0 0 0 0 0 0 0 0 0 0 0 0 0 0.3 0"/>
<feBlend mode="normal" in2="BackgroundImageFix" result="effect1_dropShadow_833_245"/>
<feBlend mode="normal" in="SourceGraphic" in2="effect1_dropShadow_833_245" result="shape"/>
</filter>
<filter id="filter1_d_833_245" x="25.3213" y="17.1064" width="126.605" height="140.408" filterUnits="userSpaceOnUse" color-interpolation-filters="sRGB">
<feFlood flood-opacity="0" result="BackgroundImageFix"/>
<feColorMatrix in="SourceAlpha" type="matrix" values="0 0 0 0 0 0 0 0 0 0 0 0 0 0 0 0 0 0 127 0" result="hardAlpha"/>
<feOffset dx="4.31997" dy="4.31997"/>
<feGaussianBlur stdDeviation="2.15999"/>
<feComposite in2="hardAlpha" operator="out"/>
<feColorMatrix type="matrix" values="0 0 0 0 0 0 0 0 0 0 0 0 0 0 0 0 0 0 0.3 0"/>
<feBlend mode="normal" in2="BackgroundImageFix" result="effect1_dropShadow_833_245"/>
<feBlend mode="normal" in="SourceGraphic" in2="effect1_dropShadow_833_245" result="shape"/>
</filter>
</defs>
</svg>
