<svg width="284" height="198" viewBox="0 0 284 198" fill="none" xmlns="http://www.w3.org/2000/svg">
<path d="M42.2329 170.76C43.2782 170.76 44.1955 171.016 44.9849 171.528C45.7742 172.04 46.3822 172.744 46.8089 173.64C47.2355 174.536 47.4489 175.549 47.4489 176.68C47.4489 177.992 47.2035 179.144 46.7129 180.136C46.2329 181.117 45.5662 181.88 44.7129 182.424C43.8595 182.957 42.8995 183.224 41.8329 183.224C40.7662 183.224 39.8222 182.968 39.0009 182.456C38.1795 181.944 37.5449 181.24 37.0969 180.344C36.6489 179.437 36.4249 178.413 36.4249 177.272C36.4249 175.992 36.6809 174.856 37.1929 173.864C37.7155 172.872 38.4089 172.115 39.2729 171.592C40.1902 171.037 41.1769 170.76 42.2329 170.76ZM41.9929 171.752C40.8835 171.752 40.0409 172.232 39.4649 173.192C38.8995 174.141 38.6169 175.448 38.6169 177.112C38.6169 177.987 38.7502 178.819 39.0169 179.608C39.2942 180.387 39.6889 181.021 40.2009 181.512C40.7129 181.992 41.3209 182.232 42.0249 182.232C43.1235 182.232 43.9342 181.763 44.4569 180.824C44.9902 179.875 45.2569 178.552 45.2569 176.856C45.2569 175.928 45.1235 175.075 44.8569 174.296C44.6009 173.517 44.2222 172.899 43.7209 172.44C43.2302 171.981 42.6542 171.752 41.9929 171.752ZM56.2425 176.152C55.6451 175.971 55.1865 175.608 54.8665 175.064C54.5571 174.509 54.4025 173.933 54.4025 173.336C54.4131 172.44 54.6851 171.645 55.2185 170.952C55.7625 170.248 56.4238 169.741 57.2025 169.432L57.7305 170.008V170.248C57.3571 170.376 57.0211 170.68 56.7225 171.16C56.4345 171.629 56.2905 172.099 56.2905 172.568C56.2905 172.941 56.4078 173.293 56.6425 173.624C56.8771 173.955 57.1438 174.136 57.4425 174.168V174.616L56.2425 176.152ZM69.6236 173.992C69.9543 173.992 70.2849 174.029 70.6156 174.104C70.9569 174.168 71.2289 174.253 71.4316 174.36L72.4396 174.056L72.7756 174.232V185.96L73.8156 186.136V187H69.2556V186.136L70.8076 185.976V183.368L70.8716 182.248C70.6156 182.504 70.2743 182.728 69.8476 182.92C69.4209 183.112 68.9409 183.208 68.4076 183.208C67.7889 183.208 67.2076 183.069 66.6636 182.792C66.1303 182.515 65.6876 182.04 65.3356 181.368C64.9836 180.696 64.8076 179.811 64.8076 178.712C64.8076 177.827 65.0156 177.027 65.4316 176.312C65.8476 175.587 66.4183 175.021 67.1436 174.616C67.8796 174.2 68.7063 173.992 69.6236 173.992ZM69.4316 174.968C68.5889 174.968 67.9383 175.277 67.4796 175.896C67.0316 176.515 66.8076 177.411 66.8076 178.584C66.8076 179.629 67.0049 180.451 67.3996 181.048C67.7943 181.645 68.3543 181.944 69.0796 181.944C69.4636 181.944 69.7996 181.891 70.0876 181.784C70.3863 181.667 70.6263 181.523 70.8076 181.352V175.512C70.5303 175.149 70.0716 174.968 69.4316 174.968ZM81.7527 169.896C82.1474 169.896 82.4461 170.003 82.6487 170.216C82.8621 170.419 82.9687 170.696 82.9687 171.048C82.9687 171.443 82.8247 171.768 82.5367 172.024C82.2487 172.28 81.9127 172.408 81.5287 172.408C81.1981 172.408 80.9101 172.301 80.6647 172.088C80.4301 171.875 80.3127 171.597 80.3127 171.256C80.3127 170.883 80.4621 170.563 80.7607 170.296C81.0594 170.029 81.3901 169.896 81.7527 169.896ZM82.7927 174.232V182.008L84.0087 182.184V183H79.6407V182.184L80.8727 182.008V176.168L79.8167 175.4V174.824L82.3287 174.072L82.7927 174.232ZM97.5352 175.288V174.264H101.359V175.288L100.495 175.48L102.047 179.448L102.671 181.416L103.247 179.496L104.607 175.464L103.615 175.288V174.264H107.039V175.288L106.175 175.496L103.103 183.128H101.615L98.3032 175.448L97.5352 175.288ZM116.458 174.072C117.493 174.072 118.293 174.301 118.858 174.76C119.423 175.219 119.706 175.987 119.706 177.064V182.184H120.698V182.824C120.506 182.941 120.255 183.032 119.946 183.096C119.637 183.171 119.333 183.208 119.034 183.208C118.65 183.208 118.373 183.133 118.202 182.984C118.031 182.824 117.941 182.568 117.93 182.216C117.343 182.877 116.517 183.208 115.45 183.208C114.906 183.208 114.421 183.107 113.994 182.904C113.567 182.691 113.237 182.397 113.002 182.024C112.767 181.651 112.65 181.229 112.65 180.76C112.65 180.056 112.911 179.475 113.434 179.016C113.957 178.557 114.607 178.227 115.386 178.024C116.165 177.811 116.949 177.704 117.738 177.704V177.224C117.738 176.499 117.573 175.992 117.242 175.704C116.911 175.416 116.421 175.272 115.77 175.272C115.418 175.272 115.018 175.331 114.57 175.448C114.122 175.565 113.733 175.715 113.402 175.896L113.034 175.016C113.397 174.717 113.914 174.488 114.586 174.328C115.269 174.157 115.893 174.072 116.458 174.072ZM117.738 178.664C116.938 178.664 116.218 178.808 115.578 179.096C114.949 179.384 114.634 179.843 114.634 180.472C114.634 181.507 115.183 182.024 116.282 182.024C116.538 182.024 116.799 181.971 117.066 181.864C117.343 181.757 117.562 181.629 117.722 181.48L117.738 178.664ZM136.152 181.992V171.912L134.792 171.528V170.68L137.736 170.296L138.12 170.488V177.496L138.04 178.648L141.176 175.368L139.912 175.24V174.216H144.056V175.24L142.728 175.368L140.36 177.736L143.432 182.024L144.408 182.184V183H140.296V182.184L141.24 181.992L139.128 178.808L138.056 179.928L138.104 181.128V182.024L139.16 182.184V183H134.952V182.184L136.152 181.992ZM154.324 173.992C155.647 173.992 156.655 174.397 157.348 175.208C158.041 176.008 158.388 177.08 158.388 178.424C158.388 179.363 158.201 180.195 157.828 180.92C157.455 181.635 156.943 182.195 156.292 182.6C155.641 182.995 154.905 183.192 154.084 183.192C152.708 183.192 151.668 182.771 150.964 181.928C150.26 181.075 149.908 179.965 149.908 178.6C149.908 177.661 150.105 176.845 150.5 176.152C150.895 175.459 151.423 174.925 152.084 174.552C152.756 174.179 153.503 173.992 154.324 173.992ZM154.164 174.952C152.724 174.952 152.004 176.093 152.004 178.376C152.004 179.421 152.185 180.317 152.548 181.064C152.911 181.811 153.449 182.189 154.164 182.2C154.943 182.211 155.492 181.901 155.812 181.272C156.143 180.643 156.308 179.741 156.308 178.568C156.308 177.491 156.132 176.621 155.78 175.96C155.439 175.288 154.9 174.952 154.164 174.952ZM167.286 176.152C166.689 175.971 166.23 175.608 165.91 175.064C165.601 174.509 165.446 173.933 165.446 173.336C165.457 172.44 165.729 171.645 166.262 170.952C166.806 170.248 167.468 169.741 168.246 169.432L168.774 170.008V170.248C168.401 170.376 168.065 170.68 167.766 171.16C167.478 171.629 167.334 172.099 167.334 172.568C167.334 172.941 167.452 173.293 167.686 173.624C167.921 173.955 168.188 174.136 168.486 174.168V174.616L167.286 176.152ZM178.843 174.264H181.467V175.4H178.891V178.968C178.891 179.789 178.907 180.392 178.939 180.776C178.982 181.16 179.062 181.448 179.179 181.64C179.307 181.821 179.515 181.912 179.803 181.912C180.027 181.912 180.299 181.875 180.619 181.8C180.95 181.725 181.179 181.645 181.307 181.56L181.627 182.328C181.361 182.595 180.961 182.808 180.427 182.968C179.905 183.117 179.403 183.192 178.923 183.192C178.241 183.192 177.745 182.995 177.435 182.6C177.126 182.205 176.971 181.581 176.971 180.728V175.4H175.787V174.712C176.289 174.584 176.619 174.488 176.779 174.424C176.95 174.349 177.099 174.211 177.227 174.008C177.387 173.731 177.606 173.117 177.883 172.168H178.843V174.264ZM191.446 174.072C192.48 174.072 193.28 174.301 193.846 174.76C194.411 175.219 194.694 175.987 194.694 177.064V182.184H195.686V182.824C195.494 182.941 195.243 183.032 194.934 183.096C194.624 183.171 194.32 183.208 194.022 183.208C193.638 183.208 193.36 183.133 193.19 182.984C193.019 182.824 192.928 182.568 192.918 182.216C192.331 182.877 191.504 183.208 190.438 183.208C189.894 183.208 189.408 183.107 188.982 182.904C188.555 182.691 188.224 182.397 187.99 182.024C187.755 181.651 187.638 181.229 187.638 180.76C187.638 180.056 187.899 179.475 188.422 179.016C188.944 178.557 189.595 178.227 190.374 178.024C191.152 177.811 191.936 177.704 192.726 177.704V177.224C192.726 176.499 192.56 175.992 192.23 175.704C191.899 175.416 191.408 175.272 190.758 175.272C190.406 175.272 190.006 175.331 189.558 175.448C189.11 175.565 188.72 175.715 188.39 175.896L188.022 175.016C188.384 174.717 188.902 174.488 189.574 174.328C190.256 174.157 190.88 174.072 191.446 174.072ZM192.726 178.664C191.926 178.664 191.206 178.808 190.566 179.096C189.936 179.384 189.622 179.843 189.622 180.472C189.622 181.507 190.171 182.024 191.27 182.024C191.526 182.024 191.787 181.971 192.054 181.864C192.331 181.757 192.55 181.629 192.71 181.48L192.726 178.664ZM202.825 182.008V176.104L201.721 175.448V174.776L204.089 174.072L204.537 174.216V175.544C204.708 175.192 205.055 174.861 205.577 174.552C206.111 174.232 206.601 174.072 207.049 174.072C207.455 174.072 207.716 174.093 207.833 174.136V176.056C207.449 175.864 206.991 175.768 206.457 175.768C205.796 175.768 205.247 175.912 204.809 176.2V181.976L206.873 182.184V183H201.673V182.184L202.825 182.008ZM215.85 169.896C216.244 169.896 216.543 170.003 216.746 170.216C216.959 170.419 217.066 170.696 217.066 171.048C217.066 171.443 216.922 171.768 216.634 172.024C216.346 172.28 216.01 172.408 215.626 172.408C215.295 172.408 215.007 172.301 214.762 172.088C214.527 171.875 214.41 171.597 214.41 171.256C214.41 170.883 214.559 170.563 214.858 170.296C215.156 170.029 215.487 169.896 215.85 169.896ZM216.89 174.232V182.008L218.106 182.184V183H213.738V182.184L214.97 182.008V176.168L213.914 175.4V174.824L216.426 174.072L216.89 174.232ZM225.174 182.008V171.816L224.006 171.48V170.632L226.774 170.296L227.142 170.456V181.992L228.534 182.184V183H223.99V182.184L225.174 182.008ZM236.976 178.952H235.872L235.136 169.096H237.776L236.976 178.952ZM236.592 180.68C236.987 180.68 237.291 180.787 237.504 181C237.718 181.213 237.824 181.496 237.824 181.848C237.824 182.243 237.675 182.568 237.376 182.824C237.088 183.08 236.758 183.208 236.384 183.208C236.054 183.208 235.766 183.101 235.52 182.888C235.286 182.675 235.168 182.397 235.168 182.056C235.168 181.693 235.318 181.373 235.616 181.096C235.915 180.819 236.24 180.68 236.592 180.68Z" fill="white"/>
<g filter="url(#filter0_d_754_145)">
<path fill-rule="evenodd" clip-rule="evenodd" d="M175.72 88.9152C174.748 89.6564 173.523 91.0631 173.365 92.8633C178.074 87.615 181.576 88.8504 182.382 87.2904C182.56 86.9466 182.845 86.1581 182.958 85.7631C181.577 85.9974 180.219 87.0621 179.013 87.2849C177.525 87.5599 175.53 86.5333 174.853 85.7462C174.999 85.6027 174.9 85.6451 175.209 85.4554L177.082 84.9836C178.171 85.0437 178.231 85.8083 178.641 86.572C180.081 82.5083 178.309 81.7041 175.351 84.0023C170.517 87.7582 174.77 88.2239 175.72 88.9152Z" fill="white"/>
<g filter="url(#filter1_d_754_145)">
<path d="M15.4255 147.808V127.787L12.5561 127.496V125.562H22.1636V127.496L19.4232 127.787V147.808L22.3571 148.324V150H12.5239V148.324L15.4255 147.808ZM34.7919 131.849C35.4582 131.849 36.1245 131.924 36.7908 132.075C37.4786 132.204 38.0266 132.375 38.435 132.59L40.4661 131.978L41.1432 132.332V155.964L43.2388 156.319V158.06H34.0504V156.319L37.1777 155.997V150.742L37.3066 148.485C36.7908 149.001 36.103 149.452 35.2433 149.839C34.3835 150.226 33.4163 150.419 32.3417 150.419C31.095 150.419 29.9237 150.14 28.8275 149.581C27.7528 149.022 26.8609 148.066 26.1516 146.712C25.4423 145.357 25.0877 143.573 25.0877 141.36C25.0877 139.576 25.5068 137.964 26.345 136.524C27.1833 135.062 28.3332 133.923 29.7947 133.106C31.2777 132.268 32.9435 131.849 34.7919 131.849ZM34.405 133.816C32.707 133.816 31.396 134.439 30.4717 135.685C29.569 136.932 29.1177 138.737 29.1177 141.102C29.1177 143.208 29.5153 144.863 30.3105 146.067C31.1058 147.27 32.2342 147.872 33.6957 147.872C34.4695 147.872 35.1465 147.765 35.7269 147.55C36.3287 147.313 36.8123 147.023 37.1777 146.679V134.912C36.6188 134.181 35.6946 133.816 34.405 133.816ZM47.7546 148.001V136.105L45.5301 134.783V133.429L50.3016 132.01L51.2043 132.3V134.976C51.5482 134.267 52.2468 133.601 53.2999 132.977C54.3746 132.332 55.3633 132.01 56.266 132.01C57.0828 132.01 57.6093 132.053 57.8458 132.139V136.008C57.072 135.621 56.1478 135.428 55.0731 135.428C53.7405 135.428 52.6336 135.718 51.7524 136.298V147.937L55.9114 148.356V150H45.4334V148.356L47.7546 148.001ZM68.8399 131.849C71.505 131.849 73.5362 132.666 74.9332 134.299C76.3303 135.911 77.0288 138.071 77.0288 140.779C77.0288 142.671 76.6527 144.347 75.9004 145.809C75.1482 147.249 74.1165 148.377 72.8054 149.194C71.4943 149.989 70.0112 150.387 68.3563 150.387C65.5836 150.387 63.488 149.538 62.0695 147.84C60.6509 146.12 59.9416 143.885 59.9416 141.134C59.9416 139.243 60.3392 137.598 61.1345 136.201C61.9298 134.804 62.9937 133.73 64.3263 132.977C65.6803 132.225 67.1849 131.849 68.8399 131.849ZM68.5175 133.783C65.6159 133.783 64.1651 136.083 64.1651 140.683C64.1651 142.789 64.5304 144.594 65.2612 146.099C65.992 147.603 67.0774 148.367 68.5175 148.388C70.0865 148.409 71.1934 147.786 71.8382 146.518C72.5045 145.25 72.8376 143.434 72.8376 141.07C72.8376 138.899 72.483 137.147 71.7737 135.814C71.0859 134.46 70.0005 133.783 68.5175 133.783ZM95.6036 135.75V138.587H81.289V135.75H95.6036ZM111.469 125.336C113.576 125.336 115.424 125.852 117.015 126.884C118.605 127.916 119.83 129.334 120.69 131.14C121.55 132.945 121.98 134.987 121.98 137.265C121.98 139.522 121.614 141.553 120.884 143.359C120.153 145.164 119.121 146.647 117.788 147.808C116.477 148.968 114.941 149.753 113.178 150.161C113.909 151.816 115.693 152.644 118.53 152.644C119.626 152.644 120.583 152.439 121.399 152.031L121.593 154.514C121.27 154.9 120.755 155.212 120.045 155.449C119.336 155.685 118.552 155.803 117.692 155.803C114.145 155.803 111.953 154.019 111.115 150.451H110.792C108.622 150.451 106.698 149.946 105.021 148.936C103.345 147.904 102.045 146.497 101.12 144.713C100.218 142.907 99.7663 140.898 99.7663 138.684C99.7663 135.911 100.314 133.482 101.411 131.398C102.528 129.313 104.033 127.754 105.924 126.723C107.622 125.799 109.471 125.336 111.469 125.336ZM110.954 127.335C108.718 127.335 107.02 128.302 105.86 130.237C104.721 132.15 104.151 134.783 104.151 138.136C104.151 139.898 104.42 141.575 104.957 143.165C105.516 144.734 106.311 146.013 107.343 147.002C108.374 147.969 109.6 148.452 111.018 148.452C113.21 148.452 114.844 147.507 115.919 145.615C116.993 143.702 117.531 141.037 117.531 137.62C117.531 135.836 117.273 134.159 116.757 132.59C116.262 131.021 115.521 129.753 114.532 128.786C113.544 127.819 112.351 127.335 110.954 127.335ZM124.578 134.557V133.074L129.35 132.01L129.995 132.3V143.165C129.995 144.842 130.199 146.045 130.607 146.776C131.037 147.485 131.843 147.84 133.025 147.84C133.713 147.84 134.422 147.689 135.153 147.389C135.905 147.088 136.453 146.776 136.797 146.454V135.428L134.831 134.718V133.106L140.086 132.01L140.666 132.268V148.356H142.536V149.774C142.214 149.968 141.687 150.14 140.956 150.29C140.225 150.441 139.591 150.516 139.054 150.516C138.474 150.516 138.012 150.387 137.668 150.129C137.345 149.893 137.184 149.527 137.184 149.033V147.969C136.432 148.7 135.551 149.28 134.54 149.71C133.53 150.14 132.563 150.355 131.639 150.355C130.091 150.355 128.92 150.075 128.125 149.516C127.351 148.936 126.835 148.141 126.577 147.131C126.319 146.12 126.18 144.788 126.158 143.133V135.266L124.578 134.557ZM147.623 148.001V136.105L145.399 134.783V133.429L150.17 132.01L151.073 132.3V134.976C151.417 134.267 152.115 133.601 153.168 132.977C154.243 132.332 155.232 132.01 156.134 132.01C156.951 132.01 157.478 132.053 157.714 132.139V136.008C156.94 135.621 156.016 135.428 154.942 135.428C153.609 135.428 152.502 135.718 151.621 136.298V147.937L155.78 148.356V150H145.302V148.356L147.623 148.001ZM167.612 132.01C169.697 132.01 171.309 132.472 172.448 133.396C173.587 134.321 174.157 135.868 174.157 138.039V148.356H176.156V149.645C175.769 149.882 175.264 150.064 174.64 150.193C174.017 150.344 173.405 150.419 172.803 150.419C172.029 150.419 171.47 150.269 171.126 149.968C170.782 149.645 170.6 149.13 170.578 148.42C169.396 149.753 167.73 150.419 165.581 150.419C164.485 150.419 163.507 150.215 162.647 149.807C161.787 149.377 161.121 148.786 160.648 148.033C160.175 147.281 159.939 146.432 159.939 145.486C159.939 144.068 160.466 142.896 161.519 141.972C162.572 141.048 163.883 140.382 165.452 139.973C167.021 139.543 168.601 139.329 170.191 139.329V138.361C170.191 136.9 169.858 135.879 169.192 135.299C168.526 134.718 167.537 134.428 166.226 134.428C165.517 134.428 164.711 134.546 163.808 134.783C162.905 135.019 162.121 135.32 161.454 135.685L160.713 133.912C161.444 133.31 162.486 132.848 163.84 132.526C165.216 132.182 166.473 132.01 167.612 132.01ZM170.191 141.263C168.579 141.263 167.129 141.553 165.839 142.133C164.571 142.714 163.937 143.638 163.937 144.906C163.937 146.991 165.044 148.033 167.257 148.033C167.773 148.033 168.3 147.926 168.837 147.711C169.396 147.496 169.837 147.238 170.159 146.937L170.191 141.263ZM180.838 148.033V136.105L178.646 134.783V133.429L183.45 132.01L184.32 132.3V134.589C185.137 133.859 186.169 133.246 187.415 132.752C188.683 132.257 189.866 132.01 190.962 132.01C192.81 132.01 194.1 132.59 194.831 133.751C195.583 134.912 195.959 136.76 195.959 139.296V148.033L198.345 148.356V150H189.64V148.356L191.993 148.001V139.909C191.993 138.641 191.907 137.652 191.735 136.943C191.564 136.212 191.241 135.675 190.768 135.331C190.295 134.987 189.608 134.815 188.705 134.815C188.146 134.815 187.501 134.922 186.771 135.137C186.061 135.352 185.416 135.675 184.836 136.105V148.001L187.028 148.356V150H178.775V148.356L180.838 148.033ZM208.629 147.808L216.657 125.562H220.268L227.973 147.808L230.455 148.356V150H221.235V148.356L223.653 147.808L222.363 143.713H213.272L211.917 147.775L214.432 148.324V150H206.437V148.324L208.629 147.808ZM219.268 134.009L217.882 129.399L213.981 141.456H221.622L219.268 134.009ZM243.064 131.849C245.17 131.849 246.857 132.59 248.125 134.073C249.415 135.556 250.06 137.738 250.06 140.618C250.06 142.402 249.651 144.046 248.835 145.551C248.039 147.034 246.932 148.205 245.514 149.065C244.117 149.925 242.537 150.355 240.775 150.355C239.958 150.355 239.055 150.236 238.066 150L238.195 153.611V156.029L241.355 156.384V158.06H232.134V156.384L234.262 155.997V136.105L232.07 134.783V133.429L236.841 132.01L237.679 132.3V134.235C238.131 133.611 238.862 133.063 239.872 132.59C240.903 132.096 241.967 131.849 243.064 131.849ZM241.419 134.202C240.732 134.202 240.108 134.353 239.549 134.654C238.991 134.955 238.528 135.288 238.163 135.653L238.195 147.034C238.41 147.421 238.797 147.732 239.356 147.969C239.936 148.184 240.603 148.291 241.355 148.291C242.236 148.291 243.042 148.012 243.773 147.453C244.504 146.873 245.073 146.034 245.482 144.938C245.911 143.842 246.126 142.531 246.126 141.005C246.126 138.813 245.686 137.136 244.805 135.976C243.923 134.793 242.795 134.202 241.419 134.202ZM264.064 131.849C266.17 131.849 267.857 132.59 269.125 134.073C270.415 135.556 271.06 137.738 271.06 140.618C271.06 142.402 270.651 144.046 269.835 145.551C269.039 147.034 267.932 148.205 266.514 149.065C265.117 149.925 263.537 150.355 261.775 150.355C260.958 150.355 260.055 150.236 259.066 150L259.195 153.611V156.029L262.355 156.384V158.06H253.134V156.384L255.262 155.997V136.105L253.07 134.783V133.429L257.841 132.01L258.68 132.3V134.235C259.131 133.611 259.862 133.063 260.872 132.59C261.904 132.096 262.967 131.849 264.064 131.849ZM262.419 134.202C261.732 134.202 261.108 134.353 260.549 134.654C259.991 134.955 259.529 135.288 259.163 135.653L259.195 147.034C259.41 147.421 259.797 147.732 260.356 147.969C260.936 148.184 261.603 148.291 262.355 148.291C263.236 148.291 264.042 148.012 264.773 147.453C265.504 146.873 266.073 146.034 266.482 144.938C266.912 143.842 267.126 142.531 267.126 141.005C267.126 138.813 266.686 137.136 265.805 135.976C264.923 134.793 263.795 134.202 262.419 134.202Z" fill="white"/>
</g>
<g filter="url(#filter2_d_754_145)">
<rect x="79" width="116.44" height="110.121" rx="10.7962" fill="#2CA4AB"/>
</g>
<path fill-rule="evenodd" clip-rule="evenodd" d="M165.633 68.0712C164.047 70.8954 150.789 73.6414 146.694 75.127C137.144 78.592 132.597 83.1078 125.713 89.8222C125.06 90.4585 124.776 90.915 124.032 91.4867C118.688 95.5927 109.73 95.1277 113.474 82.1155C114.963 76.938 116.203 76.4926 117.94 73.6306C114.906 75.9743 110.725 83.9132 111.634 89.9663C112.561 96.1449 118.856 100.671 124.883 96.2858C129.336 93.0456 130.348 90.9466 133.776 88.0311C134.868 87.1018 135.804 86.2011 136.955 85.3035C141.467 81.7869 146.893 80.2335 153.085 78.3826C161.198 75.9572 164.956 75.9242 166.708 68.9507C167.569 65.5245 167.629 62.5007 166.443 59.1888C164.471 53.6828 159.109 46.7043 153.924 51.6261C152.914 52.5839 152.223 53.3697 151.583 55.0102C149.502 60.3422 150.342 64.7459 157.558 64.6194C159.159 64.5913 161.402 64.4446 162.776 65.0246C163.902 65.5003 165.223 66.8817 165.633 68.0712ZM153.172 58.022C154.797 58.9928 158.521 58.9383 160.668 58.7441C160.262 57.9109 158.287 56.2136 157.301 55.8947C155.355 55.2658 153.454 56.6871 153.172 58.022Z" fill="white"/>
<path fill-rule="evenodd" clip-rule="evenodd" d="M167.251 87.9204C177.97 77.9842 174.099 56.8756 172.777 43.2035C172.139 36.6137 171.312 32.5925 173.527 26.6966C174.118 25.1212 174.911 23.8015 175.474 22.3759C174.203 23.1226 172.062 25.8551 171.046 27.5819C166.619 35.1108 168.713 44.43 169.519 53.3062C170.275 61.6285 171.715 72.7652 169.817 80.7323C168.8 85.0027 167.748 86.1719 167.251 87.9204Z" fill="white"/>
<path fill-rule="evenodd" clip-rule="evenodd" d="M141.031 74.5552C141.988 73.8882 143.432 71.9331 144.218 70.6907C145.128 69.2495 145.888 67.609 146.503 65.885C151.361 52.2536 144.799 26.6196 146.053 18.1017C146.304 16.3903 146.759 14.8631 147.336 13.3145C147.918 11.7508 148.775 10.3857 149.277 9.00011C145.783 11.4838 143.017 16.8067 142.352 21.5445C141.631 26.6758 142.838 34.6361 143.306 39.9183C144.03 48.0976 145.543 59.5397 143.623 67.3393C142.885 70.3343 141.964 72.0706 141.031 74.5552Z" fill="white"/>
<path fill-rule="evenodd" clip-rule="evenodd" d="M134.882 15.7332C133.91 16.4745 132.685 17.8811 132.527 19.6814C137.237 14.4331 140.738 15.6684 141.544 14.1085C141.722 13.7646 142.008 12.9762 142.12 12.5812C140.74 12.8155 139.381 13.8801 138.176 14.1029C136.687 14.378 134.692 13.3514 134.016 12.5642C134.162 12.4208 134.063 12.4632 134.371 12.2735L136.244 11.8017C137.333 11.8618 137.393 12.6264 137.803 13.3901C139.243 9.32626 137.471 8.52221 134.513 10.8203C129.679 14.5763 133.932 15.042 134.882 15.7332Z" fill="white"/>
<path fill-rule="evenodd" clip-rule="evenodd" d="M158.417 40.8088C159.096 41.4311 159.884 42.0162 160.583 42.5853C161.398 43.2496 162.075 43.9416 162.878 44.3906C164.047 43.4447 164.897 41.5859 166.034 40.5539L165.045 39.505C164.268 38.8622 162.372 37.1856 161.597 36.878C160.819 38.0186 158.924 39.7776 158.417 40.8088Z" fill="white"/>
<path fill-rule="evenodd" clip-rule="evenodd" d="M150.441 40.6826C150.815 41.209 154.321 44.1466 155.037 44.4395C155.707 43.2405 157.633 41.3948 158.032 40.1912C157.327 39.8143 156.538 39.1106 155.914 38.5712C155.343 38.0771 154.417 37.2438 153.814 36.9074L150.441 40.6826Z" fill="white"/>
<path d="M137.434 92.4649C137.399 92.4501 137.373 92.4389 137.353 92.4314C137.047 92.3029 136.784 92.2395 136.567 92.2395C135.985 92.2395 135.565 92.4911 135.309 92.9921C135.052 93.4951 134.925 94.3148 134.925 95.4529C134.925 96.7588 135.317 97.6288 136.1 98.0608H136.042C135.631 97.9454 135.319 97.6548 135.104 97.191C134.889 96.7252 134.782 96.1105 134.782 95.3467C134.782 94.2066 134.915 93.3852 135.183 92.8823C135.45 92.3793 135.889 92.1278 136.498 92.1278C136.866 92.1278 137.178 92.2265 137.434 92.4259V92.4649ZM138.174 98.0608C138.524 98.398 138.944 98.5657 139.433 98.5657C139.697 98.5657 139.991 98.4967 140.318 98.357L140.359 98.3775C140.176 98.6141 140.027 98.8302 139.91 99.022L139.478 99.7485L139.456 99.7914C138.814 99.6871 138.257 99.3649 137.784 98.8265C137.385 99.0034 136.981 99.0909 136.577 99.0909C135.929 99.0909 135.412 98.9308 135.028 98.6123L135.052 98.5749C135.571 98.8153 136.054 98.9345 136.496 98.9345C136.927 98.9345 137.321 98.8618 137.679 98.7166C137.663 98.6941 137.651 98.6793 137.643 98.6681C137.589 98.5844 137.538 98.5209 137.486 98.4763C137.124 98.6029 136.752 98.6663 136.367 98.6663C135.442 98.6663 134.674 98.3178 134.064 97.6212C133.454 96.9246 133.147 96.0509 133.147 95.0003C133.147 93.9216 133.446 93.0481 134.042 92.3792C134.639 91.7123 135.422 91.379 136.394 91.379C137.339 91.379 138.098 91.7086 138.677 92.3662C139.254 93.0238 139.542 93.8919 139.542 94.9686C139.542 95.6224 139.443 96.1831 139.242 96.6452C139.043 97.109 138.703 97.5653 138.226 98.0124L138.174 98.0608ZM137.872 97.243C138.134 96.7122 138.265 95.9391 138.265 94.9239C138.265 92.8506 137.611 91.8149 136.303 91.8149C135.027 91.8149 134.388 92.9046 134.388 95.0823C134.388 96.0602 134.565 96.8277 134.919 97.3847C135.271 97.9416 135.756 98.2192 136.374 98.2192C136.635 98.2192 136.888 98.167 137.132 98.0608C136.901 97.6604 136.597 97.4591 136.218 97.4591C136.19 97.4591 136.144 97.4629 136.076 97.4722L136.484 97.0028C136.768 97.0791 137.112 97.2692 137.516 97.5709L137.585 97.6249C137.633 97.5709 137.687 97.502 137.748 97.4182L137.778 97.3791C137.518 97.1425 137.178 96.9562 136.758 96.8166L136.84 96.6918C137.178 96.811 137.496 96.9766 137.796 97.189L137.872 97.243ZM138.337 91.7646C138.876 91.975 139.303 92.3737 139.623 92.9586C139.944 93.5416 140.103 94.2216 140.103 94.9984C140.103 96.1589 139.741 97.1574 139.019 97.9901C139.24 98.1689 139.584 98.2769 140.049 98.3124V98.3458C139.902 98.3663 139.792 98.3757 139.717 98.3757C139.373 98.3757 139.059 98.2564 138.78 98.018C139.558 97.2785 139.948 96.267 139.948 94.9817C139.948 93.5789 139.411 92.5171 138.337 91.7962V91.7646ZM140.795 98.629C140.48 99.0146 140.184 99.4523 139.904 99.9386L139.87 100L139.729 99.933C139.862 99.6871 140.011 99.4486 140.178 99.2195L140.632 98.5974L140.661 98.5527L140.795 98.629ZM147.44 91.5019L146.398 92.2843V95.8125C146.398 96.4607 146.376 96.9283 146.33 97.2113C146.287 97.4965 146.197 97.7293 146.066 97.9118C145.732 98.3775 145.084 98.6104 144.121 98.6104C143.103 98.6104 142.393 98.3775 141.99 97.9118C141.668 97.543 141.506 96.8388 141.506 95.7956V92.1688L140.715 91.5019H143.467L142.676 92.2284V95.8012L142.688 96.6432C142.688 97.1873 142.807 97.5709 143.048 97.8C143.288 98.0273 143.694 98.1409 144.264 98.1409C144.891 98.1409 145.324 97.9677 145.561 97.6212C145.75 97.3418 145.845 96.7401 145.845 95.8181L145.869 92.2843L144.962 91.5019H147.44ZM147.643 91.8744L146.851 92.4911V95.8832C146.851 96.9935 146.758 97.7161 146.573 98.0553C146.193 98.7389 145.449 99.0799 144.346 99.0799C143.391 99.0799 142.674 98.8563 142.192 98.411L142.24 98.4335L142.443 98.5415C142.922 98.8042 143.535 98.9345 144.284 98.9345C145.356 98.9345 146.068 98.6178 146.416 97.9845C146.603 97.6435 146.696 96.9562 146.696 95.9223V92.4259L147.555 91.7589L147.643 91.8744ZM143.712 91.7962L143.141 92.3383V96.3973V96.7736L143.316 97.4666C143.405 97.6045 143.574 97.7721 143.823 97.9695L143.835 98.018C143.509 97.895 143.284 97.7144 143.161 97.4777C143.035 97.2412 142.974 96.8762 142.974 96.3806V92.2843L143.63 91.6826L143.712 91.7962ZM148.273 92.1577C149.195 91.6602 150.186 91.4126 151.247 91.4126C152.071 91.4126 152.751 91.5801 153.285 91.9154C153.82 92.2489 154.087 92.6754 154.087 93.1934C154.087 93.6143 153.912 93.9888 153.562 94.3148C153.212 94.6408 152.735 94.8755 152.128 95.0226C152.395 95.7137 152.759 96.3862 153.22 97.0419C153.679 97.6958 154.141 98.1986 154.604 98.5489L154.516 98.5749C153.938 98.7612 153.369 99.022 152.814 99.361L152.727 99.4151L152.699 99.24C152.45 97.8317 152.102 96.6395 151.655 95.6597L151.631 95.6057C151.365 95.7212 151.005 95.8144 150.553 95.8832L150.508 95.8888V97.9305L151.534 98.9568H148.517L148.424 98.8115H151.202L150.353 97.9695V95.7696L150.476 95.7529C150.919 95.7099 151.291 95.628 151.591 95.5069C151.568 95.4641 151.554 95.4362 151.55 95.425L151.492 95.2667C151.488 95.2554 151.478 95.2349 151.462 95.2014C151.222 95.2667 150.766 95.3374 150.094 95.4137L150.031 95.425V97.8596L150.701 98.5098H148.122L148.885 97.8596V96.0266L148.838 96.0323C148.611 96.0789 148.406 96.131 148.221 96.1907L148.173 96.2055L148.122 96.0974C148.295 96.0359 148.43 95.9932 148.527 95.9708L148.838 95.9L148.885 95.8888V95.6057C148.655 95.6057 148.368 95.6521 148.024 95.7472L147.959 95.7696C147.967 95.7193 148.004 95.6001 148.076 95.4137C148.084 95.4007 148.11 95.3187 148.158 95.1698C148.162 95.1586 148.167 95.1418 148.173 95.1195C148.348 95.1288 148.486 95.1345 148.583 95.1345C148.686 95.1345 148.784 95.1288 148.873 95.1195V92.4314C148.694 92.329 148.509 92.2433 148.321 92.1743L148.273 92.1577ZM150.031 92.016V94.9611C150.144 94.9611 150.251 94.9518 150.353 94.9351V92.2451C150.567 92.1892 150.824 92.1613 151.122 92.1613C151.882 92.1613 152.397 92.396 152.669 92.8637C152.381 92.6419 152.128 92.4911 151.912 92.4091C151.695 92.3253 151.434 92.2843 151.132 92.2843C150.894 92.2843 150.687 92.3086 150.508 92.3552V94.9351L150.571 94.9239C151.337 94.7934 151.906 94.5868 152.277 94.3054C152.649 94.0241 152.834 93.659 152.834 93.2083C152.834 92.8058 152.667 92.4725 152.331 92.2098C151.997 91.9471 151.576 91.8149 151.064 91.8149C150.655 91.8149 150.311 91.8819 150.031 92.016ZM152.85 95.2945C153.095 96.0435 153.526 96.7774 154.149 97.4946C154.536 97.9416 155.027 98.344 155.622 98.6997C154.733 98.9215 153.898 99.2605 153.117 99.7151L153.065 99.7485L152.947 99.661C153.689 99.2065 154.481 98.8712 155.32 98.657C154.2 97.9584 153.321 96.8407 152.681 95.3057L152.645 95.2127C153.828 94.7898 154.421 94.1453 154.421 93.279C154.421 92.9213 154.27 92.532 153.967 92.1092C154.357 92.4445 154.552 92.8693 154.552 93.3871C154.552 94.2253 153.985 94.8605 152.85 95.2945ZM160.976 91.5019L160.37 92.1465L161.326 94.5308L161.559 94.4097L160.696 92.2564L161.314 91.5895L161.466 91.649L160.877 92.2899L161.692 94.3278C161.74 94.2961 161.768 94.2757 161.774 94.2682L161.967 94.1154C162.084 94.0278 162.158 93.9664 162.187 93.9291C162.289 94.3445 162.444 94.7152 162.655 95.043C162.541 95.0375 162.46 95.0337 162.41 95.0337C162.04 95.0337 161.77 95.0878 161.601 95.1958L162.655 97.8764L163.528 98.5098H160.587L161.39 97.8764L160.744 96.2819C160.316 96.6861 159.988 97.0698 159.76 97.435L159.624 97.4014C159.855 97.0455 160.195 96.647 160.65 96.2055L160.696 96.1514L160.587 95.9111C160.123 96.2725 159.742 96.6898 159.439 97.1667L159.334 97.0084C159.131 96.7065 158.873 96.3619 158.559 95.9763L158.501 95.9111C158.193 96.5334 158.04 97.0401 158.04 97.4294C158.04 97.6585 158.081 97.8522 158.167 98.0106C158.25 98.1689 158.455 98.4335 158.779 98.8041C158.805 98.8376 158.849 98.888 158.909 98.9568H155.763L155.646 98.8115H158.612L158.511 98.696C158.254 98.4054 158.085 98.1782 158.004 98.0161C157.924 97.8542 157.885 97.6641 157.885 97.4461C157.885 97.0754 158.048 96.5221 158.372 95.7864L158.117 95.5348C158.065 95.6504 158.002 95.8218 157.924 96.0472L157.732 96.6042C157.626 96.9022 157.574 97.1498 157.574 97.3474C157.574 97.5505 157.612 97.72 157.686 97.8542C157.759 97.9901 157.914 98.1726 158.151 98.4054C158.175 98.4279 158.209 98.4632 158.256 98.5098H155.344C155.898 98.2396 156.34 97.8783 156.664 97.4237C156.988 96.9692 157.308 96.267 157.626 95.317L157.65 95.2405C157.445 95.0766 157.147 94.976 156.759 94.9388C156.972 94.6408 157.137 94.3297 157.254 94.0055C157.308 94.0539 157.342 94.0818 157.354 94.0931L157.616 94.3221C157.704 94.4023 157.811 94.4842 157.936 94.5681L158.04 94.3278L157.97 94.2738C157.777 94.1135 157.614 93.9851 157.481 93.8863L157.429 93.8472L157.523 93.728C157.727 93.8546 157.926 94.0018 158.117 94.1695L158.909 92.1259L158.29 91.5019H160.976ZM159.537 93.2567L158.897 94.8419C158.932 94.8772 158.95 94.8996 158.954 94.9071L159.195 95.1586C159.322 95.289 159.485 95.4921 159.684 95.7696L159.742 95.8515C159.909 95.6541 160.108 95.4603 160.336 95.2667L159.537 93.2567ZM159.276 92.6233L158.35 94.9182C158.644 95.2014 158.899 95.4828 159.113 95.7584L159.38 96.1086C159.384 96.1124 159.404 96.1347 159.439 96.1794C159.473 96.1459 159.493 96.1254 159.497 96.1179L159.579 96.0266C159.591 96.0118 159.612 95.9876 159.642 95.9558C159.37 95.5628 159.054 95.2071 158.694 94.8904L159.439 93.0443L159.276 92.6233ZM162.7 94.1918C162.786 94.5196 163.001 94.9686 163.341 95.5405C163.257 95.5293 163.207 95.5238 163.196 95.5238L162.724 95.4865C162.511 95.4678 162.354 95.4585 162.259 95.4585C162.243 95.4585 162.203 95.4603 162.142 95.4641L163.114 97.8839L164.414 98.9568H161.04L160.931 98.8115H164.023L162.975 97.9435L161.937 95.371C162.07 95.3393 162.221 95.3244 162.392 95.3244C162.601 95.3244 162.836 95.3393 163.092 95.371L163.02 95.2517C162.772 94.8214 162.605 94.4339 162.519 94.0874L162.7 94.1918ZM171.258 91.5019C170.817 91.7162 170.531 91.9137 170.401 92.0925C170.208 92.3699 170.111 92.7872 170.111 93.3442V93.7V98.5098H169.127L166.377 93.5081V96.4738V96.7196L166.44 97.5057C166.518 97.8689 166.695 98.139 166.971 98.3142L167.017 98.3514C166.486 98.1838 166.222 97.6474 166.222 96.7401V96.2278V93.2399L165.912 92.6662V95.8125C165.912 96.811 165.981 97.4629 166.12 97.7721C166.26 98.0833 166.586 98.3087 167.099 98.4502L167.606 98.9568H164.45L164.357 98.8115H167.274L166.971 98.5098H164.257C164.732 98.3496 165.047 98.1353 165.202 97.8652C165.357 97.597 165.434 97.1333 165.434 96.4794V92.1092L164.659 91.5019H167.606L166.779 92.0216L169.598 97.1779V96.5221L167.18 92.1092L167.995 91.5895L168.107 91.6937L167.385 92.1521L169.598 96.2278V93.6776V93.3889C169.598 92.7536 169.542 92.3309 169.433 92.1166C169.322 91.9042 169.049 91.6993 168.614 91.5019H171.258ZM171.463 91.9061L171.358 92.07C171.058 92.1352 170.855 92.2581 170.749 92.4332C170.642 92.6103 170.588 92.9083 170.588 93.3275V98.9568H169.337L169.262 98.8115H170.433V93.3834C170.433 92.8693 170.505 92.5115 170.646 92.3086C170.787 92.1055 171.059 91.9713 171.463 91.9061Z" fill="white"/>
<path fill-rule="evenodd" clip-rule="evenodd" d="M101.142 51.316L100.679 52.5564C100.519 52.9734 100.361 53.3859 100.206 53.8072C99.8976 54.6422 99.5818 55.4685 99.2678 56.2916L95.5062 66.219C95.3081 66.7481 94.6761 68.307 94.5742 68.7098C94.2302 70.0684 95.5566 70.0292 96.5842 69.9407C98.4246 69.7821 100.422 69.1212 102.051 68.5698C103.765 67.9898 105.4 67.368 107.15 66.8234C108.173 66.505 108.986 66.3546 110.106 66.5914C111.356 66.856 112.575 67.5622 113.506 68.3133C113.653 68.4316 113.83 68.567 113.966 68.702L115.265 70.0018L116.039 70.9546L116.623 70.276C116.938 69.8825 118.126 68.7561 118.594 68.4132C118.967 68.1403 119.177 67.9564 119.598 67.6931C121.259 66.655 122.662 66.1861 124.971 66.7542C128.407 67.5996 131.749 69.6888 135.388 70.0048C136.561 70.1066 137.586 70.1262 137.356 68.7018C137.249 68.0407 136.745 66.8182 136.49 66.1461C135.864 64.4997 135.249 62.8463 134.614 61.2031L131.791 53.7848C131.662 53.4474 130.935 51.4385 130.834 51.3167C130.018 51.4607 129.466 51.5199 128.597 51.4655C127.908 51.4222 127.189 51.2915 126.543 51.1352C125.303 50.8349 124.059 50.4057 122.924 49.9672C122.373 49.7547 121.733 49.507 121.155 49.3426C120.396 49.1266 119.932 48.9844 119.105 49.2147C118.206 49.4648 117.468 49.9301 116.736 50.4216L116.039 50.9417L115.322 50.4672C114.611 50.0135 113.77 49.5005 112.958 49.2293C111.729 48.8188 110.143 49.5623 109.114 49.9528C107.237 50.6659 105.497 51.318 103.413 51.4298C103.015 51.4511 102.62 51.4601 102.223 51.4399C101.836 51.4202 101.498 51.3458 101.142 51.316ZM101.926 52.8483C101.881 53.0625 99.0068 60.7306 98.9026 61.0209C98.4104 62.3913 97.8983 63.7517 97.4026 65.1301C97.1893 65.7233 96.8118 66.6296 96.7197 67.2514C96.6514 67.7122 96.7424 68.058 97.0912 68.2089C98.0186 68.6101 99.5811 67.8839 100.42 67.556C102.543 66.7263 104.267 65.9173 106.583 65.3043C109.379 64.564 112.046 64.7943 114.323 66.5701C114.728 66.8856 114.756 66.9642 115.049 67.2359C115.081 66.6166 115.052 65.9198 115.052 65.2918V53.4556C115.052 52.5294 115.118 52.4988 114.647 51.8882C114.525 51.7297 114.292 51.5459 114.125 51.4322C113.448 50.9701 112.583 50.8275 111.738 50.9001C110.641 50.9944 109.618 51.4673 108.707 51.8365C106.329 52.8001 104.764 53.03 101.926 52.8483ZM117.086 67.229C117.178 67.175 117.178 67.1459 117.264 67.0568C117.328 66.9895 117.381 66.9451 117.451 66.8839C118.366 66.0814 119.389 65.4747 120.628 65.173C122.448 64.7301 123.809 64.8582 125.569 65.3061C127.002 65.6707 128.406 66.2179 129.714 66.7454C130.745 67.1607 132.806 68.0573 133.8 68.2686C134.161 68.3454 134.687 68.3541 135.022 68.2183C135.382 68.072 135.493 67.7537 135.421 67.2709C135.323 66.6147 134.956 65.7597 134.74 65.1427C134.259 63.7689 133.738 62.3989 133.24 61.0325C132.741 59.6615 132.245 58.297 131.723 56.9405C131.598 56.6144 130.301 53.0312 130.191 52.8543C129.903 52.8511 129.557 52.895 129.258 52.9055C127.063 52.9828 125.485 52.6837 123.443 51.8411C122.009 51.249 120.321 50.51 118.71 51.084C118.202 51.2652 117.765 51.5639 117.513 51.8678C117.041 52.4358 117.085 52.5117 117.085 53.4041V59.3222C117.085 61.9539 117.059 64.5989 117.086 67.229Z" fill="white"/>
<path fill-rule="evenodd" clip-rule="evenodd" d="M113.551 72.4361V73.6769L118.555 73.6885V72.3297H139.711C140.187 72.3298 140.787 72.3664 141.002 72.0114C141.215 71.6615 140.916 71.0407 140.786 70.7517C140.615 70.3712 140.445 70.0012 140.266 69.6264C139.559 68.155 138.939 66.6311 138.231 65.1506C137.881 64.4176 137.569 63.6668 137.22 62.92C136.874 62.1781 136.532 61.42 136.204 60.6673C135.549 59.1615 134.851 57.6751 134.182 56.1792C133.848 55.4329 133.529 54.6864 133.183 53.9376C132.879 53.2807 132.35 53.4846 132.494 54.0347C132.536 54.1965 132.667 54.4573 132.735 54.6167C132.816 54.8088 132.899 54.9993 132.984 55.1901C133.656 56.6992 134.304 58.2084 134.96 59.7242C136.27 62.7516 137.606 65.7687 138.901 68.803C139.279 69.6888 139.783 70.5433 138.77 71.015C136.957 71.8593 132.204 70.6034 130.426 70.1246C129.573 69.8952 128.715 69.6702 127.86 69.4502C124.916 68.6922 122.63 68.0162 119.714 69.3519C118.889 69.7299 118.326 70.0883 117.68 70.5602C117.437 70.7375 116.811 71.2807 116.601 71.514L116.034 72.176C115.775 71.9146 115.486 71.6524 115.212 71.3922C114.934 71.127 114.682 70.8496 114.377 70.607C113.731 70.0922 113.211 69.6765 112.41 69.3058C109.621 68.0147 107.076 68.6784 104.241 69.4472C103.393 69.6775 102.548 69.9357 101.703 70.175C100.001 70.6564 98.1033 71.1288 96.2269 71.229C95.4069 71.2728 93.957 71.3187 93.2626 71.0083C92.2646 70.5621 92.8293 69.5718 93.1784 68.7789C93.8444 67.2661 94.4943 65.7496 95.1449 64.2357C95.6 63.1764 99.4743 54.4062 99.5385 53.9627C99.5743 53.7156 99.5097 53.4299 99.2422 53.4821C99.0534 53.5189 98.9714 53.7603 98.889 53.9569C98.5655 54.7283 98.2187 55.4624 97.8847 56.221C97.2292 57.7096 96.4841 59.2341 95.8573 60.7028C95.5353 61.4571 95.1685 62.1796 94.846 62.9337C94.226 64.3829 93.4321 65.9734 92.8047 67.4281C92.4797 68.1821 92.1096 68.9169 91.7843 69.6758C91.6239 70.0501 91.4507 70.4233 91.2802 70.7927C90.7541 71.9324 90.8996 72.4117 92.3146 72.4352C92.8611 72.4442 93.4145 72.4361 93.9617 72.4361C100.492 72.4361 107.021 72.4361 113.551 72.4361Z" fill="white"/>
</g>
<defs>
<filter id="filter0_d_754_145" x="11.0043" y="0" width="261.575" height="161.099" filterUnits="userSpaceOnUse" color-interpolation-filters="sRGB">
<feFlood flood-opacity="0" result="BackgroundImageFix"/>
<feColorMatrix in="SourceAlpha" type="matrix" values="0 0 0 0 0 0 0 0 0 0 0 0 0 0 0 0 0 0 127 0" result="hardAlpha"/>
<feOffset dy="1.51959"/>
<feGaussianBlur stdDeviation="0.759793"/>
<feComposite in2="hardAlpha" operator="out"/>
<feColorMatrix type="matrix" values="0 0 0 0 0 0 0 0 0 0 0 0 0 0 0 0 0 0 0.25 0"/>
<feBlend mode="normal" in2="BackgroundImageFix" result="effect1_dropShadow_754_145"/>
<feBlend mode="normal" in="SourceGraphic" in2="effect1_dropShadow_754_145" result="shape"/>
</filter>
<filter id="filter1_d_754_145" x="12.5239" y="125.336" width="268.456" height="42.6436" filterUnits="userSpaceOnUse" color-interpolation-filters="sRGB">
<feFlood flood-opacity="0" result="BackgroundImageFix"/>
<feColorMatrix in="SourceAlpha" type="matrix" values="0 0 0 0 0 0 0 0 0 0 0 0 0 0 0 0 0 0 127 0" result="hardAlpha"/>
<feOffset dx="4.96" dy="4.96"/>
<feGaussianBlur stdDeviation="2.48"/>
<feComposite in2="hardAlpha" operator="out"/>
<feColorMatrix type="matrix" values="0 0 0 0 0 0 0 0 0 0 0 0 0 0 0 0 0 0 0.25 0"/>
<feBlend mode="normal" in2="BackgroundImageFix" result="effect1_dropShadow_754_145"/>
<feBlend mode="normal" in="SourceGraphic" in2="effect1_dropShadow_754_145" result="shape"/>
</filter>
<filter id="filter2_d_754_145" x="79" y="0" width="123.637" height="117.319" filterUnits="userSpaceOnUse" color-interpolation-filters="sRGB">
<feFlood flood-opacity="0" result="BackgroundImageFix"/>
<feColorMatrix in="SourceAlpha" type="matrix" values="0 0 0 0 0 0 0 0 0 0 0 0 0 0 0 0 0 0 127 0" result="hardAlpha"/>
<feOffset dx="3.59873" dy="3.59873"/>
<feGaussianBlur stdDeviation="1.79936"/>
<feComposite in2="hardAlpha" operator="out"/>
<feColorMatrix type="matrix" values="0 0 0 0 0 0 0 0 0 0 0 0 0 0 0 0 0 0 0.3 0"/>
<feBlend mode="normal" in2="BackgroundImageFix" result="effect1_dropShadow_754_145"/>
<feBlend mode="normal" in="SourceGraphic" in2="effect1_dropShadow_754_145" result="shape"/>
</filter>
</defs>
</svg>
