<svg width="277" height="187" viewBox="0 0 277 187" fill="none" xmlns="http://www.w3.org/2000/svg">
<g filter="url(#filter0_d_749_144)">
<path d="M8.42548 147.808V127.787L5.55612 127.496V125.562H15.1636V127.496L12.4232 127.787V147.808L15.3571 148.324V150H5.52388V148.324L8.42548 147.808ZM27.7919 131.849C28.4582 131.849 29.1245 131.924 29.7908 132.075C30.4786 132.204 31.0266 132.375 31.435 132.59L33.4661 131.978L34.1432 132.332V155.964L36.2388 156.319V158.06H27.0504V156.319L30.1777 155.997V150.742L30.3066 148.485C29.7908 149.001 29.103 149.452 28.2433 149.839C27.3835 150.226 26.4163 150.419 25.3417 150.419C24.095 150.419 22.9237 150.14 21.8275 149.581C20.7528 149.022 19.8609 148.066 19.1516 146.712C18.4423 145.357 18.0877 143.573 18.0877 141.36C18.0877 139.576 18.5068 137.964 19.345 136.524C20.1833 135.062 21.3332 133.923 22.7947 133.106C24.2777 132.268 25.9435 131.849 27.7919 131.849ZM27.405 133.816C25.707 133.816 24.396 134.439 23.4717 135.685C22.569 136.932 22.1177 138.737 22.1177 141.102C22.1177 143.208 22.5153 144.863 23.3105 146.067C24.1058 147.27 25.2342 147.872 26.6957 147.872C27.4695 147.872 28.1465 147.765 28.7269 147.55C29.3287 147.313 29.8123 147.023 30.1777 146.679V134.912C29.6188 134.181 28.6946 133.816 27.405 133.816ZM40.7546 148.001V136.105L38.5301 134.783V133.429L43.3016 132.01L44.2043 132.3V134.976C44.5482 134.267 45.2468 133.601 46.2999 132.977C47.3746 132.332 48.3633 132.01 49.266 132.01C50.0828 132.01 50.6093 132.053 50.8458 132.139V136.008C50.072 135.621 49.1478 135.428 48.0731 135.428C46.7405 135.428 45.6336 135.718 44.7524 136.298V147.937L48.9114 148.356V150H38.4334V148.356L40.7546 148.001ZM61.8399 131.849C64.505 131.849 66.5362 132.666 67.9332 134.299C69.3303 135.911 70.0288 138.071 70.0288 140.779C70.0288 142.671 69.6527 144.347 68.9004 145.809C68.1482 147.249 67.1165 148.377 65.8054 149.194C64.4943 149.989 63.0112 150.387 61.3563 150.387C58.5836 150.387 56.488 149.538 55.0695 147.84C53.6509 146.12 52.9416 143.885 52.9416 141.134C52.9416 139.243 53.3392 137.598 54.1345 136.201C54.9298 134.804 55.9937 133.73 57.3263 132.977C58.6803 132.225 60.1849 131.849 61.8399 131.849ZM61.5175 133.783C58.6159 133.783 57.1651 136.083 57.1651 140.683C57.1651 142.789 57.5304 144.594 58.2612 146.099C58.992 147.603 60.0774 148.367 61.5175 148.388C63.0865 148.409 64.1934 147.786 64.8382 146.518C65.5045 145.25 65.8376 143.434 65.8376 141.07C65.8376 138.899 65.483 137.147 64.7737 135.814C64.0859 134.46 63.0005 133.783 61.5175 133.783ZM88.6036 135.75V138.587H74.289V135.75H88.6036ZM104.469 125.336C106.576 125.336 108.424 125.852 110.015 126.884C111.605 127.916 112.83 129.334 113.69 131.14C114.55 132.945 114.98 134.987 114.98 137.265C114.98 139.522 114.614 141.553 113.884 143.359C113.153 145.164 112.121 146.647 110.788 147.808C109.477 148.968 107.941 149.753 106.178 150.161C106.909 151.816 108.693 152.644 111.53 152.644C112.626 152.644 113.583 152.439 114.399 152.031L114.593 154.514C114.27 154.9 113.755 155.212 113.045 155.449C112.336 155.685 111.552 155.803 110.692 155.803C107.145 155.803 104.953 154.019 104.115 150.451H103.792C101.622 150.451 99.6979 149.946 98.0214 148.936C96.345 147.904 95.0446 146.497 94.1204 144.713C93.2177 142.907 92.7663 140.898 92.7663 138.684C92.7663 135.911 93.3144 133.482 94.4106 131.398C95.5282 129.313 97.0328 127.754 98.9242 126.723C100.622 125.799 102.471 125.336 104.469 125.336ZM103.954 127.335C101.718 127.335 100.02 128.302 98.8597 130.237C97.7205 132.15 97.151 134.783 97.151 138.136C97.151 139.898 97.4196 141.575 97.957 143.165C98.5158 144.734 99.311 146.013 100.343 147.002C101.374 147.969 102.6 148.452 104.018 148.452C106.21 148.452 107.844 147.507 108.919 145.615C109.993 143.702 110.531 141.037 110.531 137.62C110.531 135.836 110.273 134.159 109.757 132.59C109.262 131.021 108.521 129.753 107.532 128.786C106.544 127.819 105.351 127.335 103.954 127.335ZM117.578 134.557V133.074L122.35 132.01L122.995 132.3V143.165C122.995 144.842 123.199 146.045 123.607 146.776C124.037 147.485 124.843 147.84 126.025 147.84C126.713 147.84 127.422 147.689 128.153 147.389C128.905 147.088 129.453 146.776 129.797 146.454V135.428L127.831 134.718V133.106L133.086 132.01L133.666 132.268V148.356H135.536V149.774C135.214 149.968 134.687 150.14 133.956 150.29C133.225 150.441 132.591 150.516 132.054 150.516C131.474 150.516 131.012 150.387 130.668 150.129C130.345 149.893 130.184 149.527 130.184 149.033V147.969C129.432 148.7 128.551 149.28 127.54 149.71C126.53 150.14 125.563 150.355 124.639 150.355C123.091 150.355 121.92 150.075 121.125 149.516C120.351 148.936 119.835 148.141 119.577 147.131C119.319 146.12 119.18 144.788 119.158 143.133V135.266L117.578 134.557ZM140.623 148.001V136.105L138.399 134.783V133.429L143.17 132.01L144.073 132.3V134.976C144.417 134.267 145.115 133.601 146.168 132.977C147.243 132.332 148.232 132.01 149.134 132.01C149.951 132.01 150.478 132.053 150.714 132.139V136.008C149.94 135.621 149.016 135.428 147.942 135.428C146.609 135.428 145.502 135.718 144.621 136.298V147.937L148.78 148.356V150H138.302V148.356L140.623 148.001ZM160.612 132.01C162.697 132.01 164.309 132.472 165.448 133.396C166.587 134.321 167.157 135.868 167.157 138.039V148.356H169.156V149.645C168.769 149.882 168.264 150.064 167.64 150.193C167.017 150.344 166.405 150.419 165.803 150.419C165.029 150.419 164.47 150.269 164.126 149.968C163.782 149.645 163.6 149.13 163.578 148.42C162.396 149.753 160.73 150.419 158.581 150.419C157.485 150.419 156.507 150.215 155.647 149.807C154.787 149.377 154.121 148.786 153.648 148.033C153.175 147.281 152.939 146.432 152.939 145.486C152.939 144.068 153.466 142.896 154.519 141.972C155.572 141.048 156.883 140.382 158.452 139.973C160.021 139.543 161.601 139.329 163.191 139.329V138.361C163.191 136.9 162.858 135.879 162.192 135.299C161.526 134.718 160.537 134.428 159.226 134.428C158.517 134.428 157.711 134.546 156.808 134.783C155.905 135.019 155.121 135.32 154.454 135.685L153.713 133.912C154.444 133.31 155.486 132.848 156.84 132.526C158.216 132.182 159.473 132.01 160.612 132.01ZM163.191 141.263C161.579 141.263 160.129 141.553 158.839 142.133C157.571 142.714 156.937 143.638 156.937 144.906C156.937 146.991 158.044 148.033 160.257 148.033C160.773 148.033 161.3 147.926 161.837 147.711C162.396 147.496 162.837 147.238 163.159 146.937L163.191 141.263ZM173.838 148.033V136.105L171.646 134.783V133.429L176.45 132.01L177.32 132.3V134.589C178.137 133.859 179.169 133.246 180.415 132.752C181.683 132.257 182.866 132.01 183.962 132.01C185.81 132.01 187.1 132.59 187.831 133.751C188.583 134.912 188.959 136.76 188.959 139.296V148.033L191.345 148.356V150H182.64V148.356L184.993 148.001V139.909C184.993 138.641 184.907 137.652 184.735 136.943C184.564 136.212 184.241 135.675 183.768 135.331C183.295 134.987 182.608 134.815 181.705 134.815C181.146 134.815 180.501 134.922 179.771 135.137C179.061 135.352 178.416 135.675 177.836 136.105V148.001L180.028 148.356V150H171.775V148.356L173.838 148.033ZM201.629 147.808L209.657 125.562H213.268L220.973 147.808L223.455 148.356V150H214.235V148.356L216.653 147.808L215.363 143.713H206.272L204.917 147.775L207.432 148.324V150H199.437V148.324L201.629 147.808ZM212.268 134.009L210.882 129.399L206.981 141.456H214.622L212.268 134.009ZM236.064 131.849C238.17 131.849 239.857 132.59 241.125 134.073C242.415 135.556 243.06 137.738 243.06 140.618C243.06 142.402 242.651 144.046 241.835 145.551C241.039 147.034 239.932 148.205 238.514 149.065C237.117 149.925 235.537 150.355 233.775 150.355C232.958 150.355 232.055 150.236 231.066 150L231.195 153.611V156.029L234.355 156.384V158.06H225.134V156.384L227.262 155.997V136.105L225.07 134.783V133.429L229.841 132.01L230.679 132.3V134.235C231.131 133.611 231.862 133.063 232.872 132.59C233.903 132.096 234.967 131.849 236.064 131.849ZM234.419 134.202C233.732 134.202 233.108 134.353 232.549 134.654C231.991 134.955 231.528 135.288 231.163 135.653L231.195 147.034C231.41 147.421 231.797 147.732 232.356 147.969C232.936 148.184 233.603 148.291 234.355 148.291C235.236 148.291 236.042 148.012 236.773 147.453C237.504 146.873 238.073 146.034 238.482 144.938C238.911 143.842 239.126 142.531 239.126 141.005C239.126 138.813 238.686 137.136 237.805 135.976C236.923 134.793 235.795 134.202 234.419 134.202ZM257.064 131.849C259.17 131.849 260.857 132.59 262.125 134.073C263.415 135.556 264.06 137.738 264.06 140.618C264.06 142.402 263.651 144.046 262.835 145.551C262.039 147.034 260.932 148.205 259.514 149.065C258.117 149.925 256.537 150.355 254.775 150.355C253.958 150.355 253.055 150.236 252.066 150L252.195 153.611V156.029L255.355 156.384V158.06H246.134V156.384L248.262 155.997V136.105L246.07 134.783V133.429L250.841 132.01L251.68 132.3V134.235C252.131 133.611 252.862 133.063 253.872 132.59C254.904 132.096 255.967 131.849 257.064 131.849ZM255.419 134.202C254.732 134.202 254.108 134.353 253.549 134.654C252.991 134.955 252.529 135.288 252.163 135.653L252.195 147.034C252.41 147.421 252.797 147.732 253.356 147.969C253.936 148.184 254.603 148.291 255.355 148.291C256.236 148.291 257.042 148.012 257.773 147.453C258.504 146.873 259.073 146.034 259.482 144.938C259.912 143.842 260.126 142.531 260.126 141.005C260.126 138.813 259.686 137.136 258.805 135.976C257.923 134.793 256.795 134.202 255.419 134.202Z" fill="white"/>
</g>
<g filter="url(#filter1_d_749_144)">
<rect x="72" width="116.44" height="110.121" rx="10.7962" fill="#2CA4AB"/>
</g>
<path fill-rule="evenodd" clip-rule="evenodd" d="M158.633 68.0712C157.047 70.8954 143.789 73.6414 139.694 75.127C130.144 78.592 125.597 83.1078 118.713 89.8222C118.06 90.4585 117.776 90.915 117.032 91.4867C111.688 95.5927 102.73 95.1277 106.474 82.1155C107.963 76.938 109.203 76.4926 110.94 73.6306C107.906 75.9743 103.725 83.9132 104.634 89.9663C105.561 96.1449 111.856 100.671 117.883 96.2858C122.336 93.0456 123.348 90.9466 126.776 88.0311C127.868 87.1018 128.804 86.2011 129.955 85.3035C134.467 81.7869 139.893 80.2335 146.085 78.3826C154.198 75.9572 157.956 75.9242 159.708 68.9507C160.569 65.5245 160.629 62.5007 159.443 59.1888C157.471 53.6828 152.109 46.7043 146.924 51.6261C145.915 52.5839 145.223 53.3697 144.583 55.0102C142.502 60.3422 143.342 64.7459 150.558 64.6194C152.159 64.5913 154.402 64.4446 155.776 65.0246C156.902 65.5003 158.223 66.8817 158.633 68.0712ZM146.172 58.022C147.797 58.9928 151.521 58.9383 153.668 58.7441C153.262 57.9109 151.287 56.2136 150.301 55.8947C148.355 55.2658 146.454 56.6871 146.172 58.022Z" fill="white"/>
<path fill-rule="evenodd" clip-rule="evenodd" d="M160.251 87.9204C170.97 77.9842 167.099 56.8756 165.777 43.2035C165.139 36.6137 164.312 32.5925 166.527 26.6966C167.118 25.1212 167.911 23.8015 168.474 22.3759C167.203 23.1226 165.062 25.8551 164.046 27.5819C159.619 35.1108 161.713 44.43 162.519 53.3062C163.275 61.6285 164.715 72.7652 162.817 80.7323C161.8 85.0027 160.748 86.1719 160.251 87.9204Z" fill="white"/>
<path fill-rule="evenodd" clip-rule="evenodd" d="M134.031 74.5552C134.988 73.8882 136.432 71.9331 137.218 70.6907C138.128 69.2495 138.888 67.609 139.503 65.885C144.361 52.2536 137.799 26.6196 139.053 18.1017C139.304 16.3903 139.759 14.8631 140.336 13.3145C140.918 11.7508 141.775 10.3857 142.277 9.00011C138.783 11.4838 136.017 16.8067 135.352 21.5445C134.631 26.6758 135.838 34.6361 136.306 39.9183C137.03 48.0976 138.543 59.5397 136.623 67.3393C135.885 70.3343 134.964 72.0706 134.031 74.5552Z" fill="white"/>
<path fill-rule="evenodd" clip-rule="evenodd" d="M127.882 15.7332C126.91 16.4745 125.685 17.8811 125.527 19.6814C130.237 14.4331 133.738 15.6684 134.544 14.1085C134.722 13.7646 135.008 12.9762 135.12 12.5812C133.74 12.8155 132.381 13.8801 131.176 14.1029C129.687 14.378 127.692 13.3514 127.016 12.5642C127.162 12.4208 127.063 12.4632 127.371 12.2735L129.244 11.8017C130.333 11.8618 130.393 12.6264 130.803 13.3901C132.243 9.32626 130.471 8.52221 127.513 10.8203C122.679 14.5763 126.932 15.042 127.882 15.7332Z" fill="white"/>
<path fill-rule="evenodd" clip-rule="evenodd" d="M151.417 40.8088C152.096 41.4311 152.884 42.0162 153.583 42.5853C154.398 43.2496 155.075 43.9416 155.878 44.3906C157.047 43.4447 157.897 41.5859 159.034 40.5539L158.045 39.505C157.268 38.8622 155.372 37.1856 154.597 36.878C153.819 38.0186 151.924 39.7776 151.417 40.8088Z" fill="white"/>
<path fill-rule="evenodd" clip-rule="evenodd" d="M143.441 40.6826C143.815 41.209 147.321 44.1466 148.037 44.4395C148.707 43.2405 150.633 41.3948 151.032 40.1912C150.327 39.8143 149.538 39.1106 148.914 38.5712C148.343 38.0771 147.417 37.2438 146.814 36.9074L143.441 40.6826Z" fill="white"/>
<path d="M130.434 92.4649C130.399 92.4501 130.373 92.4389 130.353 92.4314C130.047 92.3029 129.784 92.2395 129.567 92.2395C128.985 92.2395 128.565 92.4911 128.309 92.9921C128.052 93.4951 127.925 94.3148 127.925 95.4529C127.925 96.7588 128.317 97.6288 129.1 98.0608H129.042C128.631 97.9454 128.319 97.6548 128.104 97.191C127.889 96.7252 127.782 96.1105 127.782 95.3467C127.782 94.2066 127.915 93.3852 128.183 92.8823C128.45 92.3793 128.889 92.1278 129.498 92.1278C129.866 92.1278 130.178 92.2265 130.434 92.4259V92.4649ZM131.174 98.0608C131.524 98.398 131.944 98.5657 132.433 98.5657C132.697 98.5657 132.991 98.4967 133.317 98.357L133.359 98.3775C133.176 98.6141 133.027 98.8302 132.91 99.022L132.478 99.7485L132.456 99.7914C131.814 99.6871 131.257 99.3649 130.784 98.8265C130.385 99.0034 129.981 99.0909 129.577 99.0909C128.929 99.0909 128.412 98.9308 128.028 98.6123L128.052 98.5749C128.571 98.8153 129.054 98.9345 129.496 98.9345C129.927 98.9345 130.321 98.8618 130.679 98.7166C130.663 98.6941 130.651 98.6793 130.643 98.6681C130.589 98.5844 130.538 98.5209 130.486 98.4763C130.124 98.6029 129.752 98.6663 129.367 98.6663C128.442 98.6663 127.674 98.3178 127.064 97.6212C126.454 96.9246 126.147 96.0509 126.147 95.0003C126.147 93.9216 126.446 93.0481 127.042 92.3792C127.639 91.7123 128.422 91.379 129.394 91.379C130.339 91.379 131.098 91.7086 131.677 92.3662C132.254 93.0238 132.542 93.8919 132.542 94.9686C132.542 95.6224 132.443 96.1831 132.242 96.6452C132.043 97.109 131.703 97.5653 131.226 98.0124L131.174 98.0608ZM130.872 97.243C131.134 96.7122 131.265 95.9391 131.265 94.9239C131.265 92.8506 130.611 91.8149 129.303 91.8149C128.027 91.8149 127.388 92.9046 127.388 95.0823C127.388 96.0602 127.565 96.8277 127.919 97.3847C128.271 97.9416 128.756 98.2192 129.374 98.2192C129.635 98.2192 129.888 98.167 130.132 98.0608C129.901 97.6604 129.597 97.4591 129.217 97.4591C129.19 97.4591 129.144 97.4629 129.076 97.4722L129.484 97.0028C129.768 97.0791 130.112 97.2692 130.516 97.5709L130.585 97.6249C130.633 97.5709 130.687 97.502 130.748 97.4182L130.778 97.3791C130.518 97.1425 130.178 96.9562 129.758 96.8166L129.84 96.6918C130.178 96.811 130.496 96.9766 130.796 97.189L130.872 97.243ZM131.337 91.7646C131.876 91.975 132.303 92.3737 132.623 92.9586C132.944 93.5416 133.103 94.2216 133.103 94.9984C133.103 96.1589 132.741 97.1574 132.019 97.9901C132.24 98.1689 132.584 98.2769 133.049 98.3124V98.3458C132.902 98.3663 132.792 98.3757 132.717 98.3757C132.373 98.3757 132.059 98.2564 131.78 98.018C132.558 97.2785 132.948 96.267 132.948 94.9817C132.948 93.5789 132.411 92.5171 131.337 91.7962V91.7646ZM133.795 98.629C133.48 99.0146 133.184 99.4523 132.904 99.9386L132.87 100L132.729 99.933C132.862 99.6871 133.011 99.4486 133.178 99.2195L133.632 98.5974L133.661 98.5527L133.795 98.629ZM140.44 91.5019L139.398 92.2843V95.8125C139.398 96.4607 139.376 96.9283 139.33 97.2113C139.287 97.4965 139.197 97.7293 139.066 97.9118C138.732 98.3775 138.084 98.6104 137.121 98.6104C136.103 98.6104 135.393 98.3775 134.99 97.9118C134.668 97.543 134.506 96.8388 134.506 95.7956V92.1688L133.715 91.5019H136.467L135.676 92.2284V95.8012L135.688 96.6432C135.688 97.1873 135.807 97.5709 136.047 97.8C136.288 98.0273 136.694 98.1409 137.264 98.1409C137.891 98.1409 138.324 97.9677 138.561 97.6212C138.75 97.3418 138.845 96.7401 138.845 95.8181L138.869 92.2843L137.962 91.5019H140.44ZM140.643 91.8744L139.851 92.4911V95.8832C139.851 96.9935 139.758 97.7161 139.573 98.0553C139.193 98.7389 138.449 99.0799 137.346 99.0799C136.391 99.0799 135.674 98.8563 135.192 98.411L135.24 98.4335L135.443 98.5415C135.922 98.8042 136.535 98.9345 137.284 98.9345C138.356 98.9345 139.068 98.6178 139.416 97.9845C139.603 97.6435 139.696 96.9562 139.696 95.9223V92.4259L140.555 91.7589L140.643 91.8744ZM136.712 91.7962L136.141 92.3383V96.3973V96.7736L136.316 97.4666C136.405 97.6045 136.574 97.7721 136.823 97.9695L136.835 98.018C136.509 97.895 136.284 97.7144 136.161 97.4777C136.035 97.2412 135.974 96.8762 135.974 96.3806V92.2843L136.63 91.6826L136.712 91.7962ZM141.273 92.1577C142.195 91.6602 143.186 91.4126 144.247 91.4126C145.071 91.4126 145.751 91.5801 146.285 91.9154C146.82 92.2489 147.087 92.6754 147.087 93.1934C147.087 93.6143 146.912 93.9888 146.562 94.3148C146.212 94.6408 145.735 94.8755 145.128 95.0226C145.395 95.7137 145.759 96.3862 146.22 97.0419C146.679 97.6958 147.141 98.1986 147.604 98.5489L147.516 98.5749C146.938 98.7612 146.369 99.022 145.814 99.361L145.727 99.4151L145.699 99.24C145.45 97.8317 145.102 96.6395 144.655 95.6597L144.631 95.6057C144.365 95.7212 144.005 95.8144 143.553 95.8832L143.508 95.8888V97.9305L144.534 98.9568H141.517L141.424 98.8115H144.202L143.353 97.9695V95.7696L143.476 95.7529C143.919 95.7099 144.291 95.628 144.591 95.5069C144.568 95.4641 144.554 95.4362 144.55 95.425L144.492 95.2667C144.488 95.2554 144.478 95.2349 144.462 95.2014C144.222 95.2667 143.766 95.3374 143.094 95.4137L143.031 95.425V97.8596L143.701 98.5098H141.122L141.885 97.8596V96.0266L141.837 96.0323C141.611 96.0789 141.406 96.131 141.221 96.1907L141.173 96.2055L141.122 96.0974C141.295 96.0359 141.43 95.9932 141.527 95.9708L141.837 95.9L141.885 95.8888V95.6057C141.655 95.6057 141.368 95.6521 141.024 95.7472L140.959 95.7696C140.967 95.7193 141.004 95.6001 141.076 95.4137C141.084 95.4007 141.11 95.3187 141.158 95.1698C141.162 95.1586 141.167 95.1418 141.173 95.1195C141.348 95.1288 141.486 95.1345 141.583 95.1345C141.686 95.1345 141.784 95.1288 141.873 95.1195V92.4314C141.694 92.329 141.509 92.2433 141.321 92.1743L141.273 92.1577ZM143.031 92.016V94.9611C143.144 94.9611 143.251 94.9518 143.353 94.9351V92.2451C143.567 92.1892 143.824 92.1613 144.122 92.1613C144.882 92.1613 145.397 92.396 145.669 92.8637C145.381 92.6419 145.128 92.4911 144.912 92.4091C144.695 92.3253 144.434 92.2843 144.132 92.2843C143.894 92.2843 143.687 92.3086 143.508 92.3552V94.9351L143.571 94.9239C144.337 94.7934 144.906 94.5868 145.277 94.3054C145.649 94.0241 145.834 93.659 145.834 93.2083C145.834 92.8058 145.667 92.4725 145.331 92.2098C144.997 91.9471 144.576 91.8149 144.064 91.8149C143.655 91.8149 143.311 91.8819 143.031 92.016ZM145.85 95.2945C146.095 96.0435 146.526 96.7774 147.149 97.4946C147.536 97.9416 148.027 98.344 148.622 98.6997C147.733 98.9215 146.898 99.2605 146.117 99.7151L146.065 99.7485L145.947 99.661C146.689 99.2065 147.481 98.8712 148.32 98.657C147.2 97.9584 146.321 96.8407 145.681 95.3057L145.645 95.2127C146.828 94.7898 147.421 94.1453 147.421 93.279C147.421 92.9213 147.27 92.532 146.967 92.1092C147.357 92.4445 147.552 92.8693 147.552 93.3871C147.552 94.2253 146.985 94.8605 145.85 95.2945ZM153.976 91.5019L153.37 92.1465L154.326 94.5308L154.559 94.4097L153.696 92.2564L154.314 91.5895L154.466 91.649L153.877 92.2899L154.692 94.3278C154.74 94.2961 154.768 94.2757 154.774 94.2682L154.967 94.1154C155.084 94.0278 155.158 93.9664 155.187 93.9291C155.289 94.3445 155.444 94.7152 155.655 95.043C155.541 95.0375 155.46 95.0337 155.41 95.0337C155.04 95.0337 154.77 95.0878 154.601 95.1958L155.655 97.8764L156.528 98.5098H153.587L154.39 97.8764L153.744 96.2819C153.316 96.6861 152.988 97.0698 152.76 97.435L152.624 97.4014C152.855 97.0455 153.195 96.647 153.65 96.2055L153.696 96.1514L153.587 95.9111C153.123 96.2725 152.742 96.6898 152.439 97.1667L152.334 97.0084C152.131 96.7065 151.873 96.3619 151.559 95.9763L151.501 95.9111C151.193 96.5334 151.04 97.0401 151.04 97.4294C151.04 97.6585 151.081 97.8522 151.167 98.0106C151.25 98.1689 151.455 98.4335 151.779 98.8041C151.805 98.8376 151.849 98.888 151.909 98.9568H148.763L148.646 98.8115H151.612L151.511 98.696C151.254 98.4054 151.085 98.1782 151.004 98.0161C150.924 97.8542 150.885 97.6641 150.885 97.4461C150.885 97.0754 151.048 96.5221 151.372 95.7864L151.117 95.5348C151.065 95.6504 151.002 95.8218 150.924 96.0472L150.732 96.6042C150.626 96.9022 150.574 97.1498 150.574 97.3474C150.574 97.5505 150.612 97.72 150.686 97.8542C150.759 97.9901 150.914 98.1726 151.151 98.4054C151.175 98.4279 151.209 98.4632 151.256 98.5098H148.344C148.898 98.2396 149.34 97.8783 149.664 97.4237C149.988 96.9692 150.308 96.267 150.626 95.317L150.65 95.2405C150.445 95.0766 150.147 94.976 149.759 94.9388C149.972 94.6408 150.137 94.3297 150.254 94.0055C150.308 94.0539 150.342 94.0818 150.354 94.0931L150.616 94.3221C150.704 94.4023 150.811 94.4842 150.936 94.5681L151.04 94.3278L150.97 94.2738C150.777 94.1135 150.614 93.9851 150.481 93.8863L150.429 93.8472L150.523 93.728C150.727 93.8546 150.926 94.0018 151.117 94.1695L151.909 92.1259L151.29 91.5019H153.976ZM152.537 93.2567L151.897 94.8419C151.932 94.8772 151.95 94.8996 151.954 94.9071L152.195 95.1586C152.322 95.289 152.485 95.4921 152.684 95.7696L152.742 95.8515C152.909 95.6541 153.108 95.4603 153.336 95.2667L152.537 93.2567ZM152.276 92.6233L151.35 94.9182C151.644 95.2014 151.899 95.4828 152.113 95.7584L152.38 96.1086C152.384 96.1124 152.404 96.1347 152.439 96.1794C152.473 96.1459 152.493 96.1254 152.497 96.1179L152.579 96.0266C152.591 96.0118 152.612 95.9876 152.642 95.9558C152.37 95.5628 152.054 95.2071 151.694 94.8904L152.439 93.0443L152.276 92.6233ZM155.7 94.1918C155.786 94.5196 156.001 94.9686 156.341 95.5405C156.257 95.5293 156.207 95.5238 156.196 95.5238L155.724 95.4865C155.511 95.4678 155.354 95.4585 155.259 95.4585C155.243 95.4585 155.203 95.4603 155.142 95.4641L156.114 97.8839L157.414 98.9568H154.04L153.931 98.8115H157.023L155.975 97.9435L154.937 95.371C155.07 95.3393 155.221 95.3244 155.392 95.3244C155.601 95.3244 155.836 95.3393 156.092 95.371L156.02 95.2517C155.772 94.8214 155.605 94.4339 155.519 94.0874L155.7 94.1918ZM164.258 91.5019C163.817 91.7162 163.531 91.9137 163.401 92.0925C163.208 92.3699 163.111 92.7872 163.111 93.3442V93.7V98.5098H162.127L159.377 93.5081V96.4738V96.7196L159.44 97.5057C159.518 97.8689 159.695 98.139 159.971 98.3142L160.017 98.3514C159.486 98.1838 159.222 97.6474 159.222 96.7401V96.2278V93.2399L158.912 92.6662V95.8125C158.912 96.811 158.981 97.4629 159.12 97.7721C159.26 98.0833 159.586 98.3087 160.099 98.4502L160.606 98.9568H157.45L157.357 98.8115H160.274L159.971 98.5098H157.257C157.732 98.3496 158.047 98.1353 158.202 97.8652C158.357 97.597 158.434 97.1333 158.434 96.4794V92.1092L157.659 91.5019H160.606L159.778 92.0216L162.598 97.1779V96.5221L160.18 92.1092L160.995 91.5895L161.107 91.6937L160.385 92.1521L162.598 96.2278V93.6776V93.3889C162.598 92.7536 162.542 92.3309 162.433 92.1166C162.322 91.9042 162.049 91.6993 161.614 91.5019H164.258ZM164.463 91.9061L164.358 92.07C164.058 92.1352 163.855 92.2581 163.749 92.4332C163.642 92.6103 163.588 92.9083 163.588 93.3275V98.9568H162.337L162.262 98.8115H163.433V93.3834C163.433 92.8693 163.505 92.5115 163.646 92.3086C163.787 92.1055 164.059 91.9713 164.463 91.9061Z" fill="white"/>
<path fill-rule="evenodd" clip-rule="evenodd" d="M94.1421 51.316L93.6788 52.5564C93.5186 52.9734 93.3614 53.3859 93.2058 53.8072C92.8976 54.6422 92.5818 55.4685 92.2678 56.2916L88.5062 66.219C88.3081 66.7481 87.6762 68.307 87.5742 68.7098C87.2302 70.0684 88.5566 70.0292 89.5842 69.9407C91.4246 69.7821 93.4218 69.1212 95.0513 68.5698C96.7654 67.9898 98.3999 67.368 100.15 66.8234C101.173 66.505 101.986 66.3546 103.106 66.5914C104.356 66.856 105.575 67.5622 106.506 68.3133C106.653 68.4316 106.83 68.567 106.966 68.702L108.265 70.0018L109.039 70.9546L109.623 70.276C109.938 69.8825 111.126 68.7561 111.594 68.4132C111.967 68.1403 112.177 67.9564 112.598 67.6931C114.259 66.655 115.662 66.1861 117.971 66.7542C121.407 67.5996 124.749 69.6888 128.388 70.0048C129.561 70.1066 130.586 70.1262 130.356 68.7018C130.25 68.0407 129.745 66.8182 129.49 66.1461C128.864 64.4997 128.249 62.8463 127.614 61.2031L124.791 53.7848C124.662 53.4474 123.935 51.4385 123.834 51.3167C123.018 51.4607 122.466 51.5199 121.597 51.4655C120.908 51.4222 120.189 51.2915 119.543 51.1352C118.303 50.8349 117.059 50.4057 115.924 49.9672C115.373 49.7547 114.733 49.507 114.155 49.3426C113.396 49.1266 112.932 48.9844 112.105 49.2147C111.206 49.4648 110.468 49.9301 109.736 50.4216L109.039 50.9417L108.322 50.4672C107.611 50.0135 106.77 49.5005 105.958 49.2293C104.729 48.8188 103.143 49.5623 102.114 49.9528C100.237 50.6659 98.4975 51.318 96.4126 51.4298C96.0152 51.4511 95.6204 51.4601 95.2227 51.4399C94.836 51.4202 94.4982 51.3458 94.1421 51.316ZM94.9261 52.8483C94.8806 53.0625 92.0068 60.7306 91.9026 61.0209C91.4105 62.3913 90.8983 63.7517 90.4026 65.1301C90.1893 65.7233 89.8119 66.6296 89.7197 67.2514C89.6514 67.7122 89.7424 68.058 90.0912 68.2089C91.0186 68.6101 92.5811 67.8839 93.4201 67.556C95.5426 66.7263 97.2675 65.9173 99.5827 65.3043C102.379 64.564 105.046 64.7943 107.323 66.5701C107.728 66.8856 107.756 66.9642 108.049 67.2359C108.081 66.6166 108.052 65.9198 108.052 65.2918V53.4556C108.052 52.5294 108.118 52.4988 107.647 51.8882C107.525 51.7297 107.292 51.5459 107.125 51.4322C106.448 50.9701 105.583 50.8275 104.738 50.9001C103.641 50.9944 102.618 51.4673 101.707 51.8365C99.3289 52.8001 97.7643 53.03 94.9261 52.8483ZM110.086 67.229C110.178 67.175 110.178 67.1459 110.264 67.0568C110.328 66.9895 110.381 66.9451 110.451 66.8839C111.366 66.0814 112.389 65.4747 113.628 65.173C115.448 64.7301 116.809 64.8582 118.569 65.3061C120.002 65.6707 121.406 66.2179 122.715 66.7454C123.745 67.1607 125.806 68.0573 126.8 68.2686C127.161 68.3454 127.687 68.3541 128.022 68.2183C128.382 68.072 128.493 67.7537 128.421 67.2709C128.323 66.6147 127.956 65.7597 127.74 65.1427C127.259 63.7689 126.738 62.3989 126.24 61.0325C125.741 59.6615 125.245 58.297 124.723 56.9405C124.598 56.6144 123.301 53.0312 123.191 52.8543C122.903 52.8511 122.557 52.895 122.258 52.9055C120.063 52.9828 118.485 52.6837 116.443 51.8411C115.009 51.249 113.321 50.51 111.71 51.084C111.202 51.2652 110.765 51.5639 110.513 51.8678C110.041 52.4358 110.085 52.5117 110.085 53.4041V59.3222C110.085 61.9539 110.059 64.5989 110.086 67.229Z" fill="white"/>
<path fill-rule="evenodd" clip-rule="evenodd" d="M106.551 72.4361V73.6769L111.555 73.6885V72.3297H132.711C133.187 72.3298 133.787 72.3664 134.002 72.0114C134.215 71.6615 133.916 71.0407 133.786 70.7517C133.615 70.3712 133.445 70.0012 133.266 69.6264C132.559 68.155 131.939 66.6311 131.231 65.1506C130.881 64.4176 130.569 63.6668 130.22 62.92C129.874 62.1781 129.532 61.42 129.204 60.6673C128.549 59.1615 127.851 57.6751 127.182 56.1792C126.848 55.4329 126.529 54.6864 126.183 53.9376C125.879 53.2807 125.35 53.4846 125.494 54.0347C125.536 54.1965 125.667 54.4573 125.735 54.6167C125.816 54.8088 125.899 54.9993 125.984 55.1901C126.656 56.6992 127.304 58.2084 127.96 59.7242C129.27 62.7516 130.606 65.7687 131.901 68.803C132.279 69.6888 132.783 70.5433 131.77 71.015C129.957 71.8593 125.204 70.6034 123.426 70.1246C122.573 69.8952 121.715 69.6702 120.86 69.4502C117.916 68.6922 115.63 68.0162 112.714 69.3519C111.889 69.7299 111.326 70.0883 110.68 70.5602C110.437 70.7375 109.811 71.2807 109.601 71.514L109.034 72.176C108.775 71.9146 108.486 71.6524 108.212 71.3922C107.934 71.127 107.682 70.8496 107.377 70.607C106.731 70.0922 106.211 69.6765 105.41 69.3058C102.621 68.0147 100.076 68.6784 97.2414 69.4472C96.3925 69.6775 95.5479 69.9357 94.7026 70.175C93.0011 70.6564 91.1033 71.1288 89.2269 71.229C88.4069 71.2728 86.957 71.3187 86.2626 71.0083C85.2646 70.5621 85.8293 69.5718 86.1784 68.7789C86.8444 67.2661 87.4943 65.7496 88.1449 64.2357C88.6 63.1764 92.4743 54.4062 92.5385 53.9627C92.5743 53.7156 92.5097 53.4299 92.2422 53.4821C92.0534 53.5189 91.9714 53.7603 91.889 53.9569C91.5655 54.7283 91.2187 55.4624 90.8847 56.221C90.2292 57.7096 89.4841 59.2341 88.8573 60.7028C88.5353 61.4571 88.1685 62.1796 87.846 62.9337C87.226 64.3829 86.4321 65.9734 85.8047 67.4281C85.4797 68.1821 85.1096 68.9169 84.7843 69.6758C84.6239 70.0501 84.4507 70.4233 84.2802 70.7927C83.7541 71.9324 83.8996 72.4117 85.3146 72.4352C85.8611 72.4442 86.4145 72.4361 86.9617 72.4361C93.4916 72.4361 100.021 72.4361 106.551 72.4361Z" fill="white"/>
<defs>
<filter id="filter0_d_749_144" x="5.52388" y="125.336" width="268.456" height="42.6436" filterUnits="userSpaceOnUse" color-interpolation-filters="sRGB">
<feFlood flood-opacity="0" result="BackgroundImageFix"/>
<feColorMatrix in="SourceAlpha" type="matrix" values="0 0 0 0 0 0 0 0 0 0 0 0 0 0 0 0 0 0 127 0" result="hardAlpha"/>
<feOffset dx="4.96" dy="4.96"/>
<feGaussianBlur stdDeviation="2.48"/>
<feComposite in2="hardAlpha" operator="out"/>
<feColorMatrix type="matrix" values="0 0 0 0 0 0 0 0 0 0 0 0 0 0 0 0 0 0 0.25 0"/>
<feBlend mode="normal" in2="BackgroundImageFix" result="effect1_dropShadow_749_144"/>
<feBlend mode="normal" in="SourceGraphic" in2="effect1_dropShadow_749_144" result="shape"/>
</filter>
<filter id="filter1_d_749_144" x="72" y="0" width="123.637" height="117.319" filterUnits="userSpaceOnUse" color-interpolation-filters="sRGB">
<feFlood flood-opacity="0" result="BackgroundImageFix"/>
<feColorMatrix in="SourceAlpha" type="matrix" values="0 0 0 0 0 0 0 0 0 0 0 0 0 0 0 0 0 0 127 0" result="hardAlpha"/>
<feOffset dx="3.59873" dy="3.59873"/>
<feGaussianBlur stdDeviation="1.79936"/>
<feComposite in2="hardAlpha" operator="out"/>
<feColorMatrix type="matrix" values="0 0 0 0 0 0 0 0 0 0 0 0 0 0 0 0 0 0 0.3 0"/>
<feBlend mode="normal" in2="BackgroundImageFix" result="effect1_dropShadow_749_144"/>
<feBlend mode="normal" in="SourceGraphic" in2="effect1_dropShadow_749_144" result="shape"/>
</filter>
</defs>
</svg>
