<svg width="26" height="19" viewBox="0 0 26 19" fill="none" xmlns="http://www.w3.org/2000/svg">
<g opacity="0.6">
<path d="M6.35068 18.9999V9.21448L3.38736 6.43814L0.730072 4.89746V17.273C0.730072 18.2285 1.486 18.9999 2.41629 18.9999H6.35068Z" fill="#4285F4"/>
<path d="M19.84 19.0001H23.7744C24.7075 19.0001 25.4606 18.2258 25.4606 17.2732V4.89771L22.4508 6.66237L19.84 9.21463V19.0001Z" fill="#34A853"/>
<path d="M6.35067 9.21456L5.94745 5.39111L6.35067 1.73169L13.0954 6.9122L19.8401 1.73169L20.2911 5.19354L19.8401 9.21456L13.0954 14.3951L6.35067 9.21456Z" fill="#EA4335"/>
<path d="M19.8401 1.73169V9.21455L25.4607 4.89753V2.59507C25.4607 0.459611 23.0803 -0.757756 21.4139 0.522927L19.8401 1.73169Z" fill="#FBBC04"/>
<path d="M0.730072 4.89757L3.3151 6.88315L6.35068 9.2146V1.73173L4.77681 0.522973C3.10749 -0.757809 0.730072 0.459656 0.730072 2.59502V4.89748V4.89757Z" fill="#C5221F"/>
</g>
</svg>
