<svg width="25" height="24" viewBox="0 0 25 24" fill="none" xmlns="http://www.w3.org/2000/svg">
<g opacity="0.6">
<path d="M19.2033 0H6.06512C2.86395 0 0.26889 2.5184 0.26889 5.625V18.375C0.26889 21.4816 2.86395 24 6.06512 24H19.2033C22.4044 24 24.9995 21.4816 24.9995 18.375V5.625C24.9995 2.5184 22.4044 0 19.2033 0Z" fill="url(#paint0_radial_1_365)"/>
<path d="M19.2033 0H6.06512C2.86395 0 0.26889 2.5184 0.26889 5.625V18.375C0.26889 21.4816 2.86395 24 6.06512 24H19.2033C22.4044 24 24.9995 21.4816 24.9995 18.375V5.625C24.9995 2.5184 22.4044 0 19.2033 0Z" fill="url(#paint1_radial_1_365)"/>
<path d="M12.635 2.625C10.0115 2.625 9.68215 2.63616 8.65177 2.68163C7.62333 2.72738 6.92131 2.88534 6.3071 3.11719C5.67164 3.35662 5.13269 3.67697 4.59576 4.19822C4.05836 4.71937 3.72826 5.24241 3.48076 5.85881C3.24119 6.45506 3.07821 7.13662 3.03194 8.13422C2.98586 9.13425 2.97379 9.45394 2.97379 12.0001C2.97379 14.5463 2.98538 14.8648 3.03213 15.8647C3.07947 16.8628 3.24225 17.5441 3.48096 18.1402C3.72788 18.7568 4.05797 19.2799 4.59509 19.8009C5.13192 20.3225 5.67087 20.6436 6.30585 20.883C6.92054 21.1148 7.62265 21.2728 8.65091 21.3186C9.68138 21.364 10.0104 21.3752 12.6339 21.3752C15.2577 21.3752 15.586 21.364 16.6164 21.3186C17.6448 21.2728 18.3476 21.1148 18.9623 20.883C19.5975 20.6436 20.1357 20.3225 20.6724 19.8009C21.2098 19.2799 21.5398 18.7568 21.7874 18.1404C22.0248 17.5441 22.1879 16.8626 22.2362 15.8649C22.2825 14.865 22.2946 14.5463 22.2946 12.0001C22.2946 9.45394 22.2825 9.13444 22.2362 8.13441C22.1879 7.13634 22.0248 6.45516 21.7874 5.85909C21.5398 5.24241 21.2098 4.71937 20.6724 4.19822C20.1351 3.67678 19.5977 3.35644 18.9617 3.11728C18.3459 2.88534 17.6435 2.72728 16.615 2.68163C15.5846 2.63616 15.2565 2.625 12.632 2.625H12.635ZM11.7684 4.31447C12.0257 4.31409 12.3127 4.31447 12.635 4.31447C15.2145 4.31447 15.5201 4.32347 16.5387 4.36838C17.4806 4.41019 17.9918 4.56291 18.3324 4.69125C18.7832 4.86112 19.1046 5.06428 19.4425 5.3925C19.7806 5.72062 19.9899 6.03309 20.1654 6.47062C20.2977 6.80062 20.4552 7.29675 20.4981 8.21081C20.5444 9.19913 20.5544 9.49594 20.5544 11.9979C20.5544 14.4999 20.5444 14.7968 20.4981 15.7851C20.455 16.6991 20.2977 17.1952 20.1654 17.5253C19.9904 17.9629 19.7806 18.2744 19.4425 18.6023C19.1044 18.9305 18.7834 19.1335 18.3324 19.3035C17.9922 19.4324 17.4806 19.5848 16.5387 19.6266C15.5203 19.6715 15.2145 19.6812 12.635 19.6812C10.0555 19.6812 9.74977 19.6715 8.73147 19.6266C7.78959 19.5844 7.27836 19.4317 6.93754 19.3033C6.48679 19.1333 6.16471 18.9303 5.82659 18.6022C5.48848 18.274 5.27924 17.9623 5.10371 17.5246C4.97146 17.1945 4.8139 16.6984 4.771 15.7843C4.72473 14.796 4.71546 14.4992 4.71546 11.9956C4.71546 9.49209 4.72473 9.19678 4.771 8.20847C4.81409 7.29441 4.97146 6.79828 5.10371 6.46781C5.27885 6.03028 5.48848 5.71781 5.82669 5.38969C6.1648 5.06156 6.48679 4.85841 6.93764 4.68816C7.27816 4.55925 7.78959 4.40691 8.73147 4.36491C9.62264 4.32581 9.968 4.31409 11.7684 4.31212V4.31447ZM17.7918 5.87109C17.1518 5.87109 16.6325 6.37453 16.6325 6.99572C16.6325 7.61681 17.1518 8.12072 17.7918 8.12072C18.4318 8.12072 18.951 7.61681 18.951 6.99572C18.951 6.37463 18.4318 5.87072 17.7918 5.87072V5.87109ZM12.635 7.18556C9.89536 7.18556 7.67405 9.34125 7.67405 12.0001C7.67405 14.6589 9.89536 16.8136 12.635 16.8136C15.3748 16.8136 17.5954 14.6589 17.5954 12.0001C17.5954 9.34134 15.3746 7.18556 12.6348 7.18556H12.635ZM12.635 8.87503C14.4134 8.87503 15.8552 10.2741 15.8552 12.0001C15.8552 13.7259 14.4134 15.1252 12.635 15.1252C10.8566 15.1252 9.41495 13.7259 9.41495 12.0001C9.41495 10.2741 10.8566 8.87503 12.635 8.87503Z" fill="white" fill-opacity="0.6"/>
</g>
<defs>
<radialGradient id="paint0_radial_1_365" cx="0" cy="0" r="1" gradientUnits="userSpaceOnUse" gradientTransform="translate(6.83795 25.8485) rotate(-90) scale(23.7858 22.7961)">
<stop stop-color="#FFDD55"/>
<stop offset="0.1" stop-color="#FFDD55"/>
<stop offset="0.5" stop-color="#FF543E"/>
<stop offset="1" stop-color="#C837AB"/>
</radialGradient>
<radialGradient id="paint1_radial_1_365" cx="0" cy="0" r="1" gradientUnits="userSpaceOnUse" gradientTransform="translate(-3.87358 1.72884) rotate(78.3457) scale(10.645 45.1075)">
<stop stop-color="#3771C8"/>
<stop offset="0.128" stop-color="#3771C8"/>
<stop offset="1" stop-color="#6600FF" stop-opacity="0"/>
</radialGradient>
</defs>
</svg>
