<svg width="284" height="195" viewBox="0 0 284 195" fill="none" xmlns="http://www.w3.org/2000/svg">
<path d="M40.2329 167.76C41.2782 167.76 42.1955 168.016 42.9849 168.528C43.7742 169.04 44.3822 169.744 44.8089 170.64C45.2355 171.536 45.4489 172.549 45.4489 173.68C45.4489 174.992 45.2035 176.144 44.7129 177.136C44.2329 178.117 43.5662 178.88 42.7129 179.424C41.8595 179.957 40.8995 180.224 39.8329 180.224C38.7662 180.224 37.8222 179.968 37.0009 179.456C36.1795 178.944 35.5449 178.24 35.0969 177.344C34.6489 176.437 34.4249 175.413 34.4249 174.272C34.4249 172.992 34.6809 171.856 35.1929 170.864C35.7155 169.872 36.4089 169.115 37.2729 168.592C38.1902 168.037 39.1769 167.76 40.2329 167.76ZM39.9929 168.752C38.8835 168.752 38.0409 169.232 37.4649 170.192C36.8995 171.141 36.6169 172.448 36.6169 174.112C36.6169 174.987 36.7502 175.819 37.0169 176.608C37.2942 177.387 37.6889 178.021 38.2009 178.512C38.7129 178.992 39.3209 179.232 40.0249 179.232C41.1235 179.232 41.9342 178.763 42.4569 177.824C42.9902 176.875 43.2569 175.552 43.2569 173.856C43.2569 172.928 43.1235 172.075 42.8569 171.296C42.6009 170.517 42.2222 169.899 41.7209 169.44C41.2302 168.981 40.6542 168.752 39.9929 168.752ZM54.2425 173.152C53.6451 172.971 53.1865 172.608 52.8665 172.064C52.5571 171.509 52.4025 170.933 52.4025 170.336C52.4131 169.44 52.6851 168.645 53.2185 167.952C53.7625 167.248 54.4238 166.741 55.2025 166.432L55.7305 167.008V167.248C55.3571 167.376 55.0211 167.68 54.7225 168.16C54.4345 168.629 54.2905 169.099 54.2905 169.568C54.2905 169.941 54.4078 170.293 54.6425 170.624C54.8771 170.955 55.1438 171.136 55.4425 171.168V171.616L54.2425 173.152ZM67.6236 170.992C67.9543 170.992 68.2849 171.029 68.6156 171.104C68.9569 171.168 69.2289 171.253 69.4316 171.36L70.4396 171.056L70.7756 171.232V182.96L71.8156 183.136V184H67.2556V183.136L68.8076 182.976V180.368L68.8716 179.248C68.6156 179.504 68.2743 179.728 67.8476 179.92C67.4209 180.112 66.9409 180.208 66.4076 180.208C65.7889 180.208 65.2076 180.069 64.6636 179.792C64.1303 179.515 63.6876 179.04 63.3356 178.368C62.9836 177.696 62.8076 176.811 62.8076 175.712C62.8076 174.827 63.0156 174.027 63.4316 173.312C63.8476 172.587 64.4183 172.021 65.1436 171.616C65.8796 171.2 66.7063 170.992 67.6236 170.992ZM67.4316 171.968C66.5889 171.968 65.9383 172.277 65.4796 172.896C65.0316 173.515 64.8076 174.411 64.8076 175.584C64.8076 176.629 65.0049 177.451 65.3996 178.048C65.7943 178.645 66.3543 178.944 67.0796 178.944C67.4636 178.944 67.7996 178.891 68.0876 178.784C68.3863 178.667 68.6263 178.523 68.8076 178.352V172.512C68.5303 172.149 68.0716 171.968 67.4316 171.968ZM79.7527 166.896C80.1474 166.896 80.4461 167.003 80.6487 167.216C80.8621 167.419 80.9687 167.696 80.9687 168.048C80.9687 168.443 80.8247 168.768 80.5367 169.024C80.2487 169.28 79.9127 169.408 79.5287 169.408C79.1981 169.408 78.9101 169.301 78.6647 169.088C78.4301 168.875 78.3127 168.597 78.3127 168.256C78.3127 167.883 78.4621 167.563 78.7607 167.296C79.0594 167.029 79.3901 166.896 79.7527 166.896ZM80.7927 171.232V179.008L82.0087 179.184V180H77.6407V179.184L78.8727 179.008V173.168L77.8167 172.4V171.824L80.3287 171.072L80.7927 171.232ZM95.5352 172.288V171.264H99.3592V172.288L98.4952 172.48L100.047 176.448L100.671 178.416L101.247 176.496L102.607 172.464L101.615 172.288V171.264H105.039V172.288L104.175 172.496L101.103 180.128H99.6152L96.3032 172.448L95.5352 172.288ZM114.458 171.072C115.493 171.072 116.293 171.301 116.858 171.76C117.423 172.219 117.706 172.987 117.706 174.064V179.184H118.698V179.824C118.506 179.941 118.255 180.032 117.946 180.096C117.637 180.171 117.333 180.208 117.034 180.208C116.65 180.208 116.373 180.133 116.202 179.984C116.031 179.824 115.941 179.568 115.93 179.216C115.343 179.877 114.517 180.208 113.45 180.208C112.906 180.208 112.421 180.107 111.994 179.904C111.567 179.691 111.237 179.397 111.002 179.024C110.767 178.651 110.65 178.229 110.65 177.76C110.65 177.056 110.911 176.475 111.434 176.016C111.957 175.557 112.607 175.227 113.386 175.024C114.165 174.811 114.949 174.704 115.738 174.704V174.224C115.738 173.499 115.573 172.992 115.242 172.704C114.911 172.416 114.421 172.272 113.77 172.272C113.418 172.272 113.018 172.331 112.57 172.448C112.122 172.565 111.733 172.715 111.402 172.896L111.034 172.016C111.397 171.717 111.914 171.488 112.586 171.328C113.269 171.157 113.893 171.072 114.458 171.072ZM115.738 175.664C114.938 175.664 114.218 175.808 113.578 176.096C112.949 176.384 112.634 176.843 112.634 177.472C112.634 178.507 113.183 179.024 114.282 179.024C114.538 179.024 114.799 178.971 115.066 178.864C115.343 178.757 115.562 178.629 115.722 178.48L115.738 175.664ZM134.152 178.992V168.912L132.792 168.528V167.68L135.736 167.296L136.12 167.488V174.496L136.04 175.648L139.176 172.368L137.912 172.24V171.216H142.056V172.24L140.728 172.368L138.36 174.736L141.432 179.024L142.408 179.184V180H138.296V179.184L139.24 178.992L137.128 175.808L136.056 176.928L136.104 178.128V179.024L137.16 179.184V180H132.952V179.184L134.152 178.992ZM152.324 170.992C153.647 170.992 154.655 171.397 155.348 172.208C156.041 173.008 156.388 174.08 156.388 175.424C156.388 176.363 156.201 177.195 155.828 177.92C155.455 178.635 154.943 179.195 154.292 179.6C153.641 179.995 152.905 180.192 152.084 180.192C150.708 180.192 149.668 179.771 148.964 178.928C148.26 178.075 147.908 176.965 147.908 175.6C147.908 174.661 148.105 173.845 148.5 173.152C148.895 172.459 149.423 171.925 150.084 171.552C150.756 171.179 151.503 170.992 152.324 170.992ZM152.164 171.952C150.724 171.952 150.004 173.093 150.004 175.376C150.004 176.421 150.185 177.317 150.548 178.064C150.911 178.811 151.449 179.189 152.164 179.2C152.943 179.211 153.492 178.901 153.812 178.272C154.143 177.643 154.308 176.741 154.308 175.568C154.308 174.491 154.132 173.621 153.78 172.96C153.439 172.288 152.9 171.952 152.164 171.952ZM165.286 173.152C164.689 172.971 164.23 172.608 163.91 172.064C163.601 171.509 163.446 170.933 163.446 170.336C163.457 169.44 163.729 168.645 164.262 167.952C164.806 167.248 165.468 166.741 166.246 166.432L166.774 167.008V167.248C166.401 167.376 166.065 167.68 165.766 168.16C165.478 168.629 165.334 169.099 165.334 169.568C165.334 169.941 165.452 170.293 165.686 170.624C165.921 170.955 166.188 171.136 166.486 171.168V171.616L165.286 173.152ZM176.843 171.264H179.467V172.4H176.891V175.968C176.891 176.789 176.907 177.392 176.939 177.776C176.982 178.16 177.062 178.448 177.179 178.64C177.307 178.821 177.515 178.912 177.803 178.912C178.027 178.912 178.299 178.875 178.619 178.8C178.95 178.725 179.179 178.645 179.307 178.56L179.627 179.328C179.361 179.595 178.961 179.808 178.427 179.968C177.905 180.117 177.403 180.192 176.923 180.192C176.241 180.192 175.745 179.995 175.435 179.6C175.126 179.205 174.971 178.581 174.971 177.728V172.4H173.787V171.712C174.289 171.584 174.619 171.488 174.779 171.424C174.95 171.349 175.099 171.211 175.227 171.008C175.387 170.731 175.606 170.117 175.883 169.168H176.843V171.264ZM189.446 171.072C190.48 171.072 191.28 171.301 191.846 171.76C192.411 172.219 192.694 172.987 192.694 174.064V179.184H193.686V179.824C193.494 179.941 193.243 180.032 192.934 180.096C192.624 180.171 192.32 180.208 192.022 180.208C191.638 180.208 191.36 180.133 191.19 179.984C191.019 179.824 190.928 179.568 190.918 179.216C190.331 179.877 189.504 180.208 188.438 180.208C187.894 180.208 187.408 180.107 186.982 179.904C186.555 179.691 186.224 179.397 185.99 179.024C185.755 178.651 185.638 178.229 185.638 177.76C185.638 177.056 185.899 176.475 186.422 176.016C186.944 175.557 187.595 175.227 188.374 175.024C189.152 174.811 189.936 174.704 190.726 174.704V174.224C190.726 173.499 190.56 172.992 190.23 172.704C189.899 172.416 189.408 172.272 188.758 172.272C188.406 172.272 188.006 172.331 187.558 172.448C187.11 172.565 186.72 172.715 186.39 172.896L186.022 172.016C186.384 171.717 186.902 171.488 187.574 171.328C188.256 171.157 188.88 171.072 189.446 171.072ZM190.726 175.664C189.926 175.664 189.206 175.808 188.566 176.096C187.936 176.384 187.622 176.843 187.622 177.472C187.622 178.507 188.171 179.024 189.27 179.024C189.526 179.024 189.787 178.971 190.054 178.864C190.331 178.757 190.55 178.629 190.71 178.48L190.726 175.664ZM200.825 179.008V173.104L199.721 172.448V171.776L202.089 171.072L202.537 171.216V172.544C202.708 172.192 203.055 171.861 203.577 171.552C204.111 171.232 204.601 171.072 205.049 171.072C205.455 171.072 205.716 171.093 205.833 171.136V173.056C205.449 172.864 204.991 172.768 204.457 172.768C203.796 172.768 203.247 172.912 202.809 173.2V178.976L204.873 179.184V180H199.673V179.184L200.825 179.008ZM213.85 166.896C214.244 166.896 214.543 167.003 214.746 167.216C214.959 167.419 215.066 167.696 215.066 168.048C215.066 168.443 214.922 168.768 214.634 169.024C214.346 169.28 214.01 169.408 213.626 169.408C213.295 169.408 213.007 169.301 212.762 169.088C212.527 168.875 212.41 168.597 212.41 168.256C212.41 167.883 212.559 167.563 212.858 167.296C213.156 167.029 213.487 166.896 213.85 166.896ZM214.89 171.232V179.008L216.106 179.184V180H211.738V179.184L212.97 179.008V173.168L211.914 172.4V171.824L214.426 171.072L214.89 171.232ZM223.174 179.008V168.816L222.006 168.48V167.632L224.774 167.296L225.142 167.456V178.992L226.534 179.184V180H221.99V179.184L223.174 179.008ZM234.976 175.952H233.872L233.136 166.096H235.776L234.976 175.952ZM234.592 177.68C234.987 177.68 235.291 177.787 235.504 178C235.718 178.213 235.824 178.496 235.824 178.848C235.824 179.243 235.675 179.568 235.376 179.824C235.088 180.08 234.758 180.208 234.384 180.208C234.054 180.208 233.766 180.101 233.52 179.888C233.286 179.675 233.168 179.397 233.168 179.056C233.168 178.693 233.318 178.373 233.616 178.096C233.915 177.819 234.24 177.68 234.592 177.68Z" fill="#272727"/>
<g filter="url(#filter0_d_1_324)">
<path d="M15.5214 144.808V124.787L12.652 124.496V122.562H22.2595V124.496L19.5191 124.787V144.808L22.453 145.324V147H12.6198V145.324L15.5214 144.808ZM34.8878 128.849C35.5541 128.849 36.2204 128.924 36.8867 129.075C37.5745 129.204 38.1225 129.375 38.5309 129.59L40.562 128.978L41.2391 129.332V152.964L43.3347 153.319V155.06H34.1463V153.319L37.2735 152.997V147.742L37.4025 145.485C36.8867 146.001 36.1989 146.452 35.3391 146.839C34.4794 147.226 33.5122 147.419 32.4375 147.419C31.1909 147.419 30.0195 147.14 28.9234 146.581C27.8487 146.022 26.9567 145.066 26.2475 143.712C25.5382 142.357 25.1835 140.573 25.1835 138.36C25.1835 136.576 25.6027 134.964 26.4409 133.524C27.2791 132.062 28.429 130.923 29.8906 130.106C31.3736 129.268 33.0394 128.849 34.8878 128.849ZM34.5009 130.816C32.8029 130.816 31.4918 131.439 30.5676 132.685C29.6649 133.932 29.2135 135.737 29.2135 138.102C29.2135 140.208 29.6112 141.863 30.4064 143.067C31.2017 144.27 32.3301 144.872 33.7916 144.872C34.5654 144.872 35.2424 144.765 35.8227 144.55C36.4246 144.313 36.9082 144.023 37.2735 143.679V131.912C36.7147 131.181 35.7905 130.816 34.5009 130.816ZM47.8505 145.001V133.105L45.626 131.783V130.429L50.3975 129.01L51.3002 129.3V131.976C51.6441 131.267 52.3426 130.601 53.3958 129.977C54.4705 129.332 55.4592 129.01 56.3619 129.01C57.1786 129.01 57.7052 129.053 57.9417 129.139V133.008C57.1679 132.621 56.2437 132.428 55.169 132.428C53.8364 132.428 52.7295 132.718 51.8483 133.298V144.937L56.0073 145.356V147H45.5293V145.356L47.8505 145.001ZM68.9357 128.849C71.6009 128.849 73.632 129.666 75.0291 131.299C76.4262 132.911 77.1247 135.071 77.1247 137.779C77.1247 139.671 76.7486 141.347 75.9963 142.809C75.244 144.249 74.2124 145.377 72.9013 146.194C71.5902 146.989 70.1071 147.387 68.4521 147.387C65.6795 147.387 63.5839 146.538 62.1653 144.84C60.7468 143.12 60.0375 140.885 60.0375 138.134C60.0375 136.243 60.4351 134.598 61.2304 133.201C62.0256 131.804 63.0896 130.73 64.4221 129.977C65.7762 129.225 67.2808 128.849 68.9357 128.849ZM68.6133 130.783C65.7117 130.783 64.2609 133.083 64.2609 137.683C64.2609 139.789 64.6263 141.594 65.3571 143.099C66.0879 144.603 67.1733 145.367 68.6133 145.388C70.1824 145.409 71.2893 144.786 71.9341 143.518C72.6004 142.25 72.9335 140.434 72.9335 138.07C72.9335 135.899 72.5789 134.147 71.8696 132.814C71.1818 131.46 70.0964 130.783 68.6133 130.783ZM95.6995 132.75V135.587H81.3849V132.75H95.6995ZM111.565 122.336C113.672 122.336 115.52 122.852 117.111 123.884C118.701 124.916 119.926 126.334 120.786 128.14C121.646 129.945 122.076 131.987 122.076 134.265C122.076 136.522 121.71 138.553 120.979 140.359C120.249 142.164 119.217 143.647 117.884 144.808C116.573 145.968 115.037 146.753 113.274 147.161C114.005 148.816 115.789 149.644 118.626 149.644C119.722 149.644 120.679 149.439 121.495 149.031L121.689 151.514C121.366 151.9 120.85 152.212 120.141 152.449C119.432 152.685 118.647 152.803 117.788 152.803C114.241 152.803 112.049 151.019 111.211 147.451H110.888C108.717 147.451 106.794 146.946 105.117 145.936C103.441 144.904 102.141 143.497 101.216 141.713C100.314 139.907 99.8622 137.898 99.8622 135.684C99.8622 132.911 100.41 130.482 101.506 128.398C102.624 126.313 104.129 124.754 106.02 123.723C107.718 122.799 109.566 122.336 111.565 122.336ZM111.049 124.335C108.814 124.335 107.116 125.302 105.956 127.237C104.816 129.15 104.247 131.783 104.247 135.136C104.247 136.898 104.516 138.575 105.053 140.165C105.612 141.734 106.407 143.013 107.439 144.002C108.47 144.969 109.695 145.452 111.114 145.452C113.306 145.452 114.94 144.507 116.014 142.615C117.089 140.702 117.626 138.037 117.626 134.62C117.626 132.836 117.369 131.159 116.853 129.59C116.358 128.021 115.617 126.753 114.628 125.786C113.639 124.819 112.447 124.335 111.049 124.335ZM124.674 131.557V130.074L129.446 129.01L130.09 129.3V140.165C130.09 141.842 130.295 143.045 130.703 143.776C131.133 144.485 131.939 144.84 133.121 144.84C133.809 144.84 134.518 144.689 135.249 144.389C136.001 144.088 136.549 143.776 136.893 143.454V132.428L134.926 131.718V130.106L140.182 129.01L140.762 129.268V145.356H142.632V146.774C142.309 146.968 141.783 147.14 141.052 147.29C140.321 147.441 139.687 147.516 139.15 147.516C138.57 147.516 138.108 147.387 137.764 147.129C137.441 146.893 137.28 146.527 137.28 146.033V144.969C136.528 145.7 135.647 146.28 134.636 146.71C133.626 147.14 132.659 147.355 131.735 147.355C130.187 147.355 129.016 147.075 128.221 146.516C127.447 145.936 126.931 145.141 126.673 144.131C126.415 143.12 126.275 141.788 126.254 140.133V132.266L124.674 131.557ZM147.719 145.001V133.105L145.494 131.783V130.429L150.266 129.01L151.169 129.3V131.976C151.513 131.267 152.211 130.601 153.264 129.977C154.339 129.332 155.328 129.01 156.23 129.01C157.047 129.01 157.574 129.053 157.81 129.139V133.008C157.036 132.621 156.112 132.428 155.037 132.428C153.705 132.428 152.598 132.718 151.717 133.298V144.937L155.876 145.356V147H145.398V145.356L147.719 145.001ZM167.708 129.01C169.793 129.01 171.405 129.472 172.544 130.396C173.683 131.321 174.253 132.868 174.253 135.039V145.356H176.252V146.645C175.865 146.882 175.36 147.064 174.736 147.193C174.113 147.344 173.5 147.419 172.899 147.419C172.125 147.419 171.566 147.269 171.222 146.968C170.878 146.645 170.696 146.13 170.674 145.42C169.492 146.753 167.826 147.419 165.677 147.419C164.581 147.419 163.603 147.215 162.743 146.807C161.883 146.377 161.217 145.786 160.744 145.033C160.271 144.281 160.035 143.432 160.035 142.486C160.035 141.068 160.561 139.896 161.615 138.972C162.668 138.048 163.979 137.382 165.548 136.973C167.117 136.543 168.697 136.329 170.287 136.329V135.361C170.287 133.9 169.954 132.879 169.288 132.299C168.621 131.718 167.633 131.428 166.322 131.428C165.612 131.428 164.806 131.546 163.904 131.783C163.001 132.019 162.216 132.32 161.55 132.685L160.809 130.912C161.539 130.31 162.582 129.848 163.936 129.526C165.312 129.182 166.569 129.01 167.708 129.01ZM170.287 138.263C168.675 138.263 167.224 138.553 165.935 139.133C164.667 139.714 164.033 140.638 164.033 141.906C164.033 143.991 165.14 145.033 167.353 145.033C167.869 145.033 168.396 144.926 168.933 144.711C169.492 144.496 169.933 144.238 170.255 143.937L170.287 138.263ZM180.934 145.033V133.105L178.742 131.783V130.429L183.546 129.01L184.416 129.3V131.589C185.233 130.859 186.265 130.246 187.511 129.752C188.779 129.257 189.961 129.01 191.058 129.01C192.906 129.01 194.196 129.59 194.926 130.751C195.679 131.912 196.055 133.76 196.055 136.296V145.033L198.441 145.356V147H189.736V145.356L192.089 145.001V136.909C192.089 135.641 192.003 134.652 191.831 133.943C191.659 133.212 191.337 132.675 190.864 132.331C190.391 131.987 189.704 131.815 188.801 131.815C188.242 131.815 187.597 131.922 186.866 132.137C186.157 132.352 185.512 132.675 184.932 133.105V145.001L187.124 145.356V147H178.871V145.356L180.934 145.033ZM208.725 144.808L216.753 122.562H220.364L228.069 144.808L230.551 145.356V147H221.331V145.356L223.749 144.808L222.459 140.713H213.367L212.013 144.775L214.528 145.324V147H206.533V145.324L208.725 144.808ZM219.364 131.009L217.978 126.399L214.077 138.456H221.718L219.364 131.009ZM243.159 128.849C245.266 128.849 246.953 129.59 248.221 131.073C249.511 132.556 250.156 134.738 250.156 137.618C250.156 139.402 249.747 141.046 248.93 142.551C248.135 144.034 247.028 145.205 245.61 146.065C244.213 146.925 242.633 147.355 240.87 147.355C240.054 147.355 239.151 147.236 238.162 147L238.291 150.611V153.029L241.451 153.384V155.06H232.23V153.384L234.358 152.997V133.105L232.166 131.783V130.429L236.937 129.01L237.775 129.3V131.235C238.227 130.611 238.958 130.063 239.968 129.59C240.999 129.096 242.063 128.849 243.159 128.849ZM241.515 131.202C240.827 131.202 240.204 131.353 239.645 131.654C239.086 131.955 238.624 132.288 238.259 132.653L238.291 144.034C238.506 144.421 238.893 144.732 239.452 144.969C240.032 145.184 240.698 145.291 241.451 145.291C242.332 145.291 243.138 145.012 243.869 144.453C244.6 143.873 245.169 143.034 245.577 141.938C246.007 140.842 246.222 139.531 246.222 138.005C246.222 135.813 245.782 134.136 244.9 132.976C244.019 131.793 242.891 131.202 241.515 131.202ZM264.16 128.849C266.266 128.849 267.953 129.59 269.221 131.073C270.511 132.556 271.156 134.738 271.156 137.618C271.156 139.402 270.747 141.046 269.93 142.551C269.135 144.034 268.028 145.205 266.61 146.065C265.213 146.925 263.633 147.355 261.87 147.355C261.054 147.355 260.151 147.236 259.162 147L259.291 150.611V153.029L262.451 153.384V155.06H253.23V153.384L255.358 152.997V133.105L253.166 131.783V130.429L257.937 129.01L258.775 129.3V131.235C259.227 130.611 259.958 130.063 260.968 129.59C261.999 129.096 263.063 128.849 264.16 128.849ZM262.515 131.202C261.828 131.202 261.204 131.353 260.645 131.654C260.087 131.955 259.624 132.288 259.259 132.653L259.291 144.034C259.506 144.421 259.893 144.732 260.452 144.969C261.032 145.184 261.699 145.291 262.451 145.291C263.332 145.291 264.138 145.012 264.869 144.453C265.6 143.873 266.169 143.034 266.578 141.938C267.007 140.842 267.222 139.531 267.222 138.005C267.222 135.813 266.782 134.136 265.9 132.976C265.019 131.793 263.891 131.202 262.515 131.202Z" fill="#272727"/>
</g>
<g filter="url(#filter1_d_1_324)">
<path d="M78.4094 10.7962C78.4094 4.83361 83.243 0 89.2056 0H184.053C190.016 0 194.849 4.83361 194.849 10.7962V99.3249C194.849 105.287 190.016 110.121 184.053 110.121H89.2056C83.243 110.121 78.4094 105.287 78.4094 99.3249V10.7962Z" fill="#2CA4AB"/>
</g>
<g filter="url(#filter2_d_1_324)">
<path d="M141.079 59.0191L139.225 33.828C139.225 33.828 138.187 30.1573 138.484 24.1114C138.78 18.0656 143.552 12.7155 145.9 10.7961C142.637 18.2815 142.563 21.5923 142.563 21.9522L143.675 33.4681C144.046 38.2664 144.788 50.0942 144.788 59.0191C144.788 67.9439 139.596 74.2537 137 76.293C140.264 73.1261 141.079 63.4575 141.079 59.0191Z" fill="white"/>
<path d="M168.521 71.2547L166.666 46.0636C166.666 46.0636 165.628 42.3929 165.925 36.347C166.221 30.3012 170.993 24.9511 173.341 23.0317C170.078 30.5171 170.004 33.8279 170.004 34.1878L171.116 45.7037C171.487 50.502 172.229 62.3298 172.229 71.2547C172.229 80.1795 167.037 86.4893 164.441 88.5286C167.705 85.3617 168.521 75.6931 168.521 71.2547Z" fill="white"/>
<path d="M154.8 42.105L150.721 38.1464L147.013 41.7451L151.092 45.7037L154.8 42.105Z" fill="white"/>
<path d="M164.071 42.105L159.992 38.1464L156.283 41.7451L160.362 45.7037L164.071 42.105Z" fill="white"/>
<path d="M125.875 42.4649C127.359 39.8739 132.427 37.7866 134.775 37.0669L135.888 35.2675L131.067 37.0669C129.88 36.779 128.348 35.8673 127.73 35.2675C127.73 34.9796 129.46 34.1879 130.325 34.1879C130.586 34.1879 131.191 35.0276 131.438 35.6274C132.921 33.4681 131.438 32.5085 130.696 32.0286C127.73 31.6688 125.134 34.5478 125.134 35.9872C125.134 36.631 127.111 37.7866 128.1 38.1465C126.914 38.7223 126.123 41.2654 125.875 42.4649Z" fill="white"/>
<path d="M114.751 74.8535C113.02 77.0128 109.485 82.123 109.188 85.2899C108.817 86.9693 109.114 90.1121 110.301 92.1274C111.29 93.5669 114.38 96.8058 119.571 93.2071C124.021 89.6083 134.405 80.9714 134.405 80.9714C134.405 80.9714 135.888 79.5319 141.45 77.3727L155.913 72.3344C159.183 71.2815 162.587 70.0538 162.587 69.4555C162.587 68.016 159.621 66.9363 159.621 66.9363C159.621 66.9363 151.833 65.6568 151.092 65.4969C148.867 65.017 145.9 62.6179 147.384 57.5797C147.384 57.5797 148.867 52.1816 153.688 51.4618C155.295 51.1019 160.14 51.4618 162.217 55.7803C163.7 58.0595 165.183 63.2806 165.183 66.2166C165.183 68.7357 165.925 72.6943 161.104 75.5733C160.733 75.9332 155.542 78.0924 149.979 79.5319L143.675 81.6911L140.338 83.1306L137.742 84.5701C134.775 86.3695 126.617 92.4873 125.505 93.5669C122.668 96.3195 117.717 98.6051 116.605 98.6051C116.605 98.6051 109.93 98.965 108.076 93.5669C106.222 88.1688 108.076 80.9714 114.751 74.8535Z" fill="white"/>
<path d="M114.751 70.8949V52.1815C115.937 50.1663 119.695 47.7431 121.426 46.7834V65.137C118.088 66.9363 116.234 69.0956 114.751 70.8949Z" fill="white"/>
<path d="M112.526 70.8949V52.1815C111.339 50.1663 107.581 47.7431 105.851 46.7834V65.137C109.188 66.9363 111.042 69.0956 112.526 70.8949Z" fill="white"/>
<path d="M127.359 52.5414H123.65H123.28V67.2962C117.717 69.0955 116.976 70.535 114.751 72.3344C116.605 71.2548 124.269 68.3758 127.359 67.656V52.5414Z" fill="white"/>
<path d="M99.9175 52.5414H103.626H103.997V67.2962C109.559 69.0955 110.301 70.535 112.526 72.3344C110.671 71.2548 103.008 68.3758 99.9175 67.656V52.5414Z" fill="white"/>
<path d="M129.213 70.1752V59.0192H132.55L132.18 71.6147C132.18 71.6147 122.662 72.0945 117.717 72.6943C120.313 71.6147 126.617 70.1752 129.213 70.1752Z" fill="white"/>
<path d="M98.0634 70.1752V59.0192H94.7259L95.0967 71.6147C95.0967 71.6147 104.615 72.0945 109.559 72.6943C106.963 71.6147 100.659 70.1752 98.0634 70.1752Z" fill="white"/>
<path d="M154.8 57.7057C153.317 57.1299 151.71 58.6653 151.092 59.505C151.463 60.9445 158.508 60.5846 158.508 60.5846C156.283 58.4254 156.654 58.4254 154.8 57.7057Z" fill="#2CA4AB"/>
</g>
<defs>
<filter id="filter0_d_1_324" x="12.6198" y="122.336" width="268.456" height="42.6436" filterUnits="userSpaceOnUse" color-interpolation-filters="sRGB">
<feFlood flood-opacity="0" result="BackgroundImageFix"/>
<feColorMatrix in="SourceAlpha" type="matrix" values="0 0 0 0 0 0 0 0 0 0 0 0 0 0 0 0 0 0 127 0" result="hardAlpha"/>
<feOffset dx="4.96" dy="4.96"/>
<feGaussianBlur stdDeviation="2.48"/>
<feComposite in2="hardAlpha" operator="out"/>
<feColorMatrix type="matrix" values="0 0 0 0 0 0 0 0 0 0 0 0 0 0 0 0 0 0 0.25 0"/>
<feBlend mode="normal" in2="BackgroundImageFix" result="effect1_dropShadow_1_324"/>
<feBlend mode="normal" in="SourceGraphic" in2="effect1_dropShadow_1_324" result="shape"/>
</filter>
<filter id="filter1_d_1_324" x="78.4094" y="0" width="123.637" height="117.318" filterUnits="userSpaceOnUse" color-interpolation-filters="sRGB">
<feFlood flood-opacity="0" result="BackgroundImageFix"/>
<feColorMatrix in="SourceAlpha" type="matrix" values="0 0 0 0 0 0 0 0 0 0 0 0 0 0 0 0 0 0 127 0" result="hardAlpha"/>
<feOffset dx="3.59873" dy="3.59873"/>
<feGaussianBlur stdDeviation="1.79936"/>
<feComposite in2="hardAlpha" operator="out"/>
<feColorMatrix type="matrix" values="0 0 0 0 0 0 0 0 0 0 0 0 0 0 0 0 0 0 0.3 0"/>
<feBlend mode="normal" in2="BackgroundImageFix" result="effect1_dropShadow_1_324"/>
<feBlend mode="normal" in="SourceGraphic" in2="effect1_dropShadow_1_324" result="shape"/>
</filter>
<filter id="filter2_d_1_324" x="94.7259" y="10.7961" width="84.3734" height="93.5719" filterUnits="userSpaceOnUse" color-interpolation-filters="sRGB">
<feFlood flood-opacity="0" result="BackgroundImageFix"/>
<feColorMatrix in="SourceAlpha" type="matrix" values="0 0 0 0 0 0 0 0 0 0 0 0 0 0 0 0 0 0 127 0" result="hardAlpha"/>
<feOffset dx="2.87898" dy="2.87898"/>
<feGaussianBlur stdDeviation="1.43949"/>
<feComposite in2="hardAlpha" operator="out"/>
<feColorMatrix type="matrix" values="0 0 0 0 0 0 0 0 0 0 0 0 0 0 0 0 0 0 0.3 0"/>
<feBlend mode="normal" in2="BackgroundImageFix" result="effect1_dropShadow_1_324"/>
<feBlend mode="normal" in="SourceGraphic" in2="effect1_dropShadow_1_324" result="shape"/>
</filter>
</defs>
</svg>
