<svg width="202" height="18" viewBox="0 0 202 18" fill="none" xmlns="http://www.w3.org/2000/svg">
<path d="M6.23285 1.76C7.27819 1.76 8.19552 2.016 8.98485 2.528C9.77419 3.04 10.3822 3.744 10.8089 4.64C11.2355 5.536 11.4489 6.54933 11.4489 7.68C11.4489 8.992 11.2035 10.144 10.7129 11.136C10.2329 12.1173 9.56618 12.88 8.71285 13.424C7.85952 13.9573 6.89952 14.224 5.83285 14.224C4.76618 14.224 3.82218 13.968 3.00085 13.456C2.17952 12.944 1.54485 12.24 1.09685 11.344C0.648851 10.4373 0.424851 9.41333 0.424851 8.272C0.424851 6.992 0.680851 5.856 1.19285 4.864C1.71552 3.872 2.40885 3.11467 3.27285 2.592C4.19018 2.03733 5.17685 1.76 6.23285 1.76ZM5.99285 2.752C4.88352 2.752 4.04085 3.232 3.46485 4.192C2.89952 5.14133 2.61685 6.448 2.61685 8.112C2.61685 8.98667 2.75018 9.81867 3.01685 10.608C3.29418 11.3867 3.68885 12.0213 4.20085 12.512C4.71285 12.992 5.32085 13.232 6.02485 13.232C7.12352 13.232 7.93419 12.7627 8.45685 11.824C8.99018 10.8747 9.25685 9.552 9.25685 7.856C9.25685 6.928 9.12352 6.07467 8.85685 5.296C8.60085 4.51733 8.22218 3.89867 7.72085 3.44C7.23018 2.98133 6.65418 2.752 5.99285 2.752ZM20.2425 7.152C19.6451 6.97067 19.1865 6.608 18.8665 6.064C18.5571 5.50933 18.4025 4.93333 18.4025 4.336C18.4131 3.44 18.6851 2.64533 19.2185 1.952C19.7625 1.248 20.4238 0.741332 21.2025 0.431999L21.7305 1.008V1.248C21.3571 1.376 21.0211 1.68 20.7225 2.16C20.4345 2.62933 20.2905 3.09867 20.2905 3.568C20.2905 3.94133 20.4078 4.29333 20.6425 4.624C20.8771 4.95467 21.1438 5.136 21.4425 5.168V5.616L20.2425 7.152ZM33.6236 4.992C33.9543 4.992 34.2849 5.02933 34.6156 5.104C34.9569 5.168 35.2289 5.25333 35.4316 5.36L36.4396 5.056L36.7756 5.232V16.96L37.8156 17.136V18H33.2556V17.136L34.8076 16.976V14.368L34.8716 13.248C34.6156 13.504 34.2743 13.728 33.8476 13.92C33.4209 14.112 32.9409 14.208 32.4076 14.208C31.7889 14.208 31.2076 14.0693 30.6636 13.792C30.1303 13.5147 29.6876 13.04 29.3356 12.368C28.9836 11.696 28.8076 10.8107 28.8076 9.712C28.8076 8.82667 29.0156 8.02667 29.4316 7.312C29.8476 6.58667 30.4183 6.02133 31.1436 5.616C31.8796 5.2 32.7063 4.992 33.6236 4.992ZM33.4316 5.968C32.5889 5.968 31.9383 6.27733 31.4796 6.896C31.0316 7.51467 30.8076 8.41067 30.8076 9.584C30.8076 10.6293 31.0049 11.4507 31.3996 12.048C31.7943 12.6453 32.3543 12.944 33.0796 12.944C33.4636 12.944 33.7996 12.8907 34.0876 12.784C34.3863 12.6667 34.6263 12.5227 34.8076 12.352V6.512C34.5303 6.14933 34.0716 5.968 33.4316 5.968ZM45.7527 0.895999C46.1474 0.895999 46.4461 1.00267 46.6487 1.216C46.8621 1.41867 46.9687 1.696 46.9687 2.048C46.9687 2.44267 46.8247 2.768 46.5367 3.024C46.2487 3.28 45.9127 3.408 45.5287 3.408C45.1981 3.408 44.9101 3.30133 44.6647 3.088C44.4301 2.87467 44.3127 2.59733 44.3127 2.256C44.3127 1.88267 44.4621 1.56267 44.7607 1.296C45.0594 1.02933 45.3901 0.895999 45.7527 0.895999ZM46.7927 5.232V13.008L48.0087 13.184V14H43.6407V13.184L44.8727 13.008V7.168L43.8167 6.4V5.824L46.3287 5.072L46.7927 5.232ZM61.5352 6.288V5.264H65.3592V6.288L64.4952 6.48L66.0472 10.448L66.6712 12.416L67.2472 10.496L68.6072 6.464L67.6152 6.288V5.264H71.0392V6.288L70.1752 6.496L67.1032 14.128H65.6152L62.3032 6.448L61.5352 6.288ZM80.4581 5.072C81.4928 5.072 82.2928 5.30133 82.8581 5.76C83.4234 6.21867 83.7061 6.98667 83.7061 8.064V13.184H84.6981V13.824C84.5061 13.9413 84.2554 14.032 83.9461 14.096C83.6368 14.1707 83.3328 14.208 83.0341 14.208C82.6501 14.208 82.3728 14.1333 82.2021 13.984C82.0314 13.824 81.9408 13.568 81.9301 13.216C81.3434 13.8773 80.5168 14.208 79.4501 14.208C78.9061 14.208 78.4208 14.1067 77.9941 13.904C77.5674 13.6907 77.2368 13.3973 77.0021 13.024C76.7674 12.6507 76.6501 12.2293 76.6501 11.76C76.6501 11.056 76.9114 10.4747 77.4341 10.016C77.9568 9.55733 78.6074 9.22667 79.3861 9.024C80.1648 8.81067 80.9488 8.704 81.7381 8.704V8.224C81.7381 7.49867 81.5728 6.992 81.2421 6.704C80.9114 6.416 80.4208 6.272 79.7701 6.272C79.4181 6.272 79.0181 6.33067 78.5701 6.448C78.1221 6.56533 77.7328 6.71467 77.4021 6.896L77.0341 6.016C77.3968 5.71733 77.9141 5.488 78.5861 5.328C79.2688 5.15733 79.8928 5.072 80.4581 5.072ZM81.7381 9.664C80.9381 9.664 80.2181 9.808 79.5781 10.096C78.9488 10.384 78.6341 10.8427 78.6341 11.472C78.6341 12.5067 79.1834 13.024 80.2821 13.024C80.5381 13.024 80.7994 12.9707 81.0661 12.864C81.3434 12.7573 81.5621 12.6293 81.7221 12.48L81.7381 9.664ZM100.152 12.992V2.912L98.7925 2.528V1.68L101.736 1.296L102.12 1.488V8.496L102.04 9.648L105.176 6.368L103.912 6.24V5.216H108.056V6.24L106.728 6.368L104.36 8.736L107.432 13.024L108.408 13.184V14H104.296V13.184L105.24 12.992L103.128 9.808L102.056 10.928L102.104 12.128V13.024L103.16 13.184V14H98.9525V13.184L100.152 12.992ZM118.324 4.992C119.647 4.992 120.655 5.39733 121.348 6.208C122.041 7.008 122.388 8.08 122.388 9.424C122.388 10.3627 122.201 11.1947 121.828 11.92C121.455 12.6347 120.943 13.1947 120.292 13.6C119.641 13.9947 118.905 14.192 118.084 14.192C116.708 14.192 115.668 13.7707 114.964 12.928C114.26 12.0747 113.908 10.9653 113.908 9.6C113.908 8.66133 114.105 7.84533 114.5 7.152C114.895 6.45867 115.423 5.92533 116.084 5.552C116.756 5.17867 117.503 4.992 118.324 4.992ZM118.164 5.952C116.724 5.952 116.004 7.09333 116.004 9.376C116.004 10.4213 116.185 11.3173 116.548 12.064C116.911 12.8107 117.449 13.1893 118.164 13.2C118.943 13.2107 119.492 12.9013 119.812 12.272C120.143 11.6427 120.308 10.7413 120.308 9.568C120.308 8.49067 120.132 7.62133 119.78 6.96C119.439 6.288 118.9 5.952 118.164 5.952ZM131.286 7.152C130.689 6.97067 130.23 6.608 129.91 6.064C129.601 5.50933 129.446 4.93333 129.446 4.336C129.457 3.44 129.729 2.64533 130.262 1.952C130.806 1.248 131.468 0.741332 132.246 0.431999L132.774 1.008V1.248C132.401 1.376 132.065 1.68 131.766 2.16C131.478 2.62933 131.334 3.09867 131.334 3.568C131.334 3.94133 131.452 4.29333 131.686 4.624C131.921 4.95467 132.188 5.136 132.486 5.168V5.616L131.286 7.152ZM142.843 5.264H145.467V6.4H142.891V9.968C142.891 10.7893 142.907 11.392 142.939 11.776C142.982 12.16 143.062 12.448 143.179 12.64C143.307 12.8213 143.515 12.912 143.803 12.912C144.027 12.912 144.299 12.8747 144.619 12.8C144.95 12.7253 145.179 12.6453 145.307 12.56L145.627 13.328C145.361 13.5947 144.961 13.808 144.427 13.968C143.905 14.1173 143.403 14.192 142.923 14.192C142.241 14.192 141.745 13.9947 141.435 13.6C141.126 13.2053 140.971 12.5813 140.971 11.728V6.4H139.787V5.712C140.289 5.584 140.619 5.488 140.779 5.424C140.95 5.34933 141.099 5.21067 141.227 5.008C141.387 4.73067 141.606 4.11733 141.883 3.168H142.843V5.264ZM155.446 5.072C156.48 5.072 157.28 5.30133 157.846 5.76C158.411 6.21867 158.694 6.98667 158.694 8.064V13.184H159.686V13.824C159.494 13.9413 159.243 14.032 158.934 14.096C158.624 14.1707 158.32 14.208 158.022 14.208C157.638 14.208 157.36 14.1333 157.19 13.984C157.019 13.824 156.928 13.568 156.918 13.216C156.331 13.8773 155.504 14.208 154.438 14.208C153.894 14.208 153.408 14.1067 152.982 13.904C152.555 13.6907 152.224 13.3973 151.99 13.024C151.755 12.6507 151.638 12.2293 151.638 11.76C151.638 11.056 151.899 10.4747 152.422 10.016C152.944 9.55733 153.595 9.22667 154.374 9.024C155.152 8.81067 155.936 8.704 156.726 8.704V8.224C156.726 7.49867 156.56 6.992 156.23 6.704C155.899 6.416 155.408 6.272 154.758 6.272C154.406 6.272 154.006 6.33067 153.558 6.448C153.11 6.56533 152.72 6.71467 152.39 6.896L152.022 6.016C152.384 5.71733 152.902 5.488 153.574 5.328C154.256 5.15733 154.88 5.072 155.446 5.072ZM156.726 9.664C155.926 9.664 155.206 9.808 154.566 10.096C153.936 10.384 153.622 10.8427 153.622 11.472C153.622 12.5067 154.171 13.024 155.27 13.024C155.526 13.024 155.787 12.9707 156.054 12.864C156.331 12.7573 156.55 12.6293 156.71 12.48L156.726 9.664ZM166.825 13.008V7.104L165.721 6.448V5.776L168.089 5.072L168.537 5.216V6.544C168.708 6.192 169.055 5.86133 169.577 5.552C170.111 5.232 170.601 5.072 171.049 5.072C171.455 5.072 171.716 5.09333 171.833 5.136V7.056C171.449 6.864 170.991 6.768 170.457 6.768C169.796 6.768 169.247 6.912 168.809 7.2V12.976L170.873 13.184V14H165.673V13.184L166.825 13.008ZM179.85 0.895999C180.244 0.895999 180.543 1.00267 180.746 1.216C180.959 1.41867 181.066 1.696 181.066 2.048C181.066 2.44267 180.922 2.768 180.634 3.024C180.346 3.28 180.01 3.408 179.626 3.408C179.295 3.408 179.007 3.30133 178.762 3.088C178.527 2.87467 178.41 2.59733 178.41 2.256C178.41 1.88267 178.559 1.56267 178.858 1.296C179.156 1.02933 179.487 0.895999 179.85 0.895999ZM180.89 5.232V13.008L182.106 13.184V14H177.738V13.184L178.97 13.008V7.168L177.914 6.4V5.824L180.426 5.072L180.89 5.232ZM189.174 13.008V2.816L188.006 2.48V1.632L190.774 1.296L191.142 1.456V12.992L192.534 13.184V14H187.99V13.184L189.174 13.008ZM200.976 9.952H199.872L199.136 0.0959997H201.776L200.976 9.952ZM200.592 11.68C200.987 11.68 201.291 11.7867 201.504 12C201.718 12.2133 201.824 12.496 201.824 12.848C201.824 13.2427 201.675 13.568 201.376 13.824C201.088 14.08 200.758 14.208 200.384 14.208C200.054 14.208 199.766 14.1013 199.52 13.888C199.286 13.6747 199.168 13.3973 199.168 13.056C199.168 12.6933 199.318 12.3733 199.616 12.096C199.915 11.8187 200.24 11.68 200.592 11.68Z" fill="#272727"/>
</svg>
