<svg width="232" height="68" viewBox="0 0 232 68" fill="none" xmlns="http://www.w3.org/2000/svg">
<g filter="url(#filter0_d_263_380)">
<path d="M20.4024 25.368V10.464L18.2664 10.248V8.808H25.4184V10.248L23.3784 10.464V25.368L25.5624 25.752V27H18.2424V25.752L20.4024 25.368ZM34.8191 13.488C35.3151 13.488 35.8111 13.544 36.3071 13.656C36.8191 13.752 37.2271 13.88 37.5311 14.04L39.0431 13.584L39.5471 13.848V31.44L41.1071 31.704V33H34.2671V31.704L36.5951 31.464V27.552L36.6911 25.872C36.3071 26.256 35.7951 26.592 35.1551 26.88C34.5151 27.168 33.7951 27.312 32.9951 27.312C32.0671 27.312 31.1951 27.104 30.3791 26.688C29.5791 26.272 28.9151 25.56 28.3871 24.552C27.8591 23.544 27.5951 22.216 27.5951 20.568C27.5951 19.24 27.9071 18.04 28.5311 16.968C29.1551 15.88 30.0111 15.032 31.0991 14.424C32.2031 13.8 33.4431 13.488 34.8191 13.488ZM34.5311 14.952C33.2671 14.952 32.2911 15.416 31.6031 16.344C30.9311 17.272 30.5951 18.616 30.5951 20.376C30.5951 21.944 30.8911 23.176 31.4831 24.072C32.0751 24.968 32.9151 25.416 34.0031 25.416C34.5791 25.416 35.0831 25.336 35.5151 25.176C35.9631 25 36.3231 24.784 36.5951 24.528V15.768C36.1791 15.224 35.4911 14.952 34.5311 14.952ZM44.4688 25.512V16.656L42.8128 15.672V14.664L46.3648 13.608L47.0368 13.824V15.816C47.2928 15.288 47.8128 14.792 48.5968 14.328C49.3968 13.848 50.1328 13.608 50.8048 13.608C51.4128 13.608 51.8048 13.64 51.9808 13.704V16.584C51.4048 16.296 50.7168 16.152 49.9168 16.152C48.9248 16.152 48.1008 16.368 47.4448 16.8V25.464L50.5408 25.776V27H42.7408V25.776L44.4688 25.512ZM60.1649 13.488C62.1489 13.488 63.6609 14.096 64.7009 15.312C65.7409 16.512 66.2609 18.12 66.2609 20.136C66.2609 21.544 65.9809 22.792 65.4209 23.88C64.8609 24.952 64.0929 25.792 63.1169 26.4C62.1409 26.992 61.0369 27.288 59.8049 27.288C57.7409 27.288 56.1809 26.656 55.1249 25.392C54.0689 24.112 53.5409 22.448 53.5409 20.4C53.5409 18.992 53.8369 17.768 54.4289 16.728C55.0209 15.688 55.8129 14.888 56.8049 14.328C57.8129 13.768 58.9329 13.488 60.1649 13.488ZM59.9249 14.928C57.7649 14.928 56.6849 16.64 56.6849 20.064C56.6849 21.632 56.9569 22.976 57.5009 24.096C58.0449 25.216 58.8529 25.784 59.9249 25.8C61.0929 25.816 61.9169 25.352 62.3969 24.408C62.8929 23.464 63.1409 22.112 63.1409 20.352C63.1409 18.736 62.8769 17.432 62.3489 16.44C61.8369 15.432 61.0289 14.928 59.9249 14.928ZM80.0883 16.392V18.504H69.4323V16.392H80.0883ZM91.8991 8.64C93.4671 8.64 94.8431 9.024 96.0271 9.792C97.2111 10.56 98.1231 11.616 98.7631 12.96C99.4031 14.304 99.7231 15.824 99.7231 17.52C99.7231 19.2 99.4511 20.712 98.9071 22.056C98.3631 23.4 97.5951 24.504 96.6031 25.368C95.6271 26.232 94.4831 26.816 93.1711 27.12C93.7151 28.352 95.0431 28.968 97.1551 28.968C97.9711 28.968 98.6831 28.816 99.2911 28.512L99.4351 30.36C99.1951 30.648 98.8111 30.88 98.2831 31.056C97.7551 31.232 97.1711 31.32 96.5311 31.32C93.8911 31.32 92.2591 29.992 91.6351 27.336H91.3951C89.7791 27.336 88.3471 26.96 87.0991 26.208C85.8511 25.44 84.8831 24.392 84.1951 23.064C83.5231 21.72 83.1871 20.224 83.1871 18.576C83.1871 16.512 83.5951 14.704 84.4111 13.152C85.2431 11.6 86.3631 10.44 87.7711 9.672C89.0351 8.984 90.4111 8.64 91.8991 8.64ZM91.5151 10.128C89.8511 10.128 88.5871 10.848 87.7231 12.288C86.8751 13.712 86.4511 15.672 86.4511 18.168C86.4511 19.48 86.6511 20.728 87.0511 21.912C87.4671 23.08 88.0591 24.032 88.8271 24.768C89.5951 25.488 90.5071 25.848 91.5631 25.848C93.1951 25.848 94.4111 25.144 95.2111 23.736C96.0111 22.312 96.4111 20.328 96.4111 17.784C96.4111 16.456 96.2191 15.208 95.8351 14.04C95.4671 12.872 94.9151 11.928 94.1791 11.208C93.4431 10.488 92.5551 10.128 91.5151 10.128ZM101.658 15.504V14.4L105.21 13.608L105.69 13.824V21.912C105.69 23.16 105.842 24.056 106.146 24.6C106.466 25.128 107.066 25.392 107.946 25.392C108.458 25.392 108.986 25.28 109.53 25.056C110.09 24.832 110.498 24.6 110.754 24.36V16.152L109.29 15.624V14.424L113.202 13.608L113.634 13.8V25.776H115.026V26.832C114.786 26.976 114.394 27.104 113.85 27.216C113.306 27.328 112.834 27.384 112.434 27.384C112.002 27.384 111.658 27.288 111.402 27.096C111.162 26.92 111.042 26.648 111.042 26.28V25.488C110.482 26.032 109.826 26.464 109.074 26.784C108.322 27.104 107.602 27.264 106.914 27.264C105.762 27.264 104.89 27.056 104.298 26.64C103.722 26.208 103.338 25.616 103.146 24.864C102.954 24.112 102.85 23.12 102.834 21.888V16.032L101.658 15.504ZM118.812 25.512V16.656L117.157 15.672V14.664L120.709 13.608L121.381 13.824V15.816C121.637 15.288 122.157 14.792 122.941 14.328C123.741 13.848 124.477 13.608 125.149 13.608C125.757 13.608 126.149 13.64 126.325 13.704V16.584C125.749 16.296 125.061 16.152 124.261 16.152C123.269 16.152 122.445 16.368 121.789 16.8V25.464L124.885 25.776V27H117.085V25.776L118.812 25.512ZM133.693 13.608C135.245 13.608 136.445 13.952 137.293 14.64C138.141 15.328 138.565 16.48 138.565 18.096V25.776H140.053V26.736C139.765 26.912 139.389 27.048 138.925 27.144C138.461 27.256 138.005 27.312 137.557 27.312C136.981 27.312 136.565 27.2 136.309 26.976C136.053 26.736 135.917 26.352 135.901 25.824C135.021 26.816 133.781 27.312 132.181 27.312C131.365 27.312 130.637 27.16 129.997 26.856C129.357 26.536 128.861 26.096 128.509 25.536C128.157 24.976 127.981 24.344 127.981 23.64C127.981 22.584 128.373 21.712 129.157 21.024C129.941 20.336 130.917 19.84 132.085 19.536C133.253 19.216 134.429 19.056 135.613 19.056V18.336C135.613 17.248 135.365 16.488 134.869 16.056C134.373 15.624 133.637 15.408 132.661 15.408C132.133 15.408 131.533 15.496 130.861 15.672C130.189 15.848 129.605 16.072 129.109 16.344L128.557 15.024C129.101 14.576 129.877 14.232 130.885 13.992C131.909 13.736 132.845 13.608 133.693 13.608ZM135.613 20.496C134.413 20.496 133.333 20.712 132.373 21.144C131.429 21.576 130.957 22.264 130.957 23.208C130.957 24.76 131.781 25.536 133.429 25.536C133.813 25.536 134.205 25.456 134.605 25.296C135.021 25.136 135.349 24.944 135.589 24.72L135.613 20.496ZM143.539 25.536V16.656L141.907 15.672V14.664L145.483 13.608L146.131 13.824V15.528C146.739 14.984 147.507 14.528 148.435 14.16C149.379 13.792 150.259 13.608 151.075 13.608C152.451 13.608 153.411 14.04 153.955 14.904C154.515 15.768 154.795 17.144 154.795 19.032V25.536L156.571 25.776V27H150.091V25.776L151.843 25.512V19.488C151.843 18.544 151.779 17.808 151.651 17.28C151.523 16.736 151.283 16.336 150.931 16.08C150.579 15.824 150.067 15.696 149.395 15.696C148.979 15.696 148.499 15.776 147.955 15.936C147.427 16.096 146.947 16.336 146.515 16.656V25.512L148.147 25.776V27H142.003V25.776L143.539 25.536ZM164.226 25.368L170.202 8.808H172.89L178.626 25.368L180.474 25.776V27H173.61V25.776L175.41 25.368L174.45 22.32H167.682L166.674 25.344L168.546 25.752V27H162.594V25.752L164.226 25.368ZM172.146 15.096L171.114 11.664L168.21 20.64H173.898L172.146 15.096ZM189.86 13.488C191.428 13.488 192.684 14.04 193.628 15.144C194.588 16.248 195.068 17.872 195.068 20.016C195.068 21.344 194.764 22.568 194.156 23.688C193.564 24.792 192.74 25.664 191.684 26.304C190.644 26.944 189.468 27.264 188.156 27.264C187.548 27.264 186.876 27.176 186.14 27L186.236 29.688V31.488L188.588 31.752V33H181.724V31.752L183.308 31.464V16.656L181.676 15.672V14.664L185.228 13.608L185.852 13.824V15.264C186.188 14.8 186.732 14.392 187.484 14.04C188.252 13.672 189.044 13.488 189.86 13.488ZM188.636 15.24C188.124 15.24 187.66 15.352 187.244 15.576C186.828 15.8 186.484 16.048 186.212 16.32L186.236 24.792C186.396 25.08 186.684 25.312 187.1 25.488C187.532 25.648 188.028 25.728 188.588 25.728C189.244 25.728 189.844 25.52 190.388 25.104C190.932 24.672 191.356 24.048 191.66 23.232C191.98 22.416 192.14 21.44 192.14 20.304C192.14 18.672 191.812 17.424 191.156 16.56C190.5 15.68 189.66 15.24 188.636 15.24ZM205.493 13.488C207.061 13.488 208.317 14.04 209.261 15.144C210.221 16.248 210.701 17.872 210.701 20.016C210.701 21.344 210.397 22.568 209.789 23.688C209.197 24.792 208.373 25.664 207.317 26.304C206.277 26.944 205.101 27.264 203.789 27.264C203.181 27.264 202.509 27.176 201.773 27L201.869 29.688V31.488L204.221 31.752V33H197.357V31.752L198.941 31.464V16.656L197.309 15.672V14.664L200.861 13.608L201.485 13.824V15.264C201.821 14.8 202.365 14.392 203.117 14.04C203.885 13.672 204.677 13.488 205.493 13.488ZM204.269 15.24C203.757 15.24 203.293 15.352 202.877 15.576C202.461 15.8 202.117 16.048 201.845 16.32L201.869 24.792C202.029 25.08 202.317 25.312 202.733 25.488C203.165 25.648 203.661 25.728 204.221 25.728C204.877 25.728 205.477 25.52 206.021 25.104C206.565 24.672 206.989 24.048 207.293 23.232C207.613 22.416 207.773 21.44 207.773 20.304C207.773 18.672 207.445 17.424 206.789 16.56C206.133 15.68 205.293 15.24 204.269 15.24Z" fill="#272727"/>
</g>
<path d="M20.5586 40.76C21.6039 40.76 22.5213 41.016 23.3106 41.528C24.0999 42.04 24.7079 42.744 25.1346 43.64C25.5613 44.536 25.7746 45.5493 25.7746 46.68C25.7746 47.992 25.5293 49.144 25.0386 50.136C24.5586 51.1173 23.8919 51.88 23.0386 52.424C22.1853 52.9573 21.2253 53.224 20.1586 53.224C19.0919 53.224 18.1479 52.968 17.3266 52.456C16.5053 51.944 15.8706 51.24 15.4226 50.344C14.9746 49.4373 14.7506 48.4133 14.7506 47.272C14.7506 45.992 15.0066 44.856 15.5186 43.864C16.0413 42.872 16.7346 42.1147 17.5986 41.592C18.5159 41.0373 19.5026 40.76 20.5586 40.76ZM20.3186 41.752C19.2093 41.752 18.3666 42.232 17.7906 43.192C17.2253 44.1413 16.9426 45.448 16.9426 47.112C16.9426 47.9867 17.0759 48.8187 17.3426 49.608C17.6199 50.3867 18.0146 51.0213 18.5266 51.512C19.0386 51.992 19.6466 52.232 20.3506 52.232C21.4493 52.232 22.2599 51.7627 22.7826 50.824C23.3159 49.8747 23.5826 48.552 23.5826 46.856C23.5826 45.928 23.4493 45.0747 23.1826 44.296C22.9266 43.5173 22.5479 42.8987 22.0466 42.44C21.5559 41.9813 20.9799 41.752 20.3186 41.752ZM34.5682 46.152C33.9709 45.9707 33.5122 45.608 33.1922 45.064C32.8829 44.5093 32.7282 43.9333 32.7282 43.336C32.7389 42.44 33.0109 41.6453 33.5442 40.952C34.0882 40.248 34.7496 39.7413 35.5282 39.432L36.0562 40.008V40.248C35.6829 40.376 35.3469 40.68 35.0482 41.16C34.7602 41.6293 34.6162 42.0987 34.6162 42.568C34.6162 42.9413 34.7336 43.2933 34.9682 43.624C35.2029 43.9547 35.4696 44.136 35.7682 44.168V44.616L34.5682 46.152ZM47.9493 43.992C48.28 43.992 48.6107 44.0293 48.9413 44.104C49.2827 44.168 49.5547 44.2533 49.7573 44.36L50.7653 44.056L51.1013 44.232V55.96L52.1413 56.136V57H47.5813V56.136L49.1333 55.976V53.368L49.1973 52.248C48.9413 52.504 48.6 52.728 48.1733 52.92C47.7467 53.112 47.2667 53.208 46.7333 53.208C46.1147 53.208 45.5333 53.0693 44.9893 52.792C44.456 52.5147 44.0133 52.04 43.6613 51.368C43.3093 50.696 43.1333 49.8107 43.1333 48.712C43.1333 47.8267 43.3413 47.0267 43.7573 46.312C44.1733 45.5867 44.744 45.0213 45.4693 44.616C46.2053 44.2 47.032 43.992 47.9493 43.992ZM47.7573 44.968C46.9147 44.968 46.264 45.2773 45.8053 45.896C45.3573 46.5147 45.1333 47.4107 45.1333 48.584C45.1333 49.6293 45.3307 50.4507 45.7253 51.048C46.12 51.6453 46.68 51.944 47.4053 51.944C47.7893 51.944 48.1253 51.8907 48.4133 51.784C48.712 51.6667 48.952 51.5227 49.1333 51.352V45.512C48.856 45.1493 48.3973 44.968 47.7573 44.968ZM60.0785 39.896C60.4731 39.896 60.7718 40.0027 60.9745 40.216C61.1878 40.4187 61.2945 40.696 61.2945 41.048C61.2945 41.4427 61.1505 41.768 60.8625 42.024C60.5745 42.28 60.2385 42.408 59.8545 42.408C59.5238 42.408 59.2358 42.3013 58.9905 42.088C58.7558 41.8747 58.6385 41.5973 58.6385 41.256C58.6385 40.8827 58.7878 40.5627 59.0865 40.296C59.3851 40.0293 59.7158 39.896 60.0785 39.896ZM61.1185 44.232V52.008L62.3345 52.184V53H57.9665V52.184L59.1985 52.008V46.168L58.1425 45.4V44.824L60.6545 44.072L61.1185 44.232ZM75.861 45.288V44.264H79.685V45.288L78.821 45.48L80.373 49.448L80.997 51.416L81.573 49.496L82.933 45.464L81.941 45.288V44.264H85.365V45.288L84.501 45.496L81.429 53.128H79.941L76.629 45.448L75.861 45.288ZM94.7838 44.072C95.8185 44.072 96.6185 44.3013 97.1838 44.76C97.7492 45.2187 98.0318 45.9867 98.0318 47.064V52.184H99.0238V52.824C98.8318 52.9413 98.5812 53.032 98.2718 53.096C97.9625 53.1707 97.6585 53.208 97.3598 53.208C96.9758 53.208 96.6985 53.1333 96.5278 52.984C96.3572 52.824 96.2665 52.568 96.2558 52.216C95.6692 52.8773 94.8425 53.208 93.7758 53.208C93.2318 53.208 92.7465 53.1067 92.3198 52.904C91.8932 52.6907 91.5625 52.3973 91.3278 52.024C91.0932 51.6507 90.9758 51.2293 90.9758 50.76C90.9758 50.056 91.2372 49.4747 91.7598 49.016C92.2825 48.5573 92.9332 48.2267 93.7118 48.024C94.4905 47.8107 95.2745 47.704 96.0638 47.704V47.224C96.0638 46.4987 95.8985 45.992 95.5678 45.704C95.2372 45.416 94.7465 45.272 94.0958 45.272C93.7438 45.272 93.3438 45.3307 92.8958 45.448C92.4478 45.5653 92.0585 45.7147 91.7278 45.896L91.3598 45.016C91.7225 44.7173 92.2398 44.488 92.9118 44.328C93.5945 44.1573 94.2185 44.072 94.7838 44.072ZM96.0638 48.664C95.2638 48.664 94.5438 48.808 93.9038 49.096C93.2745 49.384 92.9598 49.8427 92.9598 50.472C92.9598 51.5067 93.5092 52.024 94.6078 52.024C94.8638 52.024 95.1252 51.9707 95.3918 51.864C95.6692 51.7573 95.8878 51.6293 96.0478 51.48L96.0638 48.664ZM114.478 51.992V41.912L113.118 41.528V40.68L116.062 40.296L116.446 40.488V47.496L116.366 48.648L119.502 45.368L118.238 45.24V44.216H122.382V45.24L121.054 45.368L118.686 47.736L121.758 52.024L122.734 52.184V53H118.622V52.184L119.566 51.992L117.454 48.808L116.382 49.928L116.43 51.128V52.024L117.486 52.184V53H113.278V52.184L114.478 51.992ZM132.65 43.992C133.972 43.992 134.98 44.3973 135.674 45.208C136.367 46.008 136.714 47.08 136.714 48.424C136.714 49.3627 136.527 50.1947 136.154 50.92C135.78 51.6347 135.268 52.1947 134.618 52.6C133.967 52.9947 133.231 53.192 132.41 53.192C131.034 53.192 129.994 52.7707 129.29 51.928C128.586 51.0747 128.234 49.9653 128.234 48.6C128.234 47.6613 128.431 46.8453 128.826 46.152C129.22 45.4587 129.748 44.9253 130.41 44.552C131.082 44.1787 131.828 43.992 132.65 43.992ZM132.49 44.952C131.05 44.952 130.33 46.0933 130.33 48.376C130.33 49.4213 130.511 50.3173 130.874 51.064C131.236 51.8107 131.775 52.1893 132.49 52.2C133.268 52.2107 133.818 51.9013 134.138 51.272C134.468 50.6427 134.634 49.7413 134.634 48.568C134.634 47.4907 134.458 46.6213 134.106 45.96C133.764 45.288 133.226 44.952 132.49 44.952ZM145.612 46.152C145.015 45.9707 144.556 45.608 144.236 45.064C143.927 44.5093 143.772 43.9333 143.772 43.336C143.783 42.44 144.055 41.6453 144.588 40.952C145.132 40.248 145.793 39.7413 146.572 39.432L147.1 40.008V40.248C146.727 40.376 146.391 40.68 146.092 41.16C145.804 41.6293 145.66 42.0987 145.66 42.568C145.66 42.9413 145.777 43.2933 146.012 43.624C146.247 43.9547 146.513 44.136 146.812 44.168V44.616L145.612 46.152ZM157.169 44.264H159.793V45.4H157.217V48.968C157.217 49.7893 157.233 50.392 157.265 50.776C157.308 51.16 157.388 51.448 157.505 51.64C157.633 51.8213 157.841 51.912 158.129 51.912C158.353 51.912 158.625 51.8747 158.945 51.8C159.276 51.7253 159.505 51.6453 159.633 51.56L159.953 52.328C159.686 52.5947 159.286 52.808 158.753 52.968C158.23 53.1173 157.729 53.192 157.249 53.192C156.566 53.192 156.07 52.9947 155.761 52.6C155.452 52.2053 155.297 51.5813 155.297 50.728V45.4H154.113V44.712C154.614 44.584 154.945 44.488 155.105 44.424C155.276 44.3493 155.425 44.2107 155.553 44.008C155.713 43.7307 155.932 43.1173 156.209 42.168H157.169V44.264ZM169.771 44.072C170.806 44.072 171.606 44.3013 172.171 44.76C172.737 45.2187 173.019 45.9867 173.019 47.064V52.184H174.011V52.824C173.819 52.9413 173.569 53.032 173.259 53.096C172.95 53.1707 172.646 53.208 172.347 53.208C171.963 53.208 171.686 53.1333 171.515 52.984C171.345 52.824 171.254 52.568 171.243 52.216C170.657 52.8773 169.83 53.208 168.763 53.208C168.219 53.208 167.734 53.1067 167.307 52.904C166.881 52.6907 166.55 52.3973 166.315 52.024C166.081 51.6507 165.963 51.2293 165.963 50.76C165.963 50.056 166.225 49.4747 166.747 49.016C167.27 48.5573 167.921 48.2267 168.699 48.024C169.478 47.8107 170.262 47.704 171.051 47.704V47.224C171.051 46.4987 170.886 45.992 170.555 45.704C170.225 45.416 169.734 45.272 169.083 45.272C168.731 45.272 168.331 45.3307 167.883 45.448C167.435 45.5653 167.046 45.7147 166.715 45.896L166.347 45.016C166.71 44.7173 167.227 44.488 167.899 44.328C168.582 44.1573 169.206 44.072 169.771 44.072ZM171.051 48.664C170.251 48.664 169.531 48.808 168.891 49.096C168.262 49.384 167.947 49.8427 167.947 50.472C167.947 51.5067 168.497 52.024 169.595 52.024C169.851 52.024 170.113 51.9707 170.379 51.864C170.657 51.7573 170.875 51.6293 171.035 51.48L171.051 48.664ZM181.151 52.008V46.104L180.047 45.448V44.776L182.415 44.072L182.863 44.216V45.544C183.034 45.192 183.381 44.8613 183.903 44.552C184.437 44.232 184.927 44.072 185.375 44.072C185.781 44.072 186.042 44.0933 186.159 44.136V46.056C185.775 45.864 185.317 45.768 184.783 45.768C184.122 45.768 183.573 45.912 183.135 46.2V51.976L185.199 52.184V53H179.999V52.184L181.151 52.008ZM194.175 39.896C194.57 39.896 194.869 40.0027 195.071 40.216C195.285 40.4187 195.391 40.696 195.391 41.048C195.391 41.4427 195.247 41.768 194.959 42.024C194.671 42.28 194.335 42.408 193.951 42.408C193.621 42.408 193.333 42.3013 193.087 42.088C192.853 41.8747 192.735 41.5973 192.735 41.256C192.735 40.8827 192.885 40.5627 193.183 40.296C193.482 40.0293 193.813 39.896 194.175 39.896ZM195.215 44.232V52.008L196.431 52.184V53H192.063V52.184L193.295 52.008V46.168L192.239 45.4V44.824L194.751 44.072L195.215 44.232ZM203.499 52.008V41.816L202.331 41.48V40.632L205.099 40.296L205.467 40.456V51.992L206.859 52.184V53H202.315V52.184L203.499 52.008ZM215.302 48.952H214.198L213.462 39.096H216.102L215.302 48.952ZM214.918 50.68C215.313 50.68 215.617 50.7867 215.83 51C216.044 51.2133 216.15 51.496 216.15 51.848C216.15 52.2427 216.001 52.568 215.702 52.824C215.414 53.08 215.084 53.208 214.71 53.208C214.38 53.208 214.092 53.1013 213.846 52.888C213.612 52.6747 213.494 52.3973 213.494 52.056C213.494 51.6933 213.644 51.3733 213.942 51.096C214.241 50.8187 214.566 50.68 214.918 50.68Z" fill="#272727"/>
<defs>
<filter id="filter0_d_263_380" x="18.2424" y="8.64014" width="202.378" height="34.2799" filterUnits="userSpaceOnUse" color-interpolation-filters="sRGB">
<feFlood flood-opacity="0" result="BackgroundImageFix"/>
<feColorMatrix in="SourceAlpha" type="matrix" values="0 0 0 0 0 0 0 0 0 0 0 0 0 0 0 0 0 0 127 0" result="hardAlpha"/>
<feOffset dx="4.96" dy="4.96"/>
<feGaussianBlur stdDeviation="2.48"/>
<feComposite in2="hardAlpha" operator="out"/>
<feColorMatrix type="matrix" values="0 0 0 0 0 0 0 0 0 0 0 0 0 0 0 0 0 0 0.25 0"/>
<feBlend mode="normal" in2="BackgroundImageFix" result="effect1_dropShadow_263_380"/>
<feBlend mode="normal" in="SourceGraphic" in2="effect1_dropShadow_263_380" result="shape"/>
</filter>
</defs>
</svg>
