<svg width="203" height="18" viewBox="0 0 203 18" fill="none" xmlns="http://www.w3.org/2000/svg">
<path d="M6.5586 1.76C7.60393 1.76 8.52126 2.016 9.3106 2.528C10.0999 3.04 10.7079 3.744 11.1346 4.64C11.5613 5.536 11.7746 6.54933 11.7746 7.68C11.7746 8.992 11.5293 10.144 11.0386 11.136C10.5586 12.1173 9.89193 12.88 9.0386 13.424C8.18526 13.9573 7.22526 14.224 6.1586 14.224C5.09193 14.224 4.14793 13.968 3.3266 13.456C2.50526 12.944 1.8706 12.24 1.4226 11.344C0.974596 10.4373 0.750596 9.41333 0.750596 8.272C0.750596 6.992 1.0066 5.856 1.5186 4.864C2.04126 3.872 2.7346 3.11467 3.5986 2.592C4.51593 2.03733 5.5026 1.76 6.5586 1.76ZM6.3186 2.752C5.20926 2.752 4.3666 3.232 3.7906 4.192C3.22526 5.14133 2.9426 6.448 2.9426 8.112C2.9426 8.98667 3.07593 9.81867 3.3426 10.608C3.61993 11.3867 4.0146 12.0213 4.5266 12.512C5.0386 12.992 5.6466 13.232 6.3506 13.232C7.44926 13.232 8.25993 12.7627 8.7826 11.824C9.31593 10.8747 9.5826 9.552 9.5826 7.856C9.5826 6.928 9.44926 6.07467 9.1826 5.296C8.9266 4.51733 8.54793 3.89867 8.0466 3.44C7.55593 2.98133 6.97993 2.752 6.3186 2.752ZM20.5682 7.152C19.9709 6.97067 19.5122 6.608 19.1922 6.064C18.8829 5.50933 18.7282 4.93333 18.7282 4.336C18.7389 3.44 19.0109 2.64533 19.5442 1.952C20.0882 1.248 20.7496 0.741332 21.5282 0.431999L22.0562 1.008V1.248C21.6829 1.376 21.3469 1.68 21.0482 2.16C20.7602 2.62933 20.6162 3.09867 20.6162 3.568C20.6162 3.94133 20.7336 4.29333 20.9682 4.624C21.2029 4.95467 21.4696 5.136 21.7682 5.168V5.616L20.5682 7.152ZM33.9493 4.992C34.28 4.992 34.6107 5.02933 34.9413 5.104C35.2827 5.168 35.5547 5.25333 35.7573 5.36L36.7653 5.056L37.1013 5.232V16.96L38.1413 17.136V18H33.5813V17.136L35.1333 16.976V14.368L35.1973 13.248C34.9413 13.504 34.6 13.728 34.1733 13.92C33.7467 14.112 33.2667 14.208 32.7333 14.208C32.1147 14.208 31.5333 14.0693 30.9893 13.792C30.456 13.5147 30.0133 13.04 29.6613 12.368C29.3093 11.696 29.1333 10.8107 29.1333 9.712C29.1333 8.82667 29.3413 8.02667 29.7573 7.312C30.1733 6.58667 30.744 6.02133 31.4693 5.616C32.2053 5.2 33.032 4.992 33.9493 4.992ZM33.7573 5.968C32.9147 5.968 32.264 6.27733 31.8053 6.896C31.3573 7.51467 31.1333 8.41067 31.1333 9.584C31.1333 10.6293 31.3307 11.4507 31.7253 12.048C32.12 12.6453 32.68 12.944 33.4053 12.944C33.7893 12.944 34.1253 12.8907 34.4133 12.784C34.712 12.6667 34.952 12.5227 35.1333 12.352V6.512C34.856 6.14933 34.3973 5.968 33.7573 5.968ZM46.0785 0.895999C46.4731 0.895999 46.7718 1.00267 46.9745 1.216C47.1878 1.41867 47.2945 1.696 47.2945 2.048C47.2945 2.44267 47.1505 2.768 46.8625 3.024C46.5745 3.28 46.2385 3.408 45.8545 3.408C45.5238 3.408 45.2358 3.30133 44.9905 3.088C44.7558 2.87467 44.6385 2.59733 44.6385 2.256C44.6385 1.88267 44.7878 1.56267 45.0865 1.296C45.3851 1.02933 45.7158 0.895999 46.0785 0.895999ZM47.1185 5.232V13.008L48.3345 13.184V14H43.9665V13.184L45.1985 13.008V7.168L44.1425 6.4V5.824L46.6545 5.072L47.1185 5.232ZM61.861 6.288V5.264H65.685V6.288L64.821 6.48L66.373 10.448L66.997 12.416L67.573 10.496L68.933 6.464L67.941 6.288V5.264H71.365V6.288L70.501 6.496L67.429 14.128H65.941L62.629 6.448L61.861 6.288ZM80.7838 5.072C81.8185 5.072 82.6185 5.30133 83.1838 5.76C83.7492 6.21867 84.0318 6.98667 84.0318 8.064V13.184H85.0238V13.824C84.8318 13.9413 84.5812 14.032 84.2718 14.096C83.9625 14.1707 83.6585 14.208 83.3598 14.208C82.9758 14.208 82.6985 14.1333 82.5278 13.984C82.3572 13.824 82.2665 13.568 82.2558 13.216C81.6692 13.8773 80.8425 14.208 79.7758 14.208C79.2318 14.208 78.7465 14.1067 78.3198 13.904C77.8932 13.6907 77.5625 13.3973 77.3278 13.024C77.0932 12.6507 76.9758 12.2293 76.9758 11.76C76.9758 11.056 77.2372 10.4747 77.7598 10.016C78.2825 9.55733 78.9332 9.22667 79.7118 9.024C80.4905 8.81067 81.2745 8.704 82.0638 8.704V8.224C82.0638 7.49867 81.8985 6.992 81.5678 6.704C81.2372 6.416 80.7465 6.272 80.0958 6.272C79.7438 6.272 79.3438 6.33067 78.8958 6.448C78.4478 6.56533 78.0585 6.71467 77.7278 6.896L77.3598 6.016C77.7225 5.71733 78.2398 5.488 78.9118 5.328C79.5945 5.15733 80.2185 5.072 80.7838 5.072ZM82.0638 9.664C81.2638 9.664 80.5438 9.808 79.9038 10.096C79.2745 10.384 78.9598 10.8427 78.9598 11.472C78.9598 12.5067 79.5092 13.024 80.6078 13.024C80.8638 13.024 81.1252 12.9707 81.3918 12.864C81.6692 12.7573 81.8878 12.6293 82.0478 12.48L82.0638 9.664ZM100.478 12.992V2.912L99.1182 2.528V1.68L102.062 1.296L102.446 1.488V8.496L102.366 9.648L105.502 6.368L104.238 6.24V5.216H108.382V6.24L107.054 6.368L104.686 8.736L107.758 13.024L108.734 13.184V14H104.622V13.184L105.566 12.992L103.454 9.808L102.382 10.928L102.43 12.128V13.024L103.486 13.184V14H99.2782V13.184L100.478 12.992ZM118.65 4.992C119.972 4.992 120.98 5.39733 121.674 6.208C122.367 7.008 122.714 8.08 122.714 9.424C122.714 10.3627 122.527 11.1947 122.154 11.92C121.78 12.6347 121.268 13.1947 120.618 13.6C119.967 13.9947 119.231 14.192 118.41 14.192C117.034 14.192 115.994 13.7707 115.29 12.928C114.586 12.0747 114.234 10.9653 114.234 9.6C114.234 8.66133 114.431 7.84533 114.826 7.152C115.22 6.45867 115.748 5.92533 116.41 5.552C117.082 5.17867 117.828 4.992 118.65 4.992ZM118.49 5.952C117.05 5.952 116.33 7.09333 116.33 9.376C116.33 10.4213 116.511 11.3173 116.874 12.064C117.236 12.8107 117.775 13.1893 118.49 13.2C119.268 13.2107 119.818 12.9013 120.138 12.272C120.468 11.6427 120.634 10.7413 120.634 9.568C120.634 8.49067 120.458 7.62133 120.106 6.96C119.764 6.288 119.226 5.952 118.49 5.952ZM131.612 7.152C131.015 6.97067 130.556 6.608 130.236 6.064C129.927 5.50933 129.772 4.93333 129.772 4.336C129.783 3.44 130.055 2.64533 130.588 1.952C131.132 1.248 131.793 0.741332 132.572 0.431999L133.1 1.008V1.248C132.727 1.376 132.391 1.68 132.092 2.16C131.804 2.62933 131.66 3.09867 131.66 3.568C131.66 3.94133 131.777 4.29333 132.012 4.624C132.247 4.95467 132.513 5.136 132.812 5.168V5.616L131.612 7.152ZM143.169 5.264H145.793V6.4H143.217V9.968C143.217 10.7893 143.233 11.392 143.265 11.776C143.308 12.16 143.388 12.448 143.505 12.64C143.633 12.8213 143.841 12.912 144.129 12.912C144.353 12.912 144.625 12.8747 144.945 12.8C145.276 12.7253 145.505 12.6453 145.633 12.56L145.953 13.328C145.686 13.5947 145.286 13.808 144.753 13.968C144.23 14.1173 143.729 14.192 143.249 14.192C142.566 14.192 142.07 13.9947 141.761 13.6C141.452 13.2053 141.297 12.5813 141.297 11.728V6.4H140.113V5.712C140.614 5.584 140.945 5.488 141.105 5.424C141.276 5.34933 141.425 5.21067 141.553 5.008C141.713 4.73067 141.932 4.11733 142.209 3.168H143.169V5.264ZM155.771 5.072C156.806 5.072 157.606 5.30133 158.171 5.76C158.737 6.21867 159.019 6.98667 159.019 8.064V13.184H160.011V13.824C159.819 13.9413 159.569 14.032 159.259 14.096C158.95 14.1707 158.646 14.208 158.347 14.208C157.963 14.208 157.686 14.1333 157.515 13.984C157.345 13.824 157.254 13.568 157.243 13.216C156.657 13.8773 155.83 14.208 154.763 14.208C154.219 14.208 153.734 14.1067 153.307 13.904C152.881 13.6907 152.55 13.3973 152.315 13.024C152.081 12.6507 151.963 12.2293 151.963 11.76C151.963 11.056 152.225 10.4747 152.747 10.016C153.27 9.55733 153.921 9.22667 154.699 9.024C155.478 8.81067 156.262 8.704 157.051 8.704V8.224C157.051 7.49867 156.886 6.992 156.555 6.704C156.225 6.416 155.734 6.272 155.083 6.272C154.731 6.272 154.331 6.33067 153.883 6.448C153.435 6.56533 153.046 6.71467 152.715 6.896L152.347 6.016C152.71 5.71733 153.227 5.488 153.899 5.328C154.582 5.15733 155.206 5.072 155.771 5.072ZM157.051 9.664C156.251 9.664 155.531 9.808 154.891 10.096C154.262 10.384 153.947 10.8427 153.947 11.472C153.947 12.5067 154.497 13.024 155.595 13.024C155.851 13.024 156.113 12.9707 156.379 12.864C156.657 12.7573 156.875 12.6293 157.035 12.48L157.051 9.664ZM167.151 13.008V7.104L166.047 6.448V5.776L168.415 5.072L168.863 5.216V6.544C169.034 6.192 169.381 5.86133 169.903 5.552C170.437 5.232 170.927 5.072 171.375 5.072C171.781 5.072 172.042 5.09333 172.159 5.136V7.056C171.775 6.864 171.317 6.768 170.783 6.768C170.122 6.768 169.573 6.912 169.135 7.2V12.976L171.199 13.184V14H165.999V13.184L167.151 13.008ZM180.175 0.895999C180.57 0.895999 180.869 1.00267 181.071 1.216C181.285 1.41867 181.391 1.696 181.391 2.048C181.391 2.44267 181.247 2.768 180.959 3.024C180.671 3.28 180.335 3.408 179.951 3.408C179.621 3.408 179.333 3.30133 179.087 3.088C178.853 2.87467 178.735 2.59733 178.735 2.256C178.735 1.88267 178.885 1.56267 179.183 1.296C179.482 1.02933 179.813 0.895999 180.175 0.895999ZM181.215 5.232V13.008L182.431 13.184V14H178.063V13.184L179.295 13.008V7.168L178.239 6.4V5.824L180.751 5.072L181.215 5.232ZM189.499 13.008V2.816L188.331 2.48V1.632L191.099 1.296L191.467 1.456V12.992L192.859 13.184V14H188.315V13.184L189.499 13.008ZM201.302 9.952H200.198L199.462 0.0959997H202.102L201.302 9.952ZM200.918 11.68C201.313 11.68 201.617 11.7867 201.83 12C202.044 12.2133 202.15 12.496 202.15 12.848C202.15 13.2427 202.001 13.568 201.702 13.824C201.414 14.08 201.084 14.208 200.71 14.208C200.38 14.208 200.092 14.1013 199.846 13.888C199.612 13.6747 199.494 13.3973 199.494 13.056C199.494 12.6933 199.644 12.3733 199.942 12.096C200.241 11.8187 200.566 11.68 200.918 11.68Z" fill="white"/>
</svg>
