<svg width="25" height="24" viewBox="0 0 25 24" fill="none" xmlns="http://www.w3.org/2000/svg">
<path d="M12.3648 0C9.08604 0 5.93869 1.26506 3.62213 3.51469C1.30318 5.76521 0.000123559 8.81734 -0.000518799 12C-0.000518799 15.1813 1.30363 18.2357 3.62213 20.4853C5.93869 22.7349 9.08604 24 12.3648 24C15.6435 24 18.7909 22.7349 21.1074 20.4853C23.4259 18.2357 24.7301 15.1813 24.7301 12C24.7301 8.81869 23.4259 5.76431 21.1074 3.51469C18.7909 1.26506 15.6435 0 12.3648 0Z" fill="url(#paint0_linear_1_359)"/>
<path d="M5.36625 11.4932C8.9715 9.96917 11.375 8.96435 12.5768 8.47892C16.012 7.09273 16.7249 6.85198 17.1906 6.84382C17.293 6.84223 17.5209 6.86679 17.6697 6.98351C17.7934 7.08195 17.8281 7.21507 17.8455 7.30854C17.861 7.40191 17.8822 7.61473 17.8649 7.78085C17.6794 9.67835 16.8737 14.283 16.4641 16.4083C16.2921 17.3075 15.9502 17.609 15.6198 17.6385C14.901 17.7026 14.3562 17.178 13.6607 16.7357C12.5729 16.0432 11.9585 15.6124 10.9016 14.9368C9.68057 14.156 10.4727 13.7269 11.1683 13.0256C11.3499 12.842 14.5146 10.0492 14.5745 9.79591C14.5823 9.76423 14.59 9.6461 14.5166 9.58385C14.4451 9.52141 14.3388 9.54279 14.2615 9.55967C14.1514 9.58367 12.4145 10.6989 9.04492 12.9052C8.55224 13.2341 8.10593 13.3944 7.70406 13.386C7.26355 13.3768 6.41343 13.1437 5.78164 12.9446C5.00881 12.7003 4.39248 12.5711 4.44658 12.1562C4.47363 11.9402 4.78083 11.7191 5.36625 11.4932Z" fill="white"/>
<defs>
<linearGradient id="paint0_linear_1_359" x1="1236.53" y1="0" x2="1236.53" y2="2400" gradientUnits="userSpaceOnUse">
<stop stop-color="#2AABEE"/>
<stop offset="1" stop-color="#229ED9"/>
</linearGradient>
</defs>
</svg>
