<svg width="18" height="18" viewBox="0 0 18 18" fill="none" xmlns="http://www.w3.org/2000/svg">
<path d="M8.4 2.4V0.6C8.4 0.44087 8.46321 0.288258 8.57574 0.175736C8.68826 0.0632141 8.84087 0 9 0C9.15913 0 9.31174 0.0632141 9.42426 0.175736C9.53679 0.288258 9.6 0.44087 9.6 0.6V2.4C9.6 2.55913 9.53679 2.71174 9.42426 2.82426C9.31174 2.93679 9.15913 3 9 3C8.84087 3 8.68826 2.93679 8.57574 2.82426C8.46321 2.71174 8.4 2.55913 8.4 2.4ZM3.7755 4.6245C3.88808 4.73708 4.04078 4.80033 4.2 4.80033C4.35922 4.80033 4.51192 4.73708 4.6245 4.6245C4.73708 4.51192 4.80033 4.35922 4.80033 4.2C4.80033 4.04078 4.73708 3.88808 4.6245 3.7755L3.4245 2.5755C3.31192 2.46292 3.15922 2.39967 3 2.39967C2.84078 2.39967 2.68808 2.46292 2.5755 2.5755C2.46292 2.68808 2.39967 2.84078 2.39967 3C2.39967 3.15922 2.46292 3.31192 2.5755 3.4245L3.7755 4.6245ZM3.7755 13.3755L2.5755 14.5755C2.46292 14.6881 2.39967 14.8408 2.39967 15C2.39967 15.1592 2.46292 15.3119 2.5755 15.4245C2.68808 15.5371 2.84078 15.6003 3 15.6003C3.15922 15.6003 3.31192 15.5371 3.4245 15.4245L4.6245 14.2245C4.68025 14.1688 4.72447 14.1026 4.75464 14.0297C4.78481 13.9569 4.80033 13.8788 4.80033 13.8C4.80033 13.7212 4.78481 13.6431 4.75464 13.5703C4.72447 13.4974 4.68025 13.4312 4.6245 13.3755C4.56875 13.3198 4.50257 13.2755 4.42974 13.2454C4.3569 13.2152 4.27884 13.1997 4.2 13.1997C4.12116 13.1997 4.0431 13.2152 3.97026 13.2454C3.89743 13.2755 3.83125 13.3198 3.7755 13.3755ZM13.8 4.8C13.8788 4.80006 13.9569 4.78459 14.0297 4.75448C14.1025 4.72437 14.1687 4.6802 14.2245 4.6245L15.4245 3.4245C15.5371 3.31192 15.6003 3.15922 15.6003 3C15.6003 2.84078 15.5371 2.68808 15.4245 2.5755C15.3119 2.46292 15.1592 2.39967 15 2.39967C14.8408 2.39967 14.6881 2.46292 14.5755 2.5755L13.3755 3.7755C13.2915 3.85941 13.2343 3.96637 13.2111 4.08282C13.1879 4.19927 13.1998 4.31998 13.2452 4.42967C13.2907 4.53937 13.3677 4.63311 13.4664 4.69903C13.5652 4.76496 13.6813 4.80009 13.8 4.8ZM14.2245 13.3755C14.1119 13.2629 13.9592 13.1997 13.8 13.1997C13.6408 13.1997 13.4881 13.2629 13.3755 13.3755C13.2629 13.4881 13.1997 13.6408 13.1997 13.8C13.1997 13.9592 13.2629 14.1119 13.3755 14.2245L14.5755 15.4245C14.6312 15.4802 14.6974 15.5245 14.7703 15.5546C14.8431 15.5848 14.9212 15.6003 15 15.6003C15.0788 15.6003 15.1569 15.5848 15.2297 15.5546C15.3026 15.5245 15.3688 15.4802 15.4245 15.4245C15.4802 15.3688 15.5245 15.3026 15.5546 15.2297C15.5848 15.1569 15.6003 15.0788 15.6003 15C15.6003 14.9212 15.5848 14.8431 15.5546 14.7703C15.5245 14.6974 15.4802 14.6312 15.4245 14.5755L14.2245 13.3755ZM3 9C3 8.84087 2.93679 8.68826 2.82426 8.57574C2.71174 8.46321 2.55913 8.4 2.4 8.4H0.6C0.44087 8.4 0.288258 8.46321 0.175736 8.57574C0.0632141 8.68826 0 8.84087 0 9C0 9.15913 0.0632141 9.31174 0.175736 9.42426C0.288258 9.53679 0.44087 9.6 0.6 9.6H2.4C2.55913 9.6 2.71174 9.53679 2.82426 9.42426C2.93679 9.31174 3 9.15913 3 9ZM9 15C8.84087 15 8.68826 15.0632 8.57574 15.1757C8.46321 15.2883 8.4 15.4409 8.4 15.6V17.4C8.4 17.5591 8.46321 17.7117 8.57574 17.8243C8.68826 17.9368 8.84087 18 9 18C9.15913 18 9.31174 17.9368 9.42426 17.8243C9.53679 17.7117 9.6 17.5591 9.6 17.4V15.6C9.6 15.4409 9.53679 15.2883 9.42426 15.1757C9.31174 15.0632 9.15913 15 9 15ZM17.4 8.4H15.6C15.4409 8.4 15.2883 8.46321 15.1757 8.57574C15.0632 8.68826 15 8.84087 15 9C15 9.15913 15.0632 9.31174 15.1757 9.42426C15.2883 9.53679 15.4409 9.6 15.6 9.6H17.4C17.5591 9.6 17.7117 9.53679 17.8243 9.42426C17.9368 9.31174 18 9.15913 18 9C18 8.84087 17.9368 8.68826 17.8243 8.57574C17.7117 8.46321 17.5591 8.4 17.4 8.4Z" fill="white"/>
<path d="M9 5.039C10.0505 5.039 11.058 5.45631 11.8008 6.19913C12.5436 6.94195 12.9609 7.94943 12.9609 8.99994C12.9609 10.0504 12.5436 11.0579 11.8008 11.8007C11.058 12.5436 10.0505 12.9609 9 12.9609V5.039ZM9 4.12494C7.70707 4.12494 6.46709 4.63855 5.55285 5.55279C4.63861 6.46703 4.125 7.70701 4.125 8.99994C4.125 10.2929 4.63861 11.5328 5.55285 12.4471C6.46709 13.3613 7.70707 13.8749 9 13.8749C10.2929 13.8749 11.5329 13.3613 12.4471 12.4471C13.3614 11.5328 13.875 10.2929 13.875 8.99994C13.875 7.70701 13.3614 6.46703 12.4471 5.55279C11.5329 4.63855 10.2929 4.12494 9 4.12494Z" fill="white"/>
</svg>
