<svg width="39" height="370" viewBox="0 0 39 370" fill="none" xmlns="http://www.w3.org/2000/svg">
<g opacity="0.6" filter="url(#filter0_d_371_2100)">
<path d="M22 359.523H0.994141V351.877C0.994141 349.533 1.42383 347.731 2.2832 346.471C3.14258 345.212 4.35352 344.582 5.91602 344.582C7.04883 344.582 8.04004 344.968 8.88965 345.739C9.73926 346.501 10.3301 347.477 10.6621 348.669H10.7207C10.9062 347.175 11.458 345.983 12.376 345.095C13.2939 344.196 14.4121 343.747 15.7305 343.747C17.6543 343.747 19.1826 344.435 20.3154 345.812C21.4385 347.189 22 349.069 22 351.452V359.523ZM4.48047 354.792H9.46094V352.712C9.46094 351.735 9.22656 350.969 8.75781 350.412C8.2793 349.846 7.625 349.562 6.79492 349.562C5.25195 349.562 4.48047 350.715 4.48047 353.019L4.48047 354.792ZM12.9766 354.792H18.5137V352.228C18.5137 351.135 18.2598 350.28 17.752 349.665C17.2441 349.04 16.5508 348.727 15.6719 348.727C14.832 348.727 14.1729 349.035 13.6943 349.65C13.2158 350.256 12.9766 351.105 12.9766 352.199V354.792ZM15.8184 316.453L15.8184 326.238C17.9961 326.082 19.085 324.71 19.085 322.122C19.085 320.471 18.6943 319.021 17.9131 317.771H21.2529C21.9951 319.158 22.3662 320.96 22.3662 323.176C22.3662 325.598 21.6973 327.478 20.3594 328.816C19.0117 330.154 17.1367 330.823 14.7344 330.823C12.2441 330.823 10.2715 330.1 8.81641 328.655C7.36133 327.21 6.63379 325.432 6.63379 323.323C6.63379 321.135 7.2832 319.446 8.58203 318.254C9.88086 317.053 11.6436 316.453 13.8701 316.453H15.8184ZM12.9766 320.745C10.8281 320.745 9.75391 321.614 9.75391 323.352C9.75391 324.094 10.0615 324.739 10.6768 325.286C11.292 325.823 12.0586 326.15 12.9766 326.267L12.9766 320.745ZM21.6045 303.88H17.8545C18.3135 303.119 18.6553 302.362 18.8799 301.61C19.1045 300.848 19.2168 300.13 19.2168 299.456C19.2168 298.636 19.1045 297.992 18.8799 297.523C18.6553 297.044 18.3135 296.805 17.8545 296.805C17.5615 296.805 17.3174 296.912 17.1221 297.127C16.9268 297.342 16.7559 297.621 16.6094 297.962C16.4629 298.294 16.3311 298.661 16.2139 299.061C16.0967 299.461 15.9648 299.847 15.8184 300.218C15.5938 300.814 15.3545 301.341 15.1006 301.8C14.8369 302.249 14.5342 302.63 14.1924 302.943C13.8506 303.246 13.4551 303.48 13.0059 303.646C12.5566 303.802 12.0244 303.88 11.4092 303.88C10.5693 303.88 9.84668 303.7 9.24121 303.338C8.63574 302.967 8.14258 302.479 7.76172 301.873C7.37109 301.258 7.08789 300.56 6.91211 299.779C6.72656 298.988 6.63379 298.167 6.63379 297.318C6.63379 296.654 6.6875 295.98 6.79492 295.296C6.89258 294.613 7.03906 293.939 7.23438 293.275H10.8086C10.4668 293.861 10.2129 294.491 10.0469 295.164C9.87109 295.829 9.7832 296.483 9.7832 297.127C9.7832 297.43 9.8125 297.718 9.87109 297.992C9.91992 298.255 9.99805 298.49 10.1055 298.695C10.2031 298.9 10.335 299.061 10.501 299.178C10.6572 299.295 10.8379 299.354 11.043 299.354C11.3164 299.354 11.5508 299.266 11.7461 299.09C11.9414 298.914 12.1123 298.685 12.2588 298.402C12.3955 298.119 12.5225 297.806 12.6396 297.464C12.7471 297.113 12.8594 296.766 12.9766 296.424C13.1914 295.809 13.4258 295.252 13.6797 294.754C13.9336 294.256 14.2314 293.831 14.5732 293.48C14.915 293.119 15.3154 292.845 15.7744 292.66C16.2334 292.464 16.7803 292.367 17.415 292.367C18.3037 292.367 19.0654 292.562 19.7002 292.953C20.3252 293.333 20.8379 293.846 21.2383 294.491C21.6289 295.125 21.9121 295.863 22.0879 296.703C22.2734 297.533 22.3662 298.397 22.3662 299.295C22.3662 300.946 22.1123 302.474 21.6045 303.88ZM21.8242 269.819C22.1855 270.502 22.3662 271.532 22.3662 272.909C22.3662 276.171 20.6719 277.802 17.2832 277.802H10.4131V280.234H7V277.802H3.7627L2.44434 273.188H7V269.819H10.4131V273.188H16.4775C18.04 273.188 18.8213 272.568 18.8213 271.327C18.8213 270.839 18.6797 270.336 18.3965 269.819H21.8242ZM22.3662 227.974C22.3662 230.982 21.3896 233.433 19.4365 235.328C17.4639 237.222 14.9102 238.17 11.7754 238.17C8.46484 238.17 5.7793 237.208 3.71875 235.284C1.66797 233.37 0.642578 230.821 0.642578 227.637C0.642578 224.639 1.62402 222.218 3.58691 220.372C5.54004 218.516 8.12793 217.589 11.3506 217.589C14.6416 217.589 17.3027 218.551 19.334 220.474C19.4023 220.543 19.4707 220.606 19.5391 220.665C19.5977 220.723 19.6563 220.787 19.7148 220.855L24.8271 215.538V222.159L22 224.942C22.2441 225.86 22.3662 226.871 22.3662 227.974ZM4.71484 227.769C4.71484 229.42 5.33984 230.738 6.58984 231.724C7.83008 232.701 9.47559 233.189 11.5264 233.189C13.6064 233.189 15.252 232.701 16.4629 231.724C17.6738 230.748 18.2793 229.469 18.2793 227.887C18.2793 226.256 17.6934 224.962 16.5215 224.005C15.3301 223.048 13.6943 222.569 11.6143 222.569C9.44629 222.569 7.75195 223.033 6.53125 223.961C5.32031 224.879 4.71484 226.148 4.71484 227.769ZM22 189.489V194.103H19.7148V194.176C21.4824 195.319 22.3662 196.847 22.3662 198.761C22.3662 202.238 20.2617 203.976 16.0527 203.976H7V199.362H15.6426C17.7617 199.362 18.8213 198.522 18.8213 196.842C18.8213 196.012 18.5332 195.348 17.957 194.85C17.3711 194.352 16.5801 194.103 15.584 194.103H7V189.489H22ZM11.1748 164.993C10.8721 165.549 10.7207 166.199 10.7207 166.941C10.7207 167.947 11.0918 168.733 11.834 169.299C12.5664 169.866 13.5674 170.149 14.8369 170.149H22L22 174.778H7V170.149H9.7832V170.09C7.75195 169.358 6.73633 168.039 6.73633 166.135C6.73633 165.647 6.79492 165.266 6.91211 164.993H11.1748ZM22 139.544V143.924H19.8467V143.983C21.5264 144.988 22.3662 146.478 22.3662 148.45C22.3662 149.905 21.9561 151.053 21.1357 151.893C20.3057 152.723 19.2021 153.138 17.8252 153.138C14.915 153.138 13.2354 151.414 12.7861 147.967L12.2441 143.895C10.6035 143.895 9.7832 144.783 9.7832 146.561C9.7832 148.348 10.3154 150.047 11.3799 151.658H7.89355C7.56152 151.014 7.26855 150.135 7.01465 149.022C6.76074 147.899 6.63379 146.878 6.63379 145.96C6.63379 141.683 8.76758 139.544 13.0352 139.544H22ZM15.9063 143.895H14.8955L15.2471 146.619C15.4424 148.123 16.1211 148.875 17.2832 148.875C17.8105 148.875 18.2451 148.695 18.5869 148.333C18.9189 147.962 19.085 147.464 19.085 146.839C19.085 145.97 18.7871 145.262 18.1914 144.715C17.5859 144.168 16.8242 143.895 15.9063 143.895ZM22 110.595V115.209H13.665C11.3408 115.209 10.1787 116.039 10.1787 117.699C10.1787 118.5 10.4863 119.159 11.1016 119.677C11.7168 120.194 12.498 120.453 13.4453 120.453H22V125.082H7V120.453H9.37305V120.395C7.54688 119.291 6.63379 117.685 6.63379 115.575C6.63379 112.255 8.69434 110.595 12.8154 110.595H22ZM22 58.1012V63.2574L17.3271 64.7516V72.2223L22 73.7018V78.8287L0.994141 71.1823V65.5719L22 58.1012ZM13.6943 65.8356L6.63379 68.0914C6.10645 68.2574 5.47656 68.3746 4.74414 68.443V68.5602C5.35938 68.609 5.96973 68.7311 6.5752 68.9264L13.6943 71.2115V65.8356ZM20.2568 40.4457V40.5043H28.8994L28.8994 45.1332H7V40.5043H9.25586V40.4457C7.50781 39.3031 6.63379 37.6967 6.63379 35.6263C6.63379 33.683 7.30273 32.184 8.64063 31.1293C9.96875 30.0648 11.7803 29.5326 14.0752 29.5326C16.5752 29.5326 18.582 30.1527 20.0957 31.3929C21.6094 32.6234 22.3662 34.264 22.3662 36.3148C22.3662 38.1215 21.6631 39.4984 20.2568 40.4457ZM14.1045 40.5775H15.3057C16.3408 40.5775 17.1855 40.3041 17.8398 39.7572C18.4941 39.2103 18.8213 38.4926 18.8213 37.6039C18.8213 36.5492 18.416 35.7338 17.6055 35.1576C16.7852 34.5717 15.6279 34.2787 14.1338 34.2787C11.4971 34.2787 10.1787 35.3041 10.1787 37.3549C10.1787 38.3021 10.54 39.0785 11.2627 39.684C11.9756 40.2797 12.9229 40.5775 14.1045 40.5775ZM20.2568 11.0422V11.1008H28.8994V15.7297H7V11.1008H9.25586V11.0422C7.50781 9.8996 6.63379 8.29315 6.63379 6.22284C6.63379 4.27948 7.30273 2.78046 8.64063 1.72577C9.96875 0.661316 11.7803 0.129089 14.0752 0.129089C16.5752 0.129089 18.582 0.749207 20.0957 1.98944C21.6094 3.21991 22.3662 4.86053 22.3662 6.91132C22.3662 8.71796 21.6631 10.0949 20.2568 11.0422ZM14.1045 11.174H15.3057C16.3408 11.174 17.1855 10.9006 17.8398 10.3537C18.4941 9.80682 18.8213 9.08905 18.8213 8.20038C18.8213 7.14569 18.416 6.33026 17.6055 5.75409C16.7852 5.16815 15.6279 4.87518 14.1338 4.87518C11.4971 4.87518 10.1787 5.90057 10.1787 7.95135C10.1787 8.89862 10.54 9.67499 11.2627 10.2805C11.9756 10.8762 12.9229 11.174 14.1045 11.174Z" fill="white"/>
</g>
<defs>
<filter id="filter0_d_371_2100" x="0.642578" y="0.12915" width="38.1768" height="369.314" filterUnits="userSpaceOnUse" color-interpolation-filters="sRGB">
<feFlood flood-opacity="0" result="BackgroundImageFix"/>
<feColorMatrix in="SourceAlpha" type="matrix" values="0 0 0 0 0 0 0 0 0 0 0 0 0 0 0 0 0 0 127 0" result="hardAlpha"/>
<feOffset dx="4.96" dy="4.96"/>
<feGaussianBlur stdDeviation="2.48"/>
<feComposite in2="hardAlpha" operator="out"/>
<feColorMatrix type="matrix" values="0 0 0 0 0 0 0 0 0 0 0 0 0 0 0 0 0 0 0.25 0"/>
<feBlend mode="normal" in2="BackgroundImageFix" result="effect1_dropShadow_371_2100"/>
<feBlend mode="normal" in="SourceGraphic" in2="effect1_dropShadow_371_2100" result="shape"/>
</filter>
</defs>
</svg>
