<svg width="10" height="8" viewBox="0 0 10 8" fill="none" xmlns="http://www.w3.org/2000/svg">
<g opacity="0.6">
<path d="M2.27274 7.99987V3.8797L1.07449 2.71072L0 2.06201V7.27277C0 7.67508 0.305664 7.99987 0.681836 7.99987H2.27274Z" fill="white"/>
<path d="M7.72729 8.00007H9.31819C9.6955 8.00007 10 7.67407 10 7.27297V2.06226L8.783 2.80527L7.72729 3.8799V8.00007Z" fill="white"/>
<path d="M2.27279 3.87992L2.10974 2.27005L2.27279 0.729248L5.00006 2.91051L7.72732 0.729248L7.90971 2.18686L7.72732 3.87992L5.00006 6.06118L2.27279 3.87992Z" fill="white"/>
<path d="M7.72729 0.729129V3.8798L10 2.06211V1.09266C10 0.19352 9.03753 -0.319054 8.3637 0.220179L7.72729 0.729129Z" fill="white"/>
<path d="M0 2.06213L1.04527 2.89816L2.27274 3.87982V0.729148L1.63633 0.220198C0.961329 -0.319077 0 0.193539 0 1.09264V2.06209V2.06213Z" fill="white"/>
</g>
</svg>
