<svg width="16" height="16" viewBox="0 0 16 16" fill="none" xmlns="http://www.w3.org/2000/svg">
<path d="M8 15.5C6.975 15.5 6.00625 15.303 5.09375 14.909C4.18125 14.515 3.38425 13.9775 2.70275 13.2965C2.02175 12.6155 1.48425 11.8188 1.09025 10.9062C0.696251 9.99375 0.499501 9.025 0.500001 8C0.500001 6.9625 0.697001 5.9905 1.091 5.084C1.485 4.1775 2.0225 3.384 2.7035 2.7035C3.3845 2.022 4.181 1.4845 5.093 1.091C6.005 0.6975 6.974 0.5005 8 0.5C9.0375 0.5 10.0095 0.697 10.916 1.091C11.8225 1.485 12.616 2.0225 13.2965 2.7035C13.978 3.3845 14.5155 4.17825 14.909 5.08475C15.3025 5.99125 15.4995 6.963 15.5 8C15.5 9.025 15.303 9.99375 14.909 10.9062C14.515 11.8188 13.9775 12.6157 13.2965 13.2972C12.6155 13.9782 11.8218 14.5157 10.9153 14.9097C10.0088 15.3037 9.037 15.5005 8 15.5ZM8 13.9625C8.325 13.5125 8.60625 13.0438 8.84375 12.5563C9.08125 12.0688 9.275 11.55 9.425 11H6.575C6.725 11.55 6.91875 12.0688 7.15625 12.5563C7.39375 13.0438 7.675 13.5125 8 13.9625ZM6.05 13.6625C5.825 13.25 5.628 12.8217 5.459 12.3778C5.29 11.9338 5.1495 11.4745 5.0375 11H2.825C3.1875 11.625 3.64075 12.1687 4.18475 12.6312C4.72875 13.0937 5.3505 13.4375 6.05 13.6625ZM9.95 13.6625C10.65 13.4375 11.272 13.0937 11.816 12.6312C12.36 12.1687 12.813 11.625 13.175 11H10.9625C10.85 11.475 10.7095 11.9345 10.541 12.3785C10.3725 12.8225 10.1755 13.2505 9.95 13.6625ZM2.1875 9.5H4.7375C4.7 9.25 4.67175 9.003 4.65275 8.759C4.63375 8.515 4.6245 8.262 4.625 8C4.625 7.7375 4.6345 7.4845 4.6535 7.241C4.6725 6.9975 4.7005 6.7505 4.7375 6.5H2.1875C2.125 6.75 2.078 6.997 2.0465 7.241C2.015 7.485 1.9995 7.738 2 8C2 8.2625 2.01575 8.5155 2.04725 8.759C2.07875 9.0025 2.1255 9.2495 2.1875 9.5ZM6.2375 9.5H9.7625C9.8 9.25 9.82825 9.003 9.84725 8.759C9.86625 8.515 9.8755 8.262 9.875 8C9.875 7.7375 9.8655 7.4845 9.8465 7.241C9.8275 6.9975 9.7995 6.7505 9.7625 6.5H6.2375C6.2 6.75 6.17175 6.997 6.15275 7.241C6.13375 7.485 6.1245 7.738 6.125 8C6.125 8.2625 6.1345 8.5155 6.1535 8.759C6.1725 9.0025 6.2005 9.2495 6.2375 9.5ZM11.2625 9.5H13.8125C13.875 9.25 13.922 9.003 13.9535 8.759C13.985 8.515 14.0005 8.262 14 8C14 7.7375 13.9843 7.4845 13.9528 7.241C13.9213 6.9975 13.8745 6.7505 13.8125 6.5H11.2625C11.3 6.75 11.3282 6.997 11.3472 7.241C11.3663 7.485 11.3755 7.738 11.375 8C11.375 8.2625 11.3655 8.5155 11.3465 8.759C11.3275 9.0025 11.2995 9.2495 11.2625 9.5ZM10.9625 5H13.175C12.8125 4.375 12.3595 3.83125 11.816 3.36875C11.2725 2.90625 10.6505 2.5625 9.95 2.3375C10.175 2.75 10.372 3.17825 10.541 3.62225C10.71 4.06625 10.8505 4.5255 10.9625 5ZM6.575 5H9.425C9.275 4.45 9.08125 3.93125 8.84375 3.44375C8.60625 2.95625 8.325 2.4875 8 2.0375C7.675 2.4875 7.39375 2.95625 7.15625 3.44375C6.91875 3.93125 6.725 4.45 6.575 5ZM2.825 5H5.0375C5.15 4.525 5.29075 4.0655 5.45975 3.6215C5.62875 3.1775 5.8255 2.7495 6.05 2.3375C5.35 2.5625 4.728 2.90625 4.184 3.36875C3.64 3.83125 3.187 4.375 2.825 5Z" fill="white"/>
</svg>
