<svg width="36" height="29" viewBox="0 0 36 29" fill="none" xmlns="http://www.w3.org/2000/svg">
<g opacity="0.6">
<path d="M8.04167 28.5994V14.0209L3.8019 9.88468L0 7.58936V26.0267C0 27.4502 1.08154 28.5994 2.41256 28.5994H8.04167Z" fill="white"/>
<path d="M27.3414 28.6002H32.9705C34.3056 28.6002 35.3831 27.4467 35.3831 26.0275V7.59033L31.0768 10.2193L27.3414 14.0217V28.6002Z" fill="white"/>
<path d="M8.04163 14.0221L7.46472 8.32588L8.04163 2.87402L17.6916 10.592L27.3415 2.87402L27.9868 8.03154L27.3415 14.0221L17.6916 21.7401L8.04163 14.0221Z" fill="white"/>
<path d="M27.3416 2.87335V14.0214L35.3832 7.58987V4.15963C35.3832 0.978191 31.9776 -0.835458 29.5934 1.07252L27.3416 2.87335Z" fill="white"/>
<path d="M0 7.58993L3.69851 10.5481L8.04167 14.0215V2.87341L5.78986 1.07259C3.40149 -0.835538 0 0.978259 0 4.15955V7.58979V7.58993Z" fill="white"/>
</g>
</svg>
