<svg width="36" height="29" viewBox="0 0 36 29" fill="none" xmlns="http://www.w3.org/2000/svg">
<g opacity="0.6">
<path d="M8.04167 28.5998V14.0213L3.8019 9.88505L0 7.58972V26.027C0 27.4505 1.08154 28.5998 2.41256 28.5998H8.04167Z" fill="#272727"/>
<path d="M27.3414 28.6003H32.9705C34.3056 28.6003 35.3831 27.4469 35.3831 26.0276V7.59045L31.0768 10.2195L27.3414 14.0219V28.6003Z" fill="#272727"/>
<path d="M8.04163 14.022L7.46472 8.32576L8.04163 2.8739L17.6916 10.5919L27.3415 2.8739L27.9868 8.03141L27.3415 14.022L17.6916 21.74L8.04163 14.022Z" fill="#272727"/>
<path d="M27.3416 2.87347V14.0216L35.3832 7.58999V4.15975C35.3832 0.978314 31.9776 -0.835336 29.5934 1.07264L27.3416 2.87347Z" fill="#272727"/>
<path d="M0 7.59006L3.69851 10.5482L8.04167 14.0216V2.87354L5.78986 1.07271C3.40149 -0.835416 0 0.978381 0 4.15967V7.58991V7.59006Z" fill="#272727"/>
</g>
</svg>
