<svg width="36" height="36" viewBox="0 0 36 36" fill="none" xmlns="http://www.w3.org/2000/svg">
<path opacity="0.6" d="M10.4108 0H25.2717C30.933 0 35.5329 4.59982 35.5329 10.2611V25.1221C35.5329 27.8435 34.4518 30.4534 32.5274 32.3778C30.6031 34.3021 27.9931 35.3832 25.2717 35.3832H10.4108C4.74947 35.3832 0.149658 30.7834 0.149658 25.1221V10.2611C0.149658 7.53971 1.23074 4.92975 3.15507 3.00541C5.07941 1.08108 7.68936 0 10.4108 0ZM10.057 3.53832C8.36779 3.53832 6.74782 4.20933 5.55341 5.40375C4.35899 6.59816 3.68798 8.21814 3.68798 9.90729V25.4759C3.68798 28.9965 6.53632 31.8449 10.057 31.8449H25.6256C27.3147 31.8449 28.9347 31.1739 30.1291 29.9794C31.3235 28.785 31.9945 27.1651 31.9945 25.4759V9.90729C31.9945 6.38667 29.1462 3.53832 25.6256 3.53832H10.057ZM27.1293 6.19206C27.7159 6.19206 28.2783 6.42505 28.6931 6.83978C29.1078 7.2545 29.3408 7.817 29.3408 8.40351C29.3408 8.99002 29.1078 9.55251 28.6931 9.96724C28.2783 10.382 27.7159 10.615 27.1293 10.615C26.5428 10.615 25.9803 10.382 25.5656 9.96724C25.1509 9.55251 24.9179 8.99002 24.9179 8.40351C24.9179 7.817 25.1509 7.2545 25.5656 6.83978C25.9803 6.42505 26.5428 6.19206 27.1293 6.19206ZM17.8413 8.8458C20.1873 8.8458 22.4373 9.77776 24.0962 11.4367C25.7551 13.0956 26.6871 15.3455 26.6871 17.6916C26.6871 20.0376 25.7551 22.2876 24.0962 23.9465C22.4373 25.6054 20.1873 26.5374 17.8413 26.5374C15.4952 26.5374 13.2452 25.6054 11.5863 23.9465C9.92742 22.2876 8.99546 20.0376 8.99546 17.6916C8.99546 15.3455 9.92742 13.0956 11.5863 11.4367C13.2452 9.77776 15.4952 8.8458 17.8413 8.8458ZM17.8413 12.3841C16.4336 12.3841 15.0836 12.9433 14.0883 13.9386C13.093 14.934 12.5338 16.284 12.5338 17.6916C12.5338 19.0992 13.093 20.4492 14.0883 21.4446C15.0836 22.4399 16.4336 22.9991 17.8413 22.9991C19.2489 22.9991 20.5989 22.4399 21.5942 21.4446C22.5896 20.4492 23.1487 19.0992 23.1487 17.6916C23.1487 16.284 22.5896 14.934 21.5942 13.9386C20.5989 12.9433 19.2489 12.3841 17.8413 12.3841Z" fill="white"/>
</svg>
