<svg width="10" height="13" viewBox="0 0 10 13" fill="none" xmlns="http://www.w3.org/2000/svg">
<path d="M3.85714 12H6.14286H3.85714ZM1 4.85C1 3.82892 1.42143 2.84965 2.17157 2.12764C2.92172 1.40562 3.93913 1 5 1C6.06087 1 7.07828 1.40562 7.82843 2.12764C8.57857 2.84965 9 3.82892 9 4.85C9.00038 5.46989 8.84461 6.08063 8.54604 6.62989C8.24748 7.17914 7.81502 7.65054 7.28571 8.0037L6.976 9.415C6.935 9.67513 6.79848 9.91251 6.59121 10.0841C6.38394 10.2556 6.11965 10.35 5.84629 10.35H4.15371C3.88035 10.35 3.61606 10.2556 3.40879 10.0841C3.20152 9.91251 3.065 9.67513 3.024 9.415L2.71429 8.00975C2.1848 7.65534 1.75233 7.18284 1.4538 6.6326C1.15528 6.08236 0.999575 5.47074 1 4.85ZM2.71429 8.15H7.28571H2.71429Z" fill="#F0FCF9"/>
<path d="M3.85714 12H6.14286M2.71429 8.15H7.28571M1 4.85C1 3.82892 1.42143 2.84965 2.17157 2.12764C2.92172 1.40562 3.93913 1 5 1C6.06087 1 7.07828 1.40562 7.82843 2.12764C8.57857 2.84965 9 3.82892 9 4.85C9.00038 5.46989 8.84461 6.08063 8.54604 6.62989C8.24748 7.17914 7.81502 7.65054 7.28571 8.0037L6.976 9.415C6.935 9.67513 6.79848 9.91251 6.59121 10.0841C6.38394 10.2556 6.11965 10.35 5.84629 10.35H4.15371C3.88035 10.35 3.61606 10.2556 3.40879 10.0841C3.20153 9.91251 3.065 9.67513 3.024 9.415L2.71429 8.00975C2.1848 7.65534 1.75233 7.18284 1.4538 6.6326C1.15528 6.08236 0.999575 5.47074 1 4.85Z" stroke="#F0FCF9" stroke-width="0.5" stroke-linecap="round" stroke-linejoin="round"/>
</svg>
