<svg width="13" height="13" viewBox="0 0 13 13" fill="none" xmlns="http://www.w3.org/2000/svg">
<path d="M4.50495 0C2.01436 0 0 2.0345 0 4.55C0 6.097 0.765842 7.4555 1.93069 8.281V9.75C1.93069 10.1075 2.2203 10.4 2.57426 10.4H6.43564C6.7896 10.4 7.07921 10.1075 7.07921 9.75V8.281C8.24406 7.4555 9.0099 6.097 9.0099 4.55C9.0099 2.0345 6.99554 0 4.50495 0ZM2.57426 12.35C2.57426 12.7075 2.86386 13 3.21782 13H5.79208C6.14604 13 6.43564 12.7075 6.43564 12.35V11.7H2.57426V12.35ZM10.9406 7.15H9.65347L7.59406 13H8.81683L9.26733 11.7H11.3267L11.7772 13H13L10.9406 7.15ZM9.55693 10.8225L10.297 8.45L11.0371 10.8225H9.55693Z" fill="#F0FCF9"/>
</svg>
