<svg width="15" height="14" viewBox="0 0 15 14" fill="none" xmlns="http://www.w3.org/2000/svg">
<path d="M8.4375 0.875C8.4375 0.642936 8.33873 0.420376 8.16291 0.256282C7.9871 0.0921872 7.74864 0 7.5 0C7.25136 0 7.0129 0.0921872 6.83709 0.256282C6.66127 0.420376 6.5625 0.642936 6.5625 0.875V1.75C6.5625 1.98206 6.66127 2.20462 6.83709 2.36872C7.0129 2.53281 7.25136 2.625 7.5 2.625C7.74864 2.625 7.9871 2.53281 8.16291 2.36872C8.33873 2.20462 8.4375 1.98206 8.4375 1.75V0.875ZM12.8034 3.28737C12.9742 3.12235 13.0687 2.90132 13.0666 2.6719C13.0644 2.44248 12.9658 2.22302 12.792 2.06078C12.6182 1.89855 12.3831 1.80653 12.1373 1.80454C11.8914 1.80254 11.6546 1.89074 11.4778 2.05012L10.815 2.66875C10.6442 2.83378 10.5497 3.0548 10.5519 3.28423C10.554 3.51365 10.6526 3.73311 10.8264 3.89534C11.0002 4.05757 11.2354 4.1496 11.4812 4.15159C11.727 4.15358 11.9638 4.06539 12.1406 3.906L12.8034 3.28737ZM15 7C15 7.23206 14.9012 7.45462 14.7254 7.61872C14.5496 7.78281 14.3111 7.875 14.0625 7.875H13.125C12.8764 7.875 12.6379 7.78281 12.4621 7.61872C12.2863 7.45462 12.1875 7.23206 12.1875 7C12.1875 6.76794 12.2863 6.54538 12.4621 6.38128C12.6379 6.21719 12.8764 6.125 13.125 6.125H14.0625C14.3111 6.125 14.5496 6.21719 14.7254 6.38128C14.9012 6.54538 15 6.76794 15 7ZM2.85938 3.906C2.94586 3.98957 3.0493 4.05623 3.16368 4.10209C3.27806 4.14795 3.40108 4.17208 3.52556 4.17309C3.65004 4.1741 3.77349 4.15196 3.88871 4.10797C4.00392 4.06397 4.1086 3.999 4.19662 3.91685C4.28464 3.83469 4.35426 3.73699 4.4014 3.62946C4.44853 3.52193 4.47225 3.40671 4.47117 3.29052C4.47009 3.17434 4.44423 3.05952 4.39509 2.95277C4.34596 2.84602 4.27454 2.74947 4.185 2.66875L3.52219 2.05012C3.34537 1.89074 3.10856 1.80254 2.86275 1.80454C2.61694 1.80653 2.3818 1.89855 2.20798 2.06078C2.03416 2.22302 1.93557 2.44248 1.93343 2.6719C1.93129 2.90132 2.02579 3.12235 2.19656 3.28737L2.85938 3.906ZM2.8125 7C2.8125 7.23206 2.71373 7.45462 2.53791 7.61872C2.3621 7.78281 2.12364 7.875 1.875 7.875H0.9375C0.68886 7.875 0.450403 7.78281 0.274587 7.61872C0.098772 7.45462 0 7.23206 0 7C0 6.76794 0.098772 6.54538 0.274587 6.38128C0.450403 6.21719 0.68886 6.125 0.9375 6.125H1.875C2.12364 6.125 2.3621 6.21719 2.53791 6.38128C2.71373 6.54538 2.8125 6.76794 2.8125 7ZM5.625 12.25V11.375H9.375V12.25C9.375 12.7141 9.17746 13.1592 8.82582 13.4874C8.47419 13.8156 7.99728 14 7.5 14C7.00272 14 6.52581 13.8156 6.17418 13.4874C5.82254 13.1592 5.625 12.7141 5.625 12.25ZM9.375 10.5C9.38906 10.2025 9.57 9.93475 9.82219 9.74837C10.4341 9.29797 10.8804 8.68084 11.0992 7.98276C11.318 7.28468 11.2983 6.54033 11.0429 5.85316C10.7875 5.166 10.3091 4.57016 9.67415 4.14848C9.03921 3.72679 8.27928 3.5002 7.5 3.5002C6.72072 3.5002 5.96079 3.72679 5.32585 4.14848C4.6909 4.57016 4.21249 5.166 3.9571 5.85316C3.70171 6.54033 3.68203 7.28468 3.9008 7.98276C4.11957 8.68084 4.56592 9.29797 5.17781 9.74837C5.43094 9.93475 5.61094 10.2025 5.62406 10.5H9.37594H9.375Z" fill="#F0FCF9"/>
</svg>
