<svg width="19" height="18" viewBox="0 0 19 18" fill="none" xmlns="http://www.w3.org/2000/svg">
<path d="M9.0375 2.4V0.6C9.0375 0.44087 9.0994 0.288258 9.20958 0.175736C9.31975 0.0632141 9.46919 0 9.625 0C9.78082 0 9.93025 0.0632141 10.0404 0.175736C10.1506 0.288258 10.2125 0.44087 10.2125 0.6V2.4C10.2125 2.55913 10.1506 2.71174 10.0404 2.82426C9.93025 2.93679 9.78082 3 9.625 3C9.46919 3 9.31975 2.93679 9.20958 2.82426C9.0994 2.71174 9.0375 2.55913 9.0375 2.4ZM4.50934 4.6245C4.61958 4.73708 4.7691 4.80033 4.925 4.80033C5.0809 4.80033 5.23042 4.73708 5.34066 4.6245C5.4509 4.51192 5.51283 4.35922 5.51283 4.2C5.51283 4.04078 5.4509 3.88808 5.34066 3.7755L4.16566 2.5755C4.05542 2.46292 3.9059 2.39967 3.75 2.39967C3.5941 2.39967 3.44458 2.46292 3.33434 2.5755C3.22411 2.68808 3.16217 2.84078 3.16217 3C3.16217 3.15922 3.22411 3.31192 3.33434 3.4245L4.50934 4.6245ZM4.50934 13.3755L3.33434 14.5755C3.22411 14.6881 3.16217 14.8408 3.16217 15C3.16217 15.1592 3.22411 15.3119 3.33434 15.4245C3.44458 15.5371 3.5941 15.6003 3.75 15.6003C3.9059 15.6003 4.05542 15.5371 4.16566 15.4245L5.34066 14.2245C5.39524 14.1688 5.43854 14.1026 5.46808 14.0297C5.49762 13.9569 5.51283 13.8788 5.51283 13.8C5.51283 13.7212 5.49762 13.6431 5.46808 13.5703C5.43854 13.4974 5.39524 13.4312 5.34066 13.3755C5.28607 13.3198 5.22127 13.2755 5.14995 13.2454C5.07863 13.2152 5.00219 13.1997 4.925 13.1997C4.84781 13.1997 4.77137 13.2152 4.70005 13.2454C4.62873 13.2755 4.56393 13.3198 4.50934 13.3755ZM14.325 4.8C14.4022 4.80006 14.4786 4.78459 14.5499 4.75448C14.6212 4.72437 14.6861 4.6802 14.7407 4.6245L15.9157 3.4245C16.0259 3.31192 16.0878 3.15922 16.0878 3C16.0878 2.84078 16.0259 2.68808 15.9157 2.5755C15.8054 2.46292 15.6559 2.39967 15.5 2.39967C15.3441 2.39967 15.1946 2.46292 15.0843 2.5755L13.9093 3.7755C13.8271 3.85941 13.7711 3.96637 13.7484 4.08282C13.7256 4.19927 13.7373 4.31998 13.7818 4.42967C13.8263 4.53937 13.9017 4.63311 13.9984 4.69903C14.0951 4.76496 14.2087 4.80009 14.325 4.8ZM14.7407 13.3755C14.6304 13.2629 14.4809 13.1997 14.325 13.1997C14.1691 13.1997 14.0196 13.2629 13.9093 13.3755C13.7991 13.4881 13.7372 13.6408 13.7372 13.8C13.7372 13.9592 13.7991 14.1119 13.9093 14.2245L15.0843 15.4245C15.1389 15.4802 15.2037 15.5245 15.275 15.5546C15.3464 15.5848 15.4228 15.6003 15.5 15.6003C15.5772 15.6003 15.6536 15.5848 15.725 15.5546C15.7963 15.5245 15.8611 15.4802 15.9157 15.4245C15.9702 15.3688 16.0135 15.3026 16.0431 15.2297C16.0726 15.1569 16.0878 15.0788 16.0878 15C16.0878 14.9212 16.0726 14.8431 16.0431 14.7703C16.0135 14.6974 15.9702 14.6312 15.9157 14.5755L14.7407 13.3755ZM3.75 9C3.75 8.84087 3.6881 8.68826 3.57793 8.57574C3.46775 8.46321 3.31831 8.4 3.1625 8.4H1.4C1.24419 8.4 1.09475 8.46321 0.984575 8.57574C0.874397 8.68826 0.8125 8.84087 0.8125 9C0.8125 9.15913 0.874397 9.31174 0.984575 9.42426C1.09475 9.53679 1.24419 9.6 1.4 9.6H3.1625C3.31831 9.6 3.46775 9.53679 3.57793 9.42426C3.6881 9.31174 3.75 9.15913 3.75 9ZM9.625 15C9.46919 15 9.31975 15.0632 9.20958 15.1757C9.0994 15.2883 9.0375 15.4409 9.0375 15.6V17.4C9.0375 17.5591 9.0994 17.7117 9.20958 17.8243C9.31975 17.9368 9.46919 18 9.625 18C9.78082 18 9.93025 17.9368 10.0404 17.8243C10.1506 17.7117 10.2125 17.5591 10.2125 17.4V15.6C10.2125 15.4409 10.1506 15.2883 10.0404 15.1757C9.93025 15.0632 9.78082 15 9.625 15ZM17.85 8.4H16.0875C15.9317 8.4 15.7823 8.46321 15.6721 8.57574C15.5619 8.68826 15.5 8.84087 15.5 9C15.5 9.15913 15.5619 9.31174 15.6721 9.42426C15.7823 9.53679 15.9317 9.6 16.0875 9.6H17.85C18.0058 9.6 18.1552 9.53679 18.2654 9.42426C18.3756 9.31174 18.4375 9.15913 18.4375 9C18.4375 8.84087 18.3756 8.68826 18.2654 8.57574C18.1552 8.46321 18.0058 8.4 17.85 8.4Z" fill="#272727"/>
<path d="M9.62512 5.03906C10.6537 5.03906 11.6402 5.45637 12.3676 6.19919C13.0949 6.94201 13.5035 7.94949 13.5035 9C13.5035 10.0505 13.0949 11.058 12.3676 11.8008C11.6402 12.5436 10.6537 12.9609 9.62512 12.9609V5.03906ZM9.62512 4.125C8.35913 4.125 7.14499 4.63861 6.24979 5.55285C5.3546 6.46709 4.85168 7.70707 4.85168 9C4.85168 10.2929 5.3546 11.5329 6.24979 12.4471C7.14499 13.3614 8.35913 13.875 9.62512 13.875C10.8911 13.875 12.1053 13.3614 13.0005 12.4471C13.8956 11.5329 14.3986 10.2929 14.3986 9C14.3986 7.70707 13.8956 6.46709 13.0005 5.55285C12.1053 4.63861 10.8911 4.125 9.62512 4.125Z" fill="#272727"/>
</svg>
