<svg width="13" height="19" viewBox="0 0 13 19" fill="none" xmlns="http://www.w3.org/2000/svg">
<path d="M6.25493 9.10249C5.67522 9.10249 5.11924 8.87286 4.70932 8.46413C4.2994 8.0554 4.06911 7.50103 4.06911 6.923C4.06911 6.34496 4.2994 5.7906 4.70932 5.38187C5.11924 4.97314 5.67522 4.74351 6.25493 4.74351C6.83464 4.74351 7.39062 4.97314 7.80054 5.38187C8.21046 5.7906 8.44075 6.34496 8.44075 6.923C8.44075 7.20921 8.38421 7.49263 8.27436 7.75705C8.16451 8.02148 8.00351 8.26174 7.80054 8.46413C7.59756 8.66651 7.3566 8.82705 7.09141 8.93658C6.82621 9.04611 6.54198 9.10249 6.25493 9.10249ZM6.25493 0.820435C4.63173 0.820435 3.07501 1.46338 1.92723 2.60783C0.779458 3.75229 0.134644 5.3045 0.134644 6.923C0.134644 11.4999 6.25493 18.2563 6.25493 18.2563C6.25493 18.2563 12.3752 11.4999 12.3752 6.923C12.3752 5.3045 11.7304 3.75229 10.5826 2.60783C9.43485 1.46338 7.87813 0.820435 6.25493 0.820435Z" fill="white"/>
</svg>
