<svg width="149" height="146" viewBox="0 0 149 146" fill="none" xmlns="http://www.w3.org/2000/svg">
<g filter="url(#filter0_d_65_1315)">
<path fill-rule="evenodd" clip-rule="evenodd" d="M119.059 91.8602C116.593 96.252 95.9753 100.522 89.6083 102.832C74.757 108.221 67.6867 115.243 56.9806 125.684C55.9659 126.674 55.5231 127.384 54.3661 128.273C46.0558 134.658 32.126 133.935 37.9478 113.7C40.2643 105.649 42.193 104.956 44.8932 100.505C40.1757 104.15 33.6744 116.495 35.0872 125.908C36.5294 135.516 46.3185 142.554 55.6897 135.736C62.6152 130.697 64.1879 127.433 69.5192 122.899C71.2182 121.454 72.6724 120.053 74.4633 118.658C81.4798 113.189 89.917 110.773 99.5455 107.895C112.162 104.123 118.006 104.072 120.731 93.2279C122.07 87.8999 122.162 83.1977 120.318 78.0475C117.252 69.4852 108.914 58.6332 100.85 66.287C99.2809 67.7765 98.2055 68.9984 97.21 71.5495C93.9741 79.841 95.2804 86.6891 106.502 86.4925C108.992 86.4487 112.48 86.2206 114.616 87.1224C116.367 87.8623 118.421 90.0104 119.059 91.8602ZM99.6815 76.2331C102.208 77.7427 108 77.6579 111.338 77.3559C110.707 76.0603 107.635 73.4208 106.102 72.9249C103.076 71.947 100.12 74.1572 99.6815 76.2331Z" fill="white"/>
<path fill-rule="evenodd" clip-rule="evenodd" d="M121.575 122.726C138.245 107.274 132.224 74.4492 130.168 53.1883C129.177 42.9407 127.889 36.6874 131.334 27.5191C132.254 25.0692 133.488 23.017 134.362 20.8C132.386 21.9613 129.056 26.2104 127.477 28.8957C120.593 40.6037 123.849 55.0956 125.102 68.8985C126.278 81.8403 128.516 99.1585 125.565 111.548C123.983 118.189 122.348 120.007 121.575 122.726Z" fill="white"/>
<path fill-rule="evenodd" clip-rule="evenodd" d="M80.8021 101.942C82.2891 100.905 84.5355 97.8647 85.7567 95.9328C87.1731 93.6915 88.3547 91.1405 89.3101 88.4595C96.8645 67.2619 86.6605 27.3995 88.6102 14.1536C89.0017 11.4922 89.7089 9.11736 90.6053 6.70908C91.5108 4.27753 92.8441 2.15474 93.6244 7.62939e-06C88.1911 3.86223 83.8897 12.1397 82.8551 19.5073C81.7345 27.4868 83.6118 39.8656 84.3387 48.0797C85.4644 60.7991 87.8178 78.5922 84.8316 90.7211C83.6849 95.3784 82.2523 98.0786 80.8021 101.942Z" fill="white"/>
<path fill-rule="evenodd" clip-rule="evenodd" d="M71.2392 10.4707C69.7278 11.6234 67.8234 13.8108 67.5774 16.6104C74.901 8.44898 80.3455 10.37 81.5997 7.94415C81.8762 7.40947 82.32 6.18335 82.4949 5.56919C80.3481 5.93351 78.2359 7.58905 76.361 7.93542C74.0461 8.36322 70.9437 6.7669 69.8922 5.54266C70.119 5.31973 69.9652 5.38564 70.4452 5.0907L73.3576 4.35703C75.051 4.45037 75.1439 5.63937 75.7818 6.82698C78.0206 0.507492 75.2656 -0.742849 70.6657 2.83089C63.1483 8.67159 69.7623 9.39576 71.2392 10.4707Z" fill="white"/>
<path fill-rule="evenodd" clip-rule="evenodd" d="M134.744 124.273C133.233 125.426 131.329 127.614 131.083 130.413C138.406 122.252 143.851 124.173 145.105 121.747C145.381 121.212 145.825 119.986 146 119.372C143.853 119.736 141.741 121.392 139.866 121.738C137.551 122.166 134.449 120.569 133.397 119.345C133.624 119.122 133.47 119.188 133.95 118.893L136.863 118.16C138.556 118.253 138.649 119.442 139.287 120.63C141.526 114.31 138.771 113.06 134.171 116.634C126.654 122.474 133.267 123.198 134.744 124.273Z" fill="white"/>
<path fill-rule="evenodd" clip-rule="evenodd" d="M107.837 49.4649C108.894 50.4326 110.12 51.3425 111.206 52.2274C112.474 53.2605 113.526 54.3365 114.775 55.0348C116.592 53.5638 117.915 50.6733 119.683 49.0684L118.145 47.4374C116.937 46.4378 113.988 43.8305 112.783 43.3522C111.573 45.1259 108.627 47.8613 107.837 49.4649Z" fill="white"/>
<path fill-rule="evenodd" clip-rule="evenodd" d="M95.435 49.2684C96.0155 50.0869 101.468 54.6552 102.582 55.1105C103.624 53.246 106.618 50.3758 107.239 48.5042C106.142 47.9182 104.915 46.8238 103.945 45.985C103.057 45.2167 101.618 43.9208 100.679 43.3978L95.435 49.2684Z" fill="white"/>
<path d="M75.2081 129.793C75.1527 129.77 75.1124 129.753 75.0815 129.741C74.6052 129.541 74.1971 129.443 73.8601 129.443C72.9542 129.443 72.3017 129.834 71.9029 130.613C71.504 131.395 71.3061 132.67 71.3061 134.44C71.3061 136.47 71.9152 137.823 73.1334 138.495H73.0438C72.4037 138.316 71.9184 137.864 71.5845 137.142C71.2504 136.418 71.0835 135.462 71.0835 134.275C71.0835 132.502 71.2906 131.224 71.708 130.442C72.1224 129.66 72.8056 129.269 73.7518 129.269C74.3239 129.269 74.8093 129.422 75.2081 129.732V129.793ZM76.3585 138.495C76.9026 139.02 77.5552 139.28 78.3157 139.28C78.727 139.28 79.1846 139.173 79.6918 138.956L79.7566 138.988C79.472 139.356 79.2403 139.692 79.0579 139.99L78.3869 141.12L78.3528 141.186C77.3541 141.024 76.4882 140.523 75.7525 139.686C75.1311 139.961 74.5033 140.097 73.8755 140.097C72.8675 140.097 72.0638 139.848 71.4669 139.353L71.5039 139.295C72.311 139.668 73.0624 139.854 73.7488 139.854C74.4198 139.854 75.0319 139.741 75.5885 139.515C75.5639 139.48 75.5452 139.457 75.533 139.44C75.4495 139.309 75.369 139.211 75.2887 139.141C74.726 139.338 74.1478 139.437 73.5478 139.437C72.1101 139.437 70.9165 138.895 69.9672 137.812C69.018 136.728 68.5417 135.37 68.5417 133.736C68.5417 132.058 69.0057 130.7 69.9332 129.66C70.861 128.623 72.0791 128.104 73.5911 128.104C75.0599 128.104 76.241 128.617 77.1408 129.64C78.0373 130.662 78.4859 132.012 78.4859 133.687C78.4859 134.703 78.3312 135.575 78.019 136.294C77.7096 137.015 77.181 137.725 76.4389 138.42L76.3585 138.495ZM75.8884 137.223C76.2967 136.398 76.5008 135.196 76.5008 133.617C76.5008 130.393 75.4834 128.782 73.4488 128.782C71.464 128.782 70.4712 130.477 70.4712 133.863C70.4712 135.384 70.7464 136.578 71.2968 137.444C71.844 138.31 72.5984 138.741 73.5601 138.741C73.9652 138.741 74.358 138.66 74.7383 138.495C74.3796 137.873 73.9065 137.559 73.316 137.559C73.2726 137.559 73.2014 137.565 73.0964 137.58L73.7302 136.85C74.1724 136.969 74.7073 137.264 75.335 137.733L75.4431 137.817C75.5175 137.733 75.601 137.626 75.6967 137.496L75.7431 137.435C75.338 137.067 74.8093 136.777 74.1569 136.56L74.2836 136.366C74.8093 136.552 75.3041 136.809 75.7711 137.139L75.8884 137.223ZM76.612 128.704C77.4499 129.031 78.1147 129.651 78.6125 130.561C79.1105 131.468 79.3577 132.525 79.3577 133.733C79.3577 135.538 78.795 137.09 77.6725 138.385C78.0157 138.663 78.5507 138.831 79.2742 138.886V138.938C79.0454 138.97 78.8753 138.985 78.7579 138.985C78.2229 138.985 77.7344 138.799 77.3016 138.429C78.5104 137.279 79.1166 135.706 79.1166 133.707C79.1166 131.526 78.2817 129.874 76.612 128.753V128.704ZM80.4337 139.379C79.9452 139.978 79.4846 140.659 79.0486 141.415L78.996 141.511L78.7763 141.407C78.9836 141.024 79.2155 140.653 79.4753 140.297L80.1801 139.33L80.2267 139.26L80.4337 139.379ZM90.7673 128.296L89.1471 129.512V134.999C89.1471 136.007 89.113 136.734 89.042 137.174C88.974 137.618 88.8349 137.98 88.6306 138.264C88.1114 138.988 87.1033 139.35 85.6067 139.35C84.0237 139.35 82.9199 138.988 82.2921 138.264C81.7913 137.69 81.5407 136.595 81.5407 134.973V129.333L80.3102 128.296H84.5893L83.3589 129.425V134.981L83.3775 136.291C83.3775 137.137 83.5629 137.733 83.9371 138.09C84.3112 138.443 84.9419 138.62 85.8294 138.62C86.8034 138.62 87.4774 138.35 87.8455 137.812C88.1391 137.377 88.2876 136.441 88.2876 135.008L88.3245 129.512L86.9148 128.296H90.7673ZM91.0828 128.875L89.8522 129.834V135.109C89.8522 136.835 89.7067 137.959 89.4192 138.487C88.8285 139.55 87.6721 140.08 85.9561 140.08C84.472 140.08 83.3557 139.732 82.6074 139.04L82.6818 139.075L82.997 139.243C83.7424 139.651 84.6947 139.854 85.8604 139.854C87.5269 139.854 88.6338 139.361 89.1749 138.376C89.4656 137.846 89.6109 136.777 89.6109 135.17V129.732L90.9467 128.695L91.0828 128.875ZM84.9699 128.753L84.0824 129.596V135.908V136.493L84.3544 137.571C84.4936 137.786 84.7565 138.046 85.1429 138.353L85.1614 138.429C84.6544 138.237 84.305 137.956 84.1133 137.588C83.9184 137.221 83.8227 136.653 83.8227 135.882V129.512L84.843 128.577L84.9699 128.753ZM92.0628 129.315C93.4975 128.542 95.0373 128.157 96.6885 128.157C97.9686 128.157 99.026 128.417 99.8578 128.939C100.69 129.457 101.104 130.121 101.104 130.926C101.104 131.581 100.832 132.163 100.288 132.67C99.7436 133.177 99.0014 133.542 98.0584 133.771C98.4726 134.845 99.0385 135.891 99.7559 136.911C100.47 137.927 101.187 138.709 101.908 139.254L101.772 139.295C100.872 139.584 99.9876 139.99 99.125 140.517L98.9892 140.601L98.9457 140.329C98.5593 138.139 98.0182 136.285 97.3225 134.761L97.2853 134.677C96.871 134.857 96.3112 135.002 95.6094 135.109L95.5384 135.118V138.293L97.1337 139.888H92.4431L92.2979 139.663H96.6174L95.2972 138.353V134.932L95.4888 134.906C96.1784 134.839 96.7565 134.712 97.2235 134.524C97.1864 134.457 97.1646 134.414 97.1585 134.396L97.0688 134.15C97.0627 134.133 97.0472 134.101 97.0225 134.049C96.6483 134.15 95.9402 134.26 94.8952 134.379L94.7962 134.396V138.182L95.8381 139.193H91.8278L93.0153 138.182V135.332L92.9409 135.341C92.5886 135.413 92.27 135.494 91.9825 135.587L91.9083 135.61L91.8278 135.442C92.0969 135.346 92.3073 135.28 92.4588 135.245L92.9409 135.135L93.0153 135.118V134.677C92.6566 134.677 92.2113 134.75 91.6763 134.897L91.5745 134.932C91.5867 134.854 91.6454 134.669 91.7568 134.379C91.7692 134.359 91.8094 134.231 91.8835 133.999C91.8897 133.982 91.899 133.956 91.9083 133.921C92.1804 133.936 92.3937 133.945 92.5452 133.945C92.706 133.945 92.8574 133.936 92.9967 133.921V129.741C92.7183 129.582 92.4308 129.449 92.1372 129.341L92.0628 129.315ZM94.7962 129.095V133.675C94.9725 133.675 95.1394 133.66 95.2972 133.634V129.451C95.631 129.365 96.0299 129.321 96.4938 129.321C97.675 129.321 98.4758 129.686 98.8994 130.413C98.4511 130.068 98.0584 129.834 97.7214 129.706C97.3843 129.576 96.9792 129.512 96.5091 129.512C96.1381 129.512 95.8165 129.55 95.5384 129.623V133.634L95.6373 133.617C96.8278 133.414 97.712 133.093 98.2902 132.655C98.8684 132.218 99.1559 131.65 99.1559 130.949C99.1559 130.323 98.8961 129.805 98.3737 129.396C97.8542 128.988 97.1987 128.782 96.404 128.782C95.7671 128.782 95.2322 128.887 94.7962 129.095ZM99.1807 134.193C99.5609 135.358 100.232 136.499 101.2 137.615C101.803 138.31 102.566 138.936 103.491 139.489C102.109 139.834 100.81 140.361 99.5951 141.068L99.5148 141.12L99.3321 140.984C100.486 140.277 101.716 139.755 103.021 139.422C101.28 138.336 99.9135 136.598 98.9177 134.211L98.8623 134.066C100.702 133.409 101.623 132.406 101.623 131.059C101.623 130.503 101.388 129.898 100.918 129.24C101.525 129.761 101.827 130.422 101.827 131.227C101.827 132.531 100.946 133.519 99.1807 134.193ZM111.818 128.296L110.875 129.298L112.362 133.006L112.724 132.818L111.382 129.469L112.343 128.432L112.578 128.524L111.663 129.521L112.931 132.69C113.005 132.641 113.048 132.609 113.058 132.597L113.358 132.36C113.54 132.224 113.654 132.128 113.701 132.07C113.858 132.716 114.1 133.292 114.427 133.802C114.251 133.794 114.124 133.788 114.047 133.788C113.472 133.788 113.051 133.872 112.788 134.04L114.427 138.208L115.785 139.193H111.212L112.461 138.208L111.456 135.729C110.791 136.357 110.281 136.954 109.925 137.522L109.715 137.47C110.074 136.916 110.603 136.297 111.311 135.61L111.382 135.526L111.212 135.152C110.491 135.714 109.898 136.363 109.428 137.105L109.264 136.859C108.948 136.389 108.546 135.853 108.058 135.254L107.968 135.152C107.489 136.12 107.251 136.908 107.251 137.513C107.251 137.87 107.316 138.171 107.449 138.417C107.579 138.663 107.897 139.075 108.401 139.651C108.441 139.703 108.509 139.782 108.602 139.888H103.711L103.528 139.663H108.141L107.984 139.483C107.585 139.031 107.322 138.678 107.195 138.426C107.071 138.174 107.01 137.878 107.01 137.539C107.01 136.963 107.263 136.102 107.767 134.958L107.371 134.567C107.291 134.747 107.192 135.013 107.071 135.364L106.772 136.23C106.608 136.694 106.527 137.079 106.527 137.386C106.527 137.702 106.586 137.965 106.7 138.174C106.815 138.385 107.056 138.669 107.424 139.031C107.461 139.066 107.514 139.121 107.588 139.193H103.058C103.921 138.773 104.607 138.211 105.111 137.505C105.615 136.798 106.113 135.706 106.608 134.228L106.645 134.109C106.326 133.855 105.863 133.698 105.26 133.64C105.59 133.177 105.847 132.693 106.03 132.189C106.113 132.264 106.166 132.308 106.184 132.325L106.592 132.681C106.728 132.806 106.895 132.933 107.09 133.064L107.251 132.69L107.143 132.606C106.843 132.357 106.589 132.157 106.382 132.004L106.302 131.943L106.447 131.757C106.765 131.954 107.075 132.183 107.371 132.444L108.602 129.266L107.64 128.296H111.818ZM109.579 131.024L108.583 133.49C108.639 133.545 108.667 133.579 108.673 133.591L109.047 133.982C109.245 134.185 109.499 134.501 109.808 134.932L109.898 135.06C110.157 134.753 110.467 134.451 110.822 134.15L109.579 131.024ZM109.174 130.04L107.733 133.608C108.191 134.049 108.587 134.486 108.921 134.915L109.335 135.459C109.341 135.465 109.372 135.5 109.428 135.569C109.48 135.517 109.511 135.486 109.517 135.474L109.644 135.332C109.663 135.309 109.697 135.271 109.743 135.222C109.32 134.611 108.828 134.057 108.268 133.565L109.428 130.694L109.174 130.04ZM114.498 132.479C114.631 132.988 114.965 133.687 115.494 134.576C115.364 134.559 115.287 134.55 115.269 134.55L114.536 134.492C114.205 134.463 113.961 134.448 113.812 134.448C113.787 134.448 113.726 134.451 113.63 134.457L115.142 138.22L117.164 139.888H111.917L111.747 139.663H116.555L114.925 138.313L113.311 134.312C113.518 134.263 113.753 134.24 114.019 134.24C114.344 134.24 114.709 134.263 115.108 134.312L114.996 134.127C114.61 133.458 114.35 132.855 114.217 132.316L114.498 132.479ZM127.806 128.296C127.12 128.629 126.675 128.936 126.474 129.214C126.174 129.645 126.023 130.294 126.023 131.161V131.714V139.193H124.492L120.216 131.415V136.027V136.409L120.315 137.632C120.435 138.197 120.71 138.617 121.14 138.889L121.211 138.947C120.386 138.687 119.974 137.852 119.974 136.441V135.645V130.998L119.492 130.106V134.999C119.492 136.552 119.6 137.565 119.817 138.046C120.033 138.53 120.54 138.881 121.338 139.101L122.126 139.888H117.22L117.074 139.663H121.61L121.14 139.193H116.92C117.659 138.944 118.147 138.611 118.388 138.191C118.63 137.774 118.75 137.053 118.75 136.036V129.24L117.544 128.296H122.126L120.84 129.104L125.225 137.122V136.102L121.465 129.24L122.733 128.432L122.906 128.594L121.783 129.307L125.225 135.645V131.679V131.23C125.225 130.242 125.138 129.585 124.968 129.252C124.795 128.921 124.371 128.603 123.694 128.296H127.806ZM128.125 128.924L127.961 129.179C127.494 129.281 127.179 129.472 127.015 129.744C126.848 130.019 126.765 130.483 126.765 131.135V139.888H124.82L124.702 139.663H126.524V131.222C126.524 130.422 126.635 129.866 126.854 129.55C127.074 129.234 127.497 129.026 128.125 128.924Z" fill="white"/>
<path fill-rule="evenodd" clip-rule="evenodd" d="M18.7716 65.804L18.0511 67.7329C17.802 68.3814 17.5576 69.0228 17.3156 69.6779C16.8363 70.9765 16.3452 72.2613 15.8569 73.5414L10.0074 88.9791C9.69938 89.8018 8.71664 92.2261 8.55807 92.8525C8.02319 94.9652 10.0858 94.9042 11.6838 94.7666C14.5457 94.5199 17.6515 93.4922 20.1855 92.6348C22.851 91.7328 25.3928 90.7659 28.114 89.919C29.7055 89.4238 30.97 89.19 32.7107 89.5582C34.6551 89.9697 36.5509 91.0678 37.9985 92.2359C38.2265 92.4198 38.5015 92.6304 38.7141 92.8404L40.7336 94.8615L41.9368 96.3432L42.8454 95.2879C43.3348 94.6761 45.1824 92.9245 45.911 92.3912C46.4909 91.9668 46.8175 91.6809 47.4724 91.2714C50.0541 89.6571 52.2359 88.9279 55.8271 89.8114C61.1706 91.126 66.3665 94.3748 72.0267 94.8663C73.8497 95.0246 75.444 95.055 75.0868 92.8401C74.9209 91.812 74.1369 89.9108 73.7395 88.8657C72.7662 86.3055 71.8103 83.7344 70.8227 81.179L66.4332 69.6431C66.2314 69.1184 65.1014 65.9945 64.9444 65.8051C63.6754 66.029 62.8169 66.1211 61.4658 66.0364C60.3944 65.9692 59.2755 65.766 58.2714 65.5228C56.3436 65.0558 54.4085 64.3885 52.6431 63.7066C51.7872 63.3761 50.791 62.9909 49.8929 62.7352C48.7128 62.3993 47.9905 62.1782 46.7048 62.5363C45.3072 62.9253 44.1589 63.6488 43.0208 64.4132L41.9368 65.2219L40.8216 64.484C39.7167 63.7786 38.4084 62.9808 37.1454 62.5591C35.2343 61.9207 32.7679 63.0768 31.1688 63.6842C28.2496 64.793 25.5445 65.8071 22.3023 65.9809C21.6844 66.0141 21.0705 66.0281 20.452 65.9966C19.8507 65.966 19.3254 65.8503 18.7716 65.804ZM19.9908 68.1868C19.92 68.5199 15.4511 80.4443 15.289 80.8957C14.5237 83.0268 13.7273 85.1423 12.9565 87.2858C12.6247 88.2083 12.0378 89.6176 11.8945 90.5845C11.7883 91.3011 11.9298 91.8388 12.4722 92.0735C13.9144 92.6974 16.3441 91.5681 17.6489 91.0582C20.9495 89.768 23.6318 88.5099 27.2321 87.5566C31.5804 86.4054 35.7272 86.7636 39.2688 89.5251C39.8979 90.0157 39.942 90.1379 40.3977 90.5605C40.4468 89.5973 40.4025 88.5138 40.4025 87.5372V69.1312C40.4025 67.6909 40.5048 67.6433 39.7722 66.6938C39.5821 66.4474 39.221 66.1616 38.9616 65.9847C37.9075 65.2661 36.5629 65.0444 35.2486 65.1573C33.5432 65.3038 31.9528 66.0393 30.5357 66.6134C26.8373 68.1118 24.4043 68.4694 19.9908 68.1868ZM43.5657 90.5497C43.7085 90.4658 43.7078 90.4204 43.8415 90.2819C43.9423 90.1773 44.0248 90.1082 44.1333 90.0131C45.5556 88.7652 47.1459 87.8216 49.0734 87.3525C51.9039 86.6638 54.0198 86.863 56.7573 87.5594C58.9858 88.1265 61.169 88.9773 63.2035 89.7977C64.8055 90.4435 68.0102 91.8377 69.5571 92.1663C70.1188 92.2858 70.9365 92.2993 71.4565 92.0881C72.0161 91.8606 72.1897 91.3657 72.0773 90.6149C71.9248 89.5945 71.3537 88.2648 71.018 87.3054C70.2707 85.169 69.4604 83.0385 68.6866 80.9137C67.9101 78.7818 67.1384 76.6598 66.3274 74.5504C66.1323 74.0434 64.1158 68.4712 63.944 68.1961C63.4962 68.1911 62.9579 68.2594 62.4942 68.2757C59.0804 68.396 56.6258 67.9308 53.451 66.6206C51.2204 65.6998 48.5952 64.5507 46.0913 65.4432C45.3013 65.7249 44.6216 66.1895 44.2289 66.6621C43.4955 67.5453 43.5645 67.6634 43.5645 69.0512V78.2542C43.5645 82.3466 43.5234 86.4597 43.5657 90.5497Z" fill="white"/>
<path fill-rule="evenodd" clip-rule="evenodd" d="M38.0686 98.6477V100.577L45.8499 100.595V98.4823H78.7489C79.489 98.4825 80.4214 98.5394 80.7569 97.9873C81.0874 97.4432 80.6218 96.4778 80.42 96.0283C80.1545 95.4366 79.8908 94.8612 79.611 94.2784C78.5119 91.9903 77.5476 89.6205 76.4477 87.3183C75.9033 86.1784 75.4175 85.011 74.8752 83.8495C74.3363 82.6959 73.8044 81.517 73.2953 80.3465C72.2767 78.0048 71.1915 75.6934 70.1506 73.3672C69.6312 72.2066 69.1353 71.0459 68.5967 69.8814C68.1241 68.8599 67.3021 69.1769 67.5256 70.0324C67.5914 70.284 67.7955 70.6895 67.9001 70.9374C68.0262 71.2361 68.1563 71.5324 68.2884 71.8292C69.3327 74.1758 70.3409 76.5228 71.3606 78.88C73.3972 83.5876 75.4754 88.2795 77.4895 92.998C78.0775 94.3755 78.8609 95.7042 77.2855 96.4379C74.4662 97.7508 67.0754 95.7978 64.3094 95.0533C62.9835 94.6964 61.6487 94.3465 60.3196 94.0044C55.7422 92.8257 52.1873 91.7744 47.6525 93.8516C46.3694 94.4395 45.4935 94.9967 44.4886 95.7305C44.1109 96.0063 43.1377 96.8509 42.8114 97.2138L41.9299 98.2432C41.5268 97.8367 41.0768 97.429 40.6518 97.0244C40.2185 96.6119 39.8276 96.1806 39.3534 95.8033C38.3479 95.0027 37.5398 94.3564 36.2939 93.7798C31.9564 91.7722 28 92.8042 23.5912 93.9997C22.2712 94.3579 20.9577 94.7595 19.6432 95.1315C16.9972 95.8802 14.0461 96.6148 11.1281 96.7705C9.85298 96.8386 7.5984 96.9101 6.51855 96.4273C4.9665 95.7336 5.84467 94.1936 6.38751 92.9606C7.42326 90.608 8.43392 88.2498 9.44564 85.8956C10.1533 84.2483 16.178 70.6101 16.2779 69.9204C16.3336 69.5361 16.2331 69.0919 15.8171 69.173C15.5235 69.2303 15.396 69.6056 15.2678 69.9115C14.7648 71.111 14.2255 72.2525 13.7061 73.4323C12.6867 75.7471 11.5282 78.1177 10.5534 80.4017C10.0527 81.5747 9.48227 82.6982 8.9807 83.8708C8.01659 86.1244 6.78206 88.5978 5.80647 90.86C5.30095 92.0325 4.72556 93.1751 4.21967 94.3553C3.97021 94.9373 3.70085 95.5177 3.43571 96.0922C2.61762 97.8644 2.84394 98.6098 5.04434 98.6462C5.8941 98.6603 6.75471 98.6477 7.60567 98.6477C17.76 98.6477 27.9143 98.6477 38.0686 98.6477Z" fill="white"/>
</g>
<defs>
<filter id="filter0_d_65_1315" x="0.849624" y="7.62939e-06" width="147.301" height="145.811" filterUnits="userSpaceOnUse" color-interpolation-filters="sRGB">
<feFlood flood-opacity="0" result="BackgroundImageFix"/>
<feColorMatrix in="SourceAlpha" type="matrix" values="0 0 0 0 0 0 0 0 0 0 0 0 0 0 0 0 0 0 127 0" result="hardAlpha"/>
<feOffset dy="2.15038"/>
<feGaussianBlur stdDeviation="1.07519"/>
<feComposite in2="hardAlpha" operator="out"/>
<feColorMatrix type="matrix" values="0 0 0 0 0 0 0 0 0 0 0 0 0 0 0 0 0 0 0.25 0"/>
<feBlend mode="normal" in2="BackgroundImageFix" result="effect1_dropShadow_65_1315"/>
<feBlend mode="normal" in="SourceGraphic" in2="effect1_dropShadow_65_1315" result="shape"/>
</filter>
</defs>
</svg>
