<svg width="132" height="153" viewBox="0 0 132 153" fill="none" xmlns="http://www.w3.org/2000/svg">
<g id="Group 1">
<path id="Vector 1" d="M77.7319 83.6242L74.6226 39.9399C74.6226 39.9399 72.8814 33.5745 73.3789 23.0903C73.8764 12.606 81.8776 3.32832 85.816 0C80.3437 12.9805 80.2193 18.7218 80.2193 19.3459L82.0848 39.3158C82.7067 47.6366 83.9504 68.1474 83.9504 83.6242C83.9504 99.1009 75.2444 110.043 70.8915 113.579C76.3638 108.087 77.7319 91.3209 77.7319 83.6242Z" fill="#F0FCF9"/>
<path id="Vector 2" d="M123.749 104.842L120.64 61.1578C120.64 61.1578 118.899 54.7924 119.396 44.3082C119.893 33.824 127.895 24.5463 131.833 21.2179C126.361 34.1984 126.236 39.9398 126.236 40.5638L128.102 60.5338C128.724 68.8546 129.968 89.3654 129.968 104.842C129.968 120.319 121.262 131.261 116.909 134.797C122.381 129.305 123.749 112.539 123.749 104.842Z" fill="#F0FCF9"/>
<path id="Vector 3" d="M100.74 54.2933L93.9001 47.4286L87.6815 53.6693L94.522 60.5339L100.74 54.2933Z" fill="#F0FCF9"/>
<path id="Vector 4" d="M116.287 54.2933L109.447 47.4286L103.228 53.6693L110.068 60.5339L116.287 54.2933Z" fill="#F0FCF9"/>
<path id="Vector 6" d="M52.2358 54.9174C54.7232 50.4242 63.2219 46.8046 67.1603 45.5565L69.0259 42.4362L60.9418 45.5565C58.9518 45.0573 56.3815 43.4763 55.3451 42.4362C55.3451 41.9369 58.2471 40.564 59.6981 40.564C60.1359 40.564 61.149 42.0202 61.5636 43.0603C64.051 39.3159 61.5636 37.6518 60.3199 36.8197C55.345 36.1956 50.992 41.1881 50.992 43.6843C50.992 44.8007 54.3086 46.8046 55.9669 47.4287C53.9769 48.4272 52.6503 52.8372 52.2358 54.9174Z" fill="#F0FCF9"/>
<path id="Exclude" fill-rule="evenodd" clip-rule="evenodd" d="M32.2778 70.8424V103.294C34.7652 100.173 37.8745 96.4289 43.4712 93.3086V61.4815C40.5692 63.1457 34.2678 67.3477 32.2778 70.8424ZM24.2524 129.18C24.7499 123.689 30.6783 114.827 33.5803 111.083C22.3869 121.692 19.2777 134.173 22.387 143.534C25.4962 152.895 36.6895 152.271 36.6895 152.271C38.5552 152.271 46.858 148.307 51.6141 143.534C53.4796 141.662 67.1605 131.053 72.1353 127.932L76.4883 125.436L82.085 122.94L92.6565 119.195C101.984 116.699 110.69 112.955 111.312 112.331C118.491 107.897 118.314 101.987 118.184 97.6602C118.168 97.1147 118.153 96.5943 118.153 96.1052C118.153 91.0139 115.665 81.9599 113.178 78.0075C109.695 70.5187 101.57 69.8947 98.8751 70.5187C90.791 71.7668 88.3035 81.1278 88.3035 81.1278C85.816 89.8646 90.7909 94.025 94.522 94.8571C95.7657 95.1345 108.825 97.3534 108.825 97.3534C108.825 97.3534 113.8 99.2255 113.8 101.722C113.8 102.759 108.091 104.888 102.606 106.714L78.3539 115.451C69.026 119.195 66.5386 121.692 66.5386 121.692C66.5386 121.692 49.1267 136.669 41.6644 142.91C32.9585 149.15 27.7763 143.534 26.118 141.038C24.1281 137.543 23.6306 132.093 24.2524 129.18ZM29.8491 104.218V71.7669C27.8592 68.2721 21.5577 64.0701 18.6557 62.4059V94.2331C24.2524 97.3534 27.3617 101.098 29.8491 104.218ZM48.5045 72.3909H54.723V98.6014C49.5409 99.8496 36.6892 104.842 33.5799 106.714C34.3133 106.101 34.9505 105.512 35.5719 104.937C38.1122 102.589 40.3881 100.484 47.8826 97.9774V72.3909H48.5045ZM8.70603 72.3909H14.9246H15.5464V97.9774C23.0409 100.484 25.3168 102.589 27.8571 104.937L27.8572 104.937C28.4786 105.512 29.1158 106.101 29.8491 106.714C26.7398 104.842 13.8882 99.8496 8.70603 98.6014V72.3909ZM57.8325 83.6239V102.97C53.4795 102.97 42.908 105.466 38.555 107.338C46.8464 106.298 62.8074 105.466 62.8074 105.466L63.4292 83.6239H57.8325ZM5.59668 102.97V83.6239H-1.52588e-05L0.62184 105.466C0.62184 105.466 16.5828 106.298 24.8742 107.338C20.5212 105.466 9.94966 102.97 5.59668 102.97ZM94.5218 84.467C95.5582 83.0109 98.2529 80.3482 100.74 81.3467C103.093 82.291 103.309 82.5208 104.891 84.1981C105.4 84.7379 106.05 85.4276 106.959 86.3392C106.959 86.3392 95.1436 86.9633 94.5218 84.467Z" fill="#F0FCF9"/>
</g>
</svg>
