<svg width="42" height="42" viewBox="0 0 42 42" fill="none" xmlns="http://www.w3.org/2000/svg">
<g filter="url(#filter0_d_288_13530)">
<path d="M7.4 34C6.465 34 5.6643 33.6668 4.9979 33.0004C4.3315 32.334 3.99887 31.5339 4 30.6V6.8H7.4V30.6H31.2V34H7.4ZM14.2 27.2C13.265 27.2 12.4643 26.8668 11.7979 26.2004C11.1315 25.534 10.7989 24.7339 10.8 23.8V3.4C10.8 2.465 11.1332 1.6643 11.7996 0.997903C12.466 0.331503 13.2661 -0.00113045 14.2 2.88625e-06H34.6C35.535 2.88625e-06 36.3357 0.333203 37.0021 0.999603C37.6685 1.666 38.0011 2.46614 38 3.4V23.8C38 24.735 37.6668 25.5357 37.0004 26.2021C36.334 26.8685 35.5339 27.2011 34.6 27.2H14.2ZM22.7 15.3L26.95 12.75L31.2 15.3V3.4H22.7V15.3Z" fill="#016457"/>
</g>
<defs>
<filter id="filter0_d_288_13530" x="0" y="0" width="42" height="42" filterUnits="userSpaceOnUse" color-interpolation-filters="sRGB">
<feFlood flood-opacity="0" result="BackgroundImageFix"/>
<feColorMatrix in="SourceAlpha" type="matrix" values="0 0 0 0 0 0 0 0 0 0 0 0 0 0 0 0 0 0 127 0" result="hardAlpha"/>
<feOffset dy="4"/>
<feGaussianBlur stdDeviation="2"/>
<feComposite in2="hardAlpha" operator="out"/>
<feColorMatrix type="matrix" values="0 0 0 0 0 0 0 0 0 0 0 0 0 0 0 0 0 0 0.25 0"/>
<feBlend mode="normal" in2="BackgroundImageFix" result="effect1_dropShadow_288_13530"/>
<feBlend mode="normal" in="SourceGraphic" in2="effect1_dropShadow_288_13530" result="shape"/>
</filter>
</defs>
</svg>
