<svg width="132" height="119" viewBox="0 0 132 119" fill="none" xmlns="http://www.w3.org/2000/svg">
<path opacity="0.662745" d="M18.5492 0.237793L17.5656 0.354101L18.5492 0.47041V0.237793Z" fill="#004440"/>
<path opacity="0.662745" d="M10.3988 0.935547L10.2583 1.40078L11.1014 1.74971L10.9609 2.09863L11.242 1.86601L11.9446 2.21494L10.3988 0.935547Z" fill="#004440"/>
<path opacity="0.662745" d="M3.93468 1.16821L4.49677 1.86606L4.6373 1.40083L3.93468 1.16821Z" fill="#004440"/>
<path opacity="0.662745" d="M6.18308 2.3313L5.76151 2.68022L6.74518 3.49438L6.04256 2.68022L6.18308 2.3313Z" fill="#004440"/>
<path opacity="0.662745" d="M3.37258 4.89014L2.38891 5.47168L3.09154 5.12275L4.49678 6.05322L3.37258 4.89014Z" fill="#004440"/>
<path opacity="0.662745" d="M9.83672 7.91406L10.6799 8.84453L12.0851 9.775L11.9446 9.42607C12.0757 9.0849 11.9352 8.96859 11.523 9.07715L9.83672 7.91406Z" fill="#004440"/>
<path opacity="0.662745" d="M1.1242 7.91406L0.983676 9.19346H1.26472L1.1242 7.91406Z" fill="#004440"/>
<path opacity="0.662745" d="M13.2093 9.77502L13.0688 10.3566L13.7714 10.9381L13.2093 9.77502Z" fill="#004440"/>
<path opacity="0.662745" d="M1.40525 11.636L0.983678 11.7523V15.4742L1.54578 15.7068L1.26473 15.4742V11.9849L1.40525 11.636Z" fill="#004440"/>
<path opacity="0.662745" d="M9.83671 13.7295V14.1947L9.41514 14.311L9.83671 14.4273C10.3988 14.1947 10.3988 13.9621 9.83671 13.7295Z" fill="#004440"/>
<path opacity="0.662745" d="M10.6799 14.1947L10.5393 14.6599L11.1014 14.5436L10.6799 14.1947Z" fill="#004440"/>
<path opacity="0.662745" d="M53.3993 19.0797L53.2588 19.6613H53.5398L53.3993 19.0797Z" fill="#004440"/>
<path opacity="0.662745" d="M10.9609 19.7776L10.2583 19.8939L10.9609 20.0102V19.7776Z" fill="#004440"/>
<path opacity="0.662745" d="M16.7224 20.2428L15.8793 20.5917L16.7224 20.708V20.2428Z" fill="#004440"/>
<path opacity="0.662745" d="M14.3335 20.2428L13.3498 20.3591L14.3335 20.4754V20.2428Z" fill="#004440"/>
<path opacity="0.662745" d="M17.9871 20.4755L17.2845 20.5918L17.9871 20.7081V20.4755Z" fill="#004440"/>
<path opacity="0.662745" d="M53.6804 20.9407L53.2588 21.5222L53.8209 21.7548L53.6804 20.9407Z" fill="#004440"/>
<path opacity="0.662745" d="M69.7002 24.8951L69.5596 25.4767H69.8407L69.7002 24.8951Z" fill="#004440"/>
<path opacity="0.662745" d="M18.2682 25.8256L17.5656 25.9419L18.2682 26.0582V25.8256Z" fill="#004440"/>
<path opacity="0.662745" d="M19.9545 26.0582L19.2519 26.1745L19.9545 26.2908V26.0582Z" fill="#004440"/>
<path opacity="0.662745" d="M21.6408 26.2908L20.9382 26.4071L21.6408 26.5234V26.2908Z" fill="#004440"/>
<path opacity="0.662745" d="M69.9813 26.5234L69.5597 28.9659H69.8408C70.3279 28.4076 70.3748 27.5935 69.9813 26.5234Z" fill="#004440"/>
<path opacity="0.662745" d="M24.4513 26.5234L23.1865 26.6397L24.4513 26.7561V26.5234Z" fill="#004440"/>
<path opacity="0.662745" d="M15.7387 26.7561L14.7551 26.8724L15.7387 26.9887V26.7561Z" fill="#004440"/>
<path opacity="0.662745" d="M25.8565 26.9886L24.5918 27.105L25.8565 27.2213V26.9886Z" fill="#004440"/>
<path opacity="0.662745" d="M17.9871 26.9886L17.0035 27.105L17.9871 27.2213V26.9886Z" fill="#004440"/>
<path opacity="0.662745" d="M19.2519 39.7826L18.4087 39.8989L19.1113 40.2478L19.2519 39.7826Z" fill="#004440"/>
<path opacity="0.662745" d="M23.8892 40.4805L23.1865 40.5968L23.8892 40.7131V40.4805Z" fill="#004440"/>
<path opacity="0.662745" d="M28.2454 40.7131L27.1212 41.0621L28.2454 41.1784V40.7131Z" fill="#004440"/>
<path opacity="0.662745" d="M25.5755 40.7131L24.8728 40.8294L25.5755 40.9458V40.7131Z" fill="#004440"/>
<path opacity="0.662745" d="M29.2291 40.9457L28.5265 41.062L29.2291 41.1783V40.9457Z" fill="#004440"/>
<path opacity="0.662745" d="M22.4839 43.0392C22.053 42.9306 21.9125 43.0469 22.0623 43.3881L24.8728 45.4817L22.3434 43.3881L22.4839 43.0392Z" fill="#004440"/>
<path opacity="0.662745" d="M24.4513 43.2719L23.7486 43.3882L24.4513 43.5045V43.2719Z" fill="#004440"/>
<path opacity="0.662745" d="M29.2291 43.5045L27.9644 43.8534L28.667 43.9698L29.2291 43.5045Z" fill="#004440"/>
<path opacity="0.662745" d="M26.6996 43.5045L25.997 43.6208L26.6996 43.7371V43.5045Z" fill="#004440"/>
<path opacity="0.662745" d="M30.3533 43.7371L29.9317 43.8534C30.1191 44.2411 30.6343 44.3574 31.4775 44.2023V43.9697L30.3533 43.7371Z" fill="#004440"/>
<path opacity="0.662745" d="M95.8377 46.5284L95.6972 47.11H95.9782L95.8377 46.5284Z" fill="#004440"/>
<path opacity="0.662745" d="M97.524 50.9482L97.3835 51.7624H97.6645L97.524 50.9482Z" fill="#004440"/>
<path opacity="0.662745" d="M95.8377 52.5765L95.6972 53.3907H95.9782L95.8377 52.5765Z" fill="#004440"/>
<path opacity="0.662745" d="M97.243 52.8092L97.1024 53.3907H97.3835L97.243 52.8092Z" fill="#004440"/>
<path opacity="0.662745" d="M55.0856 55.6006L54.383 55.7169L55.0856 55.8332V55.6006Z" fill="#004440"/>
<path opacity="0.662745" d="M56.7719 55.8331L56.0693 55.9494L56.7719 56.0657V55.8331Z" fill="#004440"/>
<path opacity="0.662745" d="M58.7392 56.0658L58.0366 56.1821L58.7392 56.2984V56.0658Z" fill="#004440"/>
<path opacity="0.662745" d="M72.2296 56.2985L70.6838 56.4148L72.2296 56.5311V56.2985Z" fill="#004440"/>
<path opacity="0.662745" d="M70.2623 56.2985L67.5923 56.4148L70.2623 56.5311V56.2985Z" fill="#004440"/>
<path opacity="0.662745" d="M62.3929 56.2985L60.5661 56.4148L62.3929 56.5311V56.2985Z" fill="#004440"/>
<path opacity="0.662745" d="M73.9159 56.531L73.2133 56.6473L73.9159 56.7636V56.531Z" fill="#004440"/>
<path opacity="0.662745" d="M74.759 57.4614L72.6512 57.5777L74.759 57.694V57.4614Z" fill="#004440"/>
<path opacity="0.662745" d="M69.1381 57.4614L67.8733 57.5777L69.1381 57.694V57.4614Z" fill="#004440"/>
<path opacity="0.662745" d="M42.4384 57.4614C42.0075 57.3529 41.8669 57.4692 42.0168 57.8103L42.4384 57.4614Z" fill="#004440"/>
<path opacity="0.662745" d="M79.2558 57.6941L79.1153 58.1593L79.9584 58.043L79.2558 57.6941Z" fill="#004440"/>
<path opacity="0.662745" d="M77.5695 57.6941L76.5858 57.8104L77.5695 57.9267V57.6941Z" fill="#004440"/>
<path opacity="0.662745" d="M48.0594 58.1593L47.0757 58.2756L48.0594 58.3919V58.1593Z" fill="#004440"/>
<path opacity="0.662745" d="M62.1118 58.392L61.4092 58.5083L62.1118 58.6246V58.392Z" fill="#004440"/>
<path opacity="0.662745" d="M50.8699 58.392L49.8862 58.5083L50.8699 58.6246V58.392Z" fill="#004440"/>
<path opacity="0.662745" d="M59.3013 58.6245L53.5398 58.7408L59.3013 58.8571V58.6245Z" fill="#004440"/>
<path opacity="0.662745" d="M117.197 72.349L117.057 72.9305H117.338L117.197 72.349Z" fill="#004440"/>
<path opacity="0.662745" d="M117.478 73.5121L117.338 74.0936H117.619L117.478 73.5121Z" fill="#004440"/>
<path opacity="0.662745" d="M73.9159 74.21L73.2133 74.3263L73.9159 74.4426V74.21Z" fill="#004440"/>
<path opacity="0.662745" d="M75.3211 74.4425L74.6185 74.5588L75.3211 74.6751V74.4425Z" fill="#004440"/>
<path opacity="0.662745" d="M119.446 74.6752L119.305 75.373L119.867 75.2567L119.446 74.6752Z" fill="#004440"/>
<path opacity="0.662745" d="M117.76 74.6752L117.619 75.2567H117.9L117.76 74.6752Z" fill="#004440"/>
<path opacity="0.662745" d="M77.0074 74.6752L76.3048 74.7915L77.0074 74.9078V74.6752Z" fill="#004440"/>
<path opacity="0.662745" d="M79.2558 74.9077L78.2722 75.024L79.2558 75.1403V74.9077Z" fill="#004440"/>
<path opacity="0.662745" d="M81.7853 75.1404L80.8016 75.2567L81.7853 75.373V75.1404Z" fill="#004440"/>
<path opacity="0.662745" d="M84.0337 75.373L83.331 75.4894L84.0337 75.6057V75.373Z" fill="#004440"/>
<path opacity="0.662745" d="M86.001 75.6056L85.2984 75.7219L86.001 75.8382V75.6056Z" fill="#004440"/>
<path opacity="0.662745" d="M72.5107 75.8383L71.808 75.9546L72.5107 76.0709V75.8383Z" fill="#004440"/>
<path opacity="0.662745" d="M118.041 76.0708L117.9 76.6523H118.181L118.041 76.0708Z" fill="#004440"/>
<path opacity="0.662745" d="M119.727 76.5361L119.586 77.5829H119.867L119.727 76.5361Z" fill="#004440"/>
<path opacity="0.662745" d="M123.381 77.4666L123.24 78.9786H123.521L123.802 78.0481L123.381 77.4666Z" fill="#004440"/>
<path opacity="0.662745" d="M118.322 77.4666L118.181 78.0481H118.462L118.322 77.4666Z" fill="#004440"/>
<path opacity="0.662745" d="M121.132 78.8622L120.992 79.4437H121.273L121.132 78.8622Z" fill="#004440"/>
<path opacity="0.662745" d="M118.603 78.8622L118.462 79.4437H118.743L118.603 78.8622Z" fill="#004440"/>
<path opacity="0.662745" d="M123.099 80.2579L122.959 81.3047H123.24L123.099 80.2579Z" fill="#004440"/>
<path opacity="0.662745" d="M121.413 80.2579L121.273 81.0721H121.554L121.413 80.2579Z" fill="#004440"/>
<path opacity="0.662745" d="M118.884 80.2579L118.743 80.8395H119.024L118.884 80.2579Z" fill="#004440"/>
<path opacity="0.662745" d="M119.165 81.8862L119.024 82.5841L119.586 82.4678L119.165 81.8862Z" fill="#004440"/>
<path opacity="0.662745" d="M122.818 82.3514L122.678 83.1656H122.959L122.818 82.3514Z" fill="#004440"/>
<path opacity="0.662745" d="M125.348 83.9799L125.207 84.5614H125.488L125.348 83.9799Z" fill="#004440"/>
<path opacity="0.662745" d="M80.099 84.4451L81.2232 85.6082V84.9103L80.8016 85.0266C80.9327 84.6854 80.7922 84.5691 80.38 84.6777L80.099 84.4451Z" fill="#004440"/>
<path opacity="0.662745" d="M121.413 84.9103L121.273 85.7244H121.554L121.413 84.9103Z" fill="#004440"/>
<path opacity="0.662745" d="M125.629 85.3755L125.488 86.1896H125.769L125.629 85.3755Z" fill="#004440"/>
<path opacity="0.662745" d="M125.91 87.0038L125.769 88.0506H126.05L125.91 87.0038Z" fill="#004440"/>
<path opacity="0.662745" d="M99.2103 87.4691L98.5077 87.5854L99.2103 87.7017V87.4691Z" fill="#004440"/>
<path opacity="0.662745" d="M100.897 87.7017L100.194 87.818L100.897 87.9343V87.7017Z" fill="#004440"/>
<path opacity="0.662745" d="M102.583 87.9343L101.88 88.0506L102.583 88.1669V87.9343Z" fill="#004440"/>
<path opacity="0.662745" d="M2.52943 87.9343L1.26471 88.0506L2.52943 88.1669V87.9343Z" fill="#004440"/>
<path opacity="0.662745" d="M4.77783 88.1669L3.79416 88.2832L4.77783 88.3995V88.1669Z" fill="#004440"/>
<path opacity="0.662745" d="M6.74518 88.3995L6.04256 88.5158L6.74518 88.6322V88.3995Z" fill="#004440"/>
<path opacity="0.662745" d="M8.99356 88.6322L8.29094 88.7485L8.99356 88.8648V88.6322Z" fill="#004440"/>
<path opacity="0.662745" d="M100.897 88.8647L99.3508 88.9811L100.897 89.0974V88.8647Z" fill="#004440"/>
<path opacity="0.662745" d="M97.243 88.8647L93.7298 88.9811L97.243 89.0974V88.8647Z" fill="#004440"/>
<path opacity="0.662745" d="M10.9609 88.8647L10.2583 88.9811L10.9609 89.0974V88.8647Z" fill="#004440"/>
<path opacity="0.662745" d="M103.145 89.0974L102.161 89.2137L103.145 89.33V89.0974Z" fill="#004440"/>
<path opacity="0.662745" d="M14.0525 89.33L13.3498 89.4463L14.0525 89.5626V89.33Z" fill="#004440"/>
<path opacity="0.662745" d="M106.237 89.5626L105.534 89.6789L106.237 89.7952V89.5626Z" fill="#004440"/>
<path opacity="0.662745" d="M126.191 89.7953L126.05 93.8661H126.332L126.191 89.7953Z" fill="#004440"/>
<path opacity="0.662745" d="M1.68629 89.7953L0.983672 89.9116L1.68629 90.0279V89.7953Z" fill="#004440"/>
<path opacity="0.662745" d="M3.93469 90.0278L2.95102 90.1441L3.93469 90.2604V90.0278Z" fill="#004440"/>
<path opacity="0.662745" d="M5.90204 90.2605L5.19942 90.3768L5.90204 90.4931V90.2605Z" fill="#004440"/>
<path opacity="0.662745" d="M7.86937 90.493L7.16675 90.6094L7.86937 90.7257V90.493Z" fill="#004440"/>
<path opacity="0.662745" d="M10.1178 90.7257L9.1341 90.842L10.1178 90.9583V90.7257Z" fill="#004440"/>
<path opacity="0.662745" d="M17.425 91.8888L16.7224 92.0051L17.425 92.1214V91.8888Z" fill="#004440"/>
<path opacity="0.662745" d="M18.8303 92.1213L18.1277 92.2376L18.8303 92.354V92.1213Z" fill="#004440"/>
<path opacity="0.662745" d="M125.91 95.1454L125.769 95.7269H126.05L125.91 95.1454Z" fill="#004440"/>
<path opacity="0.662745" d="M123.099 96.7737L123.381 97.2389L125.488 97.1226L123.099 96.7737Z" fill="#004440"/>
<path opacity="0.662745" d="M131.531 110.498L131.39 111.08H131.671L131.531 110.498Z" fill="#004440"/>
<path opacity="0.662745" d="M126.472 111.429L126.332 112.243H126.613L126.472 111.429Z" fill="#004440"/>
<path opacity="0.662745" d="M129.001 111.661L128.861 112.243H129.142L129.001 111.661Z" fill="#004440"/>
<path opacity="0.662745" d="M130.969 112.824L130.828 113.406H131.109L130.969 112.824Z" fill="#004440"/>
<path opacity="0.662745" d="M128.158 112.824L127.175 112.941L128.158 113.057V112.824Z" fill="#004440"/>
<path opacity="0.662745" d="M101.74 113.987L101.037 114.104L101.74 114.22V113.987Z" fill="#004440"/>
<path opacity="0.662745" d="M106.237 114.685L105.534 114.801L106.237 114.918V114.685Z" fill="#004440"/>
<path opacity="0.662745" d="M107.923 114.918L107.22 115.034L107.923 115.15V114.918Z" fill="#004440"/>
<path opacity="0.662745" d="M110.171 115.151L109.188 115.267L110.171 115.383V115.151Z" fill="#004440"/>
<path opacity="0.662745" d="M112.42 115.383L111.436 115.499L112.42 115.616V115.383Z" fill="#004440"/>
<path opacity="0.662745" d="M114.668 115.616L113.965 115.732L114.668 115.848V115.616Z" fill="#004440"/>
<path opacity="0.662745" d="M118.041 115.848L116.214 115.965L118.041 116.081V115.848Z" fill="#004440"/>
<path opacity="0.662745" d="M100.335 115.848L99.6319 115.965L100.335 116.081V115.848Z" fill="#004440"/>
<path opacity="0.662745" d="M122.537 116.081L120.711 116.197L122.537 116.314V116.081Z" fill="#004440"/>
<path opacity="0.662745" d="M101.74 116.081L101.037 116.197L101.74 116.314V116.081Z" fill="#004440"/>
<path opacity="0.662745" d="M103.426 116.313L102.723 116.43L103.426 116.546V116.313Z" fill="#004440"/>
<path opacity="0.662745" d="M105.112 116.546L104.41 116.662L105.112 116.779V116.546Z" fill="#004440"/>
<path opacity="0.662745" d="M107.08 116.779L106.377 116.895L107.08 117.011V116.779Z" fill="#004440"/>
<path opacity="0.662745" d="M108.766 117.011L108.063 117.128L108.766 117.244V117.011Z" fill="#004440"/>
<path opacity="0.662745" d="M111.295 117.244L110.312 117.36L111.295 117.477V117.244Z" fill="#004440"/>
<path opacity="0.662745" d="M131.25 117.477C130.594 117.787 130.688 118.097 131.531 118.407L131.25 117.477Z" fill="#004440"/>
<path opacity="0.662745" d="M114.106 117.477L112.841 117.593L114.106 117.709V117.477Z" fill="#004440"/>
<path opacity="0.662745" d="M116.635 117.709L115.652 117.826L116.635 117.942V117.709Z" fill="#004440"/>
<path opacity="0.662745" d="M121.413 117.942L119.305 118.058L121.413 118.175V117.942Z" fill="#004440"/>
<path opacity="0.662745" d="M125.348 118.174L124.364 118.291L125.348 118.407V118.174Z" fill="#004440"/>
<path opacity="0.996078" d="M4.77783 1.63342L5.62098 2.56389L5.76151 2.09866L4.77783 1.63342Z" fill="#004440"/>
<path opacity="0.996078" d="M11.242 1.86609L11.1014 2.33132L11.9446 2.68025L11.8041 3.02917L12.0851 2.79656L19.2519 8.49567L11.242 1.86609Z" fill="#004440"/>
<path opacity="0.996078" d="M12.0851 9.30981L12.9283 10.2403L13.0688 9.77505L12.0851 9.30981Z" fill="#004440"/>
<path opacity="0.996078" d="M14.3335 10.4729C13.7714 10.7055 13.7714 10.9381 14.3335 11.1708V10.4729Z" fill="#004440"/>
<path opacity="0.996078" d="M53.6804 20.2428L53.5398 20.8243H53.8209L53.6804 20.2428Z" fill="#004440"/>
<path opacity="0.996078" d="M18.2682 20.4755L17.9871 20.9407L18.6898 20.8244L18.2682 20.4755Z" fill="#004440"/>
<path opacity="0.996078" d="M22.4839 27.2213L20.6571 27.3376L22.4839 27.4539V27.2213Z" fill="#004440"/>
<path opacity="0.996078" d="M69.9812 28.6169L69.5596 29.1985L70.1217 28.9659L69.9812 28.6169Z" fill="#004440"/>
<path opacity="0.996078" d="M29.5101 40.9457L29.2291 41.4109L29.9317 41.2946L29.5101 40.9457Z" fill="#004440"/>
<path opacity="0.996078" d="M31.7585 43.9697L31.618 44.435L32.1801 44.3187L31.7585 43.9697Z" fill="#004440"/>
<path opacity="0.996078" d="M97.8051 46.0632L97.6645 48.7383H97.9456L98.0861 46.5285L102.442 49.9014L97.8051 46.0632Z" fill="#004440"/>
<path opacity="0.996078" d="M95.8377 47.2263L95.6972 47.8079H95.9782L95.8377 47.2263Z" fill="#004440"/>
<path opacity="0.996078" d="M63.236 56.2985L62.5334 56.4148L63.236 56.5311V56.2985Z" fill="#004440"/>
<path opacity="0.996078" d="M72.5107 57.4614L69.2786 57.5777L72.5107 57.694V57.4614Z" fill="#004440"/>
<path opacity="0.996078" d="M53.3993 58.6245L52.6967 58.7408L53.3993 58.8571V58.6245Z" fill="#004440"/>
<path opacity="0.996078" d="M87.9683 75.8383L85.8605 76.1872L88.2494 76.3035L87.9683 75.8383Z" fill="#004440"/>
<path opacity="0.996078" d="M76.1643 76.0708L74.8996 76.1871L76.1643 76.3034V76.0708Z" fill="#004440"/>
<path opacity="0.996078" d="M74.478 76.0708L73.2133 76.1871L74.478 76.3034V76.0708Z" fill="#004440"/>
<path opacity="0.996078" d="M120.008 80.2579L119.867 80.8395H120.148L120.008 80.2579Z" fill="#004440"/>
<path opacity="0.996078" d="M121.413 81.1884L121.273 81.7699H121.554L121.413 81.1884Z" fill="#004440"/>
<path opacity="0.996078" d="M81.5042 85.1429L81.3637 85.4919L82.2068 85.9571L82.0663 85.3756L81.6447 85.4919L81.5042 85.1429Z" fill="#004440"/>
<path opacity="0.996078" d="M99.2103 88.8647L97.3835 88.9811L99.2103 89.0974V88.8647Z" fill="#004440"/>
<path opacity="0.996078" d="M116.635 97.239L112.56 97.3553L116.635 97.4716V97.239Z" fill="#004440"/>
<path opacity="0.996078" d="M120.57 116.081L119.867 116.197L120.57 116.314V116.081Z" fill="#004440"/>
<path opacity="0.996078" d="M125.067 116.313L124.364 116.43L125.067 116.546V116.313Z" fill="#004440"/>
<path opacity="0.996078" d="M126.753 117.244L126.05 118.058L126.894 117.593L126.753 117.244Z" fill="#004440"/>
<path opacity="0.996078" d="M117.478 117.709L116.776 117.826L117.478 117.942V117.709Z" fill="#004440"/>
<path opacity="0.996078" d="M122.537 117.942L121.554 118.058L122.537 118.175V117.942Z" fill="#004440"/>
<path opacity="0.0980392" d="M9.83671 0.470337L9.69619 0.819262L10.2583 1.05188L9.83671 0.470337Z" fill="#004440"/>
<path opacity="0.0980392" d="M3.37259 0.703003L3.23207 1.05193L3.65364 1.40085L4.35626 1.28455L3.37259 0.703003Z" fill="#004440"/>
<path opacity="0.0980392" d="M4.77783 1.40088L4.63731 1.98242L6.18307 3.26181L4.91835 1.98242C5.33056 1.79633 5.28372 1.60248 4.77783 1.40088Z" fill="#004440"/>
<path opacity="0.0980392" d="M12.0851 2.3313L19.3924 8.61195L19.2519 8.26303L18.8303 7.68149L18.4087 7.56518L18.5492 7.21625L18.2682 7.44887L12.0851 2.3313Z" fill="#004440"/>
<path opacity="0.0980392" d="M14.0525 6.05322C13.4904 6.28584 13.4904 6.51846 14.0525 6.75107C14.6146 6.51846 14.6146 6.28584 14.0525 6.05322Z" fill="#004440"/>
<path opacity="0.0980392" d="M1.68629 6.28577L1.26472 6.86731H1.54577L1.68629 6.28577Z" fill="#004440"/>
<path opacity="0.0980392" d="M8.15042 6.75098L8.0099 7.0999L10.1178 8.61191L10.8204 8.4956C10.4457 7.92181 10.0709 7.76674 9.69619 8.03037L9.27462 7.44883L8.15042 6.75098Z" fill="#004440"/>
<path opacity="0.0980392" d="M1.1242 7.21631L0.983676 7.79785H1.26472L1.1242 7.21631Z" fill="#004440"/>
<path opacity="0.0980392" d="M11.242 8.61194L10.8204 8.96086L11.8041 9.77502L11.242 8.61194Z" fill="#004440"/>
<path opacity="0.0980392" d="M67.7328 18.6145C67.3019 18.5059 67.1614 18.6223 67.3112 18.9634L67.7328 18.6145Z" fill="#004440"/>
<path opacity="0.0980392" d="M10.1178 19.5449L9.41514 19.6612L10.1178 19.7775V19.5449Z" fill="#004440"/>
<path opacity="0.0980392" d="M2.8105 19.5449L2.66997 19.8938L3.23207 20.1265L2.8105 19.5449Z" fill="#004440"/>
<path opacity="0.0980392" d="M14.6145 20.0101L14.474 20.4754L15.3172 20.3591L14.6145 20.0101Z" fill="#004440"/>
<path opacity="0.0980392" d="M19.1113 26.0582L18.4087 26.1745L19.1113 26.2908V26.0582Z" fill="#004440"/>
<path opacity="0.0980392" d="M20.7976 26.2908L20.095 26.4071L20.7976 26.5234V26.2908Z" fill="#004440"/>
<path opacity="0.0980392" d="M23.046 26.5234L22.0623 26.6397L23.046 26.7561V26.5234Z" fill="#004440"/>
<path opacity="0.0980392" d="M26.1376 26.7561L25.1539 26.8724L26.1376 26.9887V26.7561Z" fill="#004440"/>
<path opacity="0.0980392" d="M16.5819 26.7561L15.8793 26.8724L16.5819 26.9887V26.7561Z" fill="#004440"/>
<path opacity="0.0980392" d="M24.4513 26.9886L22.6244 27.105L24.4513 27.2213V26.9886Z" fill="#004440"/>
<path opacity="0.0980392" d="M20.5166 26.9886L18.1277 27.105L20.5166 27.2213V26.9886Z" fill="#004440"/>
<path opacity="0.0980392" d="M18.5492 39.55L17.8466 39.6664C18.2401 40.1781 18.4743 40.1393 18.5492 39.55Z" fill="#004440"/>
<path opacity="0.0980392" d="M22.765 40.2478L22.0623 40.3641L22.765 40.4804V40.2478Z" fill="#004440"/>
<path opacity="0.0980392" d="M26.8402 40.4805L25.716 40.8294L26.8402 40.9457V40.4805Z" fill="#004440"/>
<path opacity="0.0980392" d="M23.3271 43.0392L22.6244 43.1555L23.3271 43.2718V43.0392Z" fill="#004440"/>
<path opacity="0.0980392" d="M27.8239 43.2719L26.8402 43.6208L27.5428 43.7371L27.8239 43.2719Z" fill="#004440"/>
<path opacity="0.0980392" d="M25.2944 43.2719L24.5918 43.3882L25.2944 43.5045V43.2719Z" fill="#004440"/>
<path opacity="0.0980392" d="M28.667 43.5045L28.948 43.9698L29.9317 43.8534L28.667 43.5045Z" fill="#004440"/>
<path opacity="0.0980392" d="M95.8377 45.8307L95.6972 46.4122H95.9782L95.8377 45.8307Z" fill="#004440"/>
<path opacity="0.0980392" d="M96.1188 47.9242L95.9782 51.995H96.2593L96.1188 47.9242Z" fill="#004440"/>
<path opacity="0.0980392" d="M97.524 48.8546L97.3835 50.8319H97.6645L97.524 48.8546Z" fill="#004440"/>
<path opacity="0.0980392" d="M97.243 52.1113L97.1024 52.6929H97.3835L97.243 52.1113Z" fill="#004440"/>
<path opacity="0.0980392" d="M95.8377 53.507L95.6972 54.3211H95.9782L95.8377 53.507Z" fill="#004440"/>
<path opacity="0.0980392" d="M95.5567 55.1353L95.4161 56.0657L96.2593 55.7168H95.6972L95.5567 55.1353Z" fill="#004440"/>
<path opacity="0.0980392" d="M57.8961 56.0658L57.1935 56.1821L57.8961 56.2984V56.0658Z" fill="#004440"/>
<path opacity="0.0980392" d="M60.4255 56.2985L59.4419 56.4148L60.4255 56.5311V56.2985Z" fill="#004440"/>
<path opacity="0.0980392" d="M66.8897 56.531L63.6576 56.6473L66.8897 56.7636V56.531Z" fill="#004440"/>
<path opacity="0.0980392" d="M77.8506 57.4614L77.7101 57.9267L79.1153 57.8104L77.8506 57.4614Z" fill="#004440"/>
<path opacity="0.0980392" d="M75.8832 57.4614L74.8996 57.5777L75.8832 57.694V57.4614Z" fill="#004440"/>
<path opacity="0.0980392" d="M67.7328 57.4614L66.4681 57.5777L67.7328 57.694V57.4614Z" fill="#004440"/>
<path opacity="0.0980392" d="M46.3731 57.9268L45.3894 58.0431L46.3731 58.1594V57.9268Z" fill="#004440"/>
<path opacity="0.0980392" d="M49.1836 58.1593L48.1999 58.2756L49.1836 58.3919V58.1593Z" fill="#004440"/>
<path opacity="0.0980392" d="M61.2687 58.392L60.004 58.5083L61.2687 58.6246V58.392Z" fill="#004440"/>
<path opacity="0.0980392" d="M52.5562 58.392L51.0104 58.5083L52.5562 58.6246V58.392Z" fill="#004440"/>
<path opacity="0.0980392" d="M116.916 70.7207L116.776 71.3022H117.057L116.916 70.7207Z" fill="#004440"/>
<path opacity="0.0980392" d="M63.3765 73.5121L62.5334 73.6284L63.5171 74.2099L64.2197 73.861L63.7981 73.7447L63.3765 73.861V73.5121Z" fill="#004440"/>
<path opacity="0.0980392" d="M119.586 74.21L119.024 74.3263L119.586 74.5589V74.21Z" fill="#004440"/>
<path opacity="0.0980392" d="M76.1643 74.6752L75.4617 74.7915L76.1643 74.9078V74.6752Z" fill="#004440"/>
<path opacity="0.0980392" d="M78.1316 74.9077L77.429 75.024L78.1316 75.1403V74.9077Z" fill="#004440"/>
<path opacity="0.0980392" d="M80.6611 75.1404L79.6774 75.2567L80.6611 75.373V75.1404Z" fill="#004440"/>
<path opacity="0.0980392" d="M119.446 75.373L119.305 76.1872H119.586L119.446 75.373Z" fill="#004440"/>
<path opacity="0.0980392" d="M83.1905 75.373L82.2068 75.4894L83.1905 75.6057V75.373Z" fill="#004440"/>
<path opacity="0.0980392" d="M85.1579 75.6056L84.3147 75.8382L76.3048 75.9545L85.4389 76.0708L85.1579 75.6056Z" fill="#004440"/>
<path opacity="0.0980392" d="M123.381 77.2339L123.521 77.5828L123.662 77.9317L123.802 77.5828L123.381 77.2339Z" fill="#004440"/>
<path opacity="0.0980392" d="M119.727 77.6991L119.586 79.909H119.867L119.727 77.6991Z" fill="#004440"/>
<path opacity="0.0980392" d="M123.099 79.3275L122.959 80.1417H123.24L123.099 79.3275Z" fill="#004440"/>
<path opacity="0.0980392" d="M119.727 80.9558L119.586 81.5374H119.867L119.727 80.9558Z" fill="#004440"/>
<path opacity="0.0980392" d="M119.165 81.1884L119.024 81.7699H119.305L119.165 81.1884Z" fill="#004440"/>
<path opacity="0.0980392" d="M121.694 81.8862L121.554 84.3287H121.835L121.694 81.8862Z" fill="#004440"/>
<path opacity="0.0980392" d="M79.8179 84.2124L79.6774 84.5613L80.8016 85.2592C80.2208 84.9955 80.0802 84.7242 80.38 84.445L79.9584 84.5613L79.8179 84.2124Z" fill="#004440"/>
<path opacity="0.0980392" d="M121.413 85.8407L121.273 86.4222L121.835 86.1896L121.413 85.8407Z" fill="#004440"/>
<path opacity="0.0980392" d="M3.37259 87.9343L2.66997 88.0506L3.37259 88.1669V87.9343Z" fill="#004440"/>
<path opacity="0.0980392" d="M5.62097 88.1669L4.91835 88.2832L5.62097 88.3995V88.1669Z" fill="#004440"/>
<path opacity="0.0980392" d="M7.58832 88.3995L6.8857 88.5158L7.58832 88.6322V88.3995Z" fill="#004440"/>
<path opacity="0.0980392" d="M126.191 88.6322L126.05 89.679H126.332L126.191 88.6322Z" fill="#004440"/>
<path opacity="0.0980392" d="M9.83672 88.6322L9.13409 88.7485L9.83672 88.8648V88.6322Z" fill="#004440"/>
<path opacity="0.0980392" d="M101.74 88.8647L101.037 88.9811L101.74 89.0974V88.8647Z" fill="#004440"/>
<path opacity="0.0980392" d="M103.988 89.0974L103.286 89.2137L103.988 89.33V89.0974Z" fill="#004440"/>
<path opacity="0.0980392" d="M13.2093 89.0974L12.5067 89.2137L13.2093 89.33V89.0974Z" fill="#004440"/>
<path opacity="0.0980392" d="M107.923 89.33V89.7952L107.501 89.9115L107.923 90.0278C108.485 89.7952 108.485 89.5626 107.923 89.33Z" fill="#004440"/>
<path opacity="0.0980392" d="M88.5304 89.5626L88.8115 90.0279L89.3736 90.2605L89.0925 89.7952L88.5304 89.5626Z" fill="#004440"/>
<path opacity="0.0980392" d="M16.3008 89.5626L15.5982 89.6789L16.3008 89.7952V89.5626Z" fill="#004440"/>
<path opacity="0.0980392" d="M2.81049 90.0278L2.10786 90.1441L2.81049 90.2604V90.0278Z" fill="#004440"/>
<path opacity="0.0980392" d="M5.05888 90.2605L4.35626 90.3768L5.05888 90.4931V90.2605Z" fill="#004440"/>
<path opacity="0.0980392" d="M7.02621 90.493L6.32359 90.6094L7.02621 90.7257V90.493Z" fill="#004440"/>
<path opacity="0.0980392" d="M8.99356 90.7257L8.29094 90.842L8.99356 90.9583V90.7257Z" fill="#004440"/>
<path opacity="0.0980392" d="M126.191 93.9823L126.05 94.7965H126.332L126.191 93.9823Z" fill="#004440"/>
<path opacity="0.0980392" d="M126.472 101.891L126.05 102.008L126.753 102.357L126.472 101.891Z" fill="#004440"/>
<path opacity="0.0980392" d="M121.413 105.846L121.694 106.311L122.116 106.195L121.413 105.846Z" fill="#004440"/>
<path opacity="0.0980392" d="M131.25 112.126L131.109 112.708H131.39L131.25 112.126Z" fill="#004440"/>
<path opacity="0.0980392" d="M130.969 113.522L130.828 116.197H131.109L130.969 113.522Z" fill="#004440"/>
<path opacity="0.0980392" d="M105.393 114.453L104.691 114.569L105.393 114.685V114.453Z" fill="#004440"/>
<path opacity="0.0980392" d="M108.766 114.918L108.063 115.034L108.766 115.15V114.918Z" fill="#004440"/>
<path opacity="0.0980392" d="M111.014 115.151L110.312 115.267L111.014 115.383V115.151Z" fill="#004440"/>
<path opacity="0.0980392" d="M113.263 115.383L112.56 115.499L113.263 115.616V115.383Z" fill="#004440"/>
<path opacity="0.0980392" d="M115.511 115.616L114.809 115.732L115.511 115.848V115.616Z" fill="#004440"/>
<path opacity="0.0980392" d="M119.727 115.848L118.181 115.965L119.727 116.081V115.848Z" fill="#004440"/>
<path opacity="0.0980392" d="M124.224 116.081L122.678 116.197L124.224 116.314V116.081Z" fill="#004440"/>
<path opacity="0.0980392" d="M126.191 116.313L125.769 116.43L126.753 117.011L126.191 116.313Z" fill="#004440"/>
<path opacity="0.0980392" d="M106.237 116.779L105.534 116.895L106.237 117.011V116.779Z" fill="#004440"/>
<path opacity="0.0980392" d="M107.923 117.011L107.22 117.128L107.923 117.244V117.011Z" fill="#004440"/>
<path opacity="0.0980392" d="M110.171 117.244L109.188 117.36L110.171 117.477V117.244Z" fill="#004440"/>
<path opacity="0.0980392" d="M112.701 117.477L111.998 117.593L112.701 117.709V117.477Z" fill="#004440"/>
<path opacity="0.0980392" d="M131.531 117.709L131.25 118.174L130.828 118.058L131.953 118.756C132.084 118.415 131.943 118.299 131.531 118.407L131.671 118.058L131.531 117.709Z" fill="#004440"/>
<path opacity="0.0980392" d="M115.511 117.709L114.527 117.826L115.511 117.942V117.709Z" fill="#004440"/>
<path opacity="0.0980392" d="M119.165 117.942L117.619 118.058L119.165 118.175V117.942Z" fill="#004440"/>
<path opacity="0.0980392" d="M124.224 118.174L122.397 118.291L124.224 118.407V118.174Z" fill="#004440"/>
<path d="M15.1766 0.00512695L13.6309 0.121435L20.095 8.96087L19.6734 9.07718L11.3825 2.4476L14.7551 6.40209L15.0361 7.21625L5.90202 2.3313L7.02622 3.49438L16.8629 10.2403L23.3271 13.9621L41.3142 22.1037L59.8634 32.1063L72.2296 39.7826L80.2395 45.9469C96.709 61.2686 111.042 78.2884 123.24 97.0063C124.383 97.2855 125.132 97.1692 125.488 96.6574L126.05 94.7965V88.7484L125.769 88.5158L125.207 83.6309L123.662 78.397L122.678 84.5613L121.413 86.7712C120.982 86.8953 120.842 86.779 120.992 86.4223L121.554 84.3287V82.0026L121.273 81.7699L120.992 78.7459L119.727 75.6056L119.586 76.1871L119.867 76.4198V80.1416L120.148 80.8395L119.586 82.8167C118.837 83.0338 118.65 82.6074 119.024 81.5373L116.214 68.7434L114.246 63.3932L109.75 57.1126C106.208 53.2976 102.321 49.7696 98.0861 46.5285L97.3835 53.6233L96.8214 55.2516L95.5567 56.531C95.1257 56.6551 94.9852 56.5388 95.1351 56.1821L95.4161 55.9495L95.6972 52.2276L95.9782 51.995V48.0405L94.573 41.9925L92.3246 37.5727C88.8021 33.7423 84.9143 30.2143 80.6611 26.9887C76.8763 23.9957 72.6605 21.3594 68.0139 19.0797L67.8733 19.4286L69.8407 24.7788L70.1217 28.9659L69.5596 29.1985V28.2681L67.5923 22.4527C66.618 20.3126 65.2596 18.4904 63.5171 16.9862L50.8699 11.1707L50.7293 11.7523C52.5093 14.5437 53.5398 17.9554 53.8209 21.9874L53.2588 21.7548L47.3568 12.2175L42.7194 7.21625L37.9416 5.35531L28.948 2.56391L24.1702 1.40083L15.1766 0.00512695Z" fill="#004440"/>
<path d="M3.3726 5.12268L2.38892 5.70422C1.39589 6.47961 1.02116 7.68147 1.26473 9.30978L11.3825 14.5437L10.3988 14.66L4.21574 13.0317L1.26473 11.8686V15.4741L1.6863 15.5904L9.27463 18.6145L14.6146 20.0102L18.2682 20.4754L18.6898 20.8243L17.9871 20.9406L17.7061 20.708H15.4577L15.1767 20.4754L10.1178 20.0102L2.52945 18.3818L2.66998 18.7308C3.02597 20.142 3.82227 21.1887 5.05889 21.8711C7.64455 23.2203 10.5487 24.3058 13.7714 25.1277L20.5166 26.2908L27.1212 26.8724L26.1376 27.2213L20.7976 27.4539L20.5166 27.2213L14.6146 26.9887L10.3988 26.2908L7.30728 25.3603L7.16676 25.7093C8.90926 30.4702 11.8603 34.2308 16.0198 36.9912L17.7061 37.9217L21.9218 39.3174L29.5102 40.9457L29.9317 41.2946L29.2291 41.4109L28.9481 41.1783L21.0787 40.4804L19.3924 40.0152V40.2478L26.9807 43.0392L31.7585 43.9697L32.1801 44.3186L31.7585 44.4349L31.4775 44.2023L22.4839 43.2718L24.7323 45.3654L30.9154 48.8546L35.9743 50.9482L44.4058 53.507L55.6477 55.8331H57.334L59.5824 56.2984L66.8897 56.531L67.1707 56.2984H72.5107L76.7264 56.9962L80.5205 58.043L78.6937 58.1593L75.8832 57.6941H66.8897L59.8634 58.8572H52.8372L52.5562 58.6245L46.6541 58.3919L42.4384 57.6941L42.5789 58.043C44.3214 61.4082 46.804 64.1608 50.0267 66.3009C51.713 67.5415 53.6804 68.5495 55.9288 69.3249L70.8244 73.7446L75.8832 74.6751L87.9683 75.8382L88.3899 76.1871L86.001 76.3034L85.72 76.0708H76.4453L76.1643 76.3034H73.3538L68.2949 75.373L64.6413 74.2099L64.9223 74.6751C71.8174 78.428 79.2184 81.7622 87.1252 84.6776L95.2756 87.0038L105.393 88.3995L107.923 89.0974L108.625 89.6789L108.204 90.2604L101.459 89.0974H93.5893L92.1841 88.8647C88.3056 88.0428 84.8393 86.8797 81.7853 85.3755L82.6284 86.306C86.2633 88.6476 90.3854 90.5861 94.9946 92.1214L108.766 95.6106L112.42 97.2389H116.354L116.214 96.89C104.335 78.7304 89.7671 62.7961 72.5107 49.0873C67.1145 44.7916 61.3998 40.7596 55.3667 36.9912L47.4973 32.3388L36.2553 26.5234L26.4186 20.708L11.8041 11.4033L3.3726 5.12268Z" fill="#004440"/>
<path d="M13.2093 10.0077L13.7714 10.7055L26.6997 18.6145L49.1836 30.7106L56.7719 35.3629C65.372 40.9612 73.3819 47.048 80.8016 53.6233C89.4954 61.2377 97.4584 69.4568 104.691 78.2807L115.371 92.2377L119.867 98.9836L120.992 101.891L123.802 101.193L122.959 99.4489L114.246 87.1202L101.318 70.837L87.2657 55.7169C82.7689 51.2196 77.9443 46.9938 72.7917 43.0393C65.9154 38.0303 58.6081 33.3779 50.8699 29.0823L13.2093 10.0077Z" fill="#004440"/>
<path d="M3.3727 88.1669C1.96745 88.0118 0.98378 88.0894 0.421677 88.3995L0.140633 89.2137L0.843254 89.7952L10.3989 90.7257L13.4905 91.4235L19.1114 92.1214L27.824 93.9823L38.2228 96.7737L53.6805 101.891L72.5107 109.102L88.8116 113.755L98.0862 115.616L107.642 117.011L114.387 117.477L114.668 117.709H117.479L117.76 117.942L125.91 118.174C126.472 118.097 126.706 117.748 126.613 117.128L125.91 116.546C125.011 116.748 124.449 116.67 124.224 116.314L115.792 116.081L115.511 115.848L106.799 115.15L91.341 112.359L77.0075 108.405L66.8898 104.915L51.4321 98.8673C45.6237 96.7737 39.5343 94.9128 33.1639 93.2845L17.7062 90.0278H16.3009L9.83682 88.8647L3.65374 88.3995L3.3727 88.1669Z" fill="#004440"/>
<path d="M126.613 102.357H125.629L120.711 104.101L121.694 106.078L127.456 104.101L126.613 102.357Z" fill="#004440"/>
<path d="M127.877 106.078L122.959 107.474L124.645 113.638L125.067 113.987C127.596 114.608 129.517 115.732 130.828 117.36L130.969 117.709L131.109 117.128L130.828 116.895V112.708L131.39 110.614L127.877 106.078ZM128.018 110.731L128.861 110.963L129.142 111.661C129.329 112.437 129.048 112.902 128.299 113.057C127.175 113.212 126.519 113.057 126.332 112.592L126.613 110.963L128.018 110.731Z" fill="#004440"/>
</svg>
