<svg width="163" height="24" viewBox="0 0 163 24" fill="none" xmlns="http://www.w3.org/2000/svg">
<g opacity="0.6">
<path d="M143.351 21.9999V12.2145L140.387 9.43814L137.73 7.89746V20.273C137.73 21.2285 138.486 21.9999 139.416 21.9999H143.351Z" fill="#4285F4"/>
<path d="M156.84 22.0001H160.774C161.708 22.0001 162.461 21.2258 162.461 20.2732V7.89771L159.451 9.66237L156.84 12.2146V22.0001Z" fill="#34A853"/>
<path d="M143.351 12.2146L142.947 8.39111L143.351 4.73169L150.095 9.9122L156.84 4.73169L157.291 8.19354L156.84 12.2146L150.095 17.3951L143.351 12.2146Z" fill="#EA4335"/>
<path d="M156.84 4.73169V12.2146L162.461 7.89753V5.59507C162.461 3.45961 160.08 2.24224 158.414 3.52293L156.84 4.73169Z" fill="#FBBC04"/>
<path d="M137.73 7.89757L140.315 9.88315L143.351 12.2146V4.73173L141.777 3.52297C140.107 2.24219 137.73 3.45966 137.73 5.59502V7.89748V7.89757Z" fill="#C5221F"/>
</g>
<path d="M107.365 0C104.086 0 100.939 1.26506 98.6221 3.51469C96.3032 5.76521 95.0001 8.81734 94.9995 12C94.9995 15.1813 96.3036 18.2357 98.6221 20.4853C100.939 22.7349 104.086 24 107.365 24C110.644 24 113.791 22.7349 116.107 20.4853C118.426 18.2357 119.73 15.1813 119.73 12C119.73 8.81869 118.426 5.76431 116.107 3.51469C113.791 1.26506 110.644 0 107.365 0Z" fill="url(#paint0_linear_30_12)"/>
<path d="M100.366 11.4932C103.972 9.96917 106.375 8.96435 107.577 8.47892C111.012 7.09273 111.725 6.85198 112.191 6.84382C112.293 6.84223 112.521 6.86679 112.67 6.98351C112.793 7.08195 112.828 7.21507 112.846 7.30854C112.861 7.40191 112.882 7.61473 112.865 7.78085C112.679 9.67835 111.874 14.283 111.464 16.4083C111.292 17.3075 110.95 17.609 110.62 17.6385C109.901 17.7026 109.356 17.178 108.661 16.7357C107.573 16.0432 106.958 15.6124 105.902 14.9368C104.681 14.156 105.473 13.7269 106.168 13.0256C106.35 12.842 109.515 10.0492 109.575 9.79591C109.582 9.76423 109.59 9.6461 109.517 9.58385C109.445 9.52141 109.339 9.54279 109.262 9.55967C109.151 9.58367 107.414 10.6989 104.045 12.9052C103.552 13.2341 103.106 13.3944 102.704 13.386C102.264 13.3768 101.413 13.1437 100.782 12.9446C100.009 12.7003 99.3925 12.5711 99.4466 12.1562C99.4736 11.9402 99.7808 11.7191 100.366 11.4932Z" fill="white"/>
<g opacity="0.6">
<path d="M71.2033 0H58.0651C54.864 0 52.2689 2.5184 52.2689 5.625V18.375C52.2689 21.4816 54.864 24 58.0651 24H71.2033C74.4044 24 76.9995 21.4816 76.9995 18.375V5.625C76.9995 2.5184 74.4044 0 71.2033 0Z" fill="url(#paint1_radial_30_12)"/>
<path d="M71.2033 0H58.0651C54.864 0 52.2689 2.5184 52.2689 5.625V18.375C52.2689 21.4816 54.864 24 58.0651 24H71.2033C74.4044 24 76.9995 21.4816 76.9995 18.375V5.625C76.9995 2.5184 74.4044 0 71.2033 0Z" fill="url(#paint2_radial_30_12)"/>
<path d="M64.635 2.625C62.0115 2.625 61.6822 2.63616 60.6518 2.68163C59.6233 2.72738 58.9213 2.88534 58.3071 3.11719C57.6716 3.35662 57.1327 3.67697 56.5958 4.19822C56.0584 4.71937 55.7283 5.24241 55.4808 5.85881C55.2412 6.45506 55.0782 7.13662 55.0319 8.13422C54.9859 9.13425 54.9738 9.45394 54.9738 12.0001C54.9738 14.5463 54.9854 14.8648 55.0321 15.8647C55.0795 16.8628 55.2422 17.5441 55.481 18.1402C55.7279 18.7568 56.058 19.2799 56.5951 19.8009C57.1319 20.3225 57.6709 20.6436 58.3058 20.883C58.9205 21.1148 59.6227 21.2728 60.6509 21.3186C61.6814 21.364 62.0104 21.3752 64.6339 21.3752C67.2577 21.3752 67.586 21.364 68.6164 21.3186C69.6448 21.2728 70.3476 21.1148 70.9623 20.883C71.5975 20.6436 72.1357 20.3225 72.6724 19.8009C73.2098 19.2799 73.5398 18.7568 73.7874 18.1404C74.0248 17.5441 74.1879 16.8626 74.2362 15.8649C74.2825 14.865 74.2946 14.5463 74.2946 12.0001C74.2946 9.45394 74.2825 9.13444 74.2362 8.13441C74.1879 7.13634 74.0248 6.45516 73.7874 5.85909C73.5398 5.24241 73.2098 4.71937 72.6724 4.19822C72.1351 3.67678 71.5977 3.35644 70.9617 3.11728C70.3459 2.88534 69.6435 2.72728 68.615 2.68163C67.5846 2.63616 67.2565 2.625 64.632 2.625H64.635ZM63.7684 4.31447C64.0257 4.31409 64.3127 4.31447 64.635 4.31447C67.2145 4.31447 67.5201 4.32347 68.5387 4.36838C69.4806 4.41019 69.9918 4.56291 70.3324 4.69125C70.7832 4.86112 71.1046 5.06428 71.4425 5.3925C71.7806 5.72062 71.9899 6.03309 72.1654 6.47062C72.2977 6.80062 72.4552 7.29675 72.4981 8.21081C72.5444 9.19913 72.5544 9.49594 72.5544 11.9979C72.5544 14.4999 72.5444 14.7968 72.4981 15.7851C72.455 16.6991 72.2977 17.1952 72.1654 17.5253C71.9904 17.9629 71.7806 18.2744 71.4425 18.6023C71.1044 18.9305 70.7834 19.1335 70.3324 19.3035C69.9922 19.4324 69.4806 19.5848 68.5387 19.6266C67.5203 19.6715 67.2145 19.6812 64.635 19.6812C62.0555 19.6812 61.7498 19.6715 60.7315 19.6266C59.7896 19.5844 59.2784 19.4317 58.9375 19.3033C58.4868 19.1333 58.1647 18.9303 57.8266 18.6022C57.4885 18.274 57.2792 17.9623 57.1037 17.5246C56.9715 17.1945 56.8139 16.6984 56.771 15.7843C56.7247 14.796 56.7155 14.4992 56.7155 11.9956C56.7155 9.49209 56.7247 9.19678 56.771 8.20847C56.8141 7.29441 56.9715 6.79828 57.1037 6.46781C57.2789 6.03028 57.4885 5.71781 57.8267 5.38969C58.1648 5.06156 58.4868 4.85841 58.9376 4.68816C59.2782 4.55925 59.7896 4.40691 60.7315 4.36491C61.6226 4.32581 61.968 4.31409 63.7684 4.31212V4.31447ZM69.7918 5.87109C69.1518 5.87109 68.6325 6.37453 68.6325 6.99572C68.6325 7.61681 69.1518 8.12072 69.7918 8.12072C70.4318 8.12072 70.951 7.61681 70.951 6.99572C70.951 6.37463 70.4318 5.87072 69.7918 5.87072V5.87109ZM64.635 7.18556C61.8954 7.18556 59.674 9.34125 59.674 12.0001C59.674 14.6589 61.8954 16.8136 64.635 16.8136C67.3748 16.8136 69.5954 14.6589 69.5954 12.0001C69.5954 9.34134 67.3746 7.18556 64.6348 7.18556H64.635ZM64.635 8.87503C66.4134 8.87503 67.8552 10.2741 67.8552 12.0001C67.8552 13.7259 66.4134 15.1252 64.635 15.1252C62.8566 15.1252 61.4149 13.7259 61.4149 12.0001C61.4149 10.2741 62.8566 8.87503 64.635 8.87503Z" fill="white" fill-opacity="0.6"/>
</g>
<g opacity="0.6">
<path d="M33.5126 3.75826C33.316 3.03185 32.9326 2.3696 32.4005 1.83747C31.8684 1.30533 31.2062 0.921877 30.4798 0.725281C27.8204 0 17.1174 0 17.1174 0C17.1174 0 6.41377 0.0219538 3.75441 0.747235C3.02799 0.943842 2.36575 1.32732 1.83363 1.85948C1.30152 2.39164 0.918102 3.05391 0.721558 3.78035C-0.0828367 8.50552 -0.394876 15.7056 0.743646 20.2417C0.94021 20.9681 1.32364 21.6304 1.85575 22.1625C2.38786 22.6947 3.05009 23.0781 3.77649 23.2747C6.43586 24 17.1392 24 17.1392 24C17.1392 24 27.8424 24 30.5016 23.2747C31.228 23.0781 31.8903 22.6947 32.4224 22.1626C32.9545 21.6304 33.338 20.9682 33.5346 20.2417C34.383 15.5099 34.6444 8.31423 33.5126 3.75826Z" fill="#FF0000"/>
<path d="M13.7106 17.1427L22.5896 11.9999L13.7106 6.85706V17.1427Z" fill="white"/>
</g>
<defs>
<linearGradient id="paint0_linear_30_12" x1="1331.53" y1="0" x2="1331.53" y2="2400" gradientUnits="userSpaceOnUse">
<stop stop-color="#2AABEE"/>
<stop offset="1" stop-color="#229ED9"/>
</linearGradient>
<radialGradient id="paint1_radial_30_12" cx="0" cy="0" r="1" gradientUnits="userSpaceOnUse" gradientTransform="translate(58.838 25.8485) rotate(-90) scale(23.7858 22.7961)">
<stop stop-color="#FFDD55"/>
<stop offset="0.1" stop-color="#FFDD55"/>
<stop offset="0.5" stop-color="#FF543E"/>
<stop offset="1" stop-color="#C837AB"/>
</radialGradient>
<radialGradient id="paint2_radial_30_12" cx="0" cy="0" r="1" gradientUnits="userSpaceOnUse" gradientTransform="translate(48.1264 1.72884) rotate(78.3457) scale(10.645 45.1075)">
<stop stop-color="#3771C8"/>
<stop offset="0.128" stop-color="#3771C8"/>
<stop offset="1" stop-color="#6600FF" stop-opacity="0"/>
</radialGradient>
</defs>
</svg>
