<svg width="11" height="11" viewBox="0 0 11 11" fill="none" xmlns="http://www.w3.org/2000/svg">
<path fill-rule="evenodd" clip-rule="evenodd" d="M1.61133 1.6109C2.64172 0.57982 4.04164 0 5.5 0C6.95836 0 8.35828 0.57982 9.38867 1.6109C10.4199 2.64198 11 4.0419 11 5.5C11 6.9581 10.4199 8.35802 9.38867 9.3891C8.35828 10.4202 6.95836 11 5.5 11C4.04164 11 2.64172 10.4202 1.61133 9.3891C0.580078 8.35802 0 6.9581 0 5.5C0.000285716 4.04128 0.579874 2.64239 1.61133 1.6109ZM5.59428 3.88617C5.05975 4.10866 3.99069 4.5692 2.38709 5.2677C2.1267 5.37126 1.99006 5.47258 1.97803 5.57158C1.95687 5.73882 2.16632 5.80478 2.45092 5.89441C2.48995 5.9067 2.5304 5.91944 2.57186 5.93294C2.85288 6.02421 3.231 6.13103 3.42694 6.13524C3.60569 6.13911 3.8042 6.06563 4.02334 5.9149C5.52209 4.90367 6.29467 4.39251 6.34366 4.38151C6.37803 4.37378 6.4253 4.36398 6.4571 4.3926C6.48975 4.42113 6.48631 4.47527 6.48288 4.48979C6.46261 4.57812 5.64297 5.34017 5.21646 5.73672C5.08236 5.8614 4.98712 5.94994 4.9678 5.97007C4.92463 6.01492 4.88062 6.05734 4.83833 6.09811C4.57753 6.34951 4.38187 6.53812 4.8492 6.84603C5.0758 6.99529 5.25668 7.11848 5.43744 7.24161C5.63168 7.37391 5.82579 7.50613 6.07639 7.67051C6.14084 7.71274 6.20238 7.75661 6.26231 7.79934C6.49009 7.96171 6.69471 8.10757 6.9478 8.0843C7.09475 8.07081 7.24686 7.93262 7.32335 7.52047C7.50553 6.54636 7.86389 4.43591 7.94639 3.56622C7.95413 3.49008 7.94467 3.39254 7.9378 3.34975C7.93006 3.30691 7.9146 3.24589 7.8596 3.20077C7.79342 3.14728 7.69202 3.13602 7.64647 3.13675C7.43936 3.14049 7.12225 3.25083 5.59428 3.88617Z" fill="white"/>
</svg>
