<svg width="37" height="36" viewBox="0 0 37 36" fill="none" xmlns="http://www.w3.org/2000/svg">
<g opacity="0.6">
<path fill-rule="evenodd" clip-rule="evenodd" d="M5.94956 5.1817C9.26397 1.86508 13.767 0 18.4581 0C23.1491 0 27.6522 1.86508 30.9666 5.1817C34.2838 8.49832 36.1497 13.0014 36.1497 17.6916C36.1497 22.3818 34.2838 26.8849 30.9666 30.2015C27.6522 33.5181 23.1491 35.3832 18.4581 35.3832C13.767 35.3832 9.26397 33.5181 5.94956 30.2015C2.63239 26.8849 0.766479 22.3818 0.766479 17.6916C0.767399 12.9994 2.63173 8.49964 5.94956 5.1817ZM18.7613 12.5005C17.0419 13.2162 13.6031 14.6976 8.44489 16.9444C7.60731 17.2775 7.16778 17.6034 7.12908 17.9218C7.06101 18.4598 7.73473 18.672 8.65018 18.9603C8.77574 18.9998 8.90585 19.0408 9.03922 19.0842C9.94315 19.3778 11.1594 19.7214 11.7897 19.735C12.3647 19.7474 13.0032 19.511 13.7081 19.0262C18.5291 15.7734 21.0142 14.1292 21.1718 14.0938C21.2824 14.0689 21.4344 14.0374 21.5367 14.1295C21.6417 14.2213 21.6307 14.3954 21.6196 14.4421C21.5544 14.7263 18.9179 17.1775 17.5459 18.4531C17.1146 18.8541 16.8083 19.1389 16.7461 19.2037C16.6073 19.3479 16.4657 19.4844 16.3297 19.6155C15.4908 20.4242 14.8614 21.0309 16.3646 22.0213C17.0935 22.5014 17.6753 22.8977 18.2568 23.2938C18.8816 23.7193 19.506 24.1446 20.3121 24.6734C20.5194 24.8092 20.7173 24.9503 20.9101 25.0878C21.6428 25.6101 22.301 26.0793 23.1151 26.0044C23.5878 25.961 24.0771 25.5165 24.3231 24.1908C24.9091 21.0574 26.0619 14.2688 26.3272 11.4713C26.3521 11.2264 26.3217 10.9127 26.2996 10.775C26.2747 10.6372 26.2249 10.4409 26.048 10.2958C25.8352 10.1237 25.509 10.0875 25.3625 10.0899C24.6963 10.1019 23.6763 10.4568 18.7613 12.5005Z" fill="#272727"/>
</g>
</svg>
