<svg width="44" height="43" viewBox="0 0 44 43" fill="none" xmlns="http://www.w3.org/2000/svg">
<path d="M22.4595 0C10.594 0 0.973022 9.62096 0.973022 21.4865C0.973022 33.352 10.594 42.973 22.4595 42.973C34.325 42.973 43.946 33.352 43.946 21.4865C43.946 9.62096 34.325 0 22.4595 0ZM32.7855 16.1964C32.7999 16.4218 32.7999 16.6568 32.7999 16.887C32.7999 23.9277 27.4379 32.0379 17.6394 32.0379C14.6179 32.0379 11.817 31.1602 9.45731 29.6494C9.88895 29.6974 10.3014 29.7166 10.7427 29.7166C13.2366 29.7166 15.5292 28.8725 17.3565 27.4432C15.016 27.3953 13.0496 25.8605 12.3781 23.7502C13.1983 23.8701 13.9369 23.8701 14.781 23.6543C13.5758 23.4095 12.4926 22.755 11.7154 21.802C10.9381 20.849 10.5148 19.6563 10.5172 18.4266V18.3594C11.2223 18.7575 12.052 19.0021 12.9201 19.0357C12.1903 18.5493 11.5918 17.8904 11.1777 17.1174C10.7636 16.3444 10.5466 15.4811 10.546 14.6041C10.546 13.6113 10.805 12.7048 11.2702 11.9183C12.6079 13.565 14.277 14.9117 16.1693 15.8711C18.0615 16.8304 20.1344 17.3808 22.2533 17.4865C21.5003 13.8655 24.2053 10.9351 27.457 10.9351C28.9918 10.9351 30.3731 11.5778 31.3467 12.6137C32.5505 12.3883 33.7015 11.9375 34.7279 11.3332C34.3298 12.5658 33.4953 13.6065 32.3874 14.2636C33.4617 14.1485 34.4977 13.8511 35.4569 13.4339C34.7327 14.4986 33.8262 15.4434 32.7855 16.1964Z" fill="white" fill-opacity="0.6"/>
</svg>
