<svg width="15" height="15" viewBox="0 0 15 15" fill="none" xmlns="http://www.w3.org/2000/svg">
<path d="M11.5 1.15C10.325 0.425 8.975 0 7.5 0V1.15H11.5Z" fill="#ED4C5C"/>
<path d="M7.5 2.2999H12.9C12.475 1.8749 12 1.4749 11.5 1.1499H7.5V2.2999Z" fill="white"/>
<path d="M7.5 3.4498H13.825C13.55 3.0248 13.25 2.6498 12.925 2.2998H7.5V3.4498Z" fill="#ED4C5C"/>
<path d="M7.5 4.59971H14.425C14.25 4.19971 14.05 3.79971 13.825 3.44971H7.5V4.59971Z" fill="white"/>
<path d="M7.5 5.7501H14.8C14.7 5.3501 14.575 4.9751 14.425 4.6001H7.5V5.7501Z" fill="#ED4C5C"/>
<path d="M7.5 6.92539H14.975C14.95 6.52539 14.875 6.15039 14.8 5.77539H7.5V6.92539Z" fill="white"/>
<path d="M14.975 6.9248H7.5V7.4998H0C0 7.6998 -2.42144e-08 7.8748 0.025 8.0748H14.975C15 7.8748 15 7.6998 15 7.4998C15 7.2998 15 7.0998 14.975 6.9248Z" fill="#ED4C5C"/>
<path d="M0.199902 9.2252H14.7999C14.8999 8.8502 14.9499 8.4752 14.9749 8.0752H0.0249023C0.0499023 8.4502 0.124902 8.8502 0.199902 9.2252Z" fill="white"/>
<path d="M0.575073 10.3746H14.4251C14.5751 9.99961 14.7001 9.62461 14.8001 9.22461H0.200073C0.300073 9.62461 0.425073 9.99961 0.575073 10.3746Z" fill="#ED4C5C"/>
<path d="M1.17495 11.525H13.825C14.05 11.15 14.25 10.775 14.425 10.375H0.574951C0.749951 10.775 0.949951 11.15 1.17495 11.525Z" fill="white"/>
<path d="M2.0748 12.6749H12.9248C13.2498 12.3249 13.5748 11.9249 13.8248 11.5249H1.1748C1.4248 11.9499 1.7498 12.3249 2.0748 12.6749Z" fill="#ED4C5C"/>
<path d="M3.47507 13.8248H11.5251C12.0501 13.4998 12.5001 13.0998 12.9251 12.6748H2.07507C2.50007 13.1248 2.97507 13.4998 3.47507 13.8248Z" fill="white"/>
<path d="M7.49998 14.9997C8.97498 14.9997 10.35 14.5747 11.525 13.8247H3.47498C4.64998 14.5747 6.02498 14.9997 7.49998 14.9997Z" fill="#ED4C5C"/>
<path d="M3.5 1.15C2.975 1.475 2.5 1.875 2.075 2.3C1.725 2.65 1.425 3.05 1.175 3.45C0.95 3.825 0.725 4.2 0.575 4.6C0.425 4.975 0.3 5.35 0.2 5.75C0.1 6.125 0.05 6.5 0.025 6.9C-2.42144e-08 7.1 0 7.3 0 7.5H7.5V0C6.025 0 4.675 0.425 3.5 1.15Z" fill="#428BC1"/>
<path d="M5.7501 0.250488L5.8751 0.625488H6.2501L5.9501 0.875488L6.0501 1.25049L5.7501 1.02549L5.4501 1.25049L5.5501 0.875488L5.2501 0.625488H5.6251L5.7501 0.250488ZM6.7501 1.75049L6.8751 2.12549H7.2501L6.9501 2.37549L7.0501 2.75049L6.7501 2.52549L6.4501 2.75049L6.5501 2.37549L6.2501 2.12549H6.6251L6.7501 1.75049ZM4.7501 1.75049L4.8751 2.12549H5.2501L4.9501 2.37549L5.0501 2.75049L4.7501 2.52549L4.4501 2.75049L4.5501 2.37549L4.2501 2.12549H4.6251L4.7501 1.75049ZM5.7501 3.25049L5.8751 3.62549H6.2501L5.9501 3.87549L6.0501 4.25049L5.7501 4.02549L5.4501 4.25049L5.5501 3.87549L5.2501 3.62549H5.6251L5.7501 3.25049ZM3.7501 3.25049L3.8751 3.62549H4.2501L3.9501 3.87549L4.0501 4.25049L3.7501 4.02549L3.4501 4.25049L3.5501 3.87549L3.2501 3.62549H3.6251L3.7501 3.25049ZM1.7501 3.25049L1.8751 3.62549H2.2501L1.9501 3.87549L2.0501 4.25049L1.7501 4.02549L1.4501 4.25049L1.5501 3.87549L1.2501 3.62549H1.6251L1.7501 3.25049ZM6.7501 4.75049L6.8751 5.12549H7.2501L6.9501 5.37549L7.0501 5.75049L6.7501 5.52549L6.4501 5.75049L6.5501 5.37549L6.2501 5.12549H6.6251L6.7501 4.75049ZM4.7501 4.75049L4.8751 5.12549H5.2501L4.9501 5.37549L5.0501 5.75049L4.7501 5.52549L4.4501 5.75049L4.5501 5.37549L4.2501 5.12549H4.6251L4.7501 4.75049ZM2.7501 4.75049L2.8751 5.12549H3.2501L2.9501 5.37549L3.0501 5.75049L2.7501 5.52549L2.4501 5.75049L2.5501 5.37549L2.2501 5.12549H2.6251L2.7501 4.75049ZM5.7501 6.25049L5.8751 6.62549H6.2501L5.9501 6.87549L6.0501 7.25049L5.7501 7.02549L5.4501 7.25049L5.5501 6.87549L5.2501 6.62549H5.6251L5.7501 6.25049ZM3.7501 6.25049L3.8751 6.62549H4.2501L3.9501 6.87549L4.0501 7.25049L3.7501 7.02549L3.4501 7.25049L3.5501 6.87549L3.2501 6.62549H3.6251L3.7501 6.25049ZM1.7501 6.25049L1.8751 6.62549H2.2501L1.9501 6.87549L2.0501 7.25049L1.7501 7.02549L1.4501 7.25049L1.5501 6.87549L1.2501 6.62549H1.6251L1.7501 6.25049ZM2.4501 2.75049L2.7501 2.52549L3.0501 2.75049L2.9251 2.37549L3.2251 2.12549H2.8501L2.7501 1.75049L2.6251 2.12549H2.2751L2.5751 2.35049L2.4501 2.75049ZM0.450098 5.75049L0.750098 5.52549L1.0501 5.75049L0.925098 5.37549L1.2251 5.12549H0.875098L0.750098 4.75049L0.625098 5.12549H0.375098C0.375098 5.15049 0.350098 5.17549 0.350098 5.20049L0.550098 5.35049L0.450098 5.75049Z" fill="white"/>
</svg>
