<svg width="20" height="20" viewBox="0 0 20 20" fill="none" xmlns="http://www.w3.org/2000/svg">
<path d="M10 0C7.25 0 4.775 1.65333 4.775 5.33333C4.775 9.01333 7.25 12.4444 10 12.4444C12.75 12.4444 15.225 9.01333 15.225 5.33333C15.225 1.65333 12.75 0 10 0ZM5.10158 11.9349C4.89159 11.6999 4.58806 11.557 4.27777 11.612C1.86412 12.0398 0 14.6359 0 17.3333V19C0 19.5523 0.447715 20 1 20H19C19.5523 20 20 19.5523 20 19V17.3333C20 14.6343 18.1556 12.0367 15.722 11.6112C15.4118 11.557 15.1085 11.6998 14.8986 11.9347C13.584 13.4057 11.8663 14.6667 10 14.6667C8.13376 14.6667 6.41615 13.4059 5.10158 11.9349Z" fill="#F0FCF9"/>
</svg>
