<svg width="15" height="15" viewBox="0 0 15 15" fill="none" xmlns="http://www.w3.org/2000/svg">
<circle cx="7.5" cy="7.5" r="7.5" fill="#FF0000"/>
<path d="M7.49997 0C4.32144 0 1.61844 1.93557 0.517212 4.65517H14.4827C13.3815 1.93557 10.6785 0 7.49997 0Z" fill="#42ADE2"/>
<path d="M7.49997 14.9999C10.6785 14.9999 13.3815 13.0643 14.4827 10.3447H0.517212C1.61844 13.0643 4.32144 14.9999 7.49997 14.9999Z" fill="#83BF4F"/>
<path d="M15 7.49995C15 6.69823 14.875 5.8965 14.65 5.17236H0.35C0.125 5.8965 0 6.69823 0 7.49995C0 8.30167 0.125 9.1034 0.35 9.82754H14.65C14.875 9.1034 15 8.30167 15 7.49995Z" fill="white"/>
<path d="M4.68513 3.95693C4.09198 3.95693 3.6224 3.46555 3.6224 2.84486C3.6224 2.22417 4.09198 1.73279 4.68513 1.73279C4.83342 1.73279 4.95699 1.75865 5.08056 1.81038C4.88285 1.65521 4.61098 1.55176 4.33912 1.55176C3.64711 1.55176 3.10339 2.12072 3.10339 2.84486C3.10339 3.569 3.64711 4.13796 4.33912 4.13796C4.61098 4.13796 4.88285 4.03452 5.08056 3.87934C4.95699 3.93107 4.83342 3.95693 4.68513 3.95693ZM5.74786 3.41383L5.84671 3.69831H6.11858L5.89614 3.85348L5.97029 4.13796L5.74786 3.95693L5.52542 4.13796L5.62428 3.85348L5.40185 3.69831H5.67371L5.74786 3.41383ZM6.81058 3.41383L6.88473 3.69831H7.1813L6.95887 3.85348L7.03302 4.13796L6.81058 3.95693L6.58815 4.13796L6.6623 3.85348L6.43987 3.69831H6.71173L6.81058 3.41383ZM7.87331 3.41383L7.94746 3.69831H8.21932L7.99689 3.85348L8.09574 4.13796L7.87331 3.95693L7.62617 4.13796L7.72503 3.85348L7.50259 3.69831H7.77445L7.87331 3.41383ZM8.91133 3.41383L9.01018 3.69831H9.28204L9.05961 3.85348L9.13376 4.13796L8.91133 3.95693L8.68889 4.13796L8.76304 3.85348L8.54061 3.69831H8.83718L8.91133 3.41383ZM9.97405 3.41383L10.0482 3.69831H10.3448L10.0976 3.85348L10.1965 4.13796L9.97405 3.95693L9.75162 4.13796L9.82577 3.85348L9.60333 3.69831H9.8752L9.97405 3.41383ZM6.81058 2.48279L6.88473 2.76727H7.1813L6.95887 2.92245L7.03302 3.20693L6.81058 3.0259L6.58815 3.20693L6.6623 2.92245L6.43987 2.76727H6.71173L6.81058 2.48279ZM7.87331 2.48279L7.94746 2.76727H8.21932L7.99689 2.92245L8.09574 3.20693L7.87331 3.0259L7.62617 3.20693L7.72503 2.92245L7.50259 2.76727H7.77445L7.87331 2.48279ZM8.91133 2.48279L9.01018 2.76727H9.28204L9.05961 2.92245L9.13376 3.20693L8.91133 3.0259L8.68889 3.20693L8.76304 2.92245L8.54061 2.76727H8.83718L8.91133 2.48279ZM9.97405 2.48279L10.0482 2.76727H10.3448L10.0976 2.92245L10.1965 3.20693L9.97405 3.0259L9.75162 3.20693L9.82577 2.92245L9.60333 2.76727H9.8752L9.97405 2.48279ZM7.87331 1.55176L7.94746 1.83624H8.21932L7.99689 1.99141L8.09574 2.2759L7.87331 2.09486L7.62617 2.2759L7.72503 1.99141L7.50259 1.83624H7.77445L7.87331 1.55176ZM8.91133 1.55176L9.01018 1.83624H9.28204L9.05961 1.99141L9.13376 2.2759L8.91133 2.09486L8.68889 2.2759L8.76304 1.99141L8.54061 1.83624H8.83718L8.91133 1.55176ZM9.97405 1.55176L10.0482 1.83624H10.3448L10.0976 1.99141L10.1965 2.2759L9.97405 2.09486L9.75162 2.2759L9.82577 1.99141L9.60333 1.83624H9.8752L9.97405 1.55176Z" fill="white"/>
</svg>
