<svg width="36" height="26" viewBox="0 0 36 26" fill="none" xmlns="http://www.w3.org/2000/svg">
<path opacity="0.6" d="M18.1888 0.940308H18.3856C20.2036 0.946942 29.4148 1.01329 31.8984 1.68119C32.6492 1.88503 33.3334 2.28235 33.8826 2.83345C34.4317 3.38454 34.8266 4.07011 35.0278 4.82164C35.2512 5.66205 35.4082 6.77448 35.5144 7.92229L35.5365 8.1523L35.5851 8.72731L35.6028 8.95731C35.7466 10.9787 35.7643 12.8718 35.7665 13.2854V13.4513C35.7643 13.8803 35.7444 15.9017 35.5851 18.0071L35.5675 18.2393L35.5475 18.4694C35.437 19.7344 35.2733 20.9906 35.0278 21.915C34.8272 22.6668 34.4325 23.3527 33.8833 23.9039C33.334 24.4551 32.6496 24.8522 31.8984 25.0555C29.333 25.7455 19.5821 25.7941 18.2308 25.7963H17.9168C17.2334 25.7963 14.407 25.7831 11.4435 25.6813L11.0675 25.6681L10.8751 25.6592L10.4969 25.6437L10.1187 25.6283C7.66385 25.5199 5.3262 25.3452 4.24916 25.0533C3.4983 24.8502 2.81398 24.4534 2.26475 23.9027C1.71552 23.3519 1.32068 22.6664 1.11976 21.915C0.874273 20.9928 0.710616 19.7344 0.600036 18.4694L0.582344 18.2371L0.564651 18.0071C0.455504 16.5086 0.395022 15.0068 0.383301 13.5043L0.383301 13.2323C0.387724 12.7568 0.405417 11.1136 0.524842 9.30011L0.540324 9.07232L0.546958 8.95731L0.564651 8.72731L0.613306 8.1523L0.635422 7.92229C0.741578 6.77448 0.898601 5.65984 1.12197 4.82164C1.32255 4.06981 1.71725 3.38391 2.2665 2.83272C2.81575 2.28153 3.50025 1.88442 4.25137 1.68119C5.32841 1.39368 7.66606 1.21676 10.1209 1.10618L10.4969 1.0907L10.8773 1.07743L11.0675 1.07079L11.4457 1.05531C13.5504 0.98758 15.6561 0.949979 17.762 0.942519H18.1888V0.940308ZM14.5375 8.03951V18.6949L23.731 13.3694L14.5375 8.03951Z" fill="#272727"/>
</svg>
