<svg width="36" height="26" viewBox="0 0 36 26" fill="none" xmlns="http://www.w3.org/2000/svg">
<path opacity="0.6" d="M18.1888 0.94043H18.3856C20.2036 0.947064 29.4148 1.01341 31.8984 1.68131C32.6492 1.88515 33.3334 2.28247 33.8826 2.83357C34.4317 3.38466 34.8266 4.07023 35.0278 4.82177C35.2512 5.66217 35.4082 6.7746 35.5144 7.92241L35.5365 8.15242L35.5851 8.72743L35.6028 8.95744C35.7466 10.9788 35.7643 12.8719 35.7665 13.2855V13.4514C35.7643 13.8804 35.7444 15.9018 35.5851 18.0073L35.5675 18.2395L35.5475 18.4695C35.437 19.7345 35.2733 20.9907 35.0278 21.9151C34.8272 22.667 34.4325 23.3529 33.8833 23.9041C33.334 24.4552 32.6496 24.8524 31.8984 25.0556C29.333 25.7456 19.5821 25.7943 18.2308 25.7965H17.9168C17.2334 25.7965 14.407 25.7832 11.4435 25.6815L11.0675 25.6682L10.8751 25.6594L10.4969 25.6439L10.1187 25.6284C7.66385 25.52 5.3262 25.3453 4.24916 25.0534C3.4983 24.8503 2.81398 24.4536 2.26475 23.9028C1.71552 23.352 1.32068 22.6666 1.11976 21.9151C0.874273 20.9929 0.710616 19.7345 0.600036 18.4695L0.582344 18.2373L0.564651 18.0073C0.455504 16.5087 0.395022 15.007 0.383301 13.5045L0.383301 13.2324C0.387724 12.7569 0.405417 11.1137 0.524842 9.30023L0.540324 9.07244L0.546958 8.95744L0.564651 8.72743L0.613306 8.15242L0.635422 7.92241C0.741578 6.7746 0.898601 5.65996 1.12197 4.82177C1.32255 4.06993 1.71725 3.38404 2.2665 2.83285C2.81575 2.28166 3.50025 1.88454 4.25137 1.68131C5.32841 1.39381 7.66606 1.21688 10.1209 1.1063L10.4969 1.09082L10.8773 1.07755L11.0675 1.07091L11.4457 1.05543C13.5504 0.987702 15.6561 0.950101 17.762 0.942641H18.1888V0.94043ZM14.5375 8.03963V18.6951L23.731 13.3696L14.5375 8.03963Z" fill="white"/>
</svg>
