<svg width="19" height="24" viewBox="0 0 19 24" fill="none" xmlns="http://www.w3.org/2000/svg">
<path d="M0.0102539 9.29631V18.5829H7.85382H15.6974V9.29631V0.00973129H7.85382H0.0102539V9.29631ZM4.83508 0.904531C4.91764 0.977083 4.96408 1.07866 4.96408 1.17055C4.96408 1.26245 4.91764 1.36402 4.83508 1.43657L4.71123 1.55749H3.1838H1.66153V2.98434V4.41602L1.53252 4.5321C1.45512 4.60949 1.34676 4.65302 1.24871 4.65302C1.15067 4.65302 1.0423 4.60949 0.964898 4.5321L0.835892 4.41602V2.71832V1.02061L0.964898 0.904531L1.08874 0.783613H2.89999H4.71123L4.83508 0.904531ZM8.64849 0.972246C9.05615 1.15604 9.52057 1.60586 9.73214 2.01699C9.89211 2.32654 9.94371 2.37974 10.0882 2.37974C10.2482 2.37974 10.7229 2.61674 10.9654 2.81505C11.2802 3.07624 11.564 3.48736 11.724 3.91783C11.8582 4.27092 11.8633 4.27575 12.1471 4.38216C12.9521 4.69171 13.5301 5.4269 13.7158 6.37491C13.7365 6.50066 13.8294 6.64093 13.979 6.7957C14.2525 7.0714 14.5621 7.66632 14.7273 8.23222C14.8924 8.81747 14.8924 9.77515 14.7273 10.3604C14.5621 10.9215 14.2577 11.5115 13.9893 11.7872C13.8036 11.9759 13.752 12.0726 13.6539 12.445C13.3959 13.3882 12.8076 14.0218 11.9304 14.2927C11.8891 14.3024 11.7962 14.4668 11.7343 14.6554C11.595 15.0666 11.2905 15.5067 10.9654 15.7776C10.7229 15.9759 10.2533 16.2129 10.0882 16.2129C9.94371 16.2129 9.89211 16.2661 9.73214 16.5756C9.51541 16.9916 9.05615 17.4366 8.63817 17.6252C8.33372 17.7655 8.246 17.7848 7.85382 17.7848C7.46164 17.7848 7.37392 17.7655 7.06946 17.6252C6.65148 17.4366 6.19222 16.9916 5.97549 16.5756C5.81552 16.2661 5.76392 16.2129 5.61943 16.2129C5.45947 16.2129 4.98472 15.9759 4.74735 15.7776C4.42226 15.5115 4.14877 15.1198 3.9888 14.6893C3.84947 14.3169 3.84947 14.3169 3.5605 14.2105C2.74518 13.9009 2.16207 13.1609 1.99695 12.2419C1.97114 12.0823 1.8989 11.971 1.72861 11.7969C1.45512 11.5212 1.14551 10.9311 0.980379 10.3604C0.820411 9.79449 0.820411 8.77878 0.980379 8.21771C1.14035 7.68083 1.46028 7.06656 1.72861 6.7957C1.8989 6.62158 1.96598 6.51033 1.99695 6.34589C2.16723 5.36402 2.84323 4.58531 3.77723 4.29994C3.81851 4.29026 3.90623 4.12581 3.97332 3.94202C4.1178 3.51638 4.40678 3.09558 4.72671 2.82956C4.98472 2.61674 5.45431 2.37974 5.61943 2.37974C5.76392 2.37974 5.81552 2.32654 5.97549 2.01699C6.1561 1.67841 6.59472 1.21408 6.90949 1.03996C7.47196 0.735245 8.08087 0.706224 8.64849 0.972246ZM14.7427 0.904531L14.8717 1.02061V2.71832V4.41602L14.7427 4.5321C14.6653 4.60949 14.557 4.65302 14.4589 4.65302C14.3609 4.65302 14.2525 4.60949 14.1751 4.5321L14.0461 4.41602V2.98434V1.55749H12.5238H10.9964L10.8726 1.43657C10.79 1.36402 10.7436 1.26245 10.7436 1.17055C10.7436 1.07866 10.79 0.977083 10.8726 0.904531L10.9964 0.783613H12.8076H14.6189L14.7427 0.904531ZM1.53252 14.0605L1.66153 14.1766V15.6083V17.0351H3.1838H4.71123L4.83508 17.156C4.91764 17.2286 4.96408 17.3302 4.96408 17.4221C4.96408 17.514 4.91764 17.6155 4.83508 17.6881L4.71123 17.809H2.89999H1.08874L0.964898 17.6881L0.835892 17.572V15.8743V14.1766L0.964898 14.0605C1.0423 13.9831 1.15067 13.9396 1.24871 13.9396C1.34676 13.9396 1.45512 13.9831 1.53252 14.0605ZM14.7427 14.0605L14.8717 14.1766V15.8743V17.572L14.7427 17.6881L14.6189 17.809H12.8076H10.9964L10.8726 17.6881C10.79 17.6155 10.7436 17.514 10.7436 17.4221C10.7436 17.3302 10.79 17.2286 10.8726 17.156L10.9964 17.0351H12.5238H14.0461V15.6083V14.1766L14.1751 14.0605C14.2525 13.9831 14.3609 13.9396 14.4589 13.9396C14.557 13.9396 14.6653 13.9831 14.7427 14.0605Z" fill="#004440"/>
<path d="M7.41537 1.67349C7.04899 1.8331 6.71873 2.22971 6.56393 2.69404C6.46588 2.99876 6.32655 3.10517 6.05306 3.10517C5.40803 3.11 4.82493 3.70976 4.64948 4.54652C4.58239 4.88993 4.43791 5.03987 4.16957 5.03987C3.9322 5.03987 3.51938 5.24302 3.3233 5.44616C3.03948 5.75088 2.85371 6.19102 2.77115 6.74241C2.74535 6.94072 2.70407 6.99876 2.50798 7.1487C2.24481 7.35184 1.92487 7.91291 1.78038 8.4256C1.65654 8.85607 1.65654 9.7412 1.78038 10.1668C1.93003 10.6892 2.20352 11.1777 2.48734 11.4196C2.72471 11.6275 2.74535 11.6662 2.79695 11.9709C2.95692 12.919 3.51938 13.5526 4.20054 13.5526C4.43275 13.5526 4.57723 13.7267 4.67012 14.1233C4.77332 14.5538 4.90749 14.8053 5.18614 15.0907C5.44415 15.3518 5.73313 15.4824 6.05306 15.4873C6.32655 15.4873 6.46588 15.5937 6.56393 15.8984C6.7755 16.5465 7.3328 17.035 7.85915 17.035C8.33905 17.035 8.86539 16.5901 9.0976 15.9951C9.25757 15.584 9.36594 15.4873 9.65491 15.4873C10.2999 15.4824 10.8779 14.8875 11.0533 14.0459C11.1307 13.688 11.2236 13.6009 11.5797 13.5477C12.2815 13.4413 12.7562 12.8754 12.911 11.9709C12.9626 11.6662 12.9884 11.6275 13.2206 11.4244C13.4993 11.1826 13.7779 10.6892 13.9276 10.1668C14.0514 9.7412 14.0514 8.85124 13.9276 8.4256C13.7779 7.90323 13.4993 7.40988 13.2206 7.16805C12.9884 6.9649 12.9626 6.92621 12.911 6.62149C12.7511 5.67349 12.1886 5.03987 11.5074 5.03987C11.2855 5.03987 11.1256 4.86091 11.0533 4.52717C10.9604 4.11605 10.785 3.77264 10.527 3.51146C10.2638 3.2406 9.98 3.11 9.65491 3.10517C9.38142 3.10517 9.24209 2.99876 9.14405 2.69404C8.93248 2.05075 8.37517 1.55741 7.85399 1.55741C7.75594 1.55741 7.55469 1.61061 7.41537 1.67349ZM7.00255 6.11363C6.69809 6.44253 6.37816 7.04713 6.28011 7.48244C6.0479 8.52717 6.37816 9.56224 7.17799 10.3119C8.17392 11.2358 9.60331 11.4824 10.8624 10.9504C11.2597 10.7811 11.2597 10.7811 10.8934 11.2793C9.8252 12.7448 7.70434 13.1995 6.01178 12.3192C5.54736 12.0774 4.88685 11.4583 4.62884 11.0229C3.94768 9.86696 3.99413 8.48364 4.763 7.38086C5.07262 6.93104 5.66604 6.4377 6.17175 6.20553C6.51748 6.04108 7.01803 5.87663 7.19864 5.86696C7.22444 5.86212 7.13671 5.9782 7.00255 6.11363ZM9.78907 6.70855C9.89744 6.80529 9.91808 6.873 9.91808 7.09549V7.36152H10.2019C10.5476 7.36152 10.7437 7.50178 10.7437 7.74846C10.7437 7.99513 10.5476 8.1354 10.2019 8.1354H9.91808V8.40142C9.91808 8.72548 9.76843 8.90928 9.50526 8.90928C9.24209 8.90928 9.09244 8.72548 9.09244 8.40142V8.1354H8.80863C8.46289 8.1354 8.2668 7.99513 8.2668 7.74846C8.2668 7.50178 8.46289 7.36152 8.80863 7.36152H9.09244V7.09549C9.09244 6.77143 9.24209 6.58764 9.50526 6.58764C9.60331 6.58764 9.71167 6.63117 9.78907 6.70855Z" fill="#004440"/>
<path d="M16.5229 9.28662V18.5732L17.2093 18.5925C17.9678 18.6167 18.2723 18.699 18.7419 18.994L18.9999 19.1584L18.9895 10.1524L18.9741 1.14636L18.7986 0.84164C18.6025 0.507904 18.3858 0.309597 18.0194 0.145147C17.8336 0.0629234 17.6685 0.0387383 17.1577 0.019392L16.5229 4.3869e-05V9.28662Z" fill="#004440"/>
<path d="M0.165128 19.5357C0.350896 19.734 0.562466 20.1209 0.608908 20.3579L0.63987 20.5175H8.45763H16.2702L16.3941 20.6385C16.5644 20.7932 16.5644 21.0157 16.3941 21.1705C16.2909 21.2721 16.2186 21.2914 15.9813 21.2914H15.6974V21.8767V22.4619L16.745 22.4426C17.7564 22.4281 17.7925 22.4232 18.0505 22.2975C18.4427 22.104 18.6027 21.9589 18.7988 21.6203C18.9587 21.3398 18.9742 21.2817 18.9742 20.9045C18.9742 20.5272 18.9587 20.4692 18.7988 20.1886C18.6078 19.8549 18.3911 19.6614 18.0196 19.4921L17.7873 19.3809L8.89109 19.3664L0 19.3567L0.165128 19.5357Z" fill="#004440"/>
<path d="M0.608908 21.4462C0.562466 21.6881 0.350896 22.075 0.165128 22.2733L0 22.4523H5.78463H11.5693V21.8719V21.2914H6.10456H0.63987L0.608908 21.4462Z" fill="#004440"/>
<path d="M12.395 22.6457V24L13.0142 23.6131L13.6335 23.2261L14.2527 23.6131L14.8719 24V22.6457V21.2914H13.6335H12.395V22.6457Z" fill="#004440"/>
</svg>
