<svg width="70" height="68" viewBox="0 0 70 68" fill="none" xmlns="http://www.w3.org/2000/svg">
<g filter="url(#filter0_d_147_643)">
<path fill-rule="evenodd" clip-rule="evenodd" d="M54.9426 41.1122C53.8388 43.0778 44.6113 44.9889 41.7618 46.0229C35.115 48.4344 31.9507 51.5773 27.1592 56.2503C26.705 56.6932 26.5068 57.0109 25.989 57.4087C22.2697 60.2664 16.0354 59.9428 18.641 50.8867C19.6777 47.2832 20.5409 46.9733 21.7494 44.9814C19.6381 46.6126 16.7284 52.1378 17.3607 56.3506C18.0062 60.6507 22.3873 63.8004 26.5814 60.7488C29.6809 58.4937 30.3848 57.0328 32.7708 55.0037C33.5312 54.357 34.182 53.7301 34.9836 53.1055C38.1238 50.6579 41.8999 49.5769 46.2092 48.2886C51.8558 46.6007 54.4712 46.5777 55.6907 41.7244C56.2899 39.3398 56.3314 37.2353 55.5059 34.9303C54.1336 31.0983 50.402 26.2414 46.793 29.6669C46.0908 30.3335 45.6095 30.8804 45.1639 32.0221C43.7157 35.733 44.3003 38.7979 49.3224 38.7099C50.4368 38.6903 51.9981 38.5882 52.9538 38.9918C53.7377 39.323 54.6571 40.2844 54.9426 41.1122ZM46.2701 34.1183C47.4007 34.7939 49.9928 34.756 51.4872 34.6208C51.2044 34.0409 49.8299 32.8597 49.1434 32.6377C47.7891 32.2001 46.4661 33.1892 46.2701 34.1183Z" fill="#272727"/>
<path fill-rule="evenodd" clip-rule="evenodd" d="M56.0685 54.9261C63.529 48.0108 60.8346 33.3198 59.9144 23.8044C59.4708 19.2181 58.8946 16.4194 60.4362 12.3161C60.8481 11.2197 61.4 10.3012 61.7914 9.30898C60.9071 9.82871 59.4168 11.7304 58.71 12.9322C55.6289 18.1722 57.0862 24.6581 57.6472 30.8356C58.1733 36.6277 59.1752 44.3785 57.8544 49.9234C57.1464 52.8955 56.4147 53.7092 56.0685 54.9261Z" fill="#272727"/>
<path fill-rule="evenodd" clip-rule="evenodd" d="M37.8205 45.6245C38.486 45.1603 39.4914 43.7996 40.038 42.935C40.6719 41.9319 41.2007 40.7902 41.6283 39.5903C45.0093 30.1032 40.4425 12.2627 41.3151 6.3345C41.4903 5.14336 41.8068 4.08051 42.208 3.00268C42.6132 1.91444 43.21 0.964375 43.5592 1.90735e-05C41.1275 1.72857 39.2024 5.43319 38.7393 8.73055C38.2378 12.3018 39.078 17.842 39.4033 21.5182C39.9071 27.2108 40.9604 35.1741 39.6239 40.6025C39.1107 42.6869 38.4695 43.8953 37.8205 45.6245Z" fill="#272727"/>
<path fill-rule="evenodd" clip-rule="evenodd" d="M33.5406 4.68611C32.8642 5.20202 32.0119 6.18098 31.9018 7.43396C35.1795 3.7813 37.6161 4.64106 38.1775 3.55537C38.3013 3.31607 38.4999 2.76732 38.5781 2.49245C37.6174 2.6555 36.672 3.39644 35.8329 3.55146C34.7968 3.74292 33.4084 3.02848 32.9378 2.48057C33.0393 2.3808 32.9704 2.4103 33.1853 2.2783L34.4887 1.94994C35.2466 1.99172 35.2882 2.52386 35.5737 3.05538C36.5756 0.227072 35.3427 -0.332521 33.284 1.26692C29.9195 3.88093 32.8796 4.20504 33.5406 4.68611Z" fill="#272727"/>
<path fill-rule="evenodd" clip-rule="evenodd" d="M61.9624 55.6188C61.2861 56.1346 60.4338 57.1137 60.3237 58.3666C63.6014 54.7139 66.038 55.5737 66.5994 54.488C66.7231 54.2487 66.9218 53.6999 67 53.4251C66.0392 53.5881 65.0939 54.3291 64.2548 54.4842C63.2187 54.6756 61.8303 53.9611 61.3596 53.4133C61.4612 53.3134 61.3923 53.343 61.6072 53.2109L62.9106 52.8826C63.6685 52.9244 63.7101 53.4565 63.9956 53.988C64.9976 51.1598 63.7645 50.6001 61.7058 52.1996C58.3414 54.8136 61.3015 55.1377 61.9624 55.6188Z" fill="#272727"/>
<path fill-rule="evenodd" clip-rule="evenodd" d="M49.9201 22.138C50.3929 22.5711 50.9416 22.9783 51.4277 23.3744C51.9951 23.8367 52.4661 24.3183 53.025 24.6309C53.8385 23.9725 54.4303 22.6789 55.2216 21.9606L54.5333 21.2306C53.9928 20.7832 52.6731 19.6164 52.1338 19.4023C51.5922 20.1961 50.2735 21.4203 49.9201 22.138Z" fill="#272727"/>
<path fill-rule="evenodd" clip-rule="evenodd" d="M44.3695 22.0502C44.6293 22.4165 47.0698 24.461 47.5681 24.6648C48.0343 23.8303 49.3747 22.5458 49.6523 21.7081C49.1615 21.4458 48.6123 20.956 48.1783 20.5806C47.7808 20.2368 47.1367 19.6568 46.7167 19.4227L44.3695 22.0502Z" fill="#272727"/>
<path d="M35.3169 58.0893C35.2921 58.079 35.2741 58.0712 35.2602 58.0659C35.0471 57.9766 34.8645 57.9324 34.7136 57.9324C34.3082 57.9324 34.0161 58.1075 33.8377 58.4562C33.6591 58.8063 33.5706 59.3767 33.5706 60.1688C33.5706 61.0777 33.8432 61.6832 34.3884 61.9839H34.3483C34.0618 61.9035 33.8446 61.7013 33.6952 61.3785C33.5456 61.0543 33.4709 60.6265 33.4709 60.0949C33.4709 59.3015 33.5636 58.7298 33.7504 58.3798C33.9359 58.0297 34.2417 57.8547 34.6652 57.8547C34.9212 57.8547 35.1384 57.9233 35.3169 58.0621V58.0893ZM35.8318 61.9839C36.0753 62.2186 36.3674 62.3353 36.7077 62.3353C36.8918 62.3353 37.0966 62.2872 37.3236 62.19L37.3526 62.2043C37.2253 62.3689 37.1215 62.5193 37.0399 62.6529L36.7396 63.1585L36.7243 63.1883C36.2773 63.1158 35.8898 62.8915 35.5605 62.5168C35.2824 62.6399 35.0015 62.7008 34.7205 62.7008C34.2694 62.7008 33.9097 62.5893 33.6425 62.3677L33.6591 62.3417C34.0203 62.509 34.3566 62.5919 34.6638 62.5919C34.9641 62.5919 35.2381 62.5414 35.4872 62.4403C35.4762 62.4246 35.4678 62.4144 35.4623 62.4065C35.4249 62.3483 35.3889 62.3041 35.353 62.273C35.1011 62.3611 34.8424 62.4053 34.5738 62.4053C33.9304 62.4053 33.3962 62.1628 32.9713 61.6779C32.5465 61.1931 32.3334 60.585 32.3334 59.8539C32.3334 59.1031 32.541 58.4952 32.9561 58.0297C33.3713 57.5655 33.9165 57.3335 34.5932 57.3335C35.2506 57.3335 35.7792 57.5629 36.1819 58.0206C36.5831 58.4783 36.7839 59.0824 36.7839 59.8318C36.7839 60.2868 36.7147 60.677 36.5749 60.9986C36.4365 61.3214 36.1999 61.639 35.8678 61.9502L35.8318 61.9839ZM35.6214 61.4147C35.8041 61.0453 35.8954 60.5072 35.8954 59.8006C35.8954 58.3577 35.4401 57.6369 34.5295 57.6369C33.6412 57.6369 33.1969 58.3953 33.1969 59.9109C33.1969 60.5915 33.3201 61.1256 33.5664 61.5133C33.8113 61.9009 34.149 62.0941 34.5794 62.0941C34.7607 62.0941 34.9364 62.0578 35.1066 61.9839C34.9461 61.7052 34.7344 61.5651 34.4701 61.5651C34.4507 61.5651 34.4188 61.5678 34.3718 61.5742L34.6555 61.2475C34.8534 61.3007 35.0928 61.4329 35.3737 61.6429L35.4221 61.6805C35.4554 61.6429 35.4927 61.595 35.5356 61.5366L35.5564 61.5094C35.3751 61.3447 35.1384 61.2151 34.8465 61.1179L34.9032 61.0311C35.1384 61.114 35.3599 61.2293 35.5689 61.3771L35.6214 61.4147ZM35.9452 57.6019C36.3202 57.7483 36.6178 58.0258 36.8406 58.4329C37.0634 58.8387 37.1741 59.3119 37.1741 59.8525C37.1741 60.6602 36.9222 61.3551 36.4199 61.9347C36.5735 62.0591 36.8129 62.1342 37.1367 62.1589V62.1822C37.0343 62.1965 36.9582 62.203 36.9056 62.203C36.6662 62.203 36.4476 62.12 36.2539 61.9541C36.7949 61.4394 37.0662 60.7354 37.0662 59.8409C37.0662 58.8646 36.6925 58.1256 35.9452 57.6239V57.6019ZM37.6557 62.3793C37.437 62.6477 37.2309 62.9523 37.0357 63.2907L37.0122 63.3335L36.9139 63.2869C37.0066 63.1158 37.1105 62.9497 37.2267 62.7903L37.5422 62.3573L37.563 62.3262L37.6557 62.3793ZM42.2805 57.419L41.5554 57.9636V60.4191C41.5554 60.8703 41.5401 61.1956 41.5083 61.3927C41.4779 61.5911 41.4156 61.7531 41.3242 61.8802C41.0918 62.2043 40.6406 62.3664 39.9708 62.3664C39.2624 62.3664 38.7683 62.2043 38.4874 61.8802C38.2632 61.6235 38.1511 61.1334 38.1511 60.4073V57.8832L37.6004 57.419H39.5155L38.9648 57.9247V60.4113L38.9731 60.9973C38.9731 61.3759 39.0561 61.6429 39.2236 61.8024C39.391 61.9606 39.6733 62.0396 40.0705 62.0396C40.5064 62.0396 40.8081 61.9191 40.9728 61.6779C41.1042 61.4835 41.1707 61.0647 41.1707 60.423L41.1872 57.9636L40.5563 57.419H42.2805ZM42.4217 57.6783L41.8709 58.1075V60.4683C41.8709 61.2411 41.8058 61.744 41.6771 61.98C41.4128 62.4558 40.8952 62.6931 40.1272 62.6931C39.463 62.6931 38.9634 62.5375 38.6285 62.2276L38.6618 62.2432L38.8029 62.3184C39.1365 62.5012 39.5626 62.5919 40.0844 62.5919C40.8302 62.5919 41.3256 62.3715 41.5678 61.9307C41.6979 61.6935 41.7629 61.2151 41.7629 60.4956V58.0621L42.3608 57.598L42.4217 57.6783ZM39.6858 57.6239L39.2886 58.0012V60.8261V61.088L39.4104 61.5704C39.4727 61.6663 39.5903 61.7829 39.7633 61.9203L39.7715 61.9541C39.5446 61.8685 39.3883 61.7428 39.3025 61.5781C39.2152 61.4135 39.1724 61.1594 39.1724 60.8145V57.9636L39.629 57.5448L39.6858 57.6239ZM42.8603 57.8755C43.5024 57.5292 44.1915 57.3569 44.9305 57.3569C45.5034 57.3569 45.9767 57.4735 46.3489 57.7069C46.7212 57.939 46.9067 58.2358 46.9067 58.5963C46.9067 58.8892 46.7849 59.1498 46.5413 59.3767C46.2978 59.6036 45.9657 59.767 45.5436 59.8694C45.729 60.3503 45.9823 60.8184 46.3033 61.2747C46.623 61.7298 46.944 62.0798 47.2664 62.3236L47.2056 62.3417C46.8029 62.4714 46.4071 62.6529 46.021 62.8888L45.9602 62.9264L45.9408 62.8046C45.7678 61.8244 45.5256 60.9947 45.2143 60.3128L45.1976 60.2752C45.0122 60.3556 44.7617 60.4204 44.4475 60.4683L44.4158 60.4722V61.8932L45.1298 62.6075H43.0305L42.9655 62.5064H44.8987L44.3079 61.9203V60.3892L44.3936 60.3776C44.7022 60.3477 44.961 60.2907 45.17 60.2064C45.1534 60.1767 45.1436 60.1572 45.1409 60.1494L45.1007 60.0393C45.098 60.0314 45.0911 60.0171 45.08 59.9938C44.9125 60.0392 44.5956 60.0884 44.1279 60.1416L44.0836 60.1494V61.8439L44.5499 62.2964H42.7551L43.2866 61.8439V60.5681L43.2533 60.5721C43.0956 60.6045 42.953 60.6408 42.8243 60.6823L42.7911 60.6926L42.7551 60.6174C42.8755 60.5746 42.9697 60.5449 43.0375 60.5293L43.2533 60.48L43.2866 60.4722V60.2752C43.126 60.2752 42.9267 60.3075 42.6873 60.3737L42.6417 60.3892C42.6472 60.3542 42.6735 60.2713 42.7233 60.1416C42.7289 60.1325 42.7468 60.0755 42.78 59.9718C42.7828 59.964 42.787 59.9523 42.7911 59.9368C42.9129 59.9433 43.0084 59.9472 43.0762 59.9472C43.1482 59.9472 43.2159 59.9433 43.2782 59.9368V58.0659C43.1536 57.9947 43.025 57.9351 42.8936 57.887L42.8603 57.8755ZM44.0836 57.7769V59.8266C44.1625 59.8266 44.2372 59.8201 44.3079 59.8084V57.9363C44.4572 57.8974 44.6357 57.878 44.8434 57.878C45.372 57.878 45.7304 58.0413 45.92 58.3668C45.7194 58.2125 45.5436 58.1075 45.3928 58.0505C45.2419 57.9921 45.0606 57.9636 44.8502 57.9636C44.6842 57.9636 44.5403 57.9805 44.4158 58.0129V59.8084L44.4601 59.8006C44.9929 59.7099 45.3886 59.566 45.6474 59.3702C45.9061 59.1744 46.0348 58.9203 46.0348 58.6066C46.0348 58.3266 45.9186 58.0945 45.6847 57.9117C45.4522 57.7289 45.1589 57.6369 44.8032 57.6369C44.5182 57.6369 44.2788 57.6835 44.0836 57.7769ZM46.0459 60.0586C46.2161 60.5799 46.5164 61.0907 46.9496 61.5898C47.2194 61.9009 47.5612 62.181 47.975 62.4286C47.3564 62.5829 46.7752 62.8188 46.2314 63.1352L46.1954 63.1585L46.1137 63.0976C46.6299 62.7812 47.1807 62.5479 47.7647 62.3988C46.9856 61.9126 46.3739 61.1347 45.9282 60.0664L45.9034 60.0017C46.7268 59.7073 47.1392 59.2588 47.1392 58.6559C47.1392 58.4069 47.034 58.136 46.8236 57.8417C47.0949 58.0751 47.2305 58.3707 47.2305 58.7311C47.2305 59.3145 46.8361 59.7566 46.0459 60.0586ZM51.7017 57.419L51.2796 57.8676L51.9452 59.5271L52.1071 59.4428L51.5065 57.9441L51.9369 57.48L52.0421 57.5215L51.6324 57.9675L52.1998 59.3858C52.233 59.3638 52.2525 59.3496 52.2566 59.3443L52.3908 59.238C52.4724 59.177 52.5237 59.1343 52.5444 59.1084C52.6149 59.3974 52.723 59.6554 52.8696 59.8836C52.7908 59.8797 52.734 59.8771 52.6993 59.8771C52.442 59.8771 52.2538 59.9148 52.1361 59.9899L52.8696 61.8555L53.4771 62.2964H51.4304L51.9894 61.8555L51.5397 60.7458C51.2423 61.0271 51.0139 61.2942 50.8547 61.5483L50.7607 61.5249C50.9212 61.2773 51.1578 60.9999 51.4747 60.6926L51.5065 60.655L51.4304 60.4878C51.108 60.7392 50.8423 61.0297 50.6319 61.3616L50.5586 61.2514C50.4174 61.0413 50.2375 60.8015 50.0189 60.5331L49.9788 60.4878C49.7643 60.9208 49.6578 61.2735 49.6578 61.5444C49.6578 61.7039 49.6868 61.8387 49.7463 61.9489C49.8044 62.0591 49.9469 62.2432 50.1725 62.5012C50.1905 62.5245 50.221 62.5596 50.2625 62.6075H48.0732L47.9916 62.5064H50.0563L49.9857 62.426C49.8072 62.2237 49.6895 62.0656 49.6328 61.9528C49.5774 61.84 49.5499 61.7078 49.5499 61.556C49.5499 61.2981 49.6632 60.913 49.8888 60.4009L49.7117 60.2259C49.6757 60.3063 49.6314 60.4256 49.5774 60.5825L49.4433 60.9701C49.3699 61.1775 49.3339 61.3499 49.3339 61.4874C49.3339 61.6287 49.3602 61.7467 49.4114 61.8401C49.4626 61.9347 49.5705 62.0617 49.7352 62.2237C49.7518 62.2393 49.7754 62.264 49.8086 62.2964H47.7813C48.1674 62.1083 48.4745 61.8568 48.7001 61.5405C48.9256 61.2242 49.1485 60.7354 49.3699 60.0743L49.3865 60.021C49.2439 59.907 49.0364 59.837 48.7666 59.811C48.9146 59.6036 49.0295 59.3871 49.1111 59.1615C49.1485 59.1952 49.172 59.2146 49.1802 59.2224L49.363 59.3819C49.4238 59.4377 49.4985 59.4947 49.5858 59.5531L49.6578 59.3858L49.6093 59.3482C49.475 59.2367 49.3615 59.1473 49.2689 59.0785L49.2328 59.0514L49.2979 58.9684C49.4404 59.0565 49.5789 59.1589 49.7117 59.2756L50.2625 57.8534L49.832 57.419H51.7017ZM50.6997 58.6403L50.2541 59.7436C50.2791 59.7682 50.2915 59.7837 50.2943 59.789L50.4617 59.964C50.5503 60.0548 50.6638 60.1961 50.8021 60.3892L50.8423 60.4463C50.9586 60.3089 51.0969 60.174 51.2561 60.0393L50.6997 58.6403ZM50.5184 58.1995L49.8736 59.7967C50.0785 59.9938 50.2556 60.1896 50.405 60.3814L50.5905 60.6252C50.5932 60.6278 50.607 60.6434 50.6319 60.6745C50.6554 60.6511 50.6693 60.6369 50.6721 60.6317L50.7288 60.5681C50.7372 60.5578 50.7523 60.541 50.7731 60.5188C50.5836 60.2453 50.3635 59.9978 50.113 59.7774L50.6319 58.4925L50.5184 58.1995ZM52.9014 59.2912C52.9609 59.5193 53.1104 59.8318 53.3471 60.2298C53.2889 60.222 53.2543 60.2182 53.2461 60.2182L52.9181 60.1922C52.77 60.1792 52.6607 60.1727 52.5943 60.1727C52.5832 60.1727 52.5555 60.174 52.5126 60.1767L53.1893 61.8607L54.0943 62.6075H51.7459L51.6698 62.5064H53.8217L53.0924 61.9022L52.3701 60.1118C52.4628 60.0898 52.5679 60.0794 52.6869 60.0794C52.8322 60.0794 52.9956 60.0898 53.1741 60.1118L53.1242 60.0288C52.9513 59.7293 52.835 59.4597 52.7755 59.2185L52.9014 59.2912ZM58.8574 57.419C58.5503 57.5682 58.351 57.7056 58.2611 57.8301C58.1269 58.0232 58.0591 58.3136 58.0591 58.7012V58.9489V62.2964H57.374L55.4602 58.8153V60.8793V61.0504L55.5045 61.5975C55.5584 61.8503 55.6816 62.0383 55.874 62.1602L55.9058 62.1861C55.5363 62.0695 55.3522 61.6961 55.3522 61.0647V60.7082V58.6287L55.1364 58.2294V60.4191C55.1364 61.114 55.1847 61.5678 55.2817 61.7829C55.3786 61.9995 55.6054 62.1564 55.9626 62.2549L56.3154 62.6075H54.1193L54.0542 62.5064H56.0843L55.874 62.2964H53.985C54.3157 62.1849 54.5344 62.0357 54.6424 61.8478C54.7503 61.6611 54.8042 61.3383 54.8042 60.8832V57.8417L54.2645 57.419H56.3154L55.7397 57.7808L57.702 61.3694V60.913L56.0192 57.8417L56.5866 57.48L56.6641 57.5525L56.1617 57.8716L57.702 60.7082V58.9333V58.7323C57.702 58.2902 57.6633 57.996 57.5872 57.8469C57.5096 57.6991 57.3201 57.5565 57.017 57.419H58.8574ZM59 57.7004L58.9267 57.8144C58.7178 57.8598 58.5766 57.9454 58.5032 58.0672C58.4285 58.1905 58.3911 58.3979 58.3911 58.6896V62.6075H57.5207L57.4682 62.5064H58.2833V58.7285C58.2833 58.3707 58.333 58.1217 58.4312 57.9805C58.5296 57.8391 58.7191 57.7458 59 57.7004Z" fill="#272727"/>
<path fill-rule="evenodd" clip-rule="evenodd" d="M10.0586 29.4508L9.73617 30.314C9.62466 30.6043 9.51531 30.8913 9.40701 31.1845C9.19247 31.7657 8.97268 32.3407 8.75415 32.9136L6.13618 39.8228C5.99834 40.191 5.55851 41.276 5.48754 41.5564C5.24815 42.5019 6.17127 42.4746 6.88644 42.413C8.16733 42.3026 9.55734 41.8427 10.6914 41.4589C11.8844 41.0552 13.022 40.6225 14.2398 40.2435C14.9521 40.0219 15.518 39.9172 16.2971 40.082C17.1673 40.2661 18.0158 40.7576 18.6637 41.2804C18.7657 41.3627 18.8888 41.457 18.9839 41.5509L19.8878 42.4555L20.4263 43.1187L20.8329 42.6463C21.0519 42.3725 21.8788 41.5886 22.2049 41.3499C22.4645 41.16 22.6106 41.032 22.9037 40.8487C24.0592 40.1263 25.0356 39.7999 26.6429 40.1953C29.0344 40.7837 31.3598 42.2377 33.8931 42.4577C34.709 42.5285 35.4225 42.5421 35.2626 41.5508C35.1884 41.0907 34.8375 40.2398 34.6597 39.7721C34.224 38.6263 33.7962 37.4755 33.3542 36.3319L31.3897 31.169C31.2994 30.9341 30.7936 29.536 30.7234 29.4512C30.1554 29.5514 29.7712 29.5927 29.1665 29.5548C28.687 29.5247 28.1863 29.4337 27.7369 29.3249C26.8741 29.1159 26.008 28.8172 25.2179 28.512C24.8349 28.3641 24.389 28.1917 23.987 28.0773C23.4589 27.927 23.1356 27.828 22.5602 27.9883C21.9347 28.1624 21.4208 28.4862 20.9114 28.8283L20.4263 29.1902L19.9272 28.86C19.4327 28.5443 18.8471 28.1872 18.2819 27.9985C17.4266 27.7128 16.3227 28.2302 15.607 28.502C14.3005 28.9983 13.0898 29.4521 11.6388 29.5299C11.3623 29.5448 11.0875 29.551 10.8107 29.537C10.5416 29.5233 10.3065 29.4715 10.0586 29.4508ZM10.6043 30.5172C10.5726 30.6662 8.57254 36.003 8.49997 36.2051C8.15748 37.1588 7.80103 38.1057 7.45606 39.065C7.30758 39.4778 7.04489 40.1086 6.98074 40.5413C6.93324 40.862 6.99658 41.1027 7.2393 41.2077C7.88477 41.487 8.9722 40.9815 9.55616 40.7533C11.0334 40.1759 12.2338 39.6128 13.8451 39.1862C15.7912 38.671 17.6472 38.8312 19.2322 40.0672C19.5138 40.2868 19.5335 40.3414 19.7374 40.5306C19.7594 40.0995 19.7396 39.6146 19.7396 39.1775V30.9398C19.7396 30.2952 19.7854 30.2739 19.4575 29.849C19.3724 29.7387 19.2108 29.6108 19.0947 29.5316C18.623 29.21 18.0212 29.1108 17.4329 29.1613C16.6697 29.2269 15.9579 29.556 15.3237 29.813C13.6685 30.4836 12.5796 30.6436 10.6043 30.5172ZM21.1553 40.5257C21.2192 40.4882 21.2189 40.4679 21.2787 40.4059C21.3239 40.3591 21.3608 40.3281 21.4093 40.2856C22.0459 39.7271 22.7576 39.3048 23.6202 39.0948C24.8871 38.7866 25.8341 38.8757 27.0592 39.1874C28.0566 39.4412 29.0337 39.822 29.9442 40.1892C30.6612 40.4782 32.0955 41.1022 32.7878 41.2493C33.0392 41.3027 33.4052 41.3088 33.6379 41.2143C33.8883 41.1125 33.966 40.8909 33.9157 40.5549C33.8475 40.0982 33.5919 39.5031 33.4416 39.0738C33.1072 38.1176 32.7445 37.1641 32.3982 36.2131C32.0507 35.259 31.7053 34.3093 31.3423 33.3652C31.255 33.1383 30.3525 30.6445 30.2757 30.5213C30.0752 30.5191 29.8343 30.5497 29.6268 30.557C28.0989 30.6108 27.0004 30.4026 25.5795 29.8162C24.5812 29.4041 23.4063 28.8898 22.2856 29.2893C21.9321 29.4154 21.6278 29.6233 21.4521 29.8348C21.1239 30.2301 21.1547 30.2829 21.1547 30.904V35.0229C21.1547 36.8544 21.1364 38.6953 21.1553 40.5257Z" fill="#272727"/>
<path fill-rule="evenodd" clip-rule="evenodd" d="M18.695 44.15V45.0136L22.1776 45.0216V44.0759H36.9016C37.2328 44.076 37.6501 44.1015 37.8003 43.8544C37.9482 43.6109 37.7398 43.1789 37.6495 42.9777C37.5307 42.7129 37.4127 42.4553 37.2874 42.1945C36.7955 41.1705 36.364 40.1099 35.8717 39.0795C35.628 38.5693 35.4106 38.0468 35.1679 37.527C34.9267 37.0107 34.6887 36.4831 34.4609 35.9593C34.0049 34.9112 33.5193 33.8768 33.0534 32.8356C32.821 32.3162 32.599 31.7967 32.358 31.2756C32.1465 30.8184 31.7786 30.9603 31.8786 31.3431C31.908 31.4557 31.9994 31.6372 32.0462 31.7482C32.1026 31.8819 32.1609 32.0145 32.22 32.1473C32.6874 33.1975 33.1386 34.2479 33.595 35.3029C34.5064 37.4098 35.4366 39.5097 36.3379 41.6214C36.6011 42.2379 36.9517 42.8326 36.2467 43.161C34.9849 43.7486 31.6771 42.8745 30.4392 42.5413C29.8457 42.3816 29.2484 42.225 28.6535 42.0719C26.6049 41.5443 25.0139 41.0738 22.9843 42.0035C22.4101 42.2666 22.0181 42.516 21.5683 42.8444C21.3993 42.9678 20.9637 43.3458 20.8177 43.5082L20.4232 43.9689C20.2428 43.787 20.0414 43.6045 19.8512 43.4235C19.6572 43.2389 19.4823 43.0458 19.2701 42.877C18.82 42.5187 18.4584 42.2294 17.9008 41.9714C15.9595 41.0728 14.1888 41.5347 12.2156 42.0698C11.6249 42.2301 11.037 42.4098 10.4487 42.5763C9.26448 42.9114 7.94371 43.2401 6.63775 43.3099C6.06707 43.3403 5.05802 43.3723 4.57474 43.1563C3.88011 42.8458 4.27314 42.1565 4.51609 41.6047C4.97964 40.5518 5.43196 39.4964 5.88476 38.4428C6.20149 37.7055 8.89784 31.6017 8.94256 31.293C8.96749 31.121 8.92252 30.9222 8.73631 30.9585C8.60492 30.9842 8.54788 31.1521 8.4905 31.289C8.26538 31.8259 8.024 32.3367 7.79155 32.8648C7.33533 33.9008 6.8168 34.9617 6.38054 35.9839C6.15646 36.5089 5.90115 37.0118 5.67668 37.5366C5.24519 38.5452 4.69267 39.6521 4.25604 40.6646C4.0298 41.1893 3.77228 41.7007 3.54587 42.2289C3.43422 42.4894 3.31367 42.7491 3.195 43.0063C2.82887 43.7994 2.93016 44.133 3.91495 44.1493C4.29526 44.1556 4.68043 44.15 5.06128 44.15C9.60586 44.15 14.1504 44.15 18.695 44.15Z" fill="#272727"/>
</g>
<defs>
<filter id="filter0_d_147_643" x="0.849624" y="0" width="68.3008" height="67.6342" filterUnits="userSpaceOnUse" color-interpolation-filters="sRGB">
<feFlood flood-opacity="0" result="BackgroundImageFix"/>
<feColorMatrix in="SourceAlpha" type="matrix" values="0 0 0 0 0 0 0 0 0 0 0 0 0 0 0 0 0 0 127 0" result="hardAlpha"/>
<feOffset dy="2.15038"/>
<feGaussianBlur stdDeviation="1.07519"/>
<feComposite in2="hardAlpha" operator="out"/>
<feColorMatrix type="matrix" values="0 0 0 0 0 0 0 0 0 0 0 0 0 0 0 0 0 0 0.25 0"/>
<feBlend mode="normal" in2="BackgroundImageFix" result="effect1_dropShadow_147_643"/>
<feBlend mode="normal" in="SourceGraphic" in2="effect1_dropShadow_147_643" result="shape"/>
</filter>
</defs>
</svg>
