<svg width="1101" height="153" viewBox="0 0 1101 153" fill="none" xmlns="http://www.w3.org/2000/svg">
<path d="M438.938 3.98466C436.672 6.518 434.272 7.85133 433.072 7.318C432.005 6.918 429.872 7.85133 428.405 9.45133C425.338 12.7847 424.938 15.1847 427.605 14.118C428.672 13.718 431.338 13.9847 433.605 14.918C438.538 16.7847 445.738 13.8513 449.072 8.65133C454.538 0.384664 445.872 -3.482 438.938 3.98466ZM445.738 5.718C445.738 7.718 442.938 9.18466 439.472 9.18466C437.605 9.18466 437.605 8.78466 439.738 6.518C442.538 3.45133 445.738 3.05133 445.738 5.718Z" fill="black"/>
<path d="M200.005 5.45134C197.338 8.118 194.672 9.58467 192.805 9.318C190.405 9.05134 185.738 13.318 185.738 15.8513C185.738 16.2513 189.605 16.6513 194.272 16.918C202.272 17.318 202.938 17.0513 206.938 13.1847C211.338 8.78467 212.138 5.45134 209.472 2.78467C206.938 0.251336 204.538 0.918002 200.005 5.45134ZM206.138 8.518C206.272 9.18467 204.672 10.118 202.538 10.2513C198.938 10.6513 198.805 10.518 200.405 8.518C202.272 6.25134 205.738 6.25134 206.138 8.518Z" fill="black"/>
<path d="M341.338 10.7847C338.672 13.4514 336.005 14.918 334.272 14.7847C332.538 14.518 330.672 15.5847 329.205 17.718C328.005 19.5847 327.072 21.318 327.072 21.4514C327.072 21.718 330.938 21.9847 335.872 22.2514C343.872 22.518 344.805 22.2514 348.538 18.6514C352.672 14.518 353.472 10.7847 350.805 8.11804C348.272 5.58471 345.872 6.25137 341.338 10.7847ZM348.138 13.4514C347.738 14.3847 345.872 15.4514 343.738 15.5847C340.405 15.9847 340.138 15.8514 341.605 13.9847C343.738 11.4514 348.938 11.0514 348.138 13.4514Z" fill="black"/>
<path d="M395.472 20.6514C390.138 23.0514 385.738 25.7181 385.738 26.3848C385.738 28.3848 386.272 28.2514 396.538 24.9181C402.538 23.0514 405.738 21.1848 406.138 19.5848C406.538 18.2514 406.405 16.9181 406.005 16.6514C405.472 16.3848 400.672 18.1181 395.472 20.6514Z" fill="black"/>
<path d="M437.872 22.918C436.672 26.518 436.805 31.4514 438.272 44.6514C439.338 54.118 440.672 67.1847 441.205 73.718C442.405 88.3847 444.538 86.118 444.538 70.2514C444.538 56.118 441.738 20.918 440.405 19.4514C439.872 18.7847 438.672 20.3847 437.872 22.918Z" fill="black"/>
<path d="M199.072 24.3848C197.338 29.1848 197.338 34.7848 199.738 54.5181C200.805 63.7181 201.738 74.9181 201.738 79.4514C201.738 84.1181 202.272 87.8514 202.938 87.8514C204.538 87.8514 205.738 80.9181 205.738 71.9848C205.738 63.4514 201.872 22.2514 201.072 21.4514C200.805 21.0514 199.872 22.3848 199.072 24.3848Z" fill="black"/>
<path d="M162.138 26.5181C154.538 29.9847 151.205 33.3181 155.472 33.0514C160.138 32.9181 173.072 26.9181 173.472 24.7847C174.138 21.7181 171.872 21.9847 162.138 26.5181Z" fill="black"/>
<path d="M300.138 29.4514C295.072 31.7181 291.072 34.3847 291.072 35.4514C291.072 37.4514 291.072 37.4514 303.738 33.1847C308.672 31.5847 310.538 30.2514 310.805 28.1181C311.338 24.5181 311.072 24.5181 300.138 29.4514Z" fill="black"/>
<path d="M178.538 28.6514C178.138 29.7181 179.205 39.4514 181.072 50.2514C182.805 61.0514 184.405 72.2514 184.672 75.1848L185.072 80.5181H178.005C171.605 80.3848 170.938 80.6514 170.138 83.7181C169.738 85.4514 170.005 87.9848 170.938 89.3181C173.472 93.5848 172.672 96.5181 167.072 102.918C160.272 110.518 152.272 113.851 143.738 112.651C140.405 112.118 137.738 111.985 137.738 112.385C137.738 112.785 140.805 114.651 144.538 116.651C149.738 119.185 152.538 119.851 156.005 119.185C164.272 117.718 172.672 107.585 174.938 96.6514C175.605 93.8514 176.938 92.5181 180.405 91.3181C182.938 90.5181 185.738 88.3848 186.672 86.5181C188.938 82.1181 188.805 69.0514 186.405 52.5181C185.338 44.2514 185.072 38.6514 185.872 37.8514C187.872 35.7181 187.205 32.5181 184.005 29.4514C180.272 25.9848 179.605 25.8514 178.538 28.6514Z" fill="black"/>
<path d="M251.872 33.1848C241.605 39.5848 237.872 43.0514 240.005 44.2514C241.072 44.9181 259.472 34.6514 262.138 31.9848C262.805 31.3181 263.072 29.8514 262.805 28.6514C262.538 27.0514 260.138 28.1181 251.872 33.1848Z" fill="black"/>
<path d="M338.005 34.9181C336.672 38.5181 336.938 43.7181 339.072 62.6514C340.538 75.3181 341.738 88.5181 341.738 91.7181C341.738 96.2514 342.138 97.3181 343.205 96.2514C344.138 95.3181 344.805 90.1181 344.938 84.2514C345.072 71.5847 341.738 30.5181 340.538 30.5181C340.005 30.5181 338.938 32.5181 338.005 34.9181Z" fill="black"/>
<path d="M403.072 33.4514C403.072 36.7847 400.272 37.8514 398.405 35.4514C396.138 32.3847 395.472 32.6514 394.538 36.5181C393.472 40.9181 390.005 40.7847 388.938 36.2514C388.005 32.9181 387.872 32.9181 386.938 35.1847C383.738 43.3181 386.938 48.5181 393.072 45.1847C394.805 44.2514 396.805 43.8514 397.472 44.3847C401.472 46.7847 408.005 36.2514 404.538 32.7847C403.472 31.7181 403.072 31.8514 403.072 33.4514Z" fill="black"/>
<path d="M317.072 36.918C316.672 38.3847 317.872 48.7847 319.738 60.2513C324.005 87.0513 324.005 88.918 319.605 89.9847C317.738 90.518 314.805 90.2513 313.072 89.4513C310.272 88.118 309.738 88.3847 308.538 92.118C307.338 95.4513 307.472 96.7847 309.072 98.518C312.272 102.118 311.472 104.918 304.938 111.851C297.872 119.318 292.138 121.718 282.938 120.918C279.338 120.518 276.405 120.651 276.405 121.185C276.405 121.718 279.338 123.451 282.938 125.185C291.472 129.051 297.872 128.251 303.872 122.385C308.538 117.851 313.738 108.251 313.738 103.985C313.738 102.251 314.938 101.318 317.738 100.785C323.338 99.5847 327.072 93.0513 327.072 84.2513C327.072 80.3847 326.138 70.6513 325.072 62.6513C323.472 51.0513 323.338 47.4513 324.538 45.4513C325.872 43.1847 325.605 42.118 322.938 38.7847C319.205 33.9847 318.138 33.718 317.072 36.918Z" fill="black"/>
<path d="M170.405 39.4514C169.205 43.0514 166.405 43.4514 165.072 40.1181C164.272 38.1181 163.872 38.3847 162.272 41.4514C160.005 45.7181 156.405 46.3847 156.405 42.5181C156.405 38.3847 154.138 39.4514 153.205 43.9847C152.805 46.3847 153.072 49.0514 153.872 49.9847C155.605 52.1181 159.872 52.3847 161.072 50.5181C161.472 49.7181 163.338 49.5847 165.072 49.9847C169.072 50.9181 172.805 45.7181 172.005 40.2514C171.472 36.6514 171.338 36.6514 170.405 39.4514Z" fill="black"/>
<path d="M263.205 40.3848C259.738 44.1181 259.872 44.2515 267.605 43.8515C274.405 43.5848 272.805 45.9848 264.938 47.9848C260.672 49.0515 259.472 49.8515 260.672 50.6515C264.272 53.0515 268.672 51.7181 274.138 46.6515C280.538 40.6515 280.005 38.7848 271.605 37.5848C267.205 37.0514 265.872 37.4514 263.205 40.3848Z" fill="black"/>
<path d="M307.472 43.5847C306.672 46.918 303.072 47.5847 303.072 44.518C303.072 41.4513 300.938 42.118 299.205 45.9847C297.472 49.9847 294.805 49.5847 293.738 45.0513C292.938 41.5847 291.872 42.518 290.672 47.9847C290.138 49.9847 290.538 52.3847 291.605 53.8513C293.205 56.118 293.872 56.118 297.605 54.518C299.872 53.5847 302.138 53.1847 302.672 53.5847C304.405 55.4513 308.405 51.4513 309.205 47.0513C310.138 41.8513 308.805 38.918 307.472 43.5847Z" fill="black"/>
<path d="M227.872 61.8514C227.205 64.2514 227.872 66.7847 229.605 69.5847C230.938 71.9847 232.938 76.3847 233.872 79.4514C234.672 82.5181 236.005 84.7847 236.538 84.3847C238.938 82.9181 237.738 71.0514 234.805 65.1847C231.205 58.1181 229.072 57.1847 227.872 61.8514Z" fill="black"/>
<path d="M390.938 64.1181C389.738 66.3848 389.872 69.8514 391.738 80.1181C394.405 94.6514 394.005 96.1181 387.072 97.8514C381.338 99.1848 379.072 95.3181 378.138 81.8514C377.472 71.7181 377.072 70.5181 375.605 72.5181C374.538 73.8514 373.472 76.9181 372.938 79.3181C372.405 82.3848 371.072 84.1181 368.272 85.1848C359.738 88.7848 353.072 100.918 358.538 103.051C362.538 104.651 370.672 103.851 372.405 101.851C373.872 99.9848 374.405 100.251 376.538 103.851C378.672 107.318 379.738 107.851 385.072 107.851C390.138 107.851 391.338 107.318 393.338 104.118C394.538 102.118 395.738 100.251 396.005 99.9848C396.138 99.7181 397.872 101.451 399.738 103.718C402.272 106.518 404.538 107.851 407.072 107.851C415.472 107.851 417.205 97.4514 412.272 74.9181C410.672 67.7181 409.205 61.5848 408.805 61.1848C407.738 59.9848 405.738 64.6514 405.738 68.7848C405.738 71.0514 406.938 78.1181 408.538 84.5181C410.005 90.9181 410.938 96.5181 410.405 96.9181C408.805 98.5181 402.405 95.0514 400.805 91.5848C399.872 89.7181 398.005 82.1181 396.805 74.6514C395.472 67.3181 394.005 61.1848 393.472 61.1848C392.938 61.1848 391.738 62.5181 390.938 64.1181ZM373.738 91.8514C373.738 93.9848 372.805 94.5181 369.072 94.5181C363.738 94.5181 363.072 92.9181 367.472 90.7848C372.005 88.6514 373.738 88.9181 373.738 91.8514Z" fill="black"/>
<path d="M256.805 65.1848C250.805 68.7848 251.338 70.5181 258.405 70.5181C265.205 70.5181 275.205 74.6514 270.405 75.4514C257.872 77.4514 253.605 78.9181 250.538 82.6514C248.672 84.7848 246.938 87.7181 246.405 89.1848C244.538 94.9181 231.738 95.3181 225.605 89.7181C223.605 87.9848 223.205 88.2514 221.738 91.7181C220.538 94.7848 220.538 96.7848 221.738 100.518C223.205 105.051 223.072 105.718 219.605 109.318C214.805 114.251 193.472 125.185 179.738 129.585C146.938 140.251 110.538 142.118 83.0718 134.518C70.1384 130.918 50.8051 121.718 41.2051 114.651C37.0718 111.585 33.7384 109.451 33.7384 109.851C33.7384 111.985 49.6051 128.385 55.6051 132.518C63.7384 138.118 80.2718 144.251 93.2051 146.518C105.472 148.651 145.338 147.585 158.272 144.651C172.272 141.451 187.872 136.251 199.072 130.785C210.672 125.051 224.005 112.918 225.205 106.785C226.005 103.051 226.405 102.785 233.472 102.251C239.872 101.718 241.338 101.051 244.005 97.5848L247.205 93.4514L252.005 95.9848C257.738 98.9181 263.205 99.1848 265.472 96.9181C267.738 94.6514 267.472 87.8514 264.805 84.9181C263.605 83.5848 263.072 82.1181 263.605 81.5847C265.338 79.7181 284.805 80.7847 291.738 83.0514C297.872 85.0514 298.538 85.0514 300.138 82.9181C302.272 79.8514 302.138 77.1848 299.738 77.1848C295.738 77.1848 284.805 72.7848 276.272 67.7181C266.405 61.8514 262.938 61.4514 256.805 65.1848ZM259.605 87.1848C261.072 88.2514 261.872 89.4514 261.472 89.8514C260.672 90.7848 251.072 87.0514 251.072 85.9848C251.072 84.3848 257.205 85.3181 259.605 87.1848Z" fill="black"/>
<path d="M1048.27 69.9848L1045.07 73.5848L1048.81 72.6514C1050.94 72.1181 1053.87 72.1181 1055.47 72.6514C1058.14 73.4514 1058.14 73.5848 1054.94 75.3181C1053.21 76.2514 1050.41 77.0514 1048.81 77.1848C1047.07 77.1848 1045.74 77.7181 1045.74 78.5181C1045.74 79.1848 1048.01 79.8514 1050.81 79.8514C1054.81 79.8514 1056.81 78.9181 1060.14 75.4514C1065.21 70.2514 1065.47 68.3848 1061.47 67.3181C1055.34 65.7181 1051.47 66.5181 1048.27 69.9848Z" fill="black"/>
<path d="M123.472 69.318C120.938 70.2513 117.738 74.2513 117.738 76.3847C117.738 76.7847 119.472 77.1847 121.605 77.1847C126.005 77.1847 133.738 79.718 133.738 81.1847C133.738 82.118 130.405 83.718 124.138 85.718C122.938 85.9847 120.405 85.1847 118.538 83.718C115.205 81.0513 115.205 81.0513 106.938 83.8513C95.0718 87.8513 79.6051 89.318 65.2051 87.8513C48.2718 86.118 39.7384 83.1847 32.8051 76.7847C29.8718 74.118 29.6051 74.118 27.0718 76.518C25.7384 77.718 23.4718 81.5847 22.1384 85.0513C19.4718 92.2513 18.4051 93.1847 7.47176 98.6513C-1.72824 103.318 -2.52824 105.318 5.6051 103.851C11.4718 102.785 17.0718 99.5847 20.4051 95.4513C22.2718 93.1847 22.9384 93.0513 25.7384 94.518C32.2718 97.9847 37.4718 98.3847 40.9384 95.718C43.6051 93.5847 44.8051 93.4513 48.0051 94.6513C53.7384 96.918 79.8718 97.718 90.6718 95.9847C96.0051 95.1847 103.605 93.0513 107.605 91.318L114.805 88.118L117.472 90.7847L120.138 93.4513L131.205 89.718C139.605 86.918 144.672 85.9847 151.338 86.2513C159.205 86.3847 160.538 85.9847 162.405 83.4513C163.472 81.8513 164.405 80.2513 164.405 79.718C164.405 79.1847 161.338 78.518 157.605 77.9847C153.872 77.4513 146.805 75.5847 142.005 73.718C128.138 68.518 126.538 68.118 123.472 69.318ZM31.6051 83.1847C34.0051 86.7847 33.6051 87.1847 29.6051 85.1847C28.2718 84.3847 27.0718 82.918 27.0718 81.8513C27.0718 78.7847 29.2051 79.4513 31.6051 83.1847Z" fill="black"/>
<path d="M1078.14 73.8514C1076.01 78.2514 1076.01 78.6514 1078.27 80.2514C1080.81 82.1181 1087.07 98.3848 1087.07 103.185C1087.07 107.451 1083.47 107.585 1078.41 103.718C1075.47 101.318 1074.54 101.051 1073.61 102.651C1072.94 103.718 1072.41 105.318 1072.41 106.251C1072.41 107.451 1070.94 107.851 1068.14 107.585C1064.81 107.318 1063.61 106.518 1063.34 104.251C1062.94 101.318 1062.67 101.451 1058.54 105.851C1054.67 109.851 1053.21 110.518 1048.01 110.518C1043.74 110.518 1041.47 109.851 1040.67 108.251C1039.47 106.251 1037.87 106.385 1018.94 109.051C981.472 114.251 939.338 118.251 885.738 121.451C842.938 123.985 679.872 123.585 627.072 120.785C557.072 116.918 515.738 112.651 482.805 105.718C461.205 101.185 456.672 99.3181 449.338 92.1181L443.072 85.8514L439.738 89.8514C438.005 92.1181 435.872 95.5848 435.072 97.8514C432.272 105.051 431.605 105.718 421.605 111.185C412.138 116.251 411.872 116.518 416.005 116.918C420.805 117.451 427.338 114.518 432.538 109.718C435.872 106.651 436.138 106.518 440.805 108.518C446.138 110.785 453.205 111.185 454.272 109.318C454.672 108.651 458.538 109.185 462.938 110.518C471.872 113.318 503.605 118.651 529.072 121.718C586.938 128.651 660.138 131.851 756.938 131.851C857.338 131.851 943.872 127.318 1013.61 118.385C1032.81 115.985 1034.54 115.985 1038.81 117.985C1044.14 120.518 1049.61 119.718 1054.94 115.985C1058.01 113.718 1058.81 113.585 1061.74 115.318C1066.54 117.985 1070.54 117.585 1072.67 114.385C1074.27 111.985 1074.94 111.718 1077.34 113.051C1078.94 113.851 1082.14 114.518 1084.41 114.518C1089.87 114.518 1091.47 110.118 1090.67 97.1848C1090.14 87.1848 1084.27 69.1848 1081.61 69.1848C1080.94 69.1848 1079.34 71.3181 1078.14 73.8514ZM444.405 95.7181C446.405 99.4514 446.138 100.118 443.072 98.5181C441.605 97.7181 440.405 96.2514 440.405 95.1848C440.405 92.3848 442.672 92.7848 444.405 95.7181Z" fill="black"/>
<path d="M192.405 98.6513C190.805 100.785 189.605 102.785 189.872 103.051C197.072 107.851 197.472 107.851 199.738 104.385C202.272 100.518 201.738 97.9847 197.872 95.9847C195.605 94.7847 194.805 95.1847 192.405 98.6513Z" fill="black"/>
<path d="M133.738 102.385C128.272 105.851 123.605 109.718 123.338 111.051C122.672 114.118 123.472 113.851 134.138 107.718C143.338 102.385 147.072 99.318 147.072 96.918C147.072 94.6514 143.472 96.2514 133.738 102.385Z" fill="black"/>
<path d="M101.472 104.651C99.8718 106.251 98.8051 106.518 96.6718 105.318C94.4051 104.118 93.4718 104.385 91.2051 107.318C87.6051 111.985 87.6051 112.518 92.4051 114.518C96.0051 115.985 96.6718 115.985 98.4051 113.718C100.005 111.451 100.672 111.451 103.205 112.918C106.272 114.918 106.405 114.785 109.872 108.785C110.938 106.785 110.805 105.851 108.805 104.385C105.605 101.985 104.138 102.118 101.472 104.651Z" fill="black"/>
<path d="M12.2718 119.718C2.27177 126.118 -0.528233 128.651 0.805101 130.118C1.73843 130.918 18.4051 121.985 22.1384 118.785C24.4051 116.785 25.2051 113.185 23.4718 113.185C22.8051 113.185 17.8718 116.118 12.2718 119.718Z" fill="black"/>
<path d="M363.472 124.518C357.338 128.518 352.405 132.651 352.405 133.851C352.405 134.918 352.672 135.851 352.938 135.851C354.272 135.851 374.538 123.451 375.338 121.985C376.672 120.118 376.672 117.185 375.472 117.318C374.805 117.318 369.472 120.651 363.472 124.518Z" fill="black"/>
<path d="M1086.54 121.851C1083.87 125.985 1083.87 126.518 1086.81 128.651C1090.14 131.318 1091.87 130.918 1094.41 126.918C1096.67 123.451 1096.67 123.318 1093.74 120.918C1089.87 117.851 1089.07 117.851 1086.54 121.851Z" fill="black"/>
<path d="M443.072 127.718C437.605 131.185 432.938 135.051 432.672 136.385C432.005 139.451 432.672 139.185 444.272 132.518C450.405 128.918 455.072 125.318 455.472 123.851C456.538 119.851 454.138 120.651 443.072 127.718Z" fill="black"/>
<path d="M213.472 134.785C207.738 138.385 203.072 142.251 203.072 143.318C203.072 145.985 203.605 145.851 213.472 140.251C222.538 135.185 227.072 131.451 227.072 129.185C227.072 126.651 223.738 127.985 213.472 134.785Z" fill="black"/>
<path d="M1088.81 141.851C1081.47 146.251 1077.74 149.318 1077.74 150.918C1077.74 153.051 1078.81 152.785 1085.74 148.918C1096.41 143.051 1100.81 139.451 1100.27 137.051C1099.87 135.585 1097.07 136.651 1088.81 141.851Z" fill="black"/>
</svg>
