<svg width="42" height="42" viewBox="0 0 42 42" fill="none" xmlns="http://www.w3.org/2000/svg">
<g filter="url(#filter0_d_288_13529)">
<path d="M14.625 6.375C14.625 4.68424 15.2967 3.06274 16.4922 1.86719C17.6877 0.67165 19.3092 0 21 0C22.6908 0 24.3123 0.67165 25.5078 1.86719C26.7034 3.06274 27.375 4.68424 27.375 6.375C27.375 8.06576 26.7034 9.68726 25.5078 10.8828C24.3123 12.0783 22.6908 12.75 21 12.75C19.3092 12.75 17.6877 12.0783 16.4922 10.8828C15.2967 9.68726 14.625 8.06576 14.625 6.375ZM19.9375 16.4688V34L16.7234 32.393C15.3355 31.7023 13.8348 31.2641 12.2875 31.1113L5.9125 30.4738C4.83008 30.3609 4 29.4512 4 28.3555V14.875C4 13.6996 4.94961 12.75 6.125 12.75H8.13711C12.3605 12.75 16.4777 14.0516 19.9375 16.4688ZM22.0625 34V16.4688C25.5223 14.0516 29.6395 12.75 33.8629 12.75H35.875C37.0504 12.75 38 13.6996 38 14.875V28.3555C38 29.4445 37.1699 30.3609 36.0875 30.4672L29.7125 31.1047C28.1719 31.2574 26.6645 31.6957 25.2766 32.3863L22.0625 34Z" fill="#016457"/>
</g>
<defs>
<filter id="filter0_d_288_13529" x="0" y="0" width="42" height="42" filterUnits="userSpaceOnUse" color-interpolation-filters="sRGB">
<feFlood flood-opacity="0" result="BackgroundImageFix"/>
<feColorMatrix in="SourceAlpha" type="matrix" values="0 0 0 0 0 0 0 0 0 0 0 0 0 0 0 0 0 0 127 0" result="hardAlpha"/>
<feOffset dy="4"/>
<feGaussianBlur stdDeviation="2"/>
<feComposite in2="hardAlpha" operator="out"/>
<feColorMatrix type="matrix" values="0 0 0 0 0 0 0 0 0 0 0 0 0 0 0 0 0 0 0.25 0"/>
<feBlend mode="normal" in2="BackgroundImageFix" result="effect1_dropShadow_288_13529"/>
<feBlend mode="normal" in="SourceGraphic" in2="effect1_dropShadow_288_13529" result="shape"/>
</filter>
</defs>
</svg>
