<svg width="42" height="42" viewBox="0 0 42 42" fill="none" xmlns="http://www.w3.org/2000/svg">
<g filter="url(#filter0_d_288_13525)">
<path fill-rule="evenodd" clip-rule="evenodd" d="M21 34C30.3888 34 38 26.3888 38 17C38 7.61116 30.3888 0 21 0C11.6112 0 4 7.61116 4 17C4 26.3888 11.6112 34 21 34ZM16.25 22.661H14.9375V8.42373H17.5625C18.0547 8.43114 18.5229 8.52383 18.9673 8.7018C19.4116 8.87977 19.8184 9.1393 20.1875 9.4804V16.8882L21.5 16.2431V9.4804C21.876 9.13189 22.2861 8.86864 22.7305 8.69068C23.1748 8.51271 23.6396 8.42373 24.125 8.42373H26.75V15.5869L28.0625 16.2431V9.84746H29.375V16.8882L30.6875 17.5334V8.42373H28.0625V7H24.125C23.5166 7 22.9355 7.10011 22.3818 7.30032C21.8281 7.50053 21.3154 7.80085 20.8438 8.20127C20.3652 7.80085 19.8491 7.50053 19.2954 7.30032C18.7417 7.10011 18.1641 7 17.5625 7H13.625V8.42373H11V26.9322H16.25V25.5085H12.3125V9.84746H13.625V24.0847H16.25V22.661ZM24.7812 28L29.375 25.4974C29.375 25.2378 29.3716 24.9635 29.3647 24.6743C29.3579 24.3851 29.334 24.1033 29.293 23.8289C29.252 23.5546 29.1938 23.2839 29.1187 23.0169C29.0435 22.75 28.9341 22.5016 28.7905 22.2717L28.7085 22.1494L32 20.5254L24.7812 16.9661L17.5625 20.5254V27.6441H18.875V21.1705L20.854 22.1494C20.6968 22.3792 20.5737 22.6276 20.4849 22.8946C20.396 23.1615 20.3276 23.447 20.2798 23.7511C20.2319 24.0551 20.2046 24.3554 20.1978 24.652C20.1909 24.9486 20.1875 25.2304 20.1875 25.4974L24.7812 28ZM20.731 20.5254L24.7812 18.5233L28.8315 20.5254L24.7812 22.5275L20.731 20.5254ZM28.0625 24.6186L24.7812 26.4094L21.5103 24.6298C21.5239 24.4221 21.5376 24.2405 21.5513 24.0847C21.5649 23.929 21.5957 23.7807 21.6436 23.6398C21.6914 23.4989 21.7461 23.3581 21.8076 23.2172C21.8691 23.0763 21.9512 22.9168 22.0537 22.7389L24.7812 24.0847L27.5088 22.7389C27.6113 22.9094 27.6899 23.0651 27.7446 23.206C27.7993 23.3469 27.854 23.4915 27.9087 23.6398C27.9634 23.7881 28.001 23.9401 28.0215 24.0959C28.042 24.2516 28.0557 24.4258 28.0625 24.6186Z" fill="#016457"/>
</g>
<defs>
<filter id="filter0_d_288_13525" x="0" y="0" width="42" height="42" filterUnits="userSpaceOnUse" color-interpolation-filters="sRGB">
<feFlood flood-opacity="0" result="BackgroundImageFix"/>
<feColorMatrix in="SourceAlpha" type="matrix" values="0 0 0 0 0 0 0 0 0 0 0 0 0 0 0 0 0 0 127 0" result="hardAlpha"/>
<feOffset dy="4"/>
<feGaussianBlur stdDeviation="2"/>
<feComposite in2="hardAlpha" operator="out"/>
<feColorMatrix type="matrix" values="0 0 0 0 0 0 0 0 0 0 0 0 0 0 0 0 0 0 0.25 0"/>
<feBlend mode="normal" in2="BackgroundImageFix" result="effect1_dropShadow_288_13525"/>
<feBlend mode="normal" in="SourceGraphic" in2="effect1_dropShadow_288_13525" result="shape"/>
</filter>
</defs>
</svg>
