<svg width="329" height="112" viewBox="0 0 329 112" fill="none" xmlns="http://www.w3.org/2000/svg">
<path d="M185.075 1.14491C181.082 3.26682 180.867 3.40987 180.724 3.9463C180.652 4.20856 180.605 4.50658 180.629 4.59003C180.652 4.69732 181.225 4.43506 182.393 3.76749C183.346 3.21913 184.825 2.39659 185.695 1.91976C187.018 1.20451 187.28 1.01378 187.388 0.691915C187.555 0.203161 187.555 0.000506878 187.376 0.000506878C187.292 0.000506878 186.255 0.513103 185.075 1.14491Z" fill="black"/>
<path d="M116.995 1.80026C114.015 3.8268 113.991 3.83872 113.896 4.48245C113.86 4.78047 113.848 5.04273 113.884 5.07849C113.919 5.11425 114.79 4.54205 115.839 3.79104C116.876 3.05195 118.056 2.22941 118.473 1.96715C118.878 1.70489 119.236 1.40687 119.26 1.31151C119.451 0.655859 119.463 0.357839 119.296 0.357839C119.212 0.357839 118.175 1.01348 116.995 1.80026Z" fill="black"/>
<path d="M213.268 2.28915C212.505 2.77791 209.131 4.99518 208.929 5.13823C208.821 5.22168 208.595 6.33031 208.666 6.41376C208.702 6.44952 213.566 3.30242 214.09 2.90903C214.186 2.82559 214.245 1.78848 214.15 1.8004C214.09 1.8004 213.697 2.02689 213.268 2.28915Z" fill="black"/>
<path d="M193.253 4.58952C192.836 5.06635 192.585 5.80545 192.692 6.2346C192.74 6.46109 192.919 6.59222 193.36 6.75911L193.956 6.98561L193.348 7.74854C193.014 8.17769 192.335 8.94063 191.834 9.4413C191.333 9.9539 190.964 10.395 191 10.4427C191.107 10.5499 192.311 9.7274 193.086 9.02407C193.467 8.66645 193.885 8.14193 194.087 7.73662L194.433 7.03329L194.862 7.23595C195.232 7.41476 195.291 7.41476 195.398 7.27171C195.601 6.94985 195.47 6.38957 195.148 6.2346C194.898 6.11539 194.838 5.98426 194.779 5.36438C194.659 4.13653 193.968 3.7789 193.253 4.58952ZM194.075 5.47166C194.254 5.82929 194.23 5.87697 193.873 5.78161C193.467 5.68624 193.312 5.54319 193.408 5.3763C193.539 5.16172 193.932 5.22133 194.075 5.47166Z" fill="black"/>
<path d="M185.349 4.91152C184.837 5.44796 184.181 6.86654 184.181 7.40297C184.181 7.93941 184.55 8.28512 185.242 8.40432L185.707 8.47585L185.301 9.15534C185.075 9.52488 184.896 9.95403 184.896 10.109C184.896 10.3593 185.063 10.2401 186.088 9.26263C186.744 8.63082 187.483 7.99902 187.745 7.84405C188.151 7.61755 188.222 7.49834 188.353 6.93806C188.508 6.24665 188.449 6.06784 188.139 6.29434C187.28 6.9023 186.851 7.08111 186.279 7.08111C185.671 7.09303 185.015 6.85462 184.932 6.60428C184.908 6.53275 184.992 6.35394 185.111 6.19897C185.385 5.85327 185.886 5.85327 186.327 6.18705C186.517 6.31818 186.708 6.43739 186.744 6.43739C186.839 6.43739 187.161 5.65061 187.161 5.42412C187.161 5.31683 187.006 5.06649 186.815 4.87576C186.327 4.39892 185.826 4.41084 185.349 4.91152Z" fill="black"/>
<path d="M116.721 5.55476C116.518 5.72165 116.161 6.25809 115.922 6.74684C115.171 8.26079 115.362 8.97604 116.566 9.14293L117.043 9.20254L116.709 9.67937C116.34 10.18 116.041 10.9311 116.161 11.0503C116.196 11.0979 116.733 10.645 117.341 10.0489C117.937 9.46479 118.664 8.83299 118.938 8.64226C119.308 8.40384 119.487 8.18927 119.57 7.87932C119.701 7.41441 119.725 6.91374 119.63 6.91374C119.594 6.91374 119.296 7.09255 118.962 7.31904C118.235 7.83164 117.52 7.96277 116.804 7.72435C116.232 7.53362 116.101 7.25944 116.423 6.90181C116.697 6.60379 117.245 6.61572 117.687 6.92566C118.116 7.2356 118.259 7.12831 118.342 6.41306C118.402 5.93623 118.366 5.85278 118.02 5.56668C117.544 5.16137 117.186 5.16137 116.721 5.55476Z" fill="black"/>
<path d="M142.339 6.16275C141.719 6.38924 140.908 7.66477 140.908 8.40386C140.908 8.79725 140.956 8.85685 141.421 9.05951C141.695 9.19064 142.017 9.29792 142.124 9.29792C142.232 9.29792 142.351 9.34561 142.386 9.39329C142.494 9.5721 141.242 10.9907 139.883 12.2066C139.168 12.8503 138.572 13.4225 138.548 13.4821C138.441 13.7444 138.929 13.5298 139.943 12.8623C141.302 11.9682 142.327 10.9788 142.744 10.1562C142.911 9.82244 143.102 9.53634 143.161 9.53634C143.221 9.53634 143.459 9.61979 143.698 9.71515C144.21 9.92973 144.282 9.90589 144.485 9.41713C144.675 8.95222 144.58 8.72572 144.067 8.51115C143.674 8.34426 143.65 8.3085 143.65 7.74822C143.65 6.57997 143.078 5.88857 142.339 6.16275ZM142.756 7.74822C142.851 7.93895 142.935 8.11776 142.935 8.15352C142.935 8.22505 141.874 7.91511 141.779 7.81974C141.647 7.68861 142.017 7.39059 142.291 7.39059C142.482 7.39059 142.625 7.5098 142.756 7.74822Z" fill="black"/>
<path d="M169.482 6.47288C169.089 6.84243 168.445 7.97491 168.445 8.29677C168.445 8.61863 168.946 9.04778 169.518 9.19083C169.84 9.27428 170.114 9.39349 170.114 9.46501C170.114 9.52462 169.232 10.4544 168.147 11.5154C167.063 12.5883 166.18 13.4943 166.18 13.53C166.18 13.6969 166.502 13.53 167.647 12.7552C169.018 11.8492 170.055 10.8121 170.472 9.95377C170.615 9.65575 170.794 9.42925 170.877 9.45309C170.949 9.48885 171.211 9.59614 171.461 9.70343L171.914 9.90608L172.093 9.45309C172.32 8.92857 172.236 8.714 171.688 8.47558C171.318 8.30869 171.306 8.27293 171.306 7.6292C171.306 6.22255 170.365 5.6265 169.482 6.47288ZM170.353 7.65305C170.472 7.86762 170.567 8.05835 170.543 8.0822C170.46 8.16564 169.53 7.8557 169.447 7.72457C169.351 7.58152 169.709 7.27158 169.959 7.27158C170.043 7.27158 170.222 7.43847 170.353 7.65305Z" fill="black"/>
<path d="M211.325 6.68745C210.728 7.03316 209.691 9.21467 209.858 9.75111C209.954 10.0253 210.466 10.3233 211.015 10.4306L211.444 10.514L211.05 11.1101C210.812 11.4677 210.645 11.8492 210.645 12.0757C210.645 12.4333 210.669 12.4214 211.754 11.3723C212.35 10.7763 213.101 10.1207 213.399 9.918C213.78 9.66766 213.971 9.44116 214.019 9.20275C214.054 9.01201 214.126 8.71399 214.174 8.53518C214.269 8.12987 214.102 8.12987 213.458 8.57094C212.731 9.07162 212.028 9.22659 211.372 9.03586C210.633 8.80936 210.49 8.53518 210.919 8.15371C211.336 7.79609 211.456 7.79609 212.004 8.16564C212.254 8.33253 212.493 8.43981 212.552 8.40405C212.767 8.27292 212.922 7.4027 212.791 7.16428C212.505 6.62785 211.813 6.40135 211.325 6.68745Z" fill="black"/>
<path d="M203.803 8.76231C202.742 9.42988 200.214 11.1584 199.583 11.6233C199.523 11.671 199.404 12.875 199.475 12.875C199.499 12.875 200.357 12.3028 201.371 11.5875C202.372 10.8842 203.648 10.0259 204.184 9.6683C205.185 9.01265 205.34 8.79807 205.257 8.16627L205.221 7.84441L203.803 8.76231Z" fill="black"/>
<path d="M118.569 10.9556C118.533 11.0152 118.461 11.5039 118.426 12.0523C118.342 13.1133 118.461 13.757 119.749 19.6697C120.261 22.03 120.762 25.0103 120.762 25.7136C120.762 26.3454 120.953 26.3811 121.108 25.7732C121.489 24.4142 121.072 21.0525 119.808 15.1279C118.974 11.2775 118.783 10.6099 118.569 10.9556Z" fill="black"/>
<path d="M196.173 11.3847C196.137 11.492 196.102 11.7066 196.102 11.8496C196.102 12.1595 195.756 12.5172 195.47 12.5172C195.363 12.5172 195.219 12.4099 195.148 12.2668C194.969 11.9331 194.79 12.0284 194.612 12.5649C194.421 13.1132 194.039 13.5424 193.634 13.6497C193.229 13.745 193.002 13.5304 193.002 13.0417C193.002 12.8152 192.943 12.6364 192.883 12.6364C192.692 12.6364 192.525 13.1967 192.525 13.8404C192.525 14.8894 193.288 15.3186 194.17 14.7821C194.385 14.651 194.659 14.3768 194.767 14.1861C194.933 13.9 195.053 13.8285 195.494 13.8046C196.114 13.7569 196.435 13.4232 196.578 12.6602C196.733 11.8019 196.412 10.7887 196.173 11.3847Z" fill="black"/>
<path d="M186.279 11.8139C186.088 12.7556 186.22 13.5424 186.935 15.9743C188.484 21.2671 188.699 22.042 188.961 23.3652C189.104 24.1162 189.247 24.7599 189.271 24.7957C189.295 24.8195 189.367 24.7718 189.426 24.6765C189.605 24.4023 189.569 22.6738 189.367 21.5055C188.902 18.8829 186.756 11.4443 186.446 11.4443C186.398 11.4443 186.327 11.6112 186.279 11.8139Z" fill="black"/>
<path d="M180.128 12.7796C177.1 14.5319 176.087 15.1637 176.027 15.3545C175.92 15.7359 175.812 16.4512 175.872 16.4512C175.896 16.4512 176.647 16.0101 177.529 15.4617C178.411 14.9253 179.651 14.1862 180.283 13.8286C181.165 13.3279 181.463 13.0895 181.558 12.8272C181.725 12.3623 181.713 12.0405 181.534 12.0405C181.451 12.0524 180.819 12.3742 180.128 12.7796Z" fill="black"/>
<path d="M130.072 12.946C129.452 13.6613 129.214 14.6746 129.786 14.162C130.12 13.8759 130.513 13.7924 131.228 13.8878L131.896 13.9712L131.598 14.1977C131.443 14.3169 130.954 14.615 130.513 14.8414C129.607 15.3183 129.405 15.6997 130.108 15.5686C131.264 15.354 131.801 15.1037 132.325 14.5673C132.909 13.9593 133.636 12.9222 133.636 12.6957C133.636 12.5288 132.599 12.3977 131.36 12.3977H130.561L130.072 12.946Z" fill="black"/>
<path d="M212.505 12.7793C212.267 13.9357 212.314 14.3529 212.982 16.9278C214.484 22.7809 214.686 23.6273 214.889 24.9028C215.08 26.0949 215.128 26.226 215.271 26.0234C215.402 25.8565 215.426 25.4631 215.378 24.1995C215.306 22.3518 215.104 21.255 214.09 17.2854C212.946 12.7913 212.66 11.9926 212.505 12.7793Z" fill="black"/>
<path d="M207.367 13.2556C205.483 14.4358 204.47 15.1749 204.399 15.4133C204.363 15.5563 204.327 15.8424 204.327 16.057V16.4385L206.175 15.2226C207.772 14.1616 208.023 13.9589 208.142 13.5894C208.38 12.743 208.273 12.6953 207.367 13.2556Z" fill="black"/>
<path d="M146.142 14.1026C144.044 15.0205 142.375 16.1769 140.873 17.7504C139.716 18.9663 138.405 20.9333 138.322 21.577C138.214 22.328 138.238 22.328 143.889 22.2565C150.695 22.173 157.133 21.6247 164.845 20.5041C167.122 20.1584 167.098 20.1584 167.79 20.8618C168.207 21.279 168.338 21.4936 168.255 21.577C168.052 21.7797 166.026 22.1015 158.885 23.0671C147.727 24.5691 145.975 24.736 141.147 24.736C137.201 24.736 135.842 24.593 133.982 24.0089C132.528 23.5559 131.252 22.5903 130.561 21.422C130.263 20.9214 129.965 21.0167 129.095 21.9227C127.867 23.1982 127.533 24.1757 127.986 25.0698C128.189 25.4394 128.189 25.4394 127.784 25.7851C127.557 25.9758 126.603 26.6434 125.65 27.2632C123.039 28.9798 123.027 28.9918 123.027 29.1587C123.027 29.4567 123.528 29.3255 124.863 28.6818C126.413 27.9308 127.378 27.3109 128.248 26.548C128.594 26.2381 128.892 25.9877 128.916 25.9877C128.94 25.9877 129.56 26.1427 130.311 26.3334C131.574 26.6672 132.051 26.7506 132.409 26.7149C132.492 26.703 132.6 26.5242 132.659 26.3096C132.719 26.095 132.838 25.94 132.933 25.952C133.029 25.9639 133.601 26.0831 134.221 26.2142C135.866 26.5599 138.81 26.7506 141.385 26.6553C146.416 26.4645 151.125 25.94 163.379 24.1996C165.668 23.8777 167.551 23.6274 167.575 23.6393C167.587 23.6512 167.539 23.9135 167.48 24.1996C167.325 24.8791 167.432 25.797 167.754 26.3573C168.362 27.454 170.257 27.7282 171.378 26.8818C171.879 26.5003 172.415 25.4274 172.797 24.0804C172.963 23.4605 173.13 22.8764 173.166 22.781C173.202 22.6856 173.452 23.0552 173.726 23.6155C174.036 24.2592 174.454 24.8552 174.883 25.2963C175.443 25.8685 175.634 25.9877 176.194 26.095C177.374 26.3334 178.137 26.095 180.593 24.6883C182.476 23.6274 183.37 23.3055 184.491 23.3174C185.29 23.3294 185.349 23.3055 185.528 23.0194C185.838 22.4711 185.898 21.9704 185.647 21.8393C185.528 21.7797 184.598 21.6962 183.585 21.6485C181.523 21.5532 181.034 21.4697 179.425 20.969C178.125 20.5518 177.756 20.5876 177.326 21.1479C176.981 21.6008 176.361 23.0194 176.254 23.6274C176.206 23.8777 176.134 24.0804 176.111 24.0804C175.92 24.0804 175.228 23.5439 174.954 23.1863C174.442 22.5188 173.762 21.0406 172.928 18.7756C172.487 17.5954 172.046 16.4034 171.938 16.1173C171.604 15.2113 171.378 15.3305 171.247 16.463C171.175 17.0709 171.223 17.2974 171.664 18.561C172.296 20.373 172.439 21.2432 172.272 22.4115C171.998 24.2354 171.235 25.1533 169.9 25.2486C168.982 25.3082 168.469 24.9744 168.195 24.14L167.992 23.5559L168.445 23.3532C169.304 22.9717 170.079 21.4578 169.876 20.5637C169.661 19.622 168.493 18.5968 167.528 18.5133C167.194 18.4776 165.942 18.6087 164.571 18.8233C159.97 19.5266 152.329 20.2657 147.131 20.5161C144.83 20.6233 143.793 20.6233 142.351 20.5161C140.384 20.3492 139.955 20.2538 139.955 19.9677C139.955 19.6578 141.743 17.9531 142.744 17.2974C143.662 16.7014 144.234 16.4034 145.951 15.6285C146.69 15.2947 146.773 15.2232 147.048 14.6391C147.548 13.5543 147.489 13.5185 146.142 14.1026ZM179.46 22.6737C180.211 22.9121 180.259 22.936 180.056 23.1029C179.436 23.5797 177.434 24.2592 176.909 24.1757C176.683 24.14 176.695 24.0923 177.064 23.3651C177.636 22.2207 177.803 22.173 179.46 22.6737ZM130.227 23.0313C130.394 24.0208 130.382 24.14 130.072 24.1042C129.667 24.0685 128.988 23.7228 128.988 23.5559C128.988 23.3294 129.798 22.6618 130.084 22.6499C130.132 22.6499 130.203 22.8287 130.227 23.0313Z" fill="black"/>
<path d="M109.866 17.8216C109.628 18.1792 109.437 18.5488 109.437 18.6561C109.437 18.8826 110.725 19.8243 110.927 19.7409C111.13 19.6694 111.821 18.4892 111.821 18.2389C111.81 18.0481 110.677 17.166 110.439 17.166C110.367 17.166 110.105 17.464 109.866 17.8216Z" fill="black"/>
<path d="M114.766 17.4878C114.694 17.607 114.206 19.1806 114.206 19.2998C114.206 19.3475 114.468 19.7289 114.802 20.1343C115.576 21.0998 116.172 22.1846 116.411 23.0668C116.59 23.7224 116.602 23.8297 116.435 24.2231C116.208 24.7595 115.374 25.3913 114.325 25.8205C112.823 26.4285 110.582 26.3092 109.843 25.5702C109.604 25.3317 109.556 25.1648 109.556 24.5926C109.556 24.2112 109.64 23.6032 109.735 23.2456C110.021 22.2204 110.081 21.8151 109.938 21.8151C109.771 21.8151 109.354 22.7568 109.115 23.639C108.996 24.0562 108.913 24.8549 108.913 25.4748C108.901 26.5 108.925 26.5953 109.258 27.0722C109.771 27.7994 110.534 28.157 111.678 28.2285C113.49 28.3358 115.123 27.704 116.268 26.4642C117.114 25.5582 117.245 25.0576 117.15 23.0787C117.067 21.3979 116.876 20.5634 116.22 19.2402C115.779 18.3342 114.897 17.2733 114.766 17.4878Z" fill="black"/>
<path d="M208.392 18.4887C208.321 18.7033 208.261 19.1325 208.261 19.4424C208.261 19.9431 208.332 20.1219 208.774 20.7299C209.37 21.5286 209.632 22.0888 209.525 22.3511C209.453 22.5418 208.762 23.0067 208.547 23.0067C208.476 23.0067 208.273 22.7326 208.106 22.3988C207.689 21.612 206.783 20.4676 206.413 20.2649C205.948 20.0146 205.603 20.253 205.162 21.1352C204.863 21.7431 204.768 22.1127 204.732 22.8398C204.673 23.6624 204.709 23.8412 204.947 24.2584C205.316 24.9021 206.091 25.2955 206.866 25.2479C207.176 25.224 207.426 25.2359 207.426 25.2836C207.426 25.5459 206.485 26.726 205.412 27.787C203.969 29.2175 203.016 29.7778 201.49 30.0877C201.001 30.1831 200.584 30.2904 200.548 30.3261C200.393 30.4692 201.24 30.6599 202.312 30.7195C203.361 30.7791 203.528 30.7672 204.041 30.5049C205.221 29.9447 206.795 28.1089 208.13 25.7247C208.487 25.1048 208.762 24.771 208.976 24.6757C209.393 24.4968 209.882 23.9962 210.037 23.567C210.204 23.1379 210.204 21.5643 210.049 20.7418C209.894 19.9312 209.417 18.8702 209.012 18.4411C208.607 18.0357 208.547 18.0357 208.392 18.4887ZM206.056 22.9233C206.151 23.2809 206.067 23.3167 205.591 23.1259C205.233 22.9948 205.209 22.816 205.471 22.4345C205.662 22.1604 205.674 22.1604 205.817 22.3869C205.913 22.5061 206.02 22.7564 206.056 22.9233Z" fill="black"/>
<path d="M196.602 18.8585C196.292 20.0625 196.292 20.0983 196.722 20.2652C197.747 20.6824 199.022 21.7314 199.654 22.6851C199.952 23.1381 199.952 23.1381 199.726 23.3646C199.475 23.6149 197.485 24.1752 196.447 24.2825C195.863 24.3421 195.744 24.3183 195.518 24.0918C195.375 23.9487 195.208 23.8653 195.148 23.901C195.076 23.9487 195.029 24.3898 195.029 24.9024C195.029 26.0945 195.148 26.2256 196.269 26.2256C197.878 26.2256 199.869 25.4627 200.298 24.6759C200.489 24.3302 200.524 24.0679 200.489 23.1858C200.453 22.2917 200.381 21.9818 200.083 21.338C199.475 20.0506 198.104 18.7631 196.984 18.4294C196.769 18.3578 196.71 18.4174 196.602 18.8585Z" fill="black"/>
<path d="M211.003 28.8485C210.812 29.2419 210.645 29.6353 210.645 29.7307C210.645 29.8856 211.968 30.7559 212.195 30.7559C212.302 30.7559 213.029 29.3254 213.029 29.1108C213.029 28.9677 211.706 28.1333 211.492 28.1333C211.42 28.1333 211.206 28.4551 211.003 28.8485Z" fill="black"/>
<path d="M208.881 28.9917C208.821 29.0751 208.619 29.4328 208.452 29.7785C208.201 30.2672 208.154 30.458 208.261 30.5772C208.487 30.8513 209.691 31.4831 209.823 31.3997C210.001 31.2924 210.526 30.148 210.526 29.8619C210.526 29.695 210.311 29.5043 209.823 29.2301C209.012 28.789 209.048 28.801 208.881 28.9917Z" fill="black"/>
<path d="M196.817 34.0815C196.519 34.2364 194.218 35.3212 191.691 36.4775C184.109 39.9703 177.183 43.4393 174.108 45.3109C173.214 45.8473 173.094 46.0261 173.094 46.7533V47.1348L174.382 46.3718C178.065 44.2022 184.348 41.0313 192.049 37.4431C194.838 36.1557 197.198 34.9994 197.306 34.8921C197.413 34.7848 197.544 34.4868 197.58 34.2364C197.675 33.7119 197.58 33.6881 196.817 34.0815Z" fill="black"/>
<path d="M148.061 35.2742C146.714 35.8822 145.128 36.6332 144.52 36.9312C143.447 37.4796 143.412 37.5034 143.257 38.0518C143.161 38.3736 143.09 38.6359 143.102 38.6478C143.125 38.6716 144.52 38.016 146.225 37.2173C147.918 36.4067 149.539 35.6557 149.813 35.5365C150.195 35.3696 150.35 35.2027 150.504 34.8331C150.612 34.5709 150.648 34.3086 150.6 34.2609C150.54 34.2013 149.396 34.6543 148.061 35.2742Z" fill="black"/>
<path d="M28.3518 36.7879L24.8113 38.5641L24.6802 39.0528C24.6087 39.3151 24.561 39.6012 24.5848 39.6846C24.6087 39.7681 26.0749 39.0767 28.3399 37.9323C31.9996 36.0726 32.0711 36.0249 32.1903 35.6077C32.3453 35.0236 32.3453 34.9878 32.1069 34.9878C31.9877 34.9997 30.2949 35.7984 28.3518 36.7879Z" fill="black"/>
<path d="M220.754 35.3812C220.242 35.7985 219.824 36.5256 219.824 36.9786C219.824 37.3601 219.872 37.4078 220.492 37.6939L221.159 37.9919L220.551 38.6118C220.218 38.9456 219.359 39.6727 218.644 40.233C216.844 41.6158 216.916 41.8185 218.811 40.7456C220.242 39.935 221.052 39.2078 221.6 38.2184C221.684 38.0873 221.755 38.0992 222.065 38.2542C222.578 38.5164 222.745 38.4926 222.9 38.1469C223.114 37.67 223.079 37.5151 222.685 37.3124C222.352 37.1336 222.328 37.0859 222.328 36.4303C222.328 35.9057 222.268 35.6554 222.077 35.417C221.767 35.0236 221.207 34.9998 220.754 35.3812ZM221.493 36.4899C221.66 36.919 221.66 36.919 221.171 36.7164C220.635 36.4899 220.611 36.466 220.718 36.3111C220.873 36.0488 221.374 36.168 221.493 36.4899Z" fill="black"/>
<path d="M224.39 35.3568C223.925 35.6548 223.281 36.6323 223.281 37.0496C223.281 37.4072 223.71 37.7887 224.235 37.9079C224.438 37.9556 224.593 38.0271 224.593 38.0748C224.593 38.2297 223.222 39.4814 222.041 40.4232C220.837 41.3649 220.694 41.6629 221.672 41.1861C223.138 40.4828 224.628 39.2668 224.974 38.492C225.129 38.1463 225.177 38.1463 225.725 38.4085C226.13 38.5993 226.154 38.5993 226.321 38.3728C226.607 37.9913 226.536 37.6218 226.13 37.3953C225.82 37.2165 225.773 37.1449 225.832 36.8231C225.951 35.9886 225.51 35.1065 224.962 35.1065C224.855 35.1065 224.604 35.2257 224.39 35.3568ZM224.879 36.4416C224.986 36.5847 225.069 36.7516 225.069 36.8112C225.069 36.9423 224.473 36.7992 224.259 36.6204C224.128 36.5131 224.128 36.4655 224.306 36.3343C224.593 36.1197 224.664 36.1317 224.879 36.4416Z" fill="black"/>
<path d="M93.4037 37.0143C93.0103 37.1932 89.6367 38.6117 85.8936 40.1495C78.5742 43.1774 75.129 44.6318 74.2588 45.0728C73.8535 45.2755 73.6628 45.4543 73.5674 45.7285C73.3886 46.2411 73.4005 46.5987 73.5913 46.5152C73.6628 46.4795 74.7237 46.0027 75.9397 45.4662C77.1556 44.9298 81.3875 43.1417 85.3571 41.4847C94.9296 37.4793 94.2739 37.7892 94.417 37.2647C94.4766 37.0263 94.5362 36.7998 94.5362 36.7402C94.5362 36.5733 94.1189 36.6806 93.4037 37.0143Z" fill="black"/>
<path d="M266.959 38.8386C265.708 39.7088 264.229 40.7459 263.669 41.1512C262.668 41.8784 262.656 41.9022 262.572 42.5102C262.525 42.844 262.513 43.142 262.549 43.1778C262.572 43.2135 263.025 42.9155 263.538 42.534C264.051 42.1406 265.553 41.0678 266.876 40.126C268.211 39.1962 269.344 38.326 269.415 38.2068C269.582 37.8849 269.57 37.2531 269.391 37.265C269.308 37.265 268.211 37.9683 266.959 38.8386Z" fill="black"/>
<path d="M237.348 38.1345C236.728 38.4802 234.988 39.4219 233.497 40.2206C229.552 42.3306 229.647 42.271 229.492 42.9982C229.421 43.332 229.373 43.63 229.409 43.6538C229.432 43.6777 229.742 43.5227 230.088 43.2962C230.446 43.0697 232.425 41.9611 234.487 40.8405C236.549 39.708 238.314 38.7186 238.397 38.6352C238.588 38.4563 238.743 37.4908 238.588 37.4908C238.528 37.5027 237.968 37.7888 237.348 38.1345Z" fill="black"/>
<path d="M323.392 40.3405C320.913 41.5684 318.791 42.6651 318.66 42.7843C318.457 42.975 318.123 43.9168 318.231 44.0241C318.255 44.0598 318.803 43.7976 319.447 43.4638C320.09 43.13 322.26 42.0214 324.275 41.0081C326.42 39.9233 327.982 39.065 328.065 38.9339C328.232 38.612 328.22 38.0875 328.042 38.0875C327.958 38.0994 325.86 39.1008 323.392 40.3405Z" fill="black"/>
<path d="M295.736 38.8975C295.319 39.1717 294.973 39.6247 294.675 40.2923C294.341 41.0552 294.52 41.4009 295.426 41.7228L296.106 41.9612L295.522 42.6288C295.2 42.9983 294.258 43.8804 293.423 44.5838C291.921 45.8831 291.707 46.205 292.684 45.7043C294.27 44.8937 295.581 43.8328 296.249 42.7956L296.737 42.0327L297.262 42.295C297.775 42.5453 297.786 42.5453 297.965 42.3069C298.061 42.1877 298.144 41.9016 298.144 41.687C298.144 41.3532 298.084 41.2698 297.763 41.1387C297.393 40.9837 297.381 40.936 297.357 40.2684C297.322 38.8975 296.63 38.3015 295.736 38.8975ZM296.416 40.2446C296.523 40.4472 296.582 40.638 296.547 40.6737C296.451 40.7691 295.402 40.3519 295.402 40.2327C295.402 40.0896 295.772 39.887 296.022 39.875C296.141 39.875 296.32 40.0419 296.416 40.2446Z" fill="black"/>
<path d="M196.543 38.9933C196.495 39.041 196.459 39.2198 196.459 39.3867C196.459 39.7682 196.364 39.9112 196.018 40.0901C195.816 40.2093 195.72 40.1973 195.577 40.0424C195.47 39.947 195.387 39.804 195.387 39.7444C195.387 39.4344 195.112 39.7205 194.85 40.2927C194.624 40.8172 194.469 40.996 194.135 41.1391C193.527 41.3894 193.205 41.1987 193.312 40.6384C193.372 40.3285 193.348 40.2331 193.205 40.2331C192.776 40.2331 192.609 41.7947 192.99 42.2716C193.431 42.8199 194.564 42.5458 195.005 41.7828C195.172 41.4967 195.255 41.461 195.589 41.5086C196.412 41.6398 196.972 40.8649 196.912 39.6609C196.877 39.0529 196.745 38.8026 196.543 38.9933Z" fill="black"/>
<path d="M14.011 41.1988C11.9129 42.1048 8.78966 43.4757 7.08498 44.2386L3.97364 45.6215L3.83059 46.0625C3.56834 46.9447 3.56834 46.9447 5.58296 46.0268C6.60815 45.5499 9.75525 44.1433 12.5686 42.9154C15.37 41.6757 17.778 40.5789 17.8972 40.4836C18.0164 40.3763 18.1594 40.114 18.1952 39.8995C18.2667 39.5776 18.2429 39.518 18.0522 39.5299C17.921 39.5299 16.1091 40.2809 14.011 41.1988Z" fill="black"/>
<path d="M148.669 39.8272C148.466 39.9941 148.108 40.5306 147.87 41.0193C147.119 42.5333 147.31 43.2485 148.514 43.4154L148.991 43.475L148.657 43.9518C148.287 44.4525 147.989 45.2035 148.108 45.3227C148.144 45.3704 148.681 44.9174 149.289 44.3214C149.885 43.7373 150.612 43.1055 150.886 42.9147C151.279 42.6644 151.422 42.4736 151.53 42.0922C151.589 41.8299 151.673 41.5081 151.709 41.3889C151.804 41.0789 151.577 41.1385 150.91 41.5915C150.183 42.1041 149.467 42.2352 148.752 41.9968C148.18 41.8061 148.049 41.5319 148.371 41.1743C148.645 40.8763 149.193 40.8882 149.634 41.1981C150.028 41.4842 150.111 41.4365 150.314 40.8405C150.421 40.5186 150.409 40.3875 150.242 40.1133C149.873 39.4696 149.229 39.3504 148.669 39.8272Z" fill="black"/>
<path d="M137.153 40.5789C137.082 40.6266 134.84 41.7352 132.146 43.0346C126.234 45.8837 123.075 47.4572 122.645 47.7552C122.431 47.9102 122.288 48.1605 122.204 48.542C122.145 48.8519 122.109 49.1261 122.121 49.15C122.145 49.1619 122.61 48.9235 123.158 48.6254C123.706 48.3155 127.116 46.6227 130.716 44.8585C134.328 43.0942 137.32 41.6041 137.368 41.5564C137.427 41.4968 137.499 41.2345 137.535 40.9603C137.582 40.5908 137.558 40.4716 137.427 40.4716C137.332 40.4716 137.213 40.5193 137.153 40.5789Z" fill="black"/>
<path d="M282.349 41.2342C282.218 41.3177 280.931 42.0329 279.488 42.8197C276.758 44.3217 275.578 44.9893 275.232 45.2635C275.113 45.3588 274.994 45.6688 274.946 46.0383L274.875 46.6582L276.115 45.9191C276.794 45.5019 278.403 44.584 279.703 43.8687C282.576 42.2833 282.647 42.2237 282.731 41.568C282.802 41.0316 282.731 40.972 282.349 41.2342Z" fill="black"/>
<path d="M1.55371 41.3896C0.898061 41.628 0.373544 42.9035 0.111286 44.8347C-0.210577 47.2308 0.206652 53.7396 0.838457 56.4337C1.4345 58.9013 2.66234 60.0696 5.29685 60.6418C6.13131 60.8206 7.02537 60.8921 9.14728 60.9398C12.8666 61.0232 15.0958 60.7848 17.1819 60.0815C17.921 59.8311 18.0164 59.8311 17.9449 59.998C17.3965 61.3451 17.2534 61.8577 17.2058 62.716C17.1462 63.5981 17.17 63.7412 17.4561 64.3253C17.8495 65.1121 18.9104 66.2207 19.2681 66.2207C19.6734 66.2207 19.8641 65.6247 19.8045 64.4326C19.6972 62.0723 19.733 61.5358 19.9952 61.0351C20.4721 60.1411 21.8668 59.0801 22.6059 59.0682C22.737 59.0682 23.2973 59.2589 23.8337 59.4974C24.3821 59.7358 25.1093 59.9503 25.4669 59.9861C26.0868 60.0576 26.1821 60.0219 28.3398 58.9728C31.2723 57.5543 32.4883 57.1489 34.038 57.0774C34.7413 57.0417 35.4208 57.0655 35.7069 57.1489C36.136 57.2682 36.1957 57.2562 36.4937 56.9701C36.9586 56.5291 37.1493 56.0165 36.9586 55.79C36.8275 55.6231 36.5175 55.6112 34.7652 55.6827C32.1187 55.79 28.9716 55.4443 28.0299 54.9555L27.7319 54.8005L28.1014 54.6217C28.8643 54.2283 29.6988 53.2151 30.7955 51.3793C30.9743 51.0693 31.1889 50.8428 31.2604 50.8667C31.3439 50.9024 31.6538 51.2362 31.9638 51.6296C32.2618 52.0111 32.5836 52.3329 32.679 52.3329C32.8697 52.3329 33.2512 51.415 33.2512 50.9263C33.2631 50.4137 32.9174 49.7819 32.2856 49.1381C31.7134 48.5659 31.2723 48.4229 31.0101 48.7328C30.9386 48.8282 30.7478 49.2574 30.5809 49.6984C30.1041 50.962 29.7107 51.6654 29.1147 52.3091C28.3398 53.1316 27.8153 53.4416 26.1702 54.0018C24.8709 54.4429 24.7159 54.5264 24.4179 54.9555C24.2391 55.2178 24.0483 55.6112 24.0126 55.8138L23.941 56.2072H24.7159C25.145 56.2072 25.8245 56.3145 26.2418 56.4456C26.659 56.5648 27.5054 56.7317 28.1252 56.8152C29.4246 56.9821 29.4246 56.9821 27.8153 57.7808C26.4086 58.4722 25.9795 58.496 24.5371 57.888C23.8934 57.6139 23.2139 57.3993 23.035 57.3993C22.594 57.3993 21.6761 57.8642 20.8535 58.5198C20.031 59.1636 19.3396 60.1768 18.827 61.512C18.6005 62.0723 18.3859 62.5252 18.3382 62.5252C18.1952 62.5252 18.0879 61.953 18.1594 61.5954C18.3263 60.7967 18.7674 59.9027 19.3277 59.247C20.8297 57.4708 21.6522 54.6694 20.9966 53.4654C20.6747 52.8455 20.3767 52.8694 20.0548 53.525C19.7091 54.2283 19.7091 54.9674 20.0429 55.337C20.2933 55.5992 20.3052 55.6112 20.1025 56.1357C19.4946 57.7331 16.5978 58.6629 11.4122 58.949C7.01345 59.1874 4.3551 58.6629 2.98421 57.292C1.99478 56.3026 1.69676 55.3966 1.25569 51.9753C0.671565 47.5884 0.635802 44.8109 1.12456 43.6307C1.35105 43.0943 1.68484 43.0824 2.65042 43.5711C3.73522 44.1314 3.93787 44.036 3.93787 42.9632C3.93787 42.6055 3.85443 42.4506 3.52064 42.1525C2.82924 41.5565 1.99478 41.2227 1.55371 41.3896Z" fill="black"/>
<path d="M23.2734 41.6155C22.8323 41.9254 22.2959 42.748 22.2959 43.1175C22.2959 43.5109 22.3436 43.5228 22.6535 43.2129C22.8323 43.0341 23.0469 42.9745 23.5833 42.9745C24.5609 42.9745 24.7039 43.1175 24.1317 43.4871C23.8694 43.642 23.3807 43.9162 23.035 44.095C22.7012 44.2619 22.4151 44.4527 22.4151 44.5242C22.4151 44.7149 22.6058 44.7507 23.0231 44.6434C23.2496 44.5838 23.6549 44.4765 23.941 44.405C24.2152 44.3334 24.6324 44.107 24.8708 43.9043C25.443 43.4036 26.349 42.1043 26.349 41.7943C26.349 41.5559 26.2894 41.544 25.1092 41.544C24.4297 41.544 23.7979 41.5201 23.7026 41.4844C23.6191 41.4486 23.4165 41.5082 23.2734 41.6155Z" fill="black"/>
<path d="M29.7107 41.9379C29.6391 42.0213 29.4484 42.367 29.2934 42.7008L29.0073 43.3207L28.304 42.9154C27.9225 42.6889 27.5411 42.4982 27.4815 42.4982C27.3384 42.4982 26.5874 43.8214 26.5874 44.0717C26.5874 44.2625 28.0894 45.1684 28.2444 45.0731C28.304 45.0373 28.4947 44.6678 28.6735 44.2505L29.0073 43.4876L29.7822 43.9406C30.2113 44.1909 30.6047 44.3697 30.6643 44.334C30.7835 44.2625 31.2842 43.2849 31.4034 42.8916C31.4749 42.677 31.3796 42.5697 30.7835 42.2121C29.9968 41.7352 29.8895 41.7114 29.7107 41.9379Z" fill="black"/>
<path d="M92.1163 43.0341C91.9375 43.4037 91.7944 43.7851 91.7944 43.9043C91.7944 44.107 93.0223 44.8818 93.3322 44.8818C93.4634 44.8818 94.1786 43.5229 94.1786 43.2725C94.1786 43.1056 92.915 42.3785 92.6408 42.3785C92.5097 42.3785 92.319 42.6288 92.1163 43.0341Z" fill="black"/>
<path d="M118.616 43.0105C118.02 43.4038 117.794 43.8926 117.651 45.0728C117.46 46.7298 117.71 50.5921 118.271 54.2995C118.819 57.9949 119.451 59.1751 121.287 60.0334C124.326 61.452 130.096 61.2613 135.782 59.5447C136.664 59.2824 137.463 59.0678 137.57 59.0678C137.666 59.0678 137.916 59.1751 138.107 59.3062C138.929 59.8546 140.264 59.5089 143.316 57.983C145.724 56.779 146.571 56.2426 147.274 55.4916C147.798 54.9313 148.025 54.2995 147.691 54.2995C147.62 54.2995 147.131 54.5617 146.594 54.8955C145.474 55.575 144.449 55.9684 143.805 55.9684C143.197 55.9684 142.255 55.5154 141.647 54.9313C141.075 54.3949 141.039 54.1803 141.421 53.8107C142.184 53.0716 143.733 52.7736 144.687 53.167C145.402 53.465 145.557 53.4173 145.557 52.8809C145.557 52.4994 145.486 52.3564 145.116 52.0345C144.878 51.82 144.329 51.4862 143.912 51.2835C142.971 50.8424 142.887 50.8782 141.695 52.1895C140.431 53.5842 139.955 54.3352 139.955 54.9551C139.955 55.6823 140.11 56.0161 140.789 56.7313L141.385 57.3631L140.694 57.5181C139.823 57.7208 138.429 57.7208 138.059 57.53C137.833 57.4108 137.797 57.3035 137.845 57.0055C137.904 56.5764 137.761 56.2068 137.523 56.2068C137.439 56.2068 137.237 56.4095 137.082 56.6479C136.569 57.4347 135.413 57.8638 132.17 58.4718C131.145 58.6625 129.548 58.889 128.618 58.9605C125.173 59.2586 122.169 58.6267 120.834 57.3274C119.546 56.0757 118.58 52.1657 118.414 47.5404C118.33 45.2397 118.461 44.5721 119.033 44.3098C119.308 44.1906 119.331 44.1072 119.331 43.4515C119.331 42.6409 119.236 42.5813 118.616 43.0105Z" fill="black"/>
<path d="M89.6606 43.8205C89.446 44.2139 89.303 44.6073 89.3268 44.6907C89.3983 44.8695 90.6381 45.5967 90.8765 45.5967C91.0553 45.5967 91.6752 44.345 91.6752 44.0112C91.6752 43.8205 90.5189 43.0933 90.2209 43.0933C90.1136 43.0933 89.8632 43.4152 89.6606 43.8205Z" fill="black"/>
<path d="M247.361 44.3341C243.702 45.9315 243.606 45.9792 243.439 46.4441C243.32 46.7898 243.261 47.2666 243.344 47.2666C243.356 47.2666 243.857 47.0282 244.441 46.754C245.037 46.4679 246.575 45.7527 247.874 45.1805C249.591 44.4175 250.27 44.0599 250.342 43.8811C250.592 43.1778 250.604 43.0943 250.377 43.1062C250.258 43.1062 248.899 43.6546 247.361 44.3341Z" fill="black"/>
<path d="M157.955 45.3712C154.391 47.3382 153.807 47.7196 153.723 48.1369C153.675 48.3514 153.616 48.6137 153.592 48.721C153.556 48.8402 153.58 48.9355 153.64 48.9355C153.711 48.9355 154.426 48.5422 155.237 48.0653C156.036 47.5766 157.371 46.8136 158.17 46.3606C159.695 45.5023 159.779 45.4308 159.922 44.7871C159.982 44.5129 159.958 44.4056 159.839 44.4056C159.755 44.4056 158.909 44.8467 157.955 45.3712Z" fill="black"/>
<path d="M215.366 44.7151C215.33 44.8224 215.294 45.0012 215.294 45.1323C215.294 45.4065 214.806 45.7522 214.543 45.6568C214.448 45.6091 214.341 45.4661 214.305 45.335C214.21 44.9892 213.983 45.1204 213.804 45.633C213.613 46.1813 213.447 46.3959 213.006 46.6224C212.469 46.8966 212.195 46.7416 212.195 46.1813C212.195 45.3588 211.802 45.7045 211.647 46.6582C211.515 47.4807 211.945 48.1006 212.648 48.1006C212.994 48.1006 213.613 47.7072 213.864 47.3257C214.066 47.0277 214.162 46.98 214.555 47.0039C214.913 47.0396 215.08 46.98 215.318 46.7297C215.676 46.384 215.902 45.5138 215.807 44.9058C215.735 44.5005 215.485 44.3932 215.366 44.7151Z" fill="black"/>
<path d="M149.634 45.2631C149.312 46.5983 149.3 46.5029 150.385 53.6435C150.552 54.7521 150.719 56.3853 150.767 57.2555C150.838 58.9125 150.969 59.1747 151.244 58.2807C151.458 57.5654 151.422 54.5971 151.16 52.4514C150.695 48.4818 150.063 44.7625 149.861 44.7625C149.801 44.7625 149.706 44.9889 149.634 45.2631Z" fill="black"/>
<path d="M236.347 45.5969C236.239 46.2644 235.5 46.6101 235.357 46.0737C235.25 45.6922 234.964 45.8472 234.773 46.3717C234.606 46.8843 234.26 47.23 233.819 47.3373C233.342 47.4565 233.176 47.3135 233.176 46.789C233.176 46.5267 233.116 46.3121 233.056 46.3121C232.854 46.3121 232.699 46.8724 232.699 47.5757C232.699 48.3983 232.961 48.6963 233.664 48.6963C234.082 48.6963 234.225 48.6248 234.654 48.1956C235.059 47.7784 235.226 47.683 235.607 47.683C236.454 47.6592 237.05 46.5744 236.811 45.4896C236.704 44.9651 236.442 45.0247 236.347 45.5969Z" fill="black"/>
<path d="M266.47 45.4307C266.327 45.6453 266.268 45.991 266.268 46.5393C266.268 47.195 266.423 47.791 267.186 50.1513C268.282 53.5369 269.403 57.3634 269.498 58.0787L269.57 58.6032L268.95 58.3529C267.793 57.8999 267.412 57.6495 267.114 57.1489C266.947 56.8866 266.458 55.4919 266.005 54.0494C265.552 52.6189 265.123 51.4388 265.052 51.4388C264.813 51.4388 264.527 52.2732 264.527 52.9885V53.6918L263.848 54.2402C262.548 55.2773 261.416 56.9224 261.38 57.8045L261.368 58.1741L262.894 58.2813C263.728 58.329 264.539 58.3409 264.682 58.3052C264.849 58.2694 265.052 58.031 265.219 57.6853C265.374 57.3754 265.54 57.1727 265.588 57.2323C265.648 57.2919 265.838 57.7568 266.017 58.2694C266.268 58.9489 266.458 59.2827 266.733 59.4853C267.305 59.9264 268.449 60.4152 269.057 60.4748L269.617 60.5225L269.82 60.0099C269.951 59.688 270.058 59.0085 270.094 58.2337C270.178 56.6482 270.035 55.8853 268.807 51.5103L267.865 48.1844L268.235 47.5526C268.676 46.7658 268.628 46.5512 267.925 46.134C267.627 45.9671 267.269 45.6691 267.126 45.4784C266.804 45.0373 266.733 45.0373 266.47 45.4307ZM265.099 55.468L265.338 56.1952L264.921 56.3382C264.539 56.4575 263.454 56.3979 263.454 56.2429C263.454 56.1714 264.813 54.6813 264.849 54.7051C264.861 54.717 264.98 55.0627 265.099 55.468Z" fill="black"/>
<path d="M139.835 45.6686C139.287 46.3004 139.037 46.8726 139.227 47.0633C139.347 47.1706 139.394 47.1706 139.49 47.0037C139.633 46.7415 140.193 46.6342 140.932 46.7296L141.552 46.813L141.266 47.0514C141.099 47.1825 140.61 47.4806 140.169 47.6951C139.669 47.9455 139.359 48.1839 139.359 48.2912C139.359 48.4462 139.442 48.47 139.764 48.4104C140.694 48.2316 141.409 47.9455 141.814 47.5998C142.315 47.1587 143.292 45.8236 143.292 45.5732C143.292 45.3706 142.398 45.2395 141.027 45.2395C140.253 45.2395 140.205 45.2514 139.835 45.6686Z" fill="black"/>
<path d="M192.025 46.1694C191.774 46.5509 191.572 46.9323 191.572 47.0039C191.572 47.1469 192.847 48.1006 193.062 48.1006C193.181 48.1006 193.861 47.0873 194.016 46.6582C194.075 46.5151 193.896 46.3244 193.396 45.9668C193.014 45.7045 192.657 45.478 192.585 45.478C192.525 45.478 192.263 45.7879 192.025 46.1694Z" fill="black"/>
<path d="M261.118 45.6925C260.665 45.9786 260.009 46.9918 259.914 47.5402C259.866 47.8859 259.902 47.9813 260.188 48.2078C260.379 48.3508 260.748 48.5296 261.023 48.6012L261.523 48.7442L261.034 49.3283C260.76 49.6502 259.819 50.5443 258.936 51.2953C257.351 52.6662 257.113 53.0119 258.114 52.4993C259.735 51.6767 261.249 50.3893 261.774 49.3879L262.072 48.8396L262.596 49.0661C263.264 49.3522 263.276 49.3522 263.431 48.9945C263.669 48.47 263.597 48.2316 263.156 47.9694C262.751 47.7309 262.739 47.6952 262.739 47.0276C262.739 45.7759 262 45.156 261.118 45.6925ZM261.774 47.0514C262.012 47.4687 261.905 47.564 261.38 47.3852C260.844 47.2183 260.736 47.0395 261.023 46.825C261.332 46.5985 261.571 46.67 261.774 47.0514Z" fill="black"/>
<path d="M324.143 46.491C323.941 46.8486 323.774 47.242 323.774 47.3731C323.774 47.6592 325.193 48.4937 325.395 48.3268C325.598 48.1599 326.182 46.8009 326.11 46.6817C326.027 46.5506 324.775 45.8353 324.62 45.8353C324.561 45.8353 324.346 46.1333 324.143 46.491Z" fill="black"/>
<path d="M321.628 47.3847C321.414 47.8377 321.247 48.243 321.282 48.2669C321.378 48.3622 322.796 49.1729 322.868 49.1729C322.975 49.1729 323.655 47.7662 323.655 47.5397C323.655 47.3966 323.404 47.1821 322.951 46.9317C322.57 46.7291 322.2 46.5503 322.141 46.5503C322.081 46.5503 321.855 46.9198 321.628 47.3847Z" fill="black"/>
<path d="M223.734 47.5521L223.365 48.3151L222.697 47.9097C222.328 47.6832 221.946 47.5044 221.851 47.5044C221.648 47.5044 220.849 48.9945 220.957 49.1734C221.04 49.3164 222.304 50.0078 222.471 50.0078C222.661 50.0078 222.9 49.6383 223.162 48.9707L223.353 48.47L224.044 48.8873C224.426 49.1137 224.831 49.2926 224.926 49.2687C225.129 49.233 225.785 48.0528 225.785 47.7429C225.785 47.5521 224.581 46.7892 224.283 46.7892C224.187 46.7892 223.949 47.1349 223.734 47.5521Z" fill="black"/>
<path d="M301.256 47.5041C299.539 48.422 298.204 49.3518 297.203 50.3532C296.285 51.2592 293.912 54.3943 293.531 55.2049C293.269 55.7295 293.376 55.9321 294.103 56.3017C295.176 56.8381 297.441 56.8977 303.568 56.552C307.943 56.3136 310.22 56.0394 316.025 55.0619C321.449 54.144 321.438 54.1559 321.986 54.3705C322.248 54.4778 322.606 54.7281 322.773 54.9308C323.047 55.2646 323.059 55.3122 322.892 55.4434C322.165 55.9679 307.204 57.9706 299.849 58.5309C297.477 58.7097 292.649 58.7693 291.957 58.6381C291.635 58.5666 291.492 58.3997 290.849 57.2673C289.096 54.1917 288.512 53.9771 287.487 56.0156C286.879 57.2196 286.772 58.2924 287.165 59.115C287.547 59.8898 288.095 60.1759 289.716 60.4382C289.955 60.474 290.157 60.5574 290.157 60.617C290.157 60.8077 288.357 62.6316 287.618 63.1919C287.213 63.5018 286.474 63.9429 285.985 64.1813C285.186 64.5628 284.996 64.5986 284.078 64.6105C283.517 64.6105 282.707 64.5628 282.266 64.5032C281.562 64.4078 281.455 64.4198 281.455 64.5866C281.455 64.9204 281.801 65.135 282.981 65.5165C284.578 66.0291 285.544 66.0529 286.521 65.5761C287.547 65.0754 289.657 62.9296 290.455 61.5707L291.051 60.5574L293.674 60.5932C296.583 60.6408 298.311 60.5336 303.509 60.009C310.9 59.27 320.567 57.8991 322.785 57.2792C323.846 56.9931 323.774 56.9812 323.774 57.303C323.786 57.7202 324.203 58.5547 324.465 58.6978C325.073 59.0196 327.326 58.7097 328.089 58.1852C328.685 57.7918 328.9 57.303 328.983 56.1825C329.067 54.9308 328.84 54.0844 328.244 53.3691C328.006 53.095 327.756 52.8685 327.696 52.8685C327.493 52.8685 327.112 53.8579 327.112 54.3586C327.112 54.7758 327.183 54.9188 327.589 55.3122C327.899 55.6103 328.066 55.8725 328.042 56.0275C327.97 56.552 326.146 57.0527 325.228 56.8023C324.644 56.6474 324.442 56.3613 324.609 55.9083C324.918 55.0977 324.632 54.0248 323.893 53.1784C323.106 52.2843 322.534 52.2128 320.186 52.6897C313.999 53.9652 303.783 54.9785 298.323 54.8712C295.724 54.8116 295.045 54.7043 295.045 54.3109C295.045 54.0009 296.559 52.189 297.369 51.5214C297.775 51.1876 299.038 50.3532 300.171 49.6618C301.303 48.9704 302.34 48.267 302.46 48.1001C302.579 47.9332 302.71 47.5995 302.758 47.3491C302.853 46.7412 302.65 46.765 301.256 47.5041ZM288.584 57.0765C288.81 57.3149 288.822 57.3865 288.679 57.5772C288.524 57.7918 288.5 57.7918 288.202 57.601C287.88 57.3865 287.845 57.303 287.964 56.9931C288.071 56.7308 288.286 56.7547 288.584 57.0765Z" fill="black"/>
<path d="M22.3197 47.3025C22.2601 47.3859 22.0575 47.7316 21.8906 48.0773L21.5687 48.7091L20.7939 48.28C20.3766 48.0416 19.9833 47.8747 19.9356 47.9105C19.7568 48.0177 19.1607 49.4006 19.2322 49.5674C19.2918 49.7343 20.5197 50.4854 20.7343 50.4854C20.8058 50.4854 21.0204 50.1396 21.223 49.7105C21.6403 48.8403 21.5568 48.8641 22.5701 49.4959C22.8323 49.6628 23.1065 49.7582 23.19 49.7224C23.3569 49.6628 23.9648 48.4588 23.9648 48.1727C23.9648 48.0773 23.7145 47.8508 23.4045 47.6601C22.6416 47.1952 22.4509 47.1356 22.3197 47.3025Z" fill="black"/>
<path d="M166.943 47.397C166.896 47.4686 166.836 47.8858 166.8 48.3269C166.741 49.2924 166.943 50.3296 167.826 53.5243C168.183 54.8356 168.624 56.4449 168.803 57.1006C168.994 57.7562 169.328 58.9602 169.554 59.7828C170.067 61.6305 170.281 62.8941 170.186 63.4186C169.888 65.0041 166.216 66.0412 164.547 65.016C163.713 64.5034 163.498 63.7047 163.868 62.6199C164.059 62.0239 164.059 61.3206 163.844 61.249C163.558 61.1537 163.045 62.7749 162.902 64.2054C162.795 65.314 162.986 65.922 163.617 66.53C164.261 67.1499 165.012 67.4121 166.18 67.4121C168.112 67.4121 170.055 66.4227 170.746 65.0995C171.092 64.42 171.151 62.8345 170.889 61.1656C170.782 60.4623 170.722 59.8543 170.746 59.8305C170.782 59.7947 171.104 59.9854 171.461 60.2358C172.892 61.2371 174.99 61.6424 178.101 61.5232C182.548 61.3563 185.719 60.5576 187.936 59.0318L188.532 58.6265L189.533 59.151C190.237 59.5205 190.618 59.6636 190.821 59.604C190.976 59.5682 191.941 58.9722 192.978 58.2688C194.004 57.5655 195.196 56.8383 195.613 56.6476C197.175 55.9443 199.189 55.6462 200.143 55.98C200.465 56.0992 200.56 56.0754 200.775 55.8966C201.085 55.6224 201.347 55.0144 201.347 54.5853V54.2634L199.535 54.3707C196.09 54.5734 193.491 54.4542 192.788 54.0727C192.68 54.0131 192.812 53.8581 193.181 53.5959C193.789 53.1667 194.552 52.1415 195.208 50.866C195.649 50.0196 195.661 50.0077 195.899 50.2103C196.03 50.3296 196.34 50.711 196.602 51.0448C196.853 51.3905 197.115 51.6766 197.187 51.6766C197.413 51.6766 197.675 50.8302 197.592 50.3653C197.496 49.7812 196.936 48.6249 196.531 48.1242C196.018 47.5282 195.839 47.6116 195.398 48.6845C194.898 49.9123 193.992 51.2832 193.276 51.915C192.967 52.1892 192.108 52.7852 191.381 53.2382C189.998 54.0965 189.474 54.5734 189.068 55.3721C188.651 56.1946 188.794 56.4211 189.414 55.9562C189.903 55.5986 190.606 55.5509 192.168 55.7893C193.861 56.0277 193.992 56.0992 193.467 56.4092C192.335 57.0887 191.226 57.6251 190.821 57.6966C190.249 57.8039 189.474 57.5297 189.009 57.041C188.568 56.588 188.198 56.588 187.876 57.041C187.566 57.4821 186.243 58.1377 184.848 58.5311C182.893 59.0914 181.272 59.3298 178.983 59.3894C174.072 59.5324 171.569 58.7695 170.245 56.7072C169.792 56.0039 169.137 54.0131 168.267 50.7825C167.897 49.3997 167.527 48.0646 167.444 47.8143C167.289 47.3136 167.098 47.1586 166.943 47.397Z" fill="black"/>
<path d="M82.961 47.946C82.4484 48.4109 82.0789 49.0785 82.1742 49.3407C82.2457 49.5315 82.2815 49.5315 82.5676 49.305C82.806 49.1143 83.0564 49.0546 83.557 49.0546C84.5941 49.0546 84.6538 49.1977 83.8431 49.6865C83.4617 49.9129 82.9729 50.1871 82.7703 50.2944C82.4246 50.4613 82.2219 50.8428 82.4722 50.8428C82.7583 50.8309 84.3438 50.354 84.5703 50.199C85.1544 49.8176 86.3823 48.101 86.275 47.8149C86.2154 47.6718 85.8935 47.6361 84.7968 47.6003L83.3901 47.5645L82.961 47.946Z" fill="black"/>
<path d="M187.459 48.3624C187.233 48.7081 187.042 49.0776 187.042 49.1849C187.042 49.3637 188.008 50.1624 188.413 50.3174C188.58 50.3889 189.426 49.1253 189.426 48.8034C189.426 48.6008 188.294 47.7425 188.031 47.7425C187.948 47.7425 187.698 48.0286 187.459 48.3624Z" fill="black"/>
<path d="M93.7257 48.184C93.6661 48.3033 93.4396 48.9351 93.225 49.5907C92.5336 51.7722 92.1044 52.2371 89.756 53.3815C87.8964 54.2756 86.8712 55.0862 86.9308 55.5988C86.9666 55.8849 87.0142 55.9088 87.7533 55.9803C88.1825 56.028 89.2434 56.2068 90.1017 56.3975C91.9256 56.779 91.9495 56.7074 89.6845 57.4585C86.6447 58.4717 83.8433 58.877 79.9929 58.877C76.9054 58.877 75.2365 58.6982 73.5675 58.1737C72.2682 57.7565 71.7556 57.375 70.9926 56.2425C70.635 55.7061 70.2893 55.2293 70.2059 55.1935C70.0271 55.0743 69.8959 55.3127 69.729 56.0756C69.5621 56.8743 69.6933 57.3631 70.2893 58.2572L70.7185 58.889L70.3966 59.5208C69.9555 60.3671 68.8707 61.3447 67.7502 61.893C66.57 62.4771 65.5448 62.5606 64.4004 62.1791C63.7567 61.9526 63.6017 61.9407 63.3395 62.0718C62.8269 62.3222 62.8865 62.4891 63.6256 62.8586C64.6627 63.3712 65.3899 63.5381 66.6415 63.5381C67.5952 63.5381 67.8575 63.4904 68.2866 63.2639C68.978 62.8944 69.5741 62.2626 70.4681 60.9393C71.5648 59.3181 71.4933 59.3777 71.9344 59.6519C72.5185 60.0095 74.0086 60.4744 75.2961 60.689C77.0007 60.987 81.6737 60.987 83.6287 60.7009C86.2394 60.3075 89.16 59.4492 91.9852 58.2333C94.2502 57.2558 95.6926 56.8743 97.6357 56.7313L98.7324 56.6478L98.8993 56.2545C98.9947 56.0399 99.0662 55.6942 99.0662 55.4915V55.122L98.1483 55.2173C97.6357 55.265 96.3125 55.3127 95.1919 55.3127C93.4396 55.3127 93.0104 55.2769 92.0091 55.0266C91.3654 54.8597 90.8408 54.6928 90.8408 54.6571C90.8408 54.6213 91.1031 54.3948 91.4369 54.1445C91.7587 53.9061 92.2356 53.4292 92.4978 53.0835C92.9627 52.4517 93.821 50.8662 93.821 50.6159C93.821 50.5444 93.8806 50.4848 93.9403 50.4848C94.1429 50.4848 94.5005 51.1881 94.727 51.9868C94.9654 52.8689 95.18 52.9643 95.4542 52.3087C95.5853 51.9749 95.6211 51.5934 95.5853 50.8901C95.5257 49.853 95.2754 49.2569 94.5125 48.3986C94.1191 47.9337 93.8806 47.8741 93.7257 48.184Z" fill="black"/>
<path d="M62.3976 49.758C61.3843 50.5686 59.9776 52.476 59.4889 53.7038C59.167 54.5263 59.1551 55.8734 59.477 56.3979C59.8584 57.0297 60.5498 57.2085 62.1472 57.1251C63.4824 57.0536 63.4824 57.0536 63.1843 57.2801C62.6121 57.7211 60.9671 58.5794 60.2041 58.8298C58.7379 59.3304 57.0093 59.2708 55.8173 58.6986C54.8636 58.2337 54.4106 56.9582 54.6133 55.325C54.6729 54.872 54.6848 54.4667 54.649 54.431C54.6133 54.3952 54.4344 54.5263 54.2437 54.729C53.8146 55.2178 53.6 56.3741 53.6715 57.888C53.743 59.4616 54.1483 60.1291 55.4358 60.7967C57.3789 61.7861 59.93 61.3451 62.6479 59.5569C64.3168 58.4602 64.746 57.7569 64.5433 56.4694L64.436 55.79L62.9459 55.7184C61.3008 55.6469 60.7048 55.4681 60.371 54.9555C60.2041 54.6932 60.1922 54.574 60.3114 54.1806C60.5618 53.3581 61.9327 51.7249 62.7313 51.3077C63.1486 51.0931 63.1843 51.0931 63.7208 51.2958L64.2811 51.4985L64.5552 51.1527C64.8652 50.7713 65.1394 49.9487 65.0201 49.758C64.8771 49.5196 64.1499 49.2931 63.5658 49.2931C63.0651 49.2931 62.8982 49.3646 62.3976 49.758Z" fill="black"/>
<path d="M275.59 51.1762C275.339 51.5577 275.137 51.9392 275.137 52.0107C275.137 52.1776 276.376 53.1074 276.591 53.1074C276.794 53.1074 277.521 51.9273 277.521 51.6173C277.521 51.4027 276.388 50.4848 276.126 50.4848C276.078 50.4848 275.828 50.7948 275.59 51.1762Z" fill="black"/>
<path d="M225.117 50.9023C224.962 51.1407 224.938 51.3672 224.986 51.9037L225.046 52.607L224.211 53.1673C223.257 53.8229 222.483 54.8243 221.946 56.0998C221.41 57.3872 221.445 57.4349 222.816 57.5541C224.45 57.6972 224.807 57.578 225.32 56.7435C225.534 56.3859 225.749 56.0879 225.785 56.0879C225.82 56.0879 225.952 56.4574 226.059 56.9104C226.416 58.2932 227.156 59.0323 228.777 59.6403C232.174 60.9039 239.076 60.4032 240.721 58.7581L241.151 58.329L242.057 58.6389C242.545 58.8058 243.094 58.9489 243.261 58.9489C243.427 58.9489 244.083 58.627 244.715 58.2217C247.159 56.6958 248.136 56.3859 250.401 56.4216C251.259 56.4455 252.213 56.4693 252.547 56.4813C253.119 56.5051 253.143 56.4932 253.405 56.0283C253.679 55.5514 253.763 55.0746 253.584 54.9792C253.536 54.9435 252.499 54.86 251.271 54.7766C250.044 54.705 248.72 54.562 248.351 54.4666C247.969 54.3832 246.908 53.9183 245.99 53.4653C245.073 53.0004 244.178 52.6308 244.012 52.6308C243.308 52.6308 241.949 54.109 241.806 55.0388C241.711 55.5991 241.961 55.6945 242.688 55.3726C243.153 55.17 243.392 55.1342 244.024 55.1938C244.858 55.2772 246.169 55.5991 246.169 55.7183C246.157 55.9091 243.654 57.1607 243.165 57.2323C242.402 57.3396 241.782 57.1131 241.687 56.7077C241.52 55.921 241.413 55.8971 240.948 56.5647C240.304 57.5064 238.671 58.031 235.786 58.2217C233.176 58.3886 230.35 58.1025 229.063 57.5303C227.573 56.8746 227.12 56.0402 225.94 51.8679C225.761 51.2122 225.546 50.6639 225.463 50.64C225.391 50.6162 225.236 50.7235 225.117 50.9023ZM225.332 55.158C225.093 55.5633 224.521 55.7541 223.794 55.6468L223.269 55.5753L224.259 54.6574L225.248 53.7395L225.391 54.2759C225.51 54.7408 225.499 54.8719 225.332 55.158Z" fill="black"/>
<path d="M129.44 52.0585C129.202 52.4638 129.035 52.8453 129.059 52.8929C129.214 53.1314 130.454 53.9539 130.585 53.9062C130.728 53.8466 131.491 52.5115 131.491 52.3207C131.491 52.1777 130.239 51.3194 130.036 51.3194C129.953 51.3194 129.679 51.6532 129.44 52.0585Z" fill="black"/>
<path d="M156.847 52.4761C156.119 53.2509 155.571 55.1106 155.797 56.1C155.941 56.708 156.513 57.3279 157.192 57.5901C157.741 57.7928 157.896 57.757 158.706 57.2325C159.779 56.5292 158.015 59.2471 156.334 60.916C154.844 62.3704 154.391 62.6326 152.567 63.0141C150.111 63.5505 150.159 63.789 152.71 63.9082C154.856 64.0035 155.225 63.9201 156.143 63.0976C158.241 61.2021 159.743 58.1504 159.743 55.7901C159.743 55.0748 159.684 54.8126 159.386 54.2165C158.992 53.4298 157.764 52.1542 157.395 52.1542C157.264 52.1542 157.025 52.2973 156.847 52.4761ZM157.24 54.4549C157.24 54.8364 157.109 55.2536 156.99 55.2536C156.942 55.2536 156.835 55.1464 156.763 55.0152C156.668 54.8364 156.68 54.6934 156.823 54.4192C157.025 54.0258 157.24 54.0377 157.24 54.4549Z" fill="black"/>
<path d="M232.52 53.0473C232.294 53.4168 232.103 53.7983 232.103 53.9175C232.115 54.1678 233.366 55.0619 233.593 54.9665C233.772 54.895 234.487 53.7268 234.487 53.5003C234.487 53.3334 233.283 52.3916 233.08 52.3916C233.009 52.3916 232.758 52.6897 232.52 53.0473Z" fill="black"/>
<path d="M280.132 52.7136C280.06 52.9044 279.953 53.2978 279.881 53.6077C279.75 54.1561 279.75 54.1561 280.322 54.919C281.061 55.8965 281.717 57.2674 281.777 57.9707C281.836 58.6741 281.574 59.127 280.799 59.6396C279.178 60.7125 276.889 60.8317 275.947 59.9019C275.53 59.4847 275.506 58.9244 275.852 57.5773C276.126 56.5045 276.138 56.4449 275.971 56.4449C275.649 56.4449 275.018 58.7217 275.018 59.8661C275.018 60.7006 275.208 61.237 275.637 61.6543C276.21 62.2026 276.782 62.4053 277.795 62.4053C279.369 62.4053 280.549 61.8927 281.562 60.796C282.325 59.9496 282.468 59.3893 282.373 57.5297C282.277 55.6223 281.681 53.8223 280.799 52.7613C280.406 52.3083 280.287 52.2964 280.132 52.7136Z" fill="black"/>
<path d="M48.5814 53.048C48.1284 53.5249 47.8065 54.3712 47.8065 55.0984C47.8065 55.5514 47.7469 55.6825 47.282 56.1474C46.4833 56.9342 45.935 56.9938 45.184 56.3739C44.719 55.9806 44.576 56.0878 44.2303 57.0773C43.9442 57.8879 43.9323 58.0667 44.1707 58.1978C44.4329 58.3528 44.9455 59.974 44.9455 60.6535C44.9455 61.786 44.4091 62.4059 42.7283 63.2046C41.0355 64.0152 39.462 63.8721 38.3056 62.8231L37.7334 62.3105V61.4999C37.7334 60.7727 37.793 60.5462 38.3056 59.4734C38.8659 58.2813 38.9255 57.8283 38.5202 57.8998C38.2937 57.9356 37.495 59.4257 36.9467 60.7966C36.2552 62.5251 36.4341 63.8483 37.5069 64.7901C38.4248 65.5887 39.748 65.9225 41.2978 65.7318C42.4183 65.5887 43.4793 65.0762 44.3495 64.2417C45.3985 63.2403 45.6489 62.6562 45.7919 60.7847C45.8634 59.9383 45.8873 59.1038 45.8515 58.925C45.8038 58.6747 45.8396 58.5912 46.0423 58.5197C46.1734 58.4839 46.7337 58.019 47.2701 57.5064L48.2476 56.5647L48.796 56.8746C49.4278 57.2203 50.5006 57.3753 50.8821 57.1726C51.8954 56.6362 51.5854 54.3832 50.3338 53.0719C49.9761 52.7142 49.8212 52.6308 49.4397 52.6308C49.0582 52.6308 48.8913 52.7142 48.5814 53.048ZM49.8569 55.0507C50.0357 55.3845 49.9165 55.3964 49.3086 55.1461C48.7006 54.8838 48.6768 54.8362 48.9629 54.5143C49.1536 54.2997 49.1655 54.2997 49.4516 54.562C49.6066 54.7169 49.7854 54.9315 49.8569 55.0507Z" fill="black"/>
<path d="M113.669 52.7497C113.633 52.8093 113.538 53.2027 113.478 53.608L113.359 54.3471L114.051 54.967C114.73 55.575 114.742 55.5869 114.527 55.8253C113.955 56.4571 111.249 57.53 109.056 57.9949C107.268 58.3645 105.217 58.5194 103.954 58.3764C102.476 58.1976 101.51 57.9115 101.081 57.5181C100.771 57.2081 100.735 57.1128 100.735 56.3975C100.735 55.7657 100.699 55.6107 100.556 55.6107C100.222 55.6107 99.9006 56.5406 99.9006 57.5181C99.9006 59.8784 101.057 60.4744 105.325 60.3433C106.958 60.2956 107.816 60.2003 108.901 59.9738C112.596 59.1989 114.969 57.9591 115.374 56.5882C115.732 55.3962 115.422 53.8226 114.682 53.0835C114.253 52.6425 113.824 52.4994 113.669 52.7497Z" fill="black"/>
<path d="M214.472 53.2151C214.007 53.7158 213.363 55.0748 213.292 55.7185C213.232 56.2907 213.125 56.4218 212.41 56.8033C211.802 57.1251 211.17 57.1013 210.586 56.7437C210.323 56.5887 210.049 56.4457 209.966 56.4457C209.799 56.4457 209.334 57.6377 209.334 58.055C209.334 58.2099 209.405 58.3888 209.501 58.4364C209.751 58.5795 210.24 59.6404 210.395 60.3676C210.574 61.2259 210.419 61.7623 209.763 62.4895C209.143 63.1809 208.333 63.6458 207.295 63.9081C205.448 64.3849 203.493 63.6339 203.493 62.4657C203.493 62.2511 203.683 61.5239 203.922 60.8564C204.351 59.6643 204.375 59.4497 204.041 59.5808C203.409 59.8312 202.539 61.9531 202.539 63.2763C202.539 64.5637 202.98 65.2432 204.208 65.7797C205.484 66.3519 207.105 66.2684 208.511 65.5651C209.441 65.0883 210.431 64.0869 210.836 63.2048C211.17 62.4895 211.182 62.3942 211.182 60.6656V58.8656L211.778 58.651C212.219 58.496 212.564 58.2338 213.125 57.6377L213.888 56.839L214.627 57.0655C215.02 57.1967 215.724 57.304 216.165 57.3159C217.214 57.3397 217.357 57.1847 217.297 56.1357C217.237 55.194 216.677 54.0257 215.95 53.3582C215.306 52.7621 214.925 52.7264 214.472 53.2151ZM215.259 54.9436C215.569 55.2297 215.795 55.5039 215.759 55.5397C215.676 55.6231 214.376 55.1701 214.293 55.0271C214.186 54.8721 214.365 54.4191 214.52 54.4191C214.603 54.4191 214.937 54.6575 215.259 54.9436Z" fill="black"/>
<path d="M40.3559 54.0013C40.1295 54.3709 39.9387 54.7404 39.9387 54.8358C39.9387 55.0623 41.2262 56.004 41.4288 55.9206C41.6315 55.849 42.3229 54.6689 42.3229 54.4185C42.311 54.2278 41.1785 53.3457 40.9282 53.3457C40.8447 53.3457 40.5944 53.6437 40.3559 54.0013Z" fill="black"/>
<path d="M206.091 53.6799C205.781 54.0256 205.281 54.8839 205.281 55.0389C205.293 55.2057 206.497 56.0879 206.723 56.0879C206.902 56.0879 207.117 55.8137 207.498 55.0865C207.665 54.7647 207.76 54.4667 207.701 54.4309C207.427 54.2044 206.747 53.7276 206.521 53.6084C206.318 53.5011 206.234 53.513 206.091 53.6799Z" fill="black"/>
<path d="M258.197 57.0653C257.84 57.7806 257.84 58.6746 258.197 58.9607C258.531 59.2349 258.794 59.2468 259.139 58.9965C259.39 58.8177 259.401 58.8177 259.27 59.1515C258.794 60.427 256.85 61.5833 255.813 61.2257C255.599 61.1542 255.408 61.1184 255.372 61.1542C255.11 61.4164 256.743 62.0005 257.435 61.8932C258.305 61.7502 259.139 60.8084 259.545 59.521C259.998 58.0309 259.616 56.5646 258.746 56.5646C258.519 56.5646 258.388 56.6838 258.197 57.0653Z" fill="black"/>
<path d="M246.885 59.9142C246.622 60.3195 246.408 60.7009 246.408 60.7486C246.408 60.8917 247.683 61.8096 247.886 61.8096C248.053 61.8096 248.911 60.5698 248.911 60.3195C248.911 60.1883 247.85 59.3539 247.54 59.2347C247.433 59.187 247.206 59.4135 246.885 59.9142Z" fill="black"/>
<path d="M93.1893 60.5216C92.6647 61.2487 92.5098 61.4991 92.5098 61.6898C92.5098 61.8806 93.7018 62.7627 93.9641 62.7627C94.1548 62.7627 94.8939 61.5945 94.8939 61.3084C94.8939 61.1176 94.2502 60.5454 93.7376 60.2712C93.5111 60.152 93.4396 60.1878 93.1893 60.5216Z" fill="black"/>
<path d="M110.415 61.9642C110.2 62.3099 110.033 62.6795 110.033 62.7868C110.033 62.8821 110.331 63.1802 110.701 63.4305C111.214 63.7881 111.404 63.8597 111.559 63.7643C111.774 63.6332 112.406 62.5603 112.418 62.3219C112.418 62.1431 111.273 61.3324 111.011 61.3324C110.88 61.3324 110.653 61.5828 110.415 61.9642Z" fill="black"/>
<path d="M216.451 62.5965C213.625 64.5158 213.435 64.6827 213.339 65.3383C213.303 65.6482 213.292 65.9224 213.315 65.9582C213.351 65.982 214.114 65.4694 215.02 64.8257C215.926 64.1701 217.023 63.3952 217.464 63.0853C218.382 62.4415 218.346 62.4773 218.453 61.8932C218.525 61.5356 218.501 61.4521 218.346 61.4521C218.239 61.4521 217.392 61.9647 216.451 62.5965Z" fill="black"/>
<path d="M194.91 62.7746C192.788 63.8951 190.177 65.3852 190.046 65.5402C189.915 65.6952 189.629 66.6965 189.688 66.7561C189.712 66.78 190.797 66.1839 192.108 65.4329C193.419 64.6819 194.886 63.8713 195.351 63.621C196.006 63.2872 196.245 63.0964 196.34 62.8342C196.483 62.4289 196.495 62.0474 196.376 62.0474C196.316 62.0474 195.661 62.3812 194.91 62.7746Z" fill="black"/>
<path d="M49.2252 63.9198C47.8424 64.6231 46.6622 65.2907 46.6145 65.398C46.5549 65.5052 46.4715 65.8152 46.4238 66.0894L46.3403 66.5781L47.1629 66.1251C47.6159 65.8748 48.8795 65.1953 49.9643 64.6231C51.967 63.586 52.0862 63.4787 52.0981 62.8469C52.0981 62.7396 52.0146 62.6442 51.9074 62.6442C51.812 62.6442 50.5961 63.2164 49.2252 63.9198Z" fill="black"/>
<path d="M180.485 63.8355C180.283 64.2289 180.092 64.5507 180.044 64.5507C180.009 64.5507 179.711 64.3839 179.389 64.1931C179.079 63.9905 178.733 63.8355 178.638 63.8355C178.435 63.8355 177.744 64.9799 177.744 65.3256C177.744 65.4925 177.958 65.6832 178.411 65.9455C178.781 66.1601 179.15 66.3389 179.246 66.3389C179.353 66.3389 179.579 66.0051 179.782 65.5759L180.14 64.8011L180.855 65.2302C181.248 65.4567 181.654 65.6117 181.749 65.5759C181.94 65.5044 182.512 64.3719 182.512 64.0501C182.512 63.8474 181.356 63.1202 181.022 63.1202C180.927 63.1202 180.688 63.4421 180.485 63.8355Z" fill="black"/>
<path d="M70.6946 65.1833C69.8124 65.6602 68.5727 66.3396 67.9409 66.6853C66.8203 67.3172 66.7965 67.341 66.6415 67.9132C66.5581 68.2351 66.5104 68.5212 66.5342 68.545C66.5581 68.5688 67.4164 68.1158 68.4296 67.5436C69.4429 66.9714 70.7542 66.2443 71.3264 65.9343C72.1728 65.4694 72.4231 65.2787 72.5542 64.9568C72.9238 64.0747 72.7092 64.0985 70.6946 65.1833Z" fill="black"/>
<path d="M112.775 65.4573C109.64 67.0905 109.485 67.2097 109.33 67.8415C109.246 68.1514 109.211 68.4256 109.246 68.4494C109.282 68.4852 109.914 68.1633 110.653 67.7461C111.392 67.317 112.572 66.6613 113.288 66.2798C114.575 65.6004 114.706 65.4811 114.849 64.8732C114.968 64.3725 114.706 64.444 112.775 65.4573Z" fill="black"/>
<path d="M23.9648 66.0894C23.4045 66.3398 22.5701 66.7332 22.0932 66.9716C21.2826 67.3888 21.223 67.4484 21.068 67.9729C20.9727 68.2948 20.9131 68.569 20.9369 68.5928C20.9607 68.6166 21.8786 68.1875 22.9634 67.6391C24.692 66.7689 24.9781 66.5901 25.1092 66.2563C25.443 65.4815 25.3476 65.4576 23.9648 66.0894Z" fill="black"/>
<path d="M173.988 66.4114C173.535 66.6498 172.475 67.2101 171.64 67.6631C170.376 68.3545 170.114 68.5453 170.007 68.8671C169.864 69.2724 169.84 69.6777 169.947 69.6777C169.983 69.6777 170.77 69.2605 171.7 68.736C172.629 68.2234 173.714 67.6393 174.12 67.4366C174.835 67.079 175.121 66.7214 175.121 66.2207C175.121 65.8988 174.954 65.9227 173.988 66.4114Z" fill="black"/>
<path d="M111.643 68.2588C111.118 68.521 109.95 69.1529 109.056 69.6416L107.423 70.5357L107.291 71.1317C107.208 71.4536 107.16 71.7397 107.184 71.7516C107.208 71.7754 107.792 71.4774 108.483 71.084C109.175 70.6906 110.343 70.0469 111.082 69.6535C111.821 69.2601 112.501 68.831 112.596 68.6879C112.775 68.4257 112.847 67.77 112.692 67.77C112.632 67.782 112.167 67.9965 111.643 68.2588Z" fill="black"/>
<path d="M172.069 69.963C171.736 70.118 170.651 70.6782 169.661 71.2147L167.861 72.1922L167.671 72.7882C167.551 73.122 167.492 73.4081 167.516 73.4439C167.551 73.4677 168.1 73.1935 168.744 72.824C169.399 72.4664 170.52 71.8465 171.259 71.4531C172.367 70.857 172.618 70.6782 172.725 70.3683C172.88 69.9391 172.892 69.6769 172.773 69.6888C172.713 69.6888 172.403 69.8199 172.069 69.963Z" fill="black"/>
<path d="M250.353 74.0943C247.242 75.9063 247.218 75.9301 247.123 76.5619C247.087 76.86 247.075 77.1341 247.111 77.1699C247.146 77.2057 247.421 77.0745 247.719 76.8719C248.017 76.6573 249.113 75.9778 250.139 75.3579C251.176 74.7381 252.094 74.1539 252.177 74.0705C252.404 73.844 252.511 73.0453 252.308 73.0453C252.213 73.0453 251.343 73.5221 250.353 74.0943Z" fill="black"/>
<path d="M146.177 74.1296C145.688 74.5111 145.247 75.3575 145.295 75.8105C145.33 76.1562 145.414 76.2396 145.95 76.5019L146.57 76.8118L146.093 77.3602C145.831 77.6701 145.021 78.4211 144.293 79.0291C142.756 80.3046 142.779 80.5788 144.341 79.6371C145.557 78.898 146.463 78.0874 146.821 77.4198L147.107 76.8834L147.56 77.1337C148.013 77.396 148.025 77.396 148.191 77.1695C148.466 76.8118 148.406 76.4304 148.048 76.1443C147.774 75.9297 147.715 75.7866 147.703 75.2621C147.691 74.9164 147.595 74.4634 147.488 74.2608C147.321 73.9508 147.214 73.8793 146.892 73.8793C146.666 73.8793 146.356 73.9866 146.177 74.1296ZM146.904 75.3098C146.976 75.4648 147.023 75.6198 147.011 75.6436C146.928 75.7151 146.105 75.3217 146.105 75.2144C146.105 74.833 146.701 74.9045 146.904 75.3098Z" fill="black"/>
<path d="M113.085 77.992C110.427 79.3271 108.174 80.5311 108.066 80.6623C107.864 80.9126 107.661 81.7232 107.768 81.8305C107.804 81.8663 107.971 81.8067 108.15 81.6875C108.329 81.5802 110.57 80.4119 113.133 79.1006C115.696 77.7894 117.865 76.6569 117.949 76.5734C118.175 76.3469 118.282 75.5482 118.08 75.5482C117.984 75.5602 115.743 76.6569 113.085 77.992Z" fill="black"/>
<path d="M154.927 77.5868C148.835 82.4028 146.404 84.632 144.198 87.3619C143.257 88.542 142.422 89.9964 142.398 90.509C142.398 90.7116 142.374 90.7116 142.279 90.4493C142.053 89.901 141.23 86.5512 140.98 85.1923C140.849 84.4532 140.717 83.8333 140.694 83.8094C140.562 83.6664 140.252 83.9883 140.133 84.3816C139.752 85.6214 141.123 91.7726 143.078 97.7211C143.698 99.5926 144.234 101.309 144.27 101.548C144.401 102.334 143.745 103.121 142.434 103.789C140.884 104.564 139.668 104.707 138.631 104.23C137.63 103.753 137.451 103.121 137.844 101.452C137.952 100.975 138.011 100.546 137.964 100.511C137.69 100.224 137.022 101.905 136.867 103.288C136.7 104.683 137.284 105.78 138.417 106.256C139.096 106.531 140.705 106.519 141.659 106.209C143.698 105.565 145.033 103.991 145.033 102.263C145.033 101.715 144.616 99.7476 144.27 98.627L144.091 98.0548L144.353 98.2933C144.997 98.8893 145.676 98.9251 146.69 98.4244C148.228 97.6615 149.443 96.1237 149.634 94.717C149.706 94.2402 149.658 94.0733 149.396 93.6084C148.645 92.3448 146.618 90.7354 144.604 89.8295C144.115 89.6149 143.721 89.4003 143.721 89.3526C143.721 89.1738 145.367 87.3976 146.809 86.0029C148.907 83.9883 150.242 82.82 153.139 80.4597C155.666 78.3974 157.407 76.9192 157.573 76.6808C157.693 76.5258 157.693 75.5483 157.585 75.5483C157.526 75.5483 156.334 76.4662 154.927 77.5868ZM145.39 92.2017C147.357 93.2984 148.454 93.9898 148.728 94.3236C148.883 94.5144 148.835 94.5978 148.192 95.2058C147.381 95.9568 146.094 96.6482 145.486 96.6482C145.271 96.6482 144.961 96.5647 144.818 96.4574C144.556 96.2786 143.96 95.2177 143.662 94.3951C143.578 94.1567 143.257 93.2865 142.97 92.464L142.422 90.9619L142.982 91.0692C143.316 91.1288 144.282 91.5818 145.39 92.2017Z" fill="black"/>
<path d="M216.2 77.5868C213.959 78.8385 212.564 79.673 212.397 79.8756C212.326 79.971 212.231 80.2929 212.195 80.6028L212.111 81.1631L213.649 80.2213C214.495 79.7087 215.795 78.9458 216.546 78.5167C217.428 78.016 217.929 77.6584 218 77.4795C218.131 77.1338 218.143 76.6212 218.012 76.6212C217.964 76.6212 217.154 77.0504 216.2 77.5868Z" fill="black"/>
<path d="M257.005 77.1454C256.457 77.6341 256.028 78.4686 256.218 78.6593C256.314 78.7547 256.421 78.7189 256.6 78.5401C256.803 78.3375 256.993 78.2898 257.613 78.2898C258.042 78.2898 258.412 78.3375 258.46 78.409C258.495 78.4686 258.114 78.7547 257.601 79.0527C256.242 79.8395 256.302 79.8037 256.433 79.9468C256.516 80.0302 256.803 80.0064 257.387 79.8514C258.519 79.5653 258.662 79.4699 259.389 78.5878C260.689 77.0143 260.653 76.8593 259.008 76.8593C258.352 76.8593 257.744 76.8235 257.649 76.7878C257.542 76.752 257.279 76.895 257.005 77.1454Z" fill="black"/>
<path d="M265.373 77.2415C264.956 77.468 264.467 77.9806 263.979 78.6839C263.573 79.2799 263.466 79.3753 263.252 79.3038C262.715 79.125 262.238 79.1011 261.976 79.2442C261.487 79.5064 260.76 80.9131 261.118 80.9131C261.177 80.9131 261.368 80.7462 261.559 80.5555C261.94 80.1502 262.155 80.1144 262.644 80.3766C263.108 80.6151 263.716 80.6031 264.611 80.317C265.755 79.9713 266.411 79.5064 266.732 78.815C267.15 77.9329 267.185 77.5276 266.852 77.2892C266.53 77.0746 265.731 77.0388 265.373 77.2415ZM266.077 78.2428C266.184 78.2786 266.267 78.362 266.267 78.4216C266.267 78.5289 264.491 79.4111 264.42 79.3395C264.324 79.2442 265.016 78.5289 265.373 78.3501C265.779 78.1475 265.815 78.1475 266.077 78.2428Z" fill="black"/>
<path d="M141.051 77.5157C141.015 77.623 140.98 77.8375 140.98 77.9806C140.98 78.529 140.181 78.8985 140.062 78.4097C139.966 78.0283 139.633 78.1832 139.513 78.6482C139.323 79.4111 138.452 80.0429 138.047 79.7091C137.952 79.6376 137.88 79.3873 137.88 79.1608C137.88 78.8866 137.833 78.7674 137.737 78.7912C137.38 78.9104 137.284 80.3886 137.618 80.782C138.095 81.378 139.192 81.1158 139.644 80.3171C139.811 80.0191 139.919 79.9595 140.336 79.9595C140.682 79.9595 140.884 79.8879 141.075 79.6853C141.409 79.3276 141.611 78.4693 141.492 77.8852C141.385 77.3846 141.17 77.2057 141.051 77.5157Z" fill="black"/>
<path d="M250.234 77.6822C249.602 77.9445 248.267 79.8041 248.267 80.424C248.267 80.7101 248.911 81.2585 249.352 81.3538C249.543 81.3896 249.698 81.4492 249.698 81.485C249.698 81.5207 249.459 81.8068 249.161 82.1168C248.863 82.4267 248.625 82.7963 248.625 82.9393C248.625 83.0704 248.649 83.1777 248.672 83.1777C248.708 83.1777 249.173 82.8559 249.721 82.4625C250.27 82.0691 251.068 81.5684 251.51 81.3538C252.308 80.9724 252.344 80.9366 252.761 79.8637C252.845 79.6492 252.535 79.6849 251.951 79.9591C250.52 80.6028 248.351 79.6969 249.65 79.0054C249.9 78.8624 250.008 78.8743 250.353 79.0412C250.592 79.1485 250.806 79.3273 250.842 79.4227C250.961 79.7207 251.212 79.6253 251.414 79.1962C251.688 78.6121 251.653 78.314 251.259 77.9206C250.902 77.5749 250.663 77.5153 250.234 77.6822Z" fill="black"/>
<path d="M132.695 77.8372C132.277 78.0637 131.789 78.5763 131.3 79.2796C130.907 79.8637 130.775 79.971 130.573 79.9114C129.953 79.7326 129.548 79.7087 129.309 79.8399C128.82 80.1021 128.081 81.5088 128.439 81.5088C128.498 81.5088 128.689 81.3419 128.88 81.1512C129.261 80.7459 129.476 80.7101 129.965 80.9724C130.43 81.2108 131.038 81.1988 131.932 80.9127C133.076 80.567 133.732 80.1021 134.054 79.4107C134.471 78.5286 134.507 78.1233 134.173 77.8849C133.851 77.6703 133.052 77.6345 132.695 77.8372ZM133.398 78.8385C133.505 78.8743 133.589 78.9577 133.589 79.0173C133.589 79.1246 131.812 80.0068 131.741 79.9352C131.646 79.8399 132.337 79.1246 132.695 78.9458C133.1 78.7432 133.136 78.7432 133.398 78.8385Z" fill="black"/>
<path d="M190.272 78.3739C189.283 78.8984 175.586 87.1238 174.394 87.9225C174.251 88.0059 173.964 89.1503 174.06 89.2337C174.084 89.2576 175.192 88.6019 176.527 87.7794C177.863 86.9569 181.522 84.7396 184.669 82.8442C190.582 79.2918 190.761 79.1606 190.666 78.4812C190.63 78.1951 190.618 78.1951 190.272 78.3739Z" fill="black"/>
<path d="M243.415 79.0411C242.867 79.6252 242.664 79.9828 242.664 80.3405C242.664 80.7339 242.712 80.7458 243.022 80.4358C243.225 80.2332 243.415 80.1974 244.25 80.1974H245.227L244.87 80.4478C244.679 80.5789 244.119 80.9007 243.654 81.163C242.366 81.8783 242.557 82.0809 244.131 81.6398C245.013 81.4014 245.287 81.1868 246.062 80.1974C246.682 79.3749 246.884 79.0053 246.753 78.8861C246.705 78.8384 246.014 78.7669 245.215 78.7192L243.785 78.6477L243.415 79.0411Z" fill="black"/>
<path d="M96.1572 80.6867C92.867 82.4987 92.7598 82.5702 92.5929 83.2378C92.5094 83.5477 92.4737 83.8338 92.5094 83.8576C92.5333 83.8934 93.1412 83.5715 93.8565 83.1543C94.5598 82.7252 95.883 81.9741 96.7771 81.4615C97.6831 80.9609 98.4698 80.4483 98.5414 80.3171C98.7082 80.0072 98.6963 79.4827 98.5056 79.4827C98.4341 79.4827 97.3731 80.031 96.1572 80.6867Z" fill="black"/>
<path d="M114.515 81.068C114.515 81.7475 113.836 82.1409 113.562 81.6164C113.371 81.2826 113.204 81.378 113.013 81.9263C112.811 82.5462 112.214 83.0827 111.797 83.035C111.511 82.9992 111.475 82.9396 111.44 82.4866C111.368 81.4853 110.939 82.1171 110.939 83.2376C110.939 83.786 110.987 83.9052 111.249 84.1198C111.428 84.2628 111.702 84.3701 111.881 84.3701C112.298 84.3701 112.894 83.9887 113.156 83.5476C113.311 83.2734 113.43 83.2019 113.621 83.2496C114.015 83.3449 114.491 83.1065 114.754 82.6774C115.075 82.1528 115.052 80.7581 114.73 80.6985C114.563 80.6627 114.515 80.7462 114.515 81.068Z" fill="black"/>
<path d="M172.308 81.6039C171.425 82.5814 170.901 84.3099 170.901 86.2768C170.901 89.2213 172.355 96.4215 173.214 97.697C174.179 99.1394 176.146 99.7474 179.877 99.7474C182.631 99.7474 184.979 99.3898 187.435 98.6149C188.46 98.293 188.663 98.2573 188.603 98.4123C187.948 100.01 187.912 100.188 187.9 101.178C187.888 102.084 187.924 102.263 188.234 102.823C188.794 103.824 189.831 104.444 190.201 104.003C190.272 103.908 190.391 103.574 190.463 103.24C190.594 102.68 190.582 102.596 190.26 101.941C189.593 100.57 189.891 99.2467 191.154 97.9831C191.798 97.3394 192.859 96.7672 193.395 96.7672C193.574 96.7672 193.992 96.8506 194.313 96.946C195.231 97.2202 196.602 97.1844 197.186 96.8506C197.747 96.5288 198.212 95.7539 198.438 94.7645C198.939 92.4995 198.057 90.3299 196.245 89.3643L195.708 89.0782L195.374 89.3286C194.599 89.9127 193.848 91.677 193.848 92.9167C193.848 93.7512 194.051 94.1208 194.754 94.5976C195.1 94.836 195.267 94.8718 195.923 94.836C196.602 94.7883 196.721 94.7526 197.043 94.383L197.401 93.9896L197.615 94.2757C197.878 94.6095 197.902 95.0148 197.687 95.2056C197.592 95.2771 197.186 95.4201 196.781 95.5274C195.947 95.7301 195.398 95.6824 194.445 95.3128C193.694 95.0148 193.348 95.1102 192.12 95.9208C190.713 96.8387 190.105 97.5659 189.545 98.9725C189.176 99.9143 189.068 100.093 189.044 99.8308C188.985 99.3182 189.319 98.448 190.415 96.1711C191.393 94.1804 191.44 94.0373 191.488 93.1313C191.524 92.2969 191.5 92.1181 191.262 91.7008C191.107 91.4386 190.904 91.224 190.809 91.224C190.57 91.224 190.439 91.9392 190.534 92.7141C190.701 94.0373 190.546 94.5261 189.748 95.2532C189.128 95.8135 188.401 96.1711 186.994 96.6241C182.047 98.1977 176.778 98.0427 174.418 96.2427C173.5 95.5393 172.522 92.3207 171.855 87.7193C171.509 85.3351 171.664 84.2265 172.522 83.0225C172.832 82.5933 172.927 82.343 172.927 81.9496C172.927 81.1509 172.784 81.0674 172.308 81.6039ZM195.744 91.5339C196.149 91.8558 196.137 92.0704 195.696 92.2969C195.005 92.6545 194.599 92.1896 195.052 91.5459C195.279 91.224 195.351 91.224 195.744 91.5339Z" fill="black"/>
<path d="M231.399 82.093L231.185 82.7963L231.614 83.1659C232.675 84.1076 233.283 85.6216 233.223 87.2309C233.199 88.0534 233.223 88.2441 233.366 88.2441C233.843 88.2441 234.236 85.7765 233.974 84.4652C233.771 83.4996 233.211 82.4506 232.591 81.8784C231.852 81.1989 231.661 81.2228 231.399 82.093Z" fill="black"/>
<path d="M209.107 81.6752C208.511 81.9374 207.617 83.1772 207.617 83.7494C207.617 84.0355 208.034 84.405 208.571 84.6077C208.797 84.6911 209.036 84.7984 209.083 84.8461C209.215 84.9653 207.415 86.6461 206.032 87.6952C205.4 88.1839 204.911 88.625 204.947 88.6846C205.042 88.8396 207.271 87.6356 208.058 87.0038C208.678 86.5031 209.155 85.9667 209.644 85.2156L209.834 84.9295L210.359 85.2037L210.872 85.466L211.086 85.1918C211.432 84.7388 211.372 84.3931 210.883 84.107C210.514 83.8924 210.466 83.809 210.49 83.4275C210.55 82.5096 210.478 82.2116 210.132 81.854C209.739 81.4725 209.62 81.4487 209.107 81.6752ZM209.632 83.2964C209.751 83.6421 209.739 83.6659 209.489 83.5825C209.06 83.4514 208.571 83.1772 208.571 83.0699C208.571 82.903 209.095 82.7242 209.298 82.8315C209.405 82.8911 209.56 83.0937 209.632 83.2964Z" fill="black"/>
<path d="M224.998 82.3436C224.628 82.6297 223.996 83.5834 223.889 84.0125C223.794 84.4298 224.175 84.9066 224.759 85.0854C224.998 85.1689 225.236 85.2762 225.296 85.3119C225.415 85.4311 223.889 86.9093 222.697 87.8511C222.172 88.2683 221.588 88.7213 221.398 88.8762C220.849 89.3054 221.135 89.3292 221.958 88.912C223.722 88.0537 225.284 86.7901 225.784 85.8245C225.892 85.6099 226.011 85.443 226.047 85.443C226.094 85.443 226.333 85.5623 226.595 85.7053L227.072 85.9795L227.298 85.6934C227.644 85.2642 227.585 84.8828 227.143 84.6086C226.762 84.3821 226.75 84.3344 226.738 83.5953C226.726 82.582 226.464 82.1767 225.784 82.141C225.463 82.1171 225.224 82.1887 224.998 82.3436ZM225.796 83.6668C225.904 83.8695 225.963 84.0602 225.939 84.096C225.904 84.1198 225.618 84.0364 225.32 83.9053C224.843 83.6907 224.771 83.6311 224.902 83.4761C225.165 83.1662 225.594 83.2615 225.796 83.6668Z" fill="black"/>
<path d="M258.638 82.4749C258.555 82.606 258.436 83.2021 258.364 83.7862C258.233 84.8829 258.221 84.8591 258.698 87.887C259.02 89.8777 258.9 93.3705 258.519 93.609C258.471 93.6447 257.804 92.8341 257.041 91.8208C255.193 89.3532 253.524 87.3744 252.284 86.1942C251.2 85.1571 250.52 84.7279 249.948 84.7279C249.555 84.7279 249.471 84.9067 249.209 86.2419C249.09 86.8737 249.102 87.0287 249.257 87.2671C249.495 87.6366 251.796 88.6618 252.213 88.5784C252.475 88.5307 252.642 88.6618 253.429 89.5201C254.669 90.891 257.923 94.7534 257.923 94.8726C257.923 95.0633 256.683 96.3031 255.837 96.9468C255.05 97.5547 254.919 97.7097 254.764 98.2342C254.537 99.0091 254.537 99.5098 254.752 99.5098C254.99 99.5098 259.246 97.9839 259.544 97.7812C259.711 97.674 259.818 97.4475 259.866 97.1018C259.902 96.8157 259.973 96.4223 260.009 96.2315C260.081 95.9216 259.997 95.7428 259.544 95.1229L258.984 94.3719L259.222 93.609C259.628 92.3215 259.747 90.9268 259.663 88.781C259.604 86.981 259.604 86.8022 259.795 86.6829C259.914 86.6114 260.14 86.1704 260.295 85.7054L260.593 84.871L260.104 84.3226C259.83 84.0127 259.461 83.4166 259.282 82.9994C259.091 82.5703 258.9 82.2246 258.853 82.2246C258.805 82.2246 258.71 82.3318 258.638 82.4749ZM258.912 96.1839C258.734 96.3627 257.434 96.768 257.518 96.613C257.565 96.5296 257.768 96.2196 257.971 95.9097L258.34 95.3375L258.674 95.707C258.865 95.9216 258.972 96.1242 258.912 96.1839Z" fill="black"/>
<path d="M191.238 83.0231C190.999 83.4046 190.809 83.7741 190.809 83.8576C190.809 84.0722 192.108 85.002 192.299 84.9185C192.501 84.847 193.193 83.6669 193.193 83.4165C193.193 83.2377 192.013 82.3436 191.786 82.3436C191.715 82.3436 191.464 82.6536 191.238 83.0231Z" fill="black"/>
<path d="M124.648 83.0108C124.541 83.3684 124.517 83.9168 124.565 84.6559C124.636 85.7407 124.875 86.742 126.258 91.9395C126.556 93.0481 126.794 94.0852 126.794 94.2164C126.794 94.5263 126.591 94.6217 125.924 94.6217C124.66 94.6217 123.897 94.0852 123.766 93.0958C123.718 92.7501 123.635 92.4759 123.563 92.4759C123.504 92.4759 123.289 92.8216 123.098 93.2389C122.86 93.7991 122.622 94.1091 122.276 94.3594C121.287 95.0747 118.139 95.9091 114.444 96.4336C112.87 96.6482 112 96.6959 109.27 96.7078C106.23 96.7078 105.909 96.684 104.919 96.4336C103.501 96.076 102.058 95.3608 101.248 94.6217C100.89 94.2998 100.544 94.0256 100.485 94.0256C100.282 94.0256 99.7694 94.6694 99.4595 95.2892C99.2807 95.623 99.0661 95.933 98.9588 95.9687C98.8634 96.0164 98.78 96.1237 98.78 96.2072C98.78 96.374 98.1124 96.7078 96.7534 97.2443C96.3958 97.3873 95.7998 97.5065 95.4421 97.5184C94.8461 97.5423 94.7746 97.578 94.6315 97.888C94.3693 98.4244 94.3097 99.1635 94.5004 99.3185C94.7388 99.5092 95.2037 100.189 95.2037 100.344C95.2037 100.606 94.4289 101.607 93.6183 102.406C92.0805 103.896 90.1851 104.528 88.9811 103.932C88.3969 103.646 87.9916 103.61 87.8605 103.825C87.7174 104.063 88.8261 104.969 89.5175 105.172C90.2327 105.386 91.3652 105.41 91.9851 105.219C93.4156 104.79 95.4421 102.299 96.0859 100.201L96.3481 99.3304L97.2899 98.8774C98.2316 98.4244 98.2435 98.4125 98.9588 98.5556C99.3522 98.6271 100.27 98.8417 101.009 99.0443C101.748 99.235 102.487 99.39 102.654 99.39C102.964 99.39 103.048 99.2708 103.346 98.4125C103.417 98.2218 103.465 98.2218 104.085 98.4363C105.229 98.8297 106.636 98.9489 109.211 98.8774C115.791 98.6867 121.596 97.3396 122.979 95.6826L123.289 95.325L123.873 95.623C124.362 95.8734 124.708 95.9449 125.805 96.0045L127.14 96.0879L127.462 95.4323C127.783 94.7767 127.783 94.2998 127.473 94.419C127.366 94.4548 127.342 94.2283 127.366 93.4415C127.426 92.1302 127.259 91.2123 126.544 88.7924C126.222 87.7195 125.959 86.7539 125.959 86.6347C125.959 86.5155 126.079 86.1698 126.21 85.8599C126.401 85.4426 126.448 85.1327 126.412 84.7155C126.365 84.2029 126.281 84.0717 125.816 83.6545C125.518 83.4042 125.208 83.0227 125.125 82.8201C125.042 82.6293 124.934 82.4624 124.887 82.4624C124.839 82.4624 124.732 82.7128 124.648 83.0108ZM100.699 95.9449C101.224 96.5171 101.534 96.982 101.426 97.0535C101.283 97.137 100.485 96.9343 100.151 96.7197C99.829 96.5052 99.7456 95.9687 99.9959 95.7184C100.21 95.5038 100.318 95.5396 100.699 95.9449Z" fill="black"/>
<path d="M101.82 83.8808C100.508 84.453 99.3283 84.9776 99.1853 85.0491C98.9469 85.1921 98.5535 86.2054 98.6965 86.3485C98.7323 86.3842 99.233 86.1816 99.8052 85.8835C100.389 85.5974 101.605 85.0491 102.499 84.6557C104.18 83.9285 104.383 83.7616 104.383 83.1179C104.383 82.951 104.347 82.8199 104.299 82.8318C104.24 82.8318 103.131 83.3086 101.82 83.8808Z" fill="black"/>
<path d="M213.899 83.6787C213.577 84.1793 213.422 84.9899 213.506 85.8721C213.542 86.3728 213.923 87.9463 214.46 89.806C215.866 94.7054 216.212 96.5293 215.771 96.6962C215.497 96.8035 214.758 96.4459 214.245 95.9571C213.339 95.0869 212.779 93.9067 212.087 91.4272C211.861 90.6047 211.646 89.9133 211.61 89.8775C211.396 89.6629 210.955 90.6047 210.955 91.308C210.955 91.5464 210.812 91.7252 210.394 92.0352C209.322 92.8339 208.404 94.0021 207.855 95.2895C207.522 96.0644 207.545 96.2432 207.986 96.3386C208.511 96.4339 210.859 96.422 211.026 96.3147C211.11 96.2671 211.324 95.9094 211.503 95.528L211.837 94.8246L212.028 95.4088C212.755 97.5426 213.947 98.7227 215.27 98.6512C215.89 98.6155 215.902 98.6035 216.176 98.0552C216.331 97.7452 216.546 96.9942 216.653 96.3863C216.808 95.4445 216.808 95.0988 216.689 94.1094C216.522 92.7981 215.818 89.794 215.246 88.0178C214.912 86.9926 214.889 86.8258 215.044 86.6589C215.258 86.3966 215.485 85.729 215.485 85.3237C215.485 85.1092 215.365 84.9303 215.115 84.7396C214.912 84.5846 214.603 84.227 214.412 83.929L214.066 83.3926L213.899 83.6787ZM211.467 93.6326L211.646 94.2644L211.205 94.3836C210.716 94.5147 209.93 94.5266 209.596 94.3955C209.417 94.324 209.512 94.1928 210.251 93.5729C210.728 93.1676 211.157 92.8696 211.205 92.9173C211.253 92.9769 211.36 93.2988 211.467 93.6326Z" fill="black"/>
<path d="M130.68 84.0958C130.418 85.5144 130.358 85.1806 131.872 90.7238C132.54 93.2033 132.993 95.3133 132.993 96.0047C132.993 96.6484 133.315 96.5292 133.422 95.8497C133.636 94.4311 133.195 91.7847 132.039 87.5171C131.062 83.8693 130.835 83.309 130.68 84.0958Z" fill="black"/>
<path d="M263.514 84.4533C263.216 85.252 263.263 86.2891 263.704 88.8402C264.467 93.1794 264.718 94.884 264.742 95.9569C264.777 97.0655 264.908 97.2324 265.159 96.5172C265.361 95.9331 265.35 93.2151 265.135 91.5581C264.742 88.5183 263.895 84.1314 263.693 84.1314C263.669 84.1314 263.585 84.2745 263.514 84.4533Z" fill="black"/>
<path d="M244.762 85.8841C244.524 86.2656 244.333 86.647 244.333 86.7543C244.333 86.8497 244.643 87.1477 245.013 87.3981C245.513 87.7557 245.728 87.8391 245.871 87.7438C246.133 87.5769 246.753 86.4206 246.67 86.2179C246.61 86.0629 245.43 85.2046 245.263 85.2046C245.227 85.2046 244.989 85.5146 244.762 85.8841Z" fill="black"/>
<path d="M91.3412 86.4324C90.9835 87.3145 90.9835 87.3264 91.508 87.8986C92.4736 88.9477 92.9385 90.4855 92.7121 91.8206C92.5452 92.7504 92.5452 92.7147 92.7597 92.7147C93.022 92.7147 93.4035 91.7729 93.5584 90.7358C93.8088 89.1623 93.2366 87.2549 92.271 86.4085C91.7465 85.9317 91.5557 85.9436 91.3412 86.4324Z" fill="black"/>
<path d="M240.161 87.0044C238.766 87.7315 236.501 88.9832 236.358 89.0905C236.287 89.1501 236.013 90.2588 236.06 90.3184C236.084 90.3422 236.859 89.925 237.801 89.4005C238.742 88.8759 240.03 88.1726 240.674 87.8269C241.842 87.207 242.068 86.9686 242.068 86.3845C242.068 86.2653 241.997 86.158 241.925 86.158C241.842 86.158 241.043 86.5395 240.161 87.0044Z" fill="black"/>
<path d="M109.461 87.3375C109.222 87.719 109.032 88.0885 109.032 88.1482C109.032 88.2197 109.354 88.4939 109.747 88.768C110.331 89.1853 110.498 89.2568 110.641 89.1376C110.82 88.9945 111.535 87.8024 111.535 87.6713C111.535 87.5402 110.236 86.6342 110.057 86.6342C109.962 86.6342 109.687 86.9441 109.461 87.3375Z" fill="black"/>
<path d="M111.797 90.2707L111.416 91.0456L110.736 90.6284C110.355 90.4019 109.973 90.2111 109.902 90.2111C109.735 90.2111 109.032 91.5224 109.032 91.8085C109.032 91.9039 109.389 92.1781 109.819 92.4165C110.713 92.9172 110.724 92.9172 111.189 91.7966L111.452 91.1767L111.762 91.3913C111.929 91.5105 112.298 91.7251 112.572 91.8681L113.073 92.1185L113.383 91.594C113.55 91.2959 113.717 90.8906 113.752 90.6641C113.812 90.2946 113.788 90.2469 113.168 89.8774C112.811 89.6747 112.441 89.4959 112.346 89.4959C112.25 89.4959 112.012 89.8416 111.797 90.2707Z" fill="black"/>
<path d="M156.417 90.8665C156.19 91.2361 156 91.6056 156 91.701C156 91.9275 157.287 92.8692 157.49 92.7858C157.693 92.7143 158.384 91.5341 158.384 91.2838C158.372 91.093 157.24 90.2109 156.989 90.2109C156.906 90.2109 156.655 90.5089 156.417 90.8665Z" fill="black"/>
<path d="M79.468 91.2841C79.2772 91.6775 79.1104 92.0709 79.1104 92.1663C79.1104 92.3451 80.3024 93.0723 80.6005 93.0723C80.815 93.0723 81.5541 91.606 81.4468 91.4153C81.3515 91.2603 80.1355 90.5689 79.9567 90.5689C79.8852 90.5689 79.6706 90.8908 79.468 91.2841Z" fill="black"/>
<path d="M243.868 90.7238C243.713 90.9145 243.38 91.8324 243.38 92.0708C243.38 92.1543 243.535 92.4046 243.737 92.6311L244.083 93.0364L243.833 93.5371C243.201 94.8246 241.007 95.8855 237.717 96.4816C236.799 96.6484 235.917 96.6961 233.843 96.7081C231.387 96.7081 231.077 96.6842 230.207 96.4339C228.455 95.9332 227.298 95.206 226.631 94.2047C226.44 93.9186 226.226 93.6921 226.154 93.7159C225.999 93.7636 225.63 94.9318 225.63 95.4087C225.618 95.659 225.749 95.9213 226.011 96.2431C226.238 96.4935 226.476 96.8869 226.547 97.1134C226.667 97.4591 226.655 97.5664 226.452 97.9121C226.083 98.4962 224.402 100.022 223.555 100.547C222.828 100.988 222.792 101 221.624 101C220.969 101 220.241 100.976 220.015 100.94C219.657 100.892 219.598 100.916 219.562 101.143C219.526 101.357 219.669 101.476 220.432 101.846C221.6 102.43 222.864 102.537 223.746 102.156C224.974 101.608 226.357 99.9386 227.489 97.626C227.489 97.6021 228.002 97.769 228.622 97.9955C230.326 98.6392 231.566 98.8419 233.724 98.8419C236.597 98.83 239.708 98.1624 242.426 96.9584C242.581 96.8988 242.605 97.0538 242.569 98.1266C242.521 99.5333 242.641 100.094 243.106 100.785C243.523 101.393 244.429 102.156 244.679 102.108C244.81 102.084 244.917 101.822 245.025 101.298C245.168 100.582 245.156 100.427 244.882 99.1876C244.691 98.3531 244.608 97.7094 244.655 97.4591C244.834 96.5173 245.537 95.5994 246.694 94.8126C247.707 94.1093 248.243 94.0139 249.042 94.3716C249.352 94.5027 249.757 94.6219 249.936 94.6219C250.604 94.6219 250.89 93.8113 250.389 93.3464C249.924 92.9172 248.601 92.1185 248.363 92.1185C247.922 92.1185 247.159 92.6311 246.145 93.5848C244.548 95.1226 244 96.112 243.678 98.0551L243.535 98.973L243.439 98.377C243.296 97.5187 243.547 96.5412 244.226 95.2179C244.929 93.859 245.132 92.9291 244.941 91.9755C244.715 90.8788 244.226 90.3066 243.868 90.7238Z" fill="black"/>
<path d="M76.9766 92.0824L76.5833 92.8811L76.8574 93.1076C77.0124 93.2387 77.3939 93.4652 77.7038 93.6201L78.276 93.9062L78.6336 93.191C78.8244 92.7976 78.9913 92.3804 78.9913 92.2731C78.9913 92.0466 77.8588 91.2837 77.5369 91.2837C77.4416 91.2837 77.1912 91.6413 76.9766 92.0824Z" fill="black"/>
<path d="M164.487 91.6417C164.011 92.0828 163.403 93.5252 163.212 94.6457C163.128 95.206 162.532 95.7186 161.662 95.9809C160.923 96.2193 160.613 96.1597 160.065 95.6948C159.85 95.504 159.624 95.3729 159.564 95.3968C159.516 95.4325 159.35 95.8378 159.195 96.3027C158.944 97.0895 158.944 97.1491 159.135 97.2564C159.528 97.4829 160.089 98.7942 160.148 99.6525C160.196 100.38 160.172 100.511 159.898 100.928C159.54 101.476 158.408 102.251 157.454 102.621C156.632 102.931 155.141 103.05 154.522 102.847C153.985 102.68 153.425 102.215 153.198 101.762C152.972 101.333 152.972 100.213 153.198 99.3902C153.508 98.2935 153.556 97.8048 153.365 97.8644C152.9 98.0193 152.209 99.8909 152.102 101.309C152.006 102.537 152.197 103.3 152.793 103.956C153.377 104.635 154.009 104.886 155.285 104.957C157.013 105.065 158.503 104.528 159.636 103.396C159.969 103.062 160.363 102.537 160.506 102.239C160.852 101.536 161.054 99.8551 160.959 98.6035L160.887 97.626L161.328 97.5425C162.187 97.3875 163.152 96.6723 163.605 95.8736C163.713 95.6709 163.748 95.6709 164.428 95.8497C165.536 96.1716 166.049 96.1239 166.419 95.6829C166.609 95.4564 166.74 95.1583 166.752 94.8842C166.824 93.2272 166.454 92.1901 165.608 91.7013C164.988 91.3437 164.821 91.3317 164.487 91.6417ZM165.513 93.847C166.383 94.5981 166.061 94.8246 164.893 94.2643C164.273 93.9663 164.106 93.8351 164.106 93.6206C164.106 92.953 164.547 93.0126 165.513 93.847Z" fill="black"/>
<path d="M88.2895 92.1062C88.2299 92.2373 88.1703 92.6188 88.1703 92.9645C88.1703 93.5247 88.218 93.632 88.6471 94.0969C88.9928 94.4665 89.124 94.7168 89.124 94.9791C89.124 95.3129 89.0644 95.3844 88.4445 95.6586C86.9901 96.2904 83.1278 97.0891 79.2297 97.554C78.3118 97.6613 76.1183 97.7686 74.1037 97.8043C71.207 97.8639 70.301 97.8401 68.9897 97.6613C66.2121 97.3156 64.3525 96.6122 63.518 95.6109C62.4332 94.3115 62.3259 95.3248 63.3392 97.2679C63.9591 98.448 64.5671 98.9606 65.6399 99.1991C67.5353 99.6401 68.8586 99.7713 71.8507 99.8309C77.4773 99.9501 83.5331 99.2348 87.2405 97.9951C89.5531 97.2321 90.0657 96.6838 90.0776 95.0268C90.0776 93.8228 89.8035 93.0002 89.1836 92.3923C88.6233 91.8201 88.4683 91.7724 88.2895 92.1062Z" fill="black"/>
<path d="M204.172 94.0611C203.91 94.6095 203.838 95.444 204.041 95.8135C204.208 96.1234 204.72 96.2188 205.066 95.9923C205.436 95.7539 205.424 95.885 205.018 96.5407C204.22 97.7924 202.694 98.5076 201.573 98.15C201.073 97.995 201.275 98.3169 201.824 98.5672C202.622 98.9129 203.326 98.9725 203.838 98.7341C204.768 98.293 205.579 96.9341 205.674 95.6347C205.781 94.4307 205.388 93.5485 204.744 93.5485C204.482 93.5485 204.375 93.6439 204.172 94.0611Z" fill="black"/>
<path d="M166.109 100.498C163.117 102.442 163.2 102.382 163.105 103.026C163.057 103.336 163.033 103.61 163.069 103.634C163.141 103.705 168.076 100.379 168.171 100.189C168.219 100.117 168.29 99.8666 168.338 99.6521C168.41 99.3302 168.386 99.2706 168.195 99.2706C168.076 99.2825 167.134 99.8309 166.109 100.498Z" fill="black"/>
<path d="M196.65 101.416C196.459 101.809 196.292 102.203 196.292 102.298C196.292 102.465 197.568 103.323 197.806 103.323C197.913 103.323 198.676 101.821 198.676 101.63C198.676 101.547 197.258 100.701 197.115 100.701C197.055 100.701 196.853 101.023 196.65 101.416Z" fill="black"/>
<path d="M80.064 101.941C76.7381 103.539 76.75 103.527 76.5473 104.206C76.452 104.528 76.3804 104.802 76.4043 104.826C76.4162 104.838 77.7275 104.206 79.313 103.407C82.2216 101.941 82.4481 101.786 82.4481 101.178C82.4481 101.047 82.3766 100.94 82.2932 100.94C82.2097 100.94 81.2084 101.393 80.064 101.941Z" fill="black"/>
<path d="M194.528 101.56C194.361 101.774 193.789 102.942 193.789 103.073C193.789 103.217 195.315 104.075 195.434 103.991C195.625 103.884 196.209 102.501 196.137 102.334C196.078 102.179 194.886 101.416 194.719 101.416C194.683 101.416 194.599 101.488 194.528 101.56Z" fill="black"/>
<path d="M198.855 105.66C197.008 106.697 195.148 107.83 194.993 108.008C194.921 108.104 194.826 108.426 194.79 108.736L194.707 109.296L196.125 108.414C196.9 107.925 198.128 107.198 198.831 106.781C200.107 106.042 200.345 105.791 200.345 105.219C200.345 105.1 200.274 104.992 200.19 104.992C200.119 104.992 199.511 105.29 198.855 105.66Z" fill="black"/>
<path d="M143.602 108.223C143.042 108.605 142.1 109.284 141.492 109.725C140.419 110.512 140.395 110.536 140.324 111.108C140.276 111.418 140.264 111.716 140.3 111.752C140.336 111.788 140.98 111.358 141.719 110.81C142.458 110.262 143.435 109.546 143.876 109.225C144.329 108.915 144.747 108.521 144.806 108.366C144.961 107.949 144.937 107.496 144.77 107.508C144.687 107.508 144.162 107.83 143.602 108.223Z" fill="black"/>
</svg>
